<svg width="1440" height="412" viewBox="0 0 1440 412" fill="none" xmlns="http://www.w3.org/2000/svg">
<g clip-path="url(#clip0_1307_34125)">
<rect width="1440" height="412" fill="url(#paint0_linear_1307_34125)"/>
<g opacity="0.09" clip-path="url(#clip1_1307_34125)">
<path d="M137.188 200.904C123.606 215.496 114.298 231.234 99.987 239.047C57.0535 262.487 12.8532 283.055 -31.6954 303.024C-38.0595 305.876 -48.0338 303.204 -54.9051 300.35C-87.2349 286.116 -109.275 261.979 -118.872 227.502C-128.375 194.57 -136.199 161.075 -146.904 128.833C-162.836 79.9984 -195.989 65.0378 -242.596 86.987C-264.822 97.7436 -284.642 114.716 -304.082 130.271C-330.044 151.168 -353.314 175.319 -380.1 195.489C-401.819 211.952 -419.837 205.099 -430.415 179.981C-444.223 147.921 -448.279 117.461 -417.821 91.1851C-376.725 55.6049 -337.023 17.6256 -295.231 -16.755C-278.324 -30.4563 -257.078 -39.4502 -236.814 -46.6813C-189.701 -62.9238 -155.724 -47.2362 -139.159 -0.763893C-128.423 29.4604 -121.897 62.1013 -115.118 93.7973C-93.4184 193.302 -53.0455 211.716 34.8793 162.855C54.0031 152.28 73.9501 142.432 93.2005 131.384C106.309 124.262 116.03 127.879 120.115 141.128C127.083 160.721 131.55 180.149 137.188 200.904Z" fill="white"/>
<path d="M254.393 384.745C243.529 354.993 231.083 327.349 224.019 298.616C213.819 256.888 208.527 213.942 199.531 171.523C193.829 147.206 186.702 122.507 175.966 99.8795C157.059 58.3502 128.37 47.6247 85.8798 65.6124C68.7188 72.662 53.0464 83.6556 36.804 92.9771C17.5536 104.025 -1.22179 115.2 -20.1238 126.847C-35.2897 135.951 -45.2325 131.261 -49.5087 114.922C-54.4501 95.3666 -60.2149 75.0839 -60.5018 55.2562C-60.4396 43.6249 -52.6521 25.9607 -42.6785 21.0366C9.97525 -6.38227 63.6741 -32.0018 117.468 -56.0766C137.162 -64.9798 155.971 -55.382 166.675 -38.3338C185.518 -7.96329 208.54 22.0078 218.391 55.5397C245.092 147.775 266.411 241.1 287.603 334.898C294.287 365.049 289.221 368.756 254.393 384.745Z" fill="white"/>
</g>
<g opacity="0.09" clip-path="url(#clip2_1307_34125)">
<path d="M1243.91 87.2062C1267.62 86.3563 1288.69 80.9453 1307.31 86.4133C1363.17 102.817 1417.67 122.704 1471.96 143.389C1479.72 146.343 1485.86 156.986 1489.24 165.17C1504.47 204.353 1502.71 243.212 1481.77 280.301C1462.05 316.01 1440.45 350.781 1422.33 386.921C1394.64 441.423 1409.95 481.911 1467.64 502.66C1495.39 512.313 1526.36 514.709 1555.8 517.978C1595.24 522.24 1635.14 521.499 1674.66 527.066C1706.79 531.489 1716.18 552.418 1703.95 582.456C1688.59 621.055 1666.37 650.101 1618.63 646.582C1554.1 641.94 1488.73 640.49 1424.63 634.253C1398.87 631.556 1373.43 621.246 1350.29 610.279C1296.98 584.3 1281.59 542.507 1306.75 489.461C1323.15 454.992 1345.13 422.033 1366.1 389.655C1431.57 287.661 1413.09 238.191 1297.99 205.318C1272.99 198.125 1247.92 189.626 1222.42 182.724C1205.4 177.687 1200.26 166.462 1207.97 151.875C1218.6 129.524 1231.19 109.416 1243.91 87.2062Z" fill="white"/>
<path d="M1299.98 -166.127C1284.09 -131.949 1271.3 -98.2123 1253.07 -68.0884C1226.53 -24.3904 1194.85 16.2019 1166.72 59.4684C1151.06 84.7298 1136.27 111.511 1126.26 139.587C1107.23 190.445 1122.34 223.612 1173.24 244.232C1193.61 252.741 1216.05 256.678 1237.56 262.502C1263.06 269.405 1288.26 275.8 1313.97 281.905C1334.39 287.007 1338.81 299.32 1328.66 316.668C1316.36 337.283 1304.15 359.202 1287.7 376.128C1277.86 385.864 1256.45 394.175 1243.91 389.926C1176.53 368.691 1109.78 345.062 1044.25 320.053C1020.19 310.972 1012.44 287.067 1017.77 263.714C1027.48 222.3 1033.32 177.706 1053.25 141.199C1108.4 41.1126 1168.99 -55.3614 1230.09 -152.126C1249.84 -183.124 1257.22 -181.98 1299.98 -166.127Z" fill="white"/>
</g>
</g>
<defs>
<linearGradient id="paint0_linear_1307_34125" x1="78.5" y1="311.576" x2="1473.53" y2="299.807" gradientUnits="userSpaceOnUse">
<stop stop-color="#156FB7"/>
<stop offset="0.31" stop-color="#165C94"/>
<stop offset="1" stop-color="#003F83"/>
</linearGradient>
<clipPath id="clip0_1307_34125">
<rect width="1440" height="412" fill="white"/>
</clipPath>
<clipPath id="clip1_1307_34125">
<rect width="764.134" height="398.678" fill="white" transform="translate(-354.395 -191.121) rotate(15)"/>
</clipPath>
<clipPath id="clip2_1307_34125">
<rect width="909.377" height="474.457" fill="white" transform="translate(1327.69 830.772) rotate(-120)"/>
</clipPath>
</defs>
</svg>
