<svg width="1440" height="80" viewBox="0 0 1440 80" fill="none" xmlns="http://www.w3.org/2000/svg">
<g clip-path="url(#clip0_1304_34128)">
<rect width="1440" height="80" fill="url(#paint0_linear_1304_34128)"/>
<g opacity="0.09" clip-path="url(#clip1_1304_34128)">
<path d="M1225.62 97.9209C1224.08 88.8103 1220.91 80.95 1222.07 73.4816C1225.54 51.0763 1230.43 29.0142 1235.64 6.99283C1236.38 3.84694 1240.17 0.929591 1243.16 -0.794705C1257.51 -8.68083 1272.6 -9.98929 1288 -3.80496C1302.79 1.97904 1317.32 8.53929 1332.21 13.6859C1354.67 21.5857 1369.52 13.6015 1374.57 -9.73537C1376.88 -20.9462 1376.22 -33.0229 1375.97 -44.5604C1375.6 -60.0037 1373.27 -75.3732 1373.4 -90.9145C1373.46 -103.547 1381.06 -108.246 1393.28 -105.06C1408.97 -101.106 1421.32 -94.0149 1422.41 -75.4013C1423.92 -50.251 1426.71 -24.9374 1427.58 0.131325C1427.86 10.2144 1425.18 20.5673 1422.13 30.0622C1414.83 51.9775 1399.48 60.0598 1377.71 53.0588C1363.57 48.4922 1349.72 41.695 1336.14 35.2572C1293.41 15.2005 1275.25 24.8681 1268.46 70.9941C1266.96 81.0119 1264.96 91.1278 1263.6 101.325C1262.53 108.156 1258.46 110.714 1252.43 108.484C1243.26 105.527 1234.85 101.695 1225.62 97.9209Z" fill="white"/>
<path d="M1124.94 89.2424C1138.95 93.6292 1152.63 96.8395 1165.19 102.338C1183.42 110.344 1200.72 120.499 1218.86 129.143C1229.42 133.898 1240.52 138.236 1251.87 140.662C1272.48 145.407 1284.51 137.873 1289.87 117.167C1292.11 108.865 1292.48 99.9995 1293.63 91.3953C1294.99 81.1978 1296.17 71.1391 1297.21 60.9007C1298.13 52.7541 1302.66 50.4169 1309.88 53.4478C1318.47 57.1405 1327.55 60.7351 1334.93 66.2173C1339.19 69.5181 1343.5 77.362 1342.5 82.4199C1337.75 109.524 1332.05 136.505 1325.75 163.086C1323.47 172.842 1314.64 177.059 1305.35 176.193C1288.86 174.569 1271.35 174.594 1256.23 168.77C1214.76 152.602 1174.41 134.147 1133.92 115.512C1120.94 109.474 1121.01 106.565 1124.94 89.2424Z" fill="white"/>
</g>
<g opacity="0.09" clip-path="url(#clip2_1304_34128)">
<path d="M1.48422 3.31544C7.07844 -0.187419 11.4037 -4.4229 16.6501 -5.69531C32.3894 -9.51254 48.2878 -12.3028 64.2461 -14.8715C66.5259 -15.2384 69.4868 -13.5289 71.4397 -12.0274C80.5595 -4.70487 85.5398 4.90321 85.6547 16.7518C85.8716 28.0981 85.5036 39.4808 86.1644 50.7094C87.0747 67.6926 96.3954 75.3182 113.182 72.2925C121.212 70.7571 129.005 67.0275 136.555 63.7188C146.649 59.2604 156.16 53.5308 166.455 49.3754C174.812 45.9715 179.987 49.7073 181.218 58.6466C182.886 70.0831 181.573 80.1721 169.581 85.9656C153.389 93.8229 137.437 102.567 121.125 109.981C114.544 112.914 106.979 113.97 99.8782 114.546C83.4188 115.703 73.897 107.774 72.5819 91.4925C71.7381 80.9063 72.4481 69.9081 72.9962 59.1904C74.5834 25.5083 63.2497 16.1594 30.9432 24.251C23.921 25.9943 16.6978 27.4345 9.59455 29.3181C4.79207 30.4728 1.99316 28.4828 1.82182 23.8954C1.27233 17.0325 1.50878 10.4363 1.48422 3.31544Z" fill="white"/>
<path d="M-20.2454 -65.5228C-19.3206 -55.0769 -17.709 -45.1695 -17.9122 -35.3748C-18.226 -21.1555 -20.2137 -6.96757 -20.9715 7.36942C-21.2318 15.635 -21.0692 24.1447 -19.5746 32.3013C-17.0867 47.2031 -8.83096 53.0917 6.29952 50.9802C12.3919 50.1962 18.3462 48.0233 24.3395 46.4341C31.4428 44.5505 38.405 42.5855 45.4482 40.4803C51.0785 38.8685 53.8565 41.2204 53.8239 46.8122C53.7285 53.4898 53.834 60.4704 52.2267 66.8362C51.2101 70.5507 47.2058 75.5325 43.5942 76.2527C24.4052 80.5095 5.03626 84.1013 -14.2308 87.1909C-21.292 88.3506 -26.485 83.6693 -28.4473 77.2998C-31.8709 65.9723 -36.6654 54.4143 -36.9423 42.8462C-37.5777 11.0602 -36.3983 -20.6132 -35.138 -52.4269C-34.6918 -62.6423 -32.7541 -63.3937 -20.2454 -65.5228Z" fill="white"/>
</g>
</g>
<defs>
<linearGradient id="paint0_linear_1304_34128" x1="78.5" y1="60.5002" x2="1471" y2="0.000263343" gradientUnits="userSpaceOnUse">
<stop stop-color="#074A92"/>
<stop offset="0.46" stop-color="#165C94"/>
<stop offset="1" stop-color="#3484C5"/>
</linearGradient>
<clipPath id="clip0_1304_34128">
<rect width="1440" height="80" fill="white"/>
</clipPath>
<clipPath id="clip1_1304_34128">
<rect width="354.186" height="184.793" fill="white" transform="translate(1508.42 27.4983) rotate(142.445)"/>
</clipPath>
<clipPath id="clip2_1304_34128">
<rect width="253" height="132" fill="white" transform="translate(125.104 170.815) rotate(-150)"/>
</clipPath>
</defs>
</svg>
