<svg width="24" height="26" viewBox="0 0 24 26" fill="none" xmlns="http://www.w3.org/2000/svg">
<path d="M11.3599 25.1914C11.7274 25.3877 12.1887 25.3864 12.5562 25.1902C22.5712 19.8102 23.2824 9.29891 23.2737 6.31016C23.2727 6.06995 23.2018 5.83523 23.0694 5.63474C22.9371 5.43426 22.7492 5.27672 22.5287 5.18141L12.4662 0.723913C12.3061 0.653325 12.1329 0.616973 11.9579 0.617188C11.7829 0.617404 11.6099 0.654181 11.4499 0.725163L1.45744 5.18266C1.24019 5.27802 1.05493 5.43382 0.923728 5.63151C0.792529 5.82919 0.720924 6.06043 0.717444 6.29766C0.674944 9.27141 1.27369 19.8052 11.3599 25.1914ZM7.84244 10.8652L10.7087 13.7314L16.0749 8.36516L17.8424 10.1327L10.7087 17.2664L6.07494 12.6327L7.84244 10.8652Z" fill="#23A65F"/>
</svg>
