<svg width="23" height="26" viewBox="0 0 23 26" fill="none" xmlns="http://www.w3.org/2000/svg">
<path fill-rule="evenodd" clip-rule="evenodd" d="M22.1199 5.63384L12.1536 0.633843C11.9803 0.54627 11.7888 0.500437 11.5946 0.500003C11.4003 0.499569 11.2087 0.544546 11.0349 0.631344L1.00114 5.63134C0.629891 5.81884 0.37364 6.17759 0.321141 6.59009C0.304891 6.71134 -1.11011 18.7663 10.9974 25.3501C11.1835 25.4516 11.3925 25.5039 11.6045 25.5019C11.8165 25.4999 12.0244 25.4438 12.2086 25.3388C23.8424 18.7651 22.8511 7.12259 22.8036 6.63009C22.7832 6.41978 22.7097 6.21809 22.5901 6.04386C22.4706 5.86964 22.3088 5.72857 22.1199 5.63384ZM10.2499 5.50122L12.7499 5.50122L12.7499 14.2512H10.2499L10.2499 5.50122ZM12.7499 16.7512H10.2499V19.2512H12.7499V16.7512Z" fill="#FF6711"/>
</svg>
