<svg width="24" height="26" viewBox="0 0 24 26" fill="none" xmlns="http://www.w3.org/2000/svg">
<path d="M11.1151 25.2136C11.4826 25.4099 11.9438 25.4099 12.3113 25.2124C22.3263 19.8324 23.0376 9.3211 23.0288 6.33235C23.0279 6.09214 22.9569 5.85742 22.8246 5.65693C22.6922 5.45645 22.5043 5.29891 22.2838 5.2036L12.2201 0.74735C12.0599 0.676762 11.8868 0.640411 11.7118 0.640626C11.5368 0.640841 11.3638 0.677618 11.2038 0.7486L1.21257 5.2061C0.995322 5.30111 0.810019 5.45666 0.678797 5.65416C0.547575 5.85166 0.475982 6.08276 0.472571 6.31985C0.430071 9.2936 1.02882 19.8274 11.1151 25.2136ZM7.11632 10.1336L8.88382 8.3661L11.7501 11.2324L14.6163 8.3661L16.3838 10.1336L13.5176 12.9999L16.3838 15.8661L14.6163 17.6336L11.7501 14.7674L8.88382 17.6336L7.11632 15.8661L9.98257 12.9999L7.11632 10.1336Z" fill="#B11016"/>
</svg>
