<svg width="20" height="20" viewBox="0 0 20 20" fill="none" xmlns="http://www.w3.org/2000/svg">
<path d="M9.99992 4.16699C3.63908 4.16699 1.72742 9.68116 1.70992 9.73699L1.62158 10.0003L1.70908 10.2637C1.72742 10.3195 3.63908 15.8337 9.99992 15.8337C16.3607 15.8337 18.2724 10.3195 18.2899 10.2637L18.3783 10.0003L18.2907 9.73699C18.2724 9.68116 16.3607 4.16699 9.99992 4.16699ZM9.99992 13.3337C8.16158 13.3337 6.66658 11.8387 6.66658 10.0003C6.66658 8.16199 8.16158 6.66699 9.99992 6.66699C11.8382 6.66699 13.3332 8.16199 13.3332 10.0003C13.3332 11.8387 11.8382 13.3337 9.99992 13.3337Z" fill="#767778"/>
<path d="M9.99992 8.33366C9.09658 8.33366 8.33325 9.09699 8.33325 10.0003C8.33325 10.9037 9.09658 11.667 9.99992 11.667C10.9032 11.667 11.6666 10.9037 11.6666 10.0003C11.6666 9.09699 10.9032 8.33366 9.99992 8.33366Z" fill="#767778"/>
</svg>
