<svg width="20" height="20" viewBox="0 0 20 20" fill="none" xmlns="http://www.w3.org/2000/svg">
<path d="M16.6668 10.0003C16.6668 9.08116 15.9193 8.33366 15.0002 8.33366H14.1668V5.83366C14.1668 3.53616 12.2977 1.66699 10.0002 1.66699C7.70266 1.66699 5.8335 3.53616 5.8335 5.83366V8.33366H5.00016C4.081 8.33366 3.3335 9.08116 3.3335 10.0003V16.667C3.3335 17.5862 4.081 18.3337 5.00016 18.3337H15.0002C15.9193 18.3337 16.6668 17.5862 16.6668 16.667V10.0003ZM7.50016 5.83366C7.50016 4.45533 8.62183 3.33366 10.0002 3.33366C11.3785 3.33366 12.5002 4.45533 12.5002 5.83366V8.33366H7.50016V5.83366Z" fill="#767778"/>
</svg>
