<svg width="23" height="26" viewBox="0 0 23 26" fill="none" xmlns="http://www.w3.org/2000/svg">
<path fill-rule="evenodd" clip-rule="evenodd" d="M21.8699 5.63384L11.9036 0.633843C11.7303 0.54627 11.5388 0.500437 11.3446 0.500003C11.1503 0.499569 10.9587 0.544546 10.7849 0.631344L0.751141 5.63134C0.379891 5.81884 0.12364 6.17759 0.0711405 6.59009C0.0548905 6.71134 -1.36011 18.7663 10.7474 25.3501C10.9335 25.4516 11.1425 25.5039 11.3545 25.5019C11.5665 25.4999 11.7744 25.4438 11.9586 25.3388C23.5924 18.7651 22.6011 7.12259 22.5536 6.63009C22.5332 6.41978 22.4597 6.21809 22.3401 6.04386C22.2206 5.86964 22.0588 5.72857 21.8699 5.63384ZM9.99988 5.50122L12.4999 5.50122L12.4999 14.2512H9.99988L9.99988 5.50122ZM12.4999 16.7512H9.99988V19.2512H12.4999V16.7512Z" fill="#E4B701"/>
</svg>
