<svg width="176" height="32" viewBox="0 0 176 32" fill="none" xmlns="http://www.w3.org/2000/svg">
<g clip-path="url(#clip0_1305_4958)">
<path d="M29.6002 15.9499C29.6002 14.5455 29.6002 13.2414 29.6002 11.837C29.7002 9.83073 30.8002 8.42635 32.6002 7.82447C34.3002 7.3229 36.0002 6.92164 37.7002 6.72102C40.0002 6.42008 42.4002 6.42008 44.7002 6.31976C45.3002 6.31976 46.1002 6.52039 46.5002 6.92164C47.0002 7.42321 47.5002 8.32603 47.5002 9.02823C47.5002 9.52979 46.8002 10.3323 46.2002 10.5329C44.1002 11.1348 41.9002 11.5361 39.7002 12.0376C37.8002 12.4389 35.9002 12.9405 34.0002 13.3417C32.6002 13.6426 32.0002 14.5455 32.0002 15.8495C32.1002 17.9561 32.4002 19.9624 32.7002 22.069C32.8002 22.6709 33.4002 23.3731 33.9002 23.5737C36.1002 24.2759 38.3002 24.9781 40.7002 24.4765C42.5002 24.1756 43.3002 22.4702 42.2002 20.9655C41.7002 20.163 40.7002 19.5611 39.7002 19.0596C38.8002 18.558 37.8002 18.4577 36.9002 17.9561C36.5002 17.7555 36.1002 17.0533 36.1002 16.6521C36.1002 16.2508 36.7002 15.7492 37.1002 15.6489C39.8002 14.9467 42.6002 14.8464 45.2002 15.8495C46.9002 16.5517 47.6002 18.0564 47.5002 19.7618C47.4002 22.1693 47.2002 24.5768 46.9002 26.884C46.7002 28.6897 45.6002 29.6928 43.7002 30.0941C41.0002 30.5956 38.3002 30.5956 35.6002 29.8934C32.7002 29.1912 30.8002 27.2853 30.3002 24.3762C29.8002 21.5674 29.6002 18.7586 29.2002 15.9499C29.4002 15.9499 29.5002 15.9499 29.6002 15.9499Z" fill="white"/>
<path d="M0.700195 25.9813C1.7002 26.0816 2.4002 26.0816 3.1002 26.182C6.6002 26.4829 9.9002 25.881 13.0002 24.3763C13.9002 23.9751 14.6002 23.0722 15.4002 22.4704C14.7002 21.8685 14.0002 21.2666 13.2002 20.765C12.2002 20.1632 11.2002 19.6616 10.1002 19.16C7.9002 17.9563 6.2002 16.1506 5.1002 13.8434C4.0002 11.4359 4.2002 9.42961 6.1002 7.52365C9.7002 4.01268 14.0002 1.60516 18.7002 0.000141971C19.1002 -0.100172 19.8002 0.000141963 20.0002 0.301082C20.8002 1.50484 21.6002 2.70861 22.2002 4.01268C22.6002 4.81519 21.8002 5.21644 21.2002 5.41707C16.7002 7.02209 12.8002 9.52992 9.10019 12.5393C7.80019 13.6428 7.7002 14.1443 9.2002 15.1475C10.1002 15.7494 11.0002 16.1506 11.9002 16.6522C14.4002 17.9563 16.5002 19.5613 18.0002 21.8685C20.1002 25.0785 19.4002 27.787 15.9002 29.4923C12.1002 31.3983 8.0002 31.7995 3.8002 31.1976C3.6002 31.1976 3.3002 31.0973 3.1002 30.997C1.8002 29.7932 0.900195 28.1882 0.700195 25.9813Z" fill="white"/>
<path d="M53.6003 31.0972C53.1003 30.5956 52.6003 30.1943 52.3003 29.5925C50.6003 26.9843 50.1003 24.0752 50.3003 20.9655C50.6003 16.4514 52.0003 12.3385 54.6003 8.62694C54.8003 8.22569 55.1003 7.92475 55.4003 7.62381C57.8003 4.91534 61.4003 5.21628 63.0003 8.52663C63.9003 10.3323 64.4003 12.2382 64.8003 14.2445C65.8003 19.3605 66.7003 24.5768 67.6003 29.6928C67.7003 29.9937 67.4003 30.395 67.4003 30.7962C67.0003 30.5956 66.6003 30.4953 66.3003 30.1943C64.6003 28.0878 64.1003 25.5799 63.7003 23.0721C63.3003 20.3636 62.8003 17.6552 62.3003 14.9467C62.0003 13.442 61.3003 13.0407 60.2003 14.0439C59.0003 15.047 57.9003 16.1505 57.1003 17.4545C54.9003 21.2664 53.9003 25.3793 54.0003 29.7931C54.0003 30.1943 54.0003 30.5956 54.0003 30.9968C53.8003 30.9968 53.7003 31.0972 53.6003 31.0972Z" fill="white"/>
<path d="M69.7002 3.41066C70.8002 2.40752 71.9002 2.00627 73.1002 2.2069C75.7002 2.70846 78.2002 3.61128 80.4002 5.2163C83.6002 7.52351 84.3002 10.4326 82.5002 13.9436C81.0002 16.953 78.5002 19.1599 76.1002 21.3668C75.5002 21.9687 74.3002 21.9687 73.5002 22.2696C73.4002 22.1693 73.4002 21.9687 73.3002 21.8683C73.7002 21.4671 74.1002 20.9655 74.4002 20.5643C75.2002 19.5611 76.1002 18.6583 76.9002 17.6552C78.8002 15.047 78.9002 12.2382 77.3002 9.42947C75.8002 6.721 73.6002 4.81505 70.7002 3.91222C70.4002 3.7116 70.2002 3.61128 69.7002 3.41066Z" fill="white"/>
<path d="M22.9004 13.9436C23.1004 12.0376 23.5004 9.12853 23.9004 6.31975C24.1004 5.11599 24.7004 4.81505 25.7004 5.71787C27.3004 7.12226 28.2004 8.82759 27.6004 11.1348C25.9004 17.3542 26.1004 23.4734 28.3004 29.5925C28.5004 30.094 28.4004 30.7962 28.4004 31.3981C27.9004 31.0972 27.1004 30.8966 26.8004 30.395C26.2004 29.3919 25.7004 28.3887 25.3004 27.2853C23.7004 23.2727 23.0004 19.1599 22.9004 13.9436Z" fill="white"/>
<path d="M68.5 14.9467C68.9 12.0376 69.3 9.1285 69.7 6.31972C69.9 5.21627 70.4 5.01565 71.3 5.71784C73 7.02192 73.7 9.02819 73.2 11.2351C71.6 17.4545 71.8 23.5736 73.9 29.6928C74.1 30.1943 74 30.8965 74 31.4984C73.4 31.1975 72.6 30.8965 72.3 30.395C71.7 29.3918 71.2 28.1881 70.8 26.9843C69.4 23.0721 68.6 19.0595 68.5 14.9467Z" fill="white"/>
<path d="M60.0003 26.7837C58.9003 26.7837 56.8003 24.6771 56.8003 23.5737C56.8003 22.6709 58.5003 21.0659 59.5003 21.0659C60.3003 21.0659 62.6003 23.3731 62.6003 24.1756C62.6003 25.0784 61.0003 26.7837 60.0003 26.7837Z" fill="white"/>
<path d="M93.3004 31.6991C92.9004 31.6991 92.4005 31.6991 92.0005 31.6991C89.3005 31.5988 87.8005 30.395 87.1005 27.6865C86.9005 26.7837 87.0005 26.3825 88.1005 26.5831C92.0005 27.0847 95.7005 26.5831 99.2005 24.8778C100.1 24.4765 100.7 23.5737 101.5 22.9718C100.8 22.3699 100.1 21.6677 99.4004 21.1662C98.2004 20.3637 96.9005 19.7618 95.6005 19.0596C93.6005 17.8558 92.2005 16.1505 91.2005 14.0439C90.2005 11.837 90.5005 9.73043 92.2005 8.0251C95.8005 4.51413 100 2.20692 104.7 0.6019C104.9 0.501587 105.2 0.501587 105.4 0.501587C106.5 0.6019 108.6 4.11287 108.1 5.11601C107.9 5.41695 107.5 5.71789 107.1 5.8182C102.6 7.52353 98.7005 10.0314 95.0005 13.1411C94.0005 14.0439 93.9005 14.6458 95.0005 15.4483C95.9005 16.0502 96.8004 16.5517 97.8004 17.0533C100.1 18.2571 102.2 19.6615 103.7 21.8684C104.1 22.4702 104.5 23.1724 104.8 23.8746C105.8 26.2822 105.1 28.1881 102.8 29.4922C100.3 30.8966 97.0004 31.6991 93.3004 31.6991Z" fill="#F4CC22"/>
<path d="M157.4 31.1975C157 30.696 156.6 30.2947 156.2 29.7932C154.7 27.4859 154.4 24.7775 153.9 22.1693C153.5 19.9624 153.2 17.8559 152.8 15.649C152.5 13.743 151.5 13.3417 150 14.5455C149.1 15.348 148.2 16.2508 147.6 17.3543C145.4 20.9656 144.3 24.9781 144.3 29.2916C144.3 29.8935 144.3 30.395 144.3 30.9969C144.3 31.0972 144.2 31.0972 144 31.3982C143.6 30.9969 143.2 30.7963 143 30.395C141.7 28.3888 140.9 26.2822 140.9 23.8747C140.7 18.9593 141.9 14.4452 144.4 10.3323C144.9 9.52984 145.5 8.62701 146.2 7.92482C148.3 5.71792 151.1 5.81824 152.8 8.32607C153.6 9.63015 154.3 11.1349 154.6 12.6396C155.6 17.254 156.4 21.9687 157.3 26.6834C157.5 27.6866 157.7 28.6897 157.8 29.7932C157.9 30.1944 157.8 30.696 157.8 31.0972C157.7 31.0972 157.6 31.0972 157.4 31.1975Z" fill="#F4CC22"/>
<path d="M162.2 13.5424C162.2 19.0596 162.2 24.6772 162.2 30.395C161.7 30.0941 161.4 30.0941 161.3 29.8935C160.2 28.4891 159.2 26.884 159.2 24.9781C159.2 19.7618 159.2 14.6458 159.2 9.4295C159.2 8.62699 159.4 7.82449 159.7 7.12229C160.1 6.11916 160.7 6.11916 161.2 7.02198C161.8 7.9248 162.4 8.82762 162.7 9.73044C163.8 13.0408 164.9 16.4514 165.9 19.7618C166.2 20.6646 166.4 21.5674 166.7 22.3699C167.3 23.8746 168.9 24.1756 169.9 22.8715C170.5 22.1693 171 21.1662 171.2 20.2634C172.4 15.6489 172.5 10.9342 171.7 6.21947C171.6 5.51728 171.5 4.81508 171.4 4.2132C171.5 4.11289 171.7 4.11289 171.8 4.01257C172.2 4.41383 172.7 4.81508 173 5.31665C174.4 7.42323 174.6 9.93107 174.9 12.3386C175.5 16.5518 175.2 20.6646 174.4 24.7775C174.2 25.7806 173.9 26.6834 173.5 27.5862C172.3 29.9938 170 30.395 168.3 28.1881C167.1 26.5831 166 24.7775 165.3 22.8715C164.1 19.8621 163.3 16.6521 162.3 13.5424C162.3 13.6427 162.3 13.5424 162.2 13.5424Z" fill="#F4CC22"/>
<path d="M132.4 7.82441C131.2 8.22566 130 8.5266 128.9 9.02817C127.9 9.42942 127.4 9.2288 126.8 8.42629C124.8 5.5172 124.9 5.01563 128.3 3.91218C132.4 2.70842 136.5 2.90905 140.5 4.61438C142.1 5.31657 143.3 7.52347 143.1 9.12848C141 8.42629 138.9 7.52347 136.5 7.62378C136.8 10.0313 137.2 12.2382 137.5 14.5454C138.1 19.1598 138 23.8746 137.4 28.489C137.2 30.1943 135.8 31.0971 134.1 32C135.1 23.7743 134.7 15.8495 132.4 7.82441Z" fill="#F4CC22"/>
<path d="M106.4 13.4421C107.8 14.9468 108.7 16.6521 108.9 18.7587C109 20.0628 109.1 21.4672 109.3 22.7712C109.5 23.674 109.9 24.5769 111 24.6772C112.1 24.7775 112.5 23.975 113 23.1725C114.6 20.3637 115.5 17.254 116.2 14.044C116.3 13.5424 116.4 13.0408 116.6 12.3386C117 12.6396 117.3 12.8402 117.5 13.0408C119 14.9468 120 16.953 119.2 19.4609C118.3 22.2697 117.6 25.2791 116.4 27.9875C114.9 31.3982 112.7 31.5988 110.6 28.4891C107.7 24.2759 106 19.6615 106 14.5455C106 14.1443 106.1 13.743 106.1 13.4421C106.2 13.4421 106.3 13.4421 106.4 13.4421Z" fill="#F4CC22"/>
<path d="M121.3 4.01261C122.8 5.71794 123.9 7.7242 124 10.0314C124.2 13.743 124.2 17.5549 124.3 21.2665C124.3 23.4734 124.8 24.0753 127.1 24.3762C128.2 24.5769 129.4 24.4766 130.6 24.5769C131.1 24.6772 131.9 25.0784 132 25.4797C132.4 26.3825 132.5 27.486 132.5 28.4891C132.5 28.8904 131.9 29.3919 131.5 29.5925C129.2 30.4954 126.5 29.5925 125.1 27.3856C123 24.0753 122 20.3637 121.7 16.4515C121.4 12.5393 121.2 8.62703 121 4.7148C121 4.41386 121 4.21323 121.1 3.91229C121 4.11292 121.1 4.11292 121.3 4.01261Z" fill="#F4CC22"/>
<path d="M153.201 24.6772C152.401 25.4797 151.801 26.3825 151.001 26.7837C150.601 26.9844 149.801 26.6834 149.201 26.4828C148.901 26.3825 148.601 26.0816 148.401 25.7806C147.001 24.2759 147.101 23.1725 148.901 21.9687C149.701 21.4671 150.401 21.3668 151.001 22.069C151.701 22.8715 152.401 23.674 153.201 24.6772Z" fill="#F4CC22"/>
</g>
<defs>
<clipPath id="clip0_1305_4958">
<rect width="174.6" height="32" fill="white" transform="translate(0.700195)"/>
</clipPath>
</defs>
</svg>
