<svg width="73" height="59" viewBox="0 0 73 59" fill="none" xmlns="http://www.w3.org/2000/svg">
<path d="M65.4961 0.5H7.49609C3.49772 0.5 0.246094 3.75162 0.246094 7.75V51.25C0.246094 55.2484 3.49772 58.5 7.49609 58.5H65.4961C69.4945 58.5 72.7461 55.2484 72.7461 51.25V7.75C72.7461 3.75162 69.4945 0.5 65.4961 0.5ZM16.5586 11.375C18.0007 11.375 19.3838 11.9479 20.4035 12.9676C21.4232 13.9873 21.9961 15.3704 21.9961 16.8125C21.9961 18.2546 21.4232 19.6377 20.4035 20.6574C19.3838 21.6771 18.0007 22.25 16.5586 22.25C15.1165 22.25 13.7334 21.6771 12.7137 20.6574C11.694 19.6377 11.1211 18.2546 11.1211 16.8125C11.1211 15.3704 11.694 13.9873 12.7137 12.9676C13.7334 11.9479 15.1165 11.375 16.5586 11.375ZM36.4961 47.625H11.1211L25.6211 29.5L31.0586 36.75L41.9336 22.25L61.8711 47.625H36.4961Z" fill="#98A2B3"/>
</svg>
