<svg width="529" height="391" viewBox="0 0 529 391" fill="none" xmlns="http://www.w3.org/2000/svg">
<path d="M475.594 357.498H440.619V357.762H475.594V357.498Z" fill="#EBEBEB"/>
<path d="M350.259 360.359H341.082V360.623H350.259V360.359Z" fill="#EBEBEB"/>
<path d="M439.554 347.688H419.289V347.952H439.554V347.688Z" fill="#EBEBEB"/>
<path d="M101.507 349.462H55.8984V349.726H101.507V349.462Z" fill="#EBEBEB"/>
<path d="M117.589 349.462H110.904V349.726H117.589V349.462Z" fill="#EBEBEB"/>
<path d="M238.258 353.918H139.332V354.182H238.258V353.918Z" fill="#EBEBEB"/>
<path d="M252.758 298.679H48.8442C47.2468 298.679 45.7148 298.045 44.5843 296.917C43.4538 295.788 42.8173 294.257 42.8145 292.66V6.01908C42.8173 4.42172 43.4538 2.89074 44.5843 1.76222C45.7148 0.633703 47.2468 -0.00012452 48.8442 -0.00012207H252.758C254.355 -0.00012452 255.887 0.633703 257.018 1.76222C258.148 2.89074 258.785 4.42172 258.788 6.01908V292.702C258.774 294.292 258.132 295.812 257.003 296.931C255.874 298.051 254.348 298.679 252.758 298.679ZM48.8442 0.263878C47.3169 0.263875 45.8519 0.869889 44.7709 1.9489C43.6899 3.0279 43.0813 4.49173 43.0785 6.01908V292.702C43.0813 294.229 43.6899 295.693 44.7709 296.772C45.8519 297.851 47.3169 298.457 48.8442 298.457H252.758C254.285 298.457 255.75 297.851 256.831 296.772C257.912 295.693 258.521 294.229 258.524 292.702V6.01908C258.521 4.49173 257.912 3.0279 256.831 1.9489C255.75 0.869889 254.285 0.263875 252.758 0.263878H48.8442Z" fill="#EBEBEB"/>
<path d="M481.17 298.679H277.256C275.659 298.679 274.127 298.045 272.996 296.917C271.866 295.788 271.229 294.257 271.227 292.66V6.01908C271.229 4.42172 271.866 2.89074 272.996 1.76222C274.127 0.633703 275.659 -0.00012452 277.256 -0.00012207H481.17C482.767 -0.00012452 484.299 0.633703 485.43 1.76222C486.56 2.89074 487.197 4.42172 487.2 6.01908V292.702C487.186 294.292 486.544 295.812 485.415 296.931C484.286 298.051 482.76 298.679 481.17 298.679ZM277.256 0.263878C275.729 0.263875 274.264 0.869889 273.183 1.9489C272.102 3.0279 271.493 4.49173 271.491 6.01908V292.702C271.493 294.229 272.102 295.693 273.183 296.772C274.264 297.851 275.729 298.457 277.256 298.457H481.17C482.697 298.457 484.162 297.851 485.243 296.772C486.324 295.693 486.933 294.229 486.936 292.702V6.01908C486.933 4.49173 486.324 3.0279 485.243 1.9489C484.162 0.869889 482.697 0.263875 481.17 0.263878H277.256Z" fill="#EBEBEB"/>
<path d="M528.5 345.776H0.5V346.04H528.5V345.776Z" fill="#EBEBEB"/>
<path d="M305.726 190.239H237.91V318.057H305.726V190.239Z" fill="#EBEBEB"/>
<path d="M250.93 173.849V190.238H256.284H287.351H292.705V173.849H250.93Z" fill="#EBEBEB"/>
<path d="M250.93 194.579H242.25V203.259H250.93V194.579Z" fill="#FAFAFA"/>
<path d="M267.753 194.579H259.072V203.259H267.753V194.579Z" fill="#FAFAFA"/>
<path d="M284.563 194.579H275.883V203.259H284.563V194.579Z" fill="#FAFAFA"/>
<path d="M301.385 194.579H292.705V203.259H301.385V194.579Z" fill="#FAFAFA"/>
<path d="M250.93 210.355H242.25V219.035H250.93V210.355Z" fill="#FAFAFA"/>
<path d="M267.753 210.355H259.072V219.035H267.753V210.355Z" fill="#FAFAFA"/>
<path d="M284.563 210.355H275.883V219.035H284.563V210.355Z" fill="#FAFAFA"/>
<path d="M301.385 210.355H292.705V219.035H301.385V210.355Z" fill="#FAFAFA"/>
<path d="M250.93 226.121H242.25V234.801H250.93V226.121Z" fill="#FAFAFA"/>
<path d="M267.755 226.121H259.074V234.801H267.755V226.121Z" fill="#FAFAFA"/>
<path d="M284.563 226.121H275.883V234.801H284.563V226.121Z" fill="#FAFAFA"/>
<path d="M267.753 180.935H259.072V189.615H267.753V180.935Z" fill="#FAFAFA"/>
<path d="M284.563 180.935H275.883V189.615H284.563V180.935Z" fill="#FAFAFA"/>
<path d="M301.385 226.121H292.705V234.801H301.385V226.121Z" fill="#FAFAFA"/>
<path d="M250.93 241.898H242.25V250.578H250.93V241.898Z" fill="#FAFAFA"/>
<path d="M267.753 241.898H259.072V250.578H267.753V241.898Z" fill="#FAFAFA"/>
<path d="M284.563 241.898H275.883V250.578H284.563V241.898Z" fill="#FAFAFA"/>
<path d="M301.385 241.898H292.705V250.578H301.385V241.898Z" fill="#FAFAFA"/>
<path d="M250.93 257.675H242.25V266.355H250.93V257.675Z" fill="#FAFAFA"/>
<path d="M267.753 257.675H259.072V266.355H267.753V257.675Z" fill="#FAFAFA"/>
<path d="M284.563 257.675H275.883V266.355H284.563V257.675Z" fill="#FAFAFA"/>
<path d="M301.385 257.675H292.705V266.355H301.385V257.675Z" fill="#FAFAFA"/>
<path d="M250.93 273.451H242.25V282.131H250.93V273.451Z" fill="#FAFAFA"/>
<path d="M267.753 273.451H259.072V282.131H267.753V273.451Z" fill="#FAFAFA"/>
<path d="M284.563 273.451H275.883V282.131H284.563V273.451Z" fill="#FAFAFA"/>
<path d="M301.385 273.451H292.705V282.131H301.385V273.451Z" fill="#FAFAFA"/>
<path d="M250.93 289.228H242.25V297.908H250.93V289.228Z" fill="#FAFAFA"/>
<path d="M267.753 289.228H259.072V297.908H267.753V289.228Z" fill="#FAFAFA"/>
<path d="M284.563 289.228H275.883V297.908H284.563V289.228Z" fill="#FAFAFA"/>
<path d="M301.385 289.228H292.705V297.908H301.385V289.228Z" fill="#FAFAFA"/>
<path d="M236.506 190.322H307.121V188.548H236.506V190.322Z" fill="#F5F5F5"/>
<path d="M239.801 168.104H159.186V318.056H239.801V168.104Z" fill="#E6E6E6"/>
<path d="M174.666 148.621V168.104H181.023H217.962H224.319V148.621H174.666Z" fill="#E6E6E6"/>
<path d="M157.516 168.209H241.457V166.108H157.516V168.209Z" fill="#F5F5F5"/>
<path d="M172.565 148.621H226.432V146.52H172.565V148.621Z" fill="#F5F5F5"/>
<path d="M222.988 168.104H142.373V318.056H222.988V168.104Z" fill="#F0F0F0"/>
<path d="M157.854 148.621V168.105H164.211H201.15H207.507V148.621H157.854Z" fill="#F0F0F0"/>
<path d="M157.854 173.257H147.537V183.574H157.854V173.257Z" fill="white"/>
<path d="M177.844 173.257H167.527V183.574H177.844V173.257Z" fill="white"/>
<path d="M197.835 173.257H187.518V183.574H197.835V173.257Z" fill="white"/>
<path d="M217.825 173.257H207.508V183.574H217.825V173.257Z" fill="white"/>
<path d="M157.854 192.012H147.537V202.329H157.854V192.012Z" fill="white"/>
<path d="M177.844 192.012H167.527V202.329H177.844V192.012Z" fill="white"/>
<path d="M197.835 192.012H187.518V202.329H197.835V192.012Z" fill="white"/>
<path d="M217.825 192.012H207.508V202.329H217.825V192.012Z" fill="white"/>
<path d="M157.854 210.767H147.537V221.084H157.854V210.767Z" fill="white"/>
<path d="M177.844 210.767H167.527V221.084H177.844V210.767Z" fill="white"/>
<path d="M197.835 210.767H187.518V221.084H197.835V210.767Z" fill="white"/>
<path d="M177.844 157.048H167.527V167.365H177.844V157.048Z" fill="white"/>
<path d="M197.835 157.048H187.518V167.365H197.835V157.048Z" fill="white"/>
<path d="M217.825 210.767H207.508V221.084H217.825V210.767Z" fill="white"/>
<path d="M157.856 229.521H147.539V239.839H157.856V229.521Z" fill="white"/>
<path d="M177.844 229.521H167.527V239.839H177.844V229.521Z" fill="white"/>
<path d="M197.835 229.521H187.518V239.839H197.835V229.521Z" fill="white"/>
<path d="M217.825 229.521H207.508V239.839H217.825V229.521Z" fill="white"/>
<path d="M157.854 248.276H147.537V258.593H157.854V248.276Z" fill="white"/>
<path d="M177.844 248.276H167.527V258.593H177.844V248.276Z" fill="white"/>
<path d="M197.835 248.276H187.518V258.593H197.835V248.276Z" fill="white"/>
<path d="M217.825 248.276H207.508V258.593H217.825V248.276Z" fill="white"/>
<path d="M157.854 267.02H147.537V277.337H157.854V267.02Z" fill="white"/>
<path d="M177.844 267.02H167.527V277.337H177.844V267.02Z" fill="white"/>
<path d="M197.835 267.02H187.518V277.337H197.835V267.02Z" fill="white"/>
<path d="M217.825 267.02H207.508V277.337H217.825V267.02Z" fill="white"/>
<path d="M157.854 285.775H147.537V296.092H157.854V285.775Z" fill="white"/>
<path d="M177.844 285.775H167.527V296.092H177.844V285.775Z" fill="white"/>
<path d="M197.835 285.775H187.518V296.092H197.835V285.775Z" fill="white"/>
<path d="M217.825 285.775H207.508V296.092H217.825V285.775Z" fill="white"/>
<path d="M140.715 168.209H224.656V166.108H140.715V168.209Z" fill="#F5F5F5"/>
<path d="M155.753 148.621H209.619V146.52H155.753V148.621Z" fill="#F5F5F5"/>
<path d="M101.803 236.026H56.6797V317.454H128.688V236.026V204.589L101.803 236.026Z" fill="#F5F5F5"/>
<path d="M142.13 204.589H128.688V317.454H142.13V204.589Z" fill="#E6E6E6"/>
<path d="M70.7555 250.389H60.0371V261.107H70.7555V250.389Z" fill="#E0E0E0"/>
<path opacity="0.3" d="M70.7556 250.389H61.2305V261.107H70.7556V250.389Z" fill="white"/>
<path d="M70.7555 268.425H60.0371V279.143H70.7555V268.425Z" fill="#E0E0E0"/>
<path opacity="0.3" d="M70.7556 268.425H61.2305V279.143H70.7556V268.425Z" fill="white"/>
<path d="M70.7555 286.451H60.0371V297.169H70.7555V286.451Z" fill="#E0E0E0"/>
<path opacity="0.3" d="M70.7556 286.451H61.2305V297.169H70.7556V286.451Z" fill="white"/>
<path opacity="0.2" d="M71.9489 286.451H61.2305V297.169H71.9489V286.451Z" fill="white"/>
<path d="M88.8239 250.389H78.1055V261.107H88.8239V250.389Z" fill="#E0E0E0"/>
<path opacity="0.3" d="M88.824 250.389H79.2988V261.107H88.824V250.389Z" fill="white"/>
<path d="M88.8239 268.425H78.1055V279.143H88.8239V268.425Z" fill="#E0E0E0"/>
<path opacity="0.3" d="M88.824 268.425H79.2988V279.143H88.824V268.425Z" fill="white"/>
<path d="M88.8239 286.451H78.1055V297.169H88.8239V286.451Z" fill="#E0E0E0"/>
<path opacity="0.3" d="M88.824 286.451H79.2988V297.169H88.824V286.451Z" fill="white"/>
<path opacity="0.2" d="M90.0172 286.451H79.2988V297.169H90.0172V286.451Z" fill="white"/>
<path d="M106.892 250.389H96.1738V261.107H106.892V250.389Z" fill="#E0E0E0"/>
<path opacity="0.3" d="M106.892 250.389H97.3672V261.107H106.892V250.389Z" fill="white"/>
<path d="M106.892 268.425H96.1738V279.143H106.892V268.425Z" fill="#E0E0E0"/>
<path opacity="0.3" d="M106.892 268.425H97.3672V279.143H106.892V268.425Z" fill="white"/>
<path d="M106.892 286.451H96.1738V297.169H106.892V286.451Z" fill="#E0E0E0"/>
<path opacity="0.3" d="M106.892 286.451H97.3672V297.169H106.892V286.451Z" fill="white"/>
<path opacity="0.2" d="M108.086 286.451H97.3672V297.169H108.086V286.451Z" fill="white"/>
<path d="M124.949 250.389H114.23V261.107H124.949V250.389Z" fill="#E0E0E0"/>
<path opacity="0.3" d="M124.949 250.389H115.424V261.107H124.949V250.389Z" fill="white"/>
<path d="M124.949 268.425H114.23V279.143H124.949V268.425Z" fill="#E0E0E0"/>
<path opacity="0.3" d="M124.949 268.425H115.424V279.143H124.949V268.425Z" fill="white"/>
<path d="M124.949 286.451H114.23V297.169H124.949V286.451Z" fill="#E0E0E0"/>
<path opacity="0.3" d="M124.949 286.451H115.424V297.169H124.949V286.451Z" fill="white"/>
<path opacity="0.2" d="M126.154 286.451H115.436V297.169H126.154V286.451Z" fill="white"/>
<path d="M363.637 59.8119L391.758 59.4951C392.756 59.4821 393.736 59.7611 394.577 60.2976C403.469 68.7456 413.712 63.8669 418.264 60.9101C419.996 59.7763 422.012 59.154 424.082 59.1149L455.414 58.7559C467.177 58.6186 469.828 42.1239 458.677 38.3962L458.254 38.2061C470.419 27.8362 443.217 6.52611 414.282 36.7805C416.458 26.7907 390.47 30.6874 382.666 44.3731C379.73 35.5239 355.094 51.3216 363.637 59.8119Z" fill="#F0F0F0"/>
<path d="M202.936 101.386H249.633C255.61 101.386 257.025 93.0124 251.407 91.0482L251.185 90.9743C257.437 85.7682 243.73 74.7858 228.83 89.9922C229.991 84.9234 216.749 86.7503 212.704 93.6671C211.268 89.1263 198.639 97.0146 202.936 101.386Z" fill="#F0F0F0"/>
<path d="M72.2139 61.2799H151.541C161.699 61.2799 164.149 47.0556 154.55 43.7081L154.181 43.5919C164.804 34.7426 141.509 16.1359 116.165 41.9129C118.139 33.3065 95.6465 36.4217 88.772 48.1644C86.3643 40.4556 64.9169 53.8457 72.2139 61.2799Z" fill="#F0F0F0"/>
<path d="M290.679 222.393H223.422V325.744H290.679V222.393Z" fill="#407BFF"/>
<path opacity="0.6" d="M279.327 222.383H223.422V325.744H279.327V222.383Z" fill="white"/>
<path opacity="0.3" d="M290.689 222.383H279.326V325.744H290.689V222.383Z" fill="white"/>
<path d="M240.423 227.642H228.227V239.839H240.423V227.642Z" fill="#407BFF"/>
<path d="M257.466 227.643H245.27V239.839H257.466V227.643Z" fill="#407BFF"/>
<path d="M274.521 227.642H262.324V239.839H274.521V227.642Z" fill="#407BFF"/>
<path d="M240.423 243.535H228.227V255.732H240.423V243.535Z" fill="#407BFF"/>
<path d="M257.466 243.535H245.27V255.732H257.466V243.535Z" fill="#407BFF"/>
<path d="M274.521 243.535H262.324V255.732H274.521V243.535Z" fill="#407BFF"/>
<path d="M240.423 259.428H228.227V271.625H240.423V259.428Z" fill="#407BFF"/>
<path d="M257.466 259.428H245.27V271.625H257.466V259.428Z" fill="#407BFF"/>
<path d="M274.521 259.428H262.324V271.625H274.521V259.428Z" fill="#407BFF"/>
<path d="M240.423 275.32H228.227V287.517H240.423V275.32Z" fill="#407BFF"/>
<path d="M257.466 275.32H245.27V287.517H257.466V275.32Z" fill="#407BFF"/>
<path d="M274.521 275.32H262.324V287.517H274.521V275.32Z" fill="#407BFF"/>
<path d="M240.423 291.214H228.227V303.411H240.423V291.214Z" fill="#407BFF"/>
<path d="M257.466 291.214H245.27V303.411H257.466V291.214Z" fill="#407BFF"/>
<path d="M274.521 291.214H262.324V303.411H274.521V291.214Z" fill="#407BFF"/>
<path d="M240.423 311.331H228.227V325.745H240.423V311.331Z" fill="#407BFF"/>
<path d="M257.466 307.106H245.27V325.744H257.466V307.106Z" fill="#407BFF"/>
<path d="M274.521 311.331H262.324V325.745H274.521V311.331Z" fill="#407BFF"/>
<path opacity="0.4" d="M240.422 227.642H229.229V239.839H240.422V227.642Z" fill="white"/>
<path opacity="0.4" d="M257.477 227.643H246.283V239.839H257.477V227.643Z" fill="white"/>
<path opacity="0.4" d="M274.531 227.643H263.338V239.839H274.531V227.643Z" fill="white"/>
<path opacity="0.4" d="M240.422 243.535H229.229V255.732H240.422V243.535Z" fill="white"/>
<path opacity="0.4" d="M257.477 243.535H246.283V255.732H257.477V243.535Z" fill="white"/>
<path opacity="0.4" d="M274.531 243.535H263.338V255.732H274.531V243.535Z" fill="white"/>
<path opacity="0.4" d="M240.422 259.428H229.229V271.625H240.422V259.428Z" fill="white"/>
<path opacity="0.4" d="M257.477 259.428H246.283V271.625H257.477V259.428Z" fill="white"/>
<path opacity="0.4" d="M274.531 259.428H263.338V271.625H274.531V259.428Z" fill="white"/>
<path opacity="0.4" d="M240.422 275.32H229.229V287.517H240.422V275.32Z" fill="white"/>
<path opacity="0.4" d="M257.477 275.32H246.283V287.517H257.477V275.32Z" fill="white"/>
<path opacity="0.4" d="M274.531 275.32H263.338V287.517H274.531V275.32Z" fill="white"/>
<path opacity="0.4" d="M240.422 291.214H229.229V303.411H240.422V291.214Z" fill="white"/>
<path opacity="0.4" d="M257.477 291.214H246.283V303.411H257.477V291.214Z" fill="white"/>
<path opacity="0.4" d="M274.531 291.214H263.338V303.411H274.531V291.214Z" fill="white"/>
<path opacity="0.4" d="M240.422 311.331H229.229V325.745H240.422V311.331Z" fill="white"/>
<path opacity="0.4" d="M257.477 307.106H246.283V325.744H257.477V307.106Z" fill="white"/>
<path opacity="0.4" d="M274.531 311.331H263.338V325.745H274.531V311.331Z" fill="white"/>
<path d="M219.334 217.916H302.209L299.748 223.164H221.805L219.334 217.916Z" fill="#407BFF"/>
<path opacity="0.2" d="M280.55 217.916H302.208L299.748 223.164H279.367L280.55 217.916Z" fill="black"/>
<path d="M466.512 160.565H398.633V325.744H466.512V160.565Z" fill="#407BFF"/>
<path opacity="0.4" d="M450.271 160.565H398.633V325.744H450.271V160.565Z" fill="white"/>
<path d="M469.691 155.676H395.443V160.945H469.691V155.676Z" fill="#407BFF"/>
<path opacity="0.2" d="M469.691 155.676H450.281V160.945H469.691V155.676Z" fill="black"/>
<path opacity="0.3" d="M466.523 160.945H450.281V325.745H466.523V160.945Z" fill="white"/>
<path d="M414.336 167.155H405.561V180.45H414.336V167.155Z" fill="#407BFF"/>
<path opacity="0.2" d="M414.336 168.031H405.561V180.439H414.336V168.031Z" fill="white"/>
<path d="M406.817 167.155H405.561V180.45H406.817V167.155Z" fill="#407BFF"/>
<path d="M428.158 167.155H419.383V180.45H428.158V167.155Z" fill="#407BFF"/>
<path opacity="0.2" d="M428.158 168.031H419.383V180.439H428.158V168.031Z" fill="white"/>
<path d="M420.639 167.155H419.383V180.45H420.639V167.155Z" fill="#407BFF"/>
<path d="M441.98 167.155H433.205V180.45H441.98V167.155Z" fill="#407BFF"/>
<path opacity="0.2" d="M441.98 168.031H433.205V180.439H441.98V168.031Z" fill="white"/>
<path d="M434.462 167.155H433.205V180.45H434.462V167.155Z" fill="#407BFF"/>
<path d="M414.336 187.176H405.561V200.471H414.336V187.176Z" fill="#407BFF"/>
<path opacity="0.2" d="M414.336 188.053H405.561V200.461H414.336V188.053Z" fill="white"/>
<path d="M406.817 187.176H405.561V200.471H406.817V187.176Z" fill="#407BFF"/>
<path d="M428.158 187.176H419.383V200.471H428.158V187.176Z" fill="#407BFF"/>
<path opacity="0.2" d="M428.158 188.053H419.383V200.461H428.158V188.053Z" fill="white"/>
<path d="M420.639 187.176H419.383V200.471H420.639V187.176Z" fill="#407BFF"/>
<path d="M441.98 187.176H433.205V200.471H441.98V187.176Z" fill="#407BFF"/>
<path opacity="0.2" d="M441.98 188.053H433.205V200.461H441.98V188.053Z" fill="white"/>
<path d="M434.462 187.176H433.205V200.471H434.462V187.176Z" fill="#407BFF"/>
<path d="M414.336 207.188H405.561V220.483H414.336V207.188Z" fill="#407BFF"/>
<path opacity="0.2" d="M414.336 208.074H405.561V220.482H414.336V208.074Z" fill="white"/>
<path d="M406.817 207.188H405.561V220.483H406.817V207.188Z" fill="#407BFF"/>
<path d="M428.158 207.188H419.383V220.483H428.158V207.188Z" fill="#407BFF"/>
<path opacity="0.2" d="M428.158 208.074H419.383V220.482H428.158V208.074Z" fill="white"/>
<path d="M420.639 207.188H419.383V220.483H420.639V207.188Z" fill="#407BFF"/>
<path d="M441.98 207.188H433.205V220.483H441.98V207.188Z" fill="#407BFF"/>
<path opacity="0.2" d="M441.98 208.074H433.205V220.482H441.98V208.074Z" fill="white"/>
<path d="M434.462 207.188H433.205V220.483H434.462V207.188Z" fill="#407BFF"/>
<path d="M414.336 227.209H405.561V240.505H414.336V227.209Z" fill="#407BFF"/>
<path opacity="0.2" d="M414.336 228.096H405.561V240.504H414.336V228.096Z" fill="white"/>
<path d="M406.817 227.209H405.561V240.505H406.817V227.209Z" fill="#407BFF"/>
<path d="M428.158 227.209H419.383V240.505H428.158V227.209Z" fill="#407BFF"/>
<path opacity="0.2" d="M428.158 228.096H419.383V240.504H428.158V228.096Z" fill="white"/>
<path d="M420.639 227.209H419.383V240.505H420.639V227.209Z" fill="#407BFF"/>
<path d="M441.98 227.209H433.205V240.505H441.98V227.209Z" fill="#407BFF"/>
<path opacity="0.2" d="M441.98 228.096H433.205V240.504H441.98V228.096Z" fill="white"/>
<path d="M434.462 227.209H433.205V240.505H434.462V227.209Z" fill="#407BFF"/>
<path d="M414.336 247.231H405.561V260.526H414.336V247.231Z" fill="#407BFF"/>
<path opacity="0.2" d="M414.336 248.107H405.561V260.515H414.336V248.107Z" fill="white"/>
<path d="M406.817 247.231H405.561V260.526H406.817V247.231Z" fill="#407BFF"/>
<path d="M428.158 247.231H419.383V260.526H428.158V247.231Z" fill="#407BFF"/>
<path opacity="0.2" d="M428.158 248.107H419.383V260.515H428.158V248.107Z" fill="white"/>
<path d="M420.639 247.231H419.383V260.526H420.639V247.231Z" fill="#407BFF"/>
<path d="M441.98 247.231H433.205V260.526H441.98V247.231Z" fill="#407BFF"/>
<path opacity="0.2" d="M441.98 248.107H433.205V260.515H441.98V248.107Z" fill="white"/>
<path d="M434.462 247.231H433.205V260.526H434.462V247.231Z" fill="#407BFF"/>
<path d="M414.336 267.242H405.561V280.537H414.336V267.242Z" fill="#407BFF"/>
<path opacity="0.2" d="M414.336 268.129H405.561V280.537H414.336V268.129Z" fill="white"/>
<path d="M406.817 267.242H405.561V280.537H406.817V267.242Z" fill="#407BFF"/>
<path d="M428.158 267.242H419.383V280.537H428.158V267.242Z" fill="#407BFF"/>
<path opacity="0.2" d="M428.158 268.129H419.383V280.537H428.158V268.129Z" fill="white"/>
<path d="M420.639 267.242H419.383V280.537H420.639V267.242Z" fill="#407BFF"/>
<path d="M441.98 267.242H433.205V280.537H441.98V267.242Z" fill="#407BFF"/>
<path opacity="0.2" d="M441.98 268.129H433.205V280.537H441.98V268.129Z" fill="white"/>
<path d="M434.462 267.242H433.205V280.537H434.462V267.242Z" fill="#407BFF"/>
<path d="M414.336 287.264H405.561V300.559H414.336V287.264Z" fill="#407BFF"/>
<path opacity="0.2" d="M414.336 288.151H405.561V300.559H414.336V288.151Z" fill="white"/>
<path d="M406.817 287.264H405.561V300.559H406.817V287.264Z" fill="#407BFF"/>
<path d="M428.158 287.264H419.383V300.559H428.158V287.264Z" fill="#407BFF"/>
<path opacity="0.2" d="M428.158 288.151H419.383V300.559H428.158V288.151Z" fill="white"/>
<path d="M420.639 287.264H419.383V300.559H420.639V287.264Z" fill="#407BFF"/>
<path d="M441.98 287.264H433.205V300.559H441.98V287.264Z" fill="#407BFF"/>
<path opacity="0.2" d="M441.98 288.151H433.205V300.559H441.98V288.151Z" fill="white"/>
<path d="M434.462 287.264H433.205V300.559H434.462V287.264Z" fill="#407BFF"/>
<path d="M414.336 307.286H405.561V320.581H414.336V307.286Z" fill="#407BFF"/>
<path opacity="0.2" d="M414.336 308.163H405.561V320.571H414.336V308.163Z" fill="white"/>
<path d="M406.817 307.286H405.561V320.581H406.817V307.286Z" fill="#407BFF"/>
<path d="M428.158 307.286H419.383V320.581H428.158V307.286Z" fill="#407BFF"/>
<path opacity="0.2" d="M428.158 308.163H419.383V320.571H428.158V308.163Z" fill="white"/>
<path d="M420.639 307.286H419.383V320.581H420.639V307.286Z" fill="#407BFF"/>
<path d="M441.98 307.286H433.205V320.581H441.98V307.286Z" fill="#407BFF"/>
<path opacity="0.2" d="M441.98 308.163H433.205V320.571H441.98V308.163Z" fill="white"/>
<path d="M434.462 307.286H433.205V320.581H434.462V307.286Z" fill="#407BFF"/>
<path d="M323.424 66.8979H321.914V99.4227H323.424V66.8979Z" fill="#263238"/>
<path d="M356.244 66.8979H354.734V99.4227H356.244V66.8979Z" fill="#263238"/>
<path d="M384.64 81.7134H333.625V108.673H384.64V81.7134Z" fill="#407BFF"/>
<path opacity="0.7" d="M384.64 81.7134H333.625V108.673H384.64V81.7134Z" fill="white"/>
<path d="M355.134 81.7134H304.119V108.673H355.134V81.7134Z" fill="#407BFF"/>
<path opacity="0.4" d="M355.134 81.7134H304.119V108.673H355.134V81.7134Z" fill="white"/>
<path opacity="0.5" d="M299.272 123.13H296.717V133.69H299.272V123.13Z" fill="white"/>
<path opacity="0.5" d="M299.272 150.396H296.717V160.956H299.272V150.396Z" fill="white"/>
<path opacity="0.5" d="M299.272 168.854H296.717V179.414H299.272V168.854Z" fill="white"/>
<path opacity="0.5" d="M299.272 187.324H296.717V197.884H299.272V187.324Z" fill="white"/>
<path opacity="0.5" d="M299.272 205.783H296.717V216.343H299.272V205.783Z" fill="white"/>
<path opacity="0.5" d="M299.272 224.242H296.717V234.802H299.272V224.242Z" fill="white"/>
<path opacity="0.5" d="M299.272 244.591H296.717V255.151H299.272V244.591Z" fill="white"/>
<path opacity="0.5" d="M299.272 264.94H296.717V275.5H299.272V264.94Z" fill="white"/>
<path opacity="0.5" d="M299.272 285.278H296.717V295.838H299.272V285.278Z" fill="white"/>
<path opacity="0.5" d="M299.272 305.627H296.717V316.187H299.272V305.627Z" fill="white"/>
<path d="M399.003 109.063H319.285V325.744H399.003V109.063Z" fill="#407BFF"/>
<path d="M369.475 109.063H289.758V325.744H369.475V109.063Z" fill="#407BFF"/>
<path opacity="0.3" d="M398.991 112.042H369.486V325.755H398.991V112.042Z" fill="white"/>
<path opacity="0.5" d="M369.475 109.063H289.758V325.744H369.475V109.063Z" fill="white"/>
<path d="M361.925 118.536H352.146V320.57H361.925V118.536Z" fill="#407BFF"/>
<path d="M343.085 118.536H333.307V320.57H343.085V118.536Z" fill="#407BFF"/>
<path d="M324.247 118.536H314.469V320.57H324.247V118.536Z" fill="#407BFF"/>
<path d="M305.398 118.536H295.619V320.57H305.398V118.536Z" fill="#407BFF"/>
<path opacity="0.2" d="M361.925 121.092H352.146V320.57H361.925V121.092Z" fill="white"/>
<path opacity="0.2" d="M343.085 121.092H333.307V320.57H343.085V121.092Z" fill="white"/>
<path opacity="0.2" d="M324.247 121.092H314.469V320.57H324.247V121.092Z" fill="white"/>
<path opacity="0.2" d="M305.398 121.092H295.619V320.57H305.398V121.092Z" fill="white"/>
<path d="M395.591 118.536H391.494V320.57H395.591V118.536Z" fill="#407BFF"/>
<path d="M387.693 118.536H383.596V320.57H387.693V118.536Z" fill="#407BFF"/>
<path d="M379.783 118.536H375.686V320.57H379.783V118.536Z" fill="#407BFF"/>
<g opacity="0.3">
<path opacity="0.4" d="M395.589 121.092H391.492V320.57H395.589V121.092Z" fill="white"/>
<path opacity="0.4" d="M387.691 121.092H383.594V320.57H387.691V121.092Z" fill="white"/>
<path opacity="0.4" d="M379.781 121.092H375.684V320.57H379.781V121.092Z" fill="white"/>
</g>
<path d="M397.291 102.907H369.486V106.973H397.291V102.907Z" fill="#407BFF"/>
<path d="M397.29 101.915H289.758V106.973H397.29V101.915Z" fill="#F0F0F0"/>
<path d="M401.061 106.984H287.51V112.042H401.061V106.984Z" fill="#407BFF"/>
<path d="M401.061 97.8496H287.51V102.908H401.061V97.8496Z" fill="#407BFF"/>
<path opacity="0.1" d="M401.061 106.984H287.51V112.042H401.061V106.984Z" fill="black"/>
<path opacity="0.1" d="M401.061 97.8496H287.51V102.908H401.061V97.8496Z" fill="black"/>
<path opacity="0.2" d="M401.061 106.984H369.486V112.042H401.061V106.984Z" fill="black"/>
<path opacity="0.2" d="M401.061 97.8494H369.486V102.908H401.061V97.8494Z" fill="black"/>
<path opacity="0.3" d="M335.749 81.7134H323.562V93.8996H335.749V81.7134Z" fill="white"/>
<path d="M200.592 179.415C190.243 167.207 177.276 163.036 167.761 167.587C166.393 168.242 164.847 168.431 163.361 168.124C161.876 167.817 160.532 167.031 159.535 165.887C148.024 153.416 129.365 151.938 121.624 163.701C120.748 165.033 120.006 166.448 119.407 167.925C118.457 170.303 116.876 172.377 114.834 173.923C113.448 174.953 112.257 176.223 111.318 177.672C108.806 181.837 107.641 186.675 107.981 191.527C108.039 192.251 107.889 192.977 107.548 193.618C107.208 194.26 106.691 194.791 106.059 195.149C103.904 196.278 102.083 197.953 100.779 200.007C94.5064 209.511 97.2731 226.512 106.957 237.928C115.584 248.097 126.788 250.431 133.557 244.074C133.833 243.809 134.2 243.661 134.582 243.661C134.963 243.661 135.331 243.809 135.606 244.074C140.485 248.456 146.166 248.488 149.091 243.736C149.203 243.528 149.363 243.351 149.557 243.217C149.75 243.083 149.973 242.996 150.207 242.964C150.44 242.932 150.678 242.956 150.9 243.033C151.123 243.11 151.324 243.239 151.488 243.408C156.515 248.445 162.587 248.688 165.681 243.736C166.238 242.814 166.665 241.818 166.948 240.779C166.991 240.558 167.081 240.349 167.213 240.166C167.344 239.984 167.513 239.832 167.709 239.72C167.904 239.609 168.121 239.541 168.346 239.522C168.57 239.502 168.795 239.531 169.007 239.607C172.291 240.927 175.512 240.356 177.709 237.759C177.927 237.489 178.235 237.307 178.577 237.247C178.918 237.187 179.27 237.252 179.567 237.431C190.835 244.169 202.715 242.87 209.325 232.827C218.164 219.384 214.32 195.487 200.592 179.415Z" fill="#407BFF"/>
<path opacity="0.6" d="M200.592 179.415C190.243 167.207 177.276 163.036 167.761 167.587C166.393 168.242 164.847 168.431 163.361 168.124C161.876 167.817 160.532 167.031 159.535 165.887C148.024 153.416 129.365 151.938 121.624 163.701C120.748 165.033 120.006 166.448 119.407 167.925C118.457 170.303 116.876 172.377 114.834 173.923C113.448 174.953 112.257 176.223 111.318 177.672C108.806 181.837 107.641 186.675 107.981 191.527C108.039 192.251 107.889 192.977 107.548 193.618C107.208 194.26 106.691 194.791 106.059 195.149C103.904 196.278 102.083 197.953 100.779 200.007C94.5064 209.511 97.2731 226.512 106.957 237.928C115.584 248.097 126.788 250.431 133.557 244.074C133.833 243.809 134.2 243.661 134.582 243.661C134.963 243.661 135.331 243.809 135.606 244.074C140.485 248.456 146.166 248.488 149.091 243.736C149.203 243.528 149.363 243.351 149.557 243.217C149.75 243.083 149.973 242.996 150.207 242.964C150.44 242.932 150.678 242.956 150.9 243.033C151.123 243.11 151.324 243.239 151.488 243.408C156.515 248.445 162.587 248.688 165.681 243.736C166.238 242.814 166.665 241.818 166.948 240.779C166.991 240.558 167.081 240.349 167.213 240.166C167.344 239.984 167.513 239.832 167.709 239.72C167.904 239.609 168.121 239.541 168.346 239.522C168.57 239.502 168.795 239.531 169.007 239.607C172.291 240.927 175.512 240.356 177.709 237.759C177.927 237.489 178.235 237.307 178.577 237.247C178.918 237.187 179.27 237.252 179.567 237.431C190.835 244.169 202.715 242.87 209.325 232.827C218.164 219.384 214.32 195.487 200.592 179.415Z" fill="white"/>
<path d="M131.708 249.639L141.518 259.238C140.737 272.786 140.093 303.991 140.093 303.991L136.608 325.808L167.348 326.104C167.348 326.104 165.954 307.677 165.954 306.684C165.954 305.691 160.009 270.389 160.009 270.389L157.897 250.621L173.737 245.521L176.63 236.713L188.246 229.765L193.938 220.546L191.742 219.986L185.406 228.498L178.066 230.177L181.234 222.341H177.739L169.006 240.505L157.749 242.933L159.217 217.431C150.22 221.866 147.337 214.474 147.337 214.474C147.337 214.474 143.62 248.805 142.31 252.712L136.513 249.639L130.177 239.163H127.516L131.708 249.639Z" fill="#407BFF"/>
<path d="M86.7242 292.238H85.1719V312.196H86.7242V292.238Z" fill="#407BFF"/>
<path opacity="0.2" d="M86.7242 292.238H85.1719V312.196H86.7242V292.238Z" fill="black"/>
<path d="M118.9 292.238H117.348V312.196H118.9V292.238Z" fill="#407BFF"/>
<path opacity="0.2" d="M118.9 292.238H117.348V312.196H118.9V292.238Z" fill="black"/>
<path d="M120.663 310.252H83.4707V312.681H120.663V310.252Z" fill="#407BFF"/>
<path opacity="0.2" d="M120.663 310.252H83.4707V312.681H120.663V310.252Z" fill="white"/>
<path d="M85.941 312.608H84.3887V326.114H85.941V312.608Z" fill="#407BFF"/>
<path opacity="0.2" d="M85.941 312.608H84.3887V326.114H85.941V312.608Z" fill="black"/>
<path d="M119.892 312.608H118.34V326.114H119.892V312.608Z" fill="#407BFF"/>
<path opacity="0.2" d="M119.892 312.608H118.34V326.114H119.892V312.608Z" fill="black"/>
<path d="M120.663 293.135H83.4707V304.877H120.663V293.135Z" fill="#407BFF"/>
<path opacity="0.2" d="M120.663 293.135H83.4707V304.877H120.663V293.135Z" fill="white"/>
<path d="M120.589 312.196H83.5234V315.976H120.589V312.196Z" fill="#407BFF"/>
<path opacity="0.1" d="M120.589 312.196H83.5234V315.976H120.589V312.196Z" fill="black"/>
<path d="M83.525 306.821H81.9727V326.093H83.525V306.821Z" fill="#407BFF"/>
<path d="M84.1252 304.889H81.4219V307.592H84.1252V304.889Z" fill="#407BFF"/>
<path opacity="0.2" d="M84.1252 304.889H81.4219V307.592H84.1252V304.889Z" fill="white"/>
<path d="M86.2272 304.889H84.1152V307.592H86.2272V304.889Z" fill="#407BFF"/>
<path d="M120.6 326.092H122.152V306.82H120.6V326.092Z" fill="#407BFF"/>
<path d="M120.008 307.581H122.701V304.878H120.008V307.581Z" fill="#407BFF"/>
<path opacity="0.2" d="M120.008 307.581H122.701V304.878H120.008V307.581Z" fill="white"/>
<path d="M119.999 304.889H117.887V307.592H119.999V304.889Z" fill="#407BFF"/>
<path opacity="0.1" d="M86.2272 304.889H84.1152V307.592H86.2272V304.889Z" fill="black"/>
<path opacity="0.1" d="M119.999 304.889H117.887V307.592H119.999V304.889Z" fill="black"/>
<path d="M83.4579 157.481H82.0957V163.437H83.4579V157.481Z" fill="#263238"/>
<path d="M92.6884 155C84.2404 156.056 71.4628 158.886 61.4414 164.156V166.151C71.1436 160.936 81.7875 157.705 92.7518 156.647L92.6884 155Z" fill="#407BFF"/>
<path d="M107.357 157.967C106.815 157.499 106.207 157.115 105.551 156.827C104.105 156.204 95.3503 157.513 92.3513 157.988V156.71L92.2773 155.053C94.3154 154.841 96.1423 154.693 97.6841 154.598C100.208 154.461 102.077 154.377 103.46 154.334C103.956 154.312 104.451 154.388 104.917 154.56C105.383 154.731 105.809 154.993 106.172 155.332C106.535 155.67 106.827 156.077 107.03 156.53C107.234 156.982 107.345 157.471 107.357 157.967Z" fill="#407BFF"/>
<path d="M61.4408 178.201C61.1607 178.201 60.8921 178.089 60.6941 177.891C60.496 177.693 60.3848 177.425 60.3848 177.145C60.3848 176.606 60.3848 175.487 66.0027 170.407C66.7931 169.678 67.6329 169.004 68.516 168.39C73.683 165.092 79.4803 162.905 85.5387 161.97C85.8188 161.933 86.1018 162.01 86.3256 162.182C86.5494 162.354 86.6956 162.608 86.732 162.889C86.7684 163.169 86.692 163.452 86.5197 163.675C86.3474 163.899 86.0933 164.045 85.8132 164.082C85.7288 164.082 76.7422 165.349 69.7092 170.154C68.9024 170.715 68.1366 171.332 67.4177 172.002C63.764 175.307 62.6024 176.859 62.4862 177.282C62.4529 177.536 62.3286 177.769 62.1362 177.938C61.9439 178.107 61.6968 178.2 61.4408 178.201Z" fill="#263238"/>
<path d="M60.0363 163.87H62.1483C62.2155 163.87 62.28 163.897 62.3275 163.944C62.375 163.992 62.4017 164.056 62.4017 164.124V326.188H59.7617V164.103C59.7644 164.069 59.7736 164.037 59.7889 164.007C59.8041 163.977 59.8251 163.951 59.8506 163.929C59.8762 163.908 59.9057 163.891 59.9376 163.881C59.9694 163.871 60.003 163.867 60.0363 163.87Z" fill="#263238"/>
<path d="M107.366 158.083V158.168L95.1053 159.319L92.3809 158.168V157.988C95.3799 157.513 104.134 156.203 105.581 156.827C106.225 157.118 106.823 157.502 107.355 157.967C107.364 158.005 107.368 158.044 107.366 158.083Z" fill="#407BFF"/>
<path opacity="0.6" d="M107.366 158.083V158.168L95.1053 159.319L92.3809 158.168V157.988C95.3799 157.513 104.134 156.203 105.581 156.827C106.225 157.118 106.823 157.502 107.355 157.967C107.364 158.005 107.368 158.044 107.366 158.083Z" fill="white"/>
<path d="M420.175 233.333H422.91C422.997 233.333 423.08 233.368 423.142 233.429C423.203 233.49 423.237 233.574 423.237 233.66V334.392H419.848V233.66C419.848 233.574 419.882 233.49 419.944 233.429C420.005 233.368 420.088 233.333 420.175 233.333Z" fill="#263238"/>
<path d="M437.663 236.068H405.297C403.232 236.068 401.559 237.742 401.559 239.807V245.836C401.559 247.901 403.232 249.575 405.297 249.575H437.663C439.728 249.575 441.401 247.901 441.401 245.836V239.807C441.401 237.742 439.728 236.068 437.663 236.068Z" fill="#407BFF"/>
<path opacity="0.9" d="M437.663 236.068H405.297C403.232 236.068 401.559 237.742 401.559 239.807V245.836C401.559 247.901 403.232 249.575 405.297 249.575H437.663C439.728 249.575 441.401 247.901 441.401 245.836V239.807C441.401 237.742 439.728 236.068 437.663 236.068Z" fill="white"/>
<path d="M436.649 237.072H406.5C404.435 237.072 402.762 238.745 402.762 240.81V244.654C402.762 246.718 404.435 248.392 406.5 248.392H436.649C438.713 248.392 440.387 246.718 440.387 244.654V240.81C440.387 238.745 438.713 237.072 436.649 237.072Z" fill="#407BFF"/>
<path d="M432.172 243.957L432.362 243.545C432.638 243.748 432.97 243.859 433.312 243.862C433.756 243.862 433.946 243.693 433.946 243.481C433.946 242.869 432.235 243.27 432.235 242.204C432.235 241.739 432.605 241.348 433.397 241.348C433.735 241.34 434.068 241.428 434.358 241.602L434.189 242.014C433.947 241.875 433.675 241.799 433.397 241.792C432.953 241.792 432.774 241.961 432.774 242.183C432.774 242.784 434.474 242.394 434.474 243.45C434.474 243.904 434.104 244.305 433.312 244.305C432.904 244.319 432.503 244.196 432.172 243.957Z" fill="white"/>
<path d="M435.552 241.834H434.602V241.38H437.041V241.834H436.08V244.263H435.541L435.552 241.834Z" fill="white"/>
<path d="M485.212 325.131H41.5234V336.283H485.212V325.131Z" fill="#407BFF"/>
<g opacity="0.7">
<path d="M485.212 325.132H41.5234V336.283H485.212V325.132Z" fill="white"/>
</g>
<path d="M65.4525 325.131H64.3965V337.075H65.4525V325.131Z" fill="white"/>
<path d="M164.695 325.131H163.639V337.075H164.695V325.131Z" fill="white"/>
<path d="M263.939 325.131H262.883V337.075H263.939V325.131Z" fill="white"/>
<path d="M363.181 325.132H362.125V337.075H363.181V325.132Z" fill="white"/>
<path d="M462.423 325.131H461.367V337.075H462.423V325.131Z" fill="white"/>
<path d="M485.212 340.655H41.5234V345.829H485.212V340.655Z" fill="#407BFF"/>
<path opacity="0.9" d="M485.212 340.655H41.5234V345.829H485.212V340.655Z" fill="white"/>
<path d="M213.899 379.917H213.603C211.491 381.681 207.985 382.821 204.743 383.328C201.016 383.919 197.351 383.898 193.645 384.458C191.416 384.765 189.242 385.38 187.182 386.285C186.703 386.661 186.255 387.074 185.841 387.52C185.091 388.333 184.964 389.199 186.633 389.685C191.625 391.19 196.968 391.054 201.876 389.295C206.784 387.537 210.998 384.25 213.899 379.917Z" fill="#263238"/>
<path d="M188.3 388.914L182.693 390.815C181.183 391.037 181.056 390.15 182.102 389.759C184.087 389.685 187.92 388.323 188.3 388.914Z" fill="#263238"/>
<g opacity="0.8">
<path d="M213.899 379.917H213.603C211.491 381.681 207.985 382.821 204.743 383.328C201.016 383.919 197.351 383.898 193.645 384.458C191.416 384.765 189.242 385.38 187.182 386.285C186.703 386.661 186.255 387.074 185.841 387.52C185.091 388.333 184.964 389.199 186.633 389.685C191.625 391.19 196.968 391.054 201.876 389.295C206.784 387.537 210.998 384.25 213.899 379.917Z" fill="white"/>
<path d="M188.3 388.914L182.693 390.815C181.183 391.037 181.056 390.15 182.102 389.759C184.087 389.685 187.92 388.323 188.3 388.914Z" fill="white"/>
</g>
<path d="M211.827 375.63C211.827 375.863 211.7 376.116 211.605 376.401C211.51 376.686 211.51 376.697 211.457 376.845C211.351 377.161 211.225 377.489 211.087 377.848L210.845 378.408C210.75 378.64 210.654 378.862 210.538 379.094C210.422 379.326 210.317 379.569 210.19 379.812C210.063 380.055 209.947 380.298 209.81 380.551C209.672 380.805 209.556 381.016 209.419 381.248C209.282 381.48 209.102 381.797 208.923 382.072L208.426 382.843C208.247 383.107 208.067 383.36 207.877 383.614C207.687 383.867 207.497 384.12 207.296 384.374C207.096 384.627 206.885 384.891 206.663 385.134C206.441 385.377 206.24 385.609 206.019 385.842C205.797 386.074 205.554 386.317 205.311 386.539C205.086 386.367 204.837 386.228 204.572 386.127C203.981 385.824 203.295 385.765 202.661 385.962C202.027 386.16 201.496 386.598 201.182 387.183C201.061 387.524 201.029 387.891 201.09 388.247C201.151 388.604 201.303 388.94 201.531 389.221C201.069 389.458 200.593 389.666 200.105 389.844L199.693 389.981L199.229 390.129C199.004 390.205 198.775 390.265 198.542 390.309C198.375 390.354 198.206 390.389 198.035 390.414C197.785 390.475 197.531 390.521 197.275 390.552L196.409 390.636C196.106 390.636 195.789 390.636 195.459 390.636C194.253 390.63 193.051 390.485 191.879 390.203C191.225 390.046 190.58 389.856 189.946 389.633C188.761 389.208 187.61 388.692 186.504 388.091C186.029 387.838 185.553 387.563 185.057 387.257C184.708 387.103 184.395 386.877 184.141 386.593C183.886 386.309 183.695 385.974 183.58 385.61C183.465 385.246 183.429 384.862 183.474 384.483C183.519 384.104 183.645 383.739 183.843 383.413C184.173 382.758 184.566 382.135 185.015 381.554C186.972 380.402 189.178 379.735 191.446 379.611C195.247 379.326 199.07 380.034 202.861 379.706C206.156 379.421 209.651 378.122 211.52 375.482L211.827 375.63Z" fill="#407BFF"/>
<path d="M186.662 386.349L181.139 388.566C179.597 388.682 179.312 387.141 180.337 386.687C182.396 386.898 186.113 385.261 186.662 386.349Z" fill="#407BFF"/>
<path opacity="0.2" d="M211.827 375.63C211.827 375.863 211.7 376.116 211.605 376.401C211.51 376.686 211.51 376.697 211.457 376.845C211.351 377.161 211.225 377.489 211.087 377.848L210.845 378.408C210.75 378.64 210.654 378.862 210.538 379.094C210.422 379.326 210.317 379.569 210.19 379.812C210.063 380.055 209.947 380.298 209.81 380.551C209.672 380.805 209.556 381.016 209.419 381.248C209.282 381.48 209.102 381.797 208.923 382.072L208.426 382.843C208.247 383.107 208.067 383.36 207.877 383.614C207.687 383.867 207.497 384.12 207.296 384.374C207.096 384.627 206.885 384.891 206.663 385.134C206.441 385.377 206.24 385.609 206.019 385.842C205.797 386.074 205.554 386.317 205.311 386.539C205.086 386.367 204.837 386.228 204.572 386.127C203.981 385.824 203.295 385.765 202.661 385.962C202.027 386.16 201.496 386.598 201.182 387.183C201.061 387.524 201.029 387.891 201.09 388.247C201.151 388.604 201.303 388.94 201.531 389.221C201.069 389.458 200.593 389.666 200.105 389.844L199.693 389.981L199.229 390.129C199.004 390.205 198.775 390.265 198.542 390.309C198.375 390.354 198.206 390.389 198.035 390.414C197.785 390.475 197.531 390.521 197.275 390.552L196.409 390.636C196.106 390.636 195.789 390.636 195.459 390.636C194.253 390.63 193.051 390.485 191.879 390.203C191.224 390.049 190.579 389.859 189.946 389.633C188.757 389.217 187.606 388.701 186.504 388.091C186.029 387.838 185.553 387.563 185.057 387.257C184.708 387.103 184.395 386.877 184.141 386.593C183.886 386.309 183.695 385.974 183.58 385.61C183.465 385.246 183.429 384.862 183.474 384.483C183.519 384.104 183.645 383.739 183.843 383.413C184.173 382.758 184.566 382.135 185.015 381.554C186.972 380.402 189.178 379.735 191.446 379.611C195.247 379.326 199.07 380.034 202.861 379.706C206.156 379.421 209.651 378.122 211.52 375.482L211.827 375.63Z" fill="white"/>
<path d="M317.809 380.15L317.978 380.076C319.895 380.79 321.961 381.011 323.986 380.72C326.373 380.477 328.611 379.865 330.987 379.59C332.409 379.415 333.848 379.437 335.264 379.653C335.629 379.806 335.982 379.986 336.32 380.192C336.912 380.572 337.133 381.09 336.194 381.649C333.375 383.408 330.064 384.212 326.753 383.942C323.441 383.672 320.305 382.342 317.809 380.15Z" fill="#263238"/>
<path d="M334.988 381.48L338.748 381.723C339.709 381.617 339.645 381.047 338.938 380.984C337.702 381.258 335.157 381.037 334.988 381.48Z" fill="#263238"/>
<g opacity="0.8">
<path d="M317.809 380.15L317.978 380.076C319.895 380.79 321.961 381.011 323.986 380.72C326.373 380.477 328.611 379.865 330.987 379.59C332.409 379.415 333.848 379.437 335.264 379.653C335.629 379.806 335.982 379.986 336.32 380.192C336.912 380.572 337.133 381.09 336.194 381.649C333.375 383.408 330.064 384.212 326.753 383.942C323.441 383.672 320.305 382.342 317.809 380.15Z" fill="white"/>
<path d="M334.99 381.48L338.75 381.723C339.711 381.617 339.647 381.047 338.94 380.984C337.704 381.258 335.159 381.037 334.99 381.48Z" fill="white"/>
</g>
<path d="M318.863 375.936L319.043 375.841C319.824 376.551 320.745 377.089 321.748 377.418C322.751 377.748 323.812 377.862 324.861 377.753C327.28 377.626 329.634 376.845 332.053 376.697C333.494 376.576 334.943 376.804 336.277 377.362C336.605 377.688 336.906 378.041 337.174 378.418C337.326 378.608 337.436 378.827 337.496 379.062C337.557 379.298 337.567 379.543 337.526 379.782C337.485 380.022 337.394 380.25 337.259 380.451C337.124 380.653 336.947 380.824 336.741 380.952C326.73 389.2 320.035 378.798 318.863 375.936Z" fill="#407BFF"/>
<path d="M335.664 380.487L339.339 381.406C340.321 381.342 340.395 380.35 339.677 380.149C338.399 380.455 335.918 379.758 335.664 380.487Z" fill="#407BFF"/>
<path opacity="0.2" d="M318.863 375.936L319.043 375.841C319.824 376.551 320.745 377.089 321.748 377.418C322.751 377.748 323.812 377.862 324.861 377.753C327.28 377.626 329.634 376.845 332.053 376.697C333.494 376.576 334.943 376.804 336.277 377.362C336.605 377.688 336.906 378.041 337.174 378.418C337.326 378.608 337.436 378.827 337.496 379.062C337.557 379.298 337.567 379.543 337.526 379.782C337.485 380.022 337.394 380.25 337.259 380.451C337.124 380.653 336.947 380.824 336.741 380.952C326.73 389.2 320.035 378.798 318.863 375.936Z" fill="white"/>
<path d="M255.409 377.827L255.24 377.753C253.313 378.401 251.252 378.55 249.252 378.186C246.887 377.858 244.69 377.13 242.325 376.823C240.927 376.608 239.506 376.579 238.101 376.739C237.738 376.88 237.385 377.046 237.045 377.235C236.443 377.594 236.2 378.091 237.119 378.693C239.857 380.528 243.113 381.435 246.407 381.279C249.7 381.123 252.856 379.913 255.409 377.827Z" fill="#263238"/>
<path d="M238.268 378.555L234.52 378.671C233.569 378.523 233.654 377.963 234.361 377.932C235.576 378.238 238.121 378.122 238.268 378.555Z" fill="#263238"/>
<g opacity="0.8">
<path d="M255.409 377.826L255.24 377.752C253.313 378.401 251.252 378.55 249.252 378.185C246.887 377.858 244.69 377.129 242.325 376.823C240.927 376.607 239.506 376.579 238.101 376.738C237.738 376.879 237.385 377.045 237.045 377.235C236.443 377.594 236.2 378.09 237.119 378.692C239.857 380.528 243.113 381.434 246.407 381.278C249.7 381.123 252.856 379.912 255.409 377.826Z" fill="white"/>
<path d="M238.27 378.555L234.522 378.671C233.571 378.523 233.656 377.964 234.363 377.932C235.578 378.238 238.122 378.122 238.27 378.555Z" fill="white"/>
</g>
<path d="M254.945 374.859C254.895 374.809 254.838 374.767 254.776 374.732C253.898 375.305 252.91 375.687 251.874 375.853C250.839 376.018 249.781 375.964 248.768 375.693C246.413 375.197 244.227 374.056 241.883 373.581C240.494 373.248 239.047 373.248 237.659 373.581C237.282 373.854 236.929 374.158 236.603 374.489C236.422 374.65 236.278 374.847 236.179 375.067C236.08 375.287 236.029 375.526 236.029 375.767C236.029 376.008 236.08 376.247 236.179 376.467C236.278 376.688 236.422 376.884 236.603 377.045C245.156 386.686 253.393 377.488 254.945 374.859Z" fill="#407BFF"/>
<path d="M237.752 376.696L234.003 377.024C233.053 376.813 233.158 375.82 233.866 375.746C235.069 376.242 237.614 375.936 237.752 376.696Z" fill="#407BFF"/>
<path opacity="0.2" d="M254.945 374.859C254.895 374.809 254.838 374.767 254.776 374.732C253.898 375.305 252.91 375.687 251.874 375.853C250.839 376.018 249.781 375.964 248.768 375.693C246.413 375.197 244.227 374.056 241.883 373.581C240.494 373.248 239.047 373.248 237.659 373.581C237.282 373.854 236.929 374.158 236.603 374.489C236.422 374.65 236.278 374.847 236.179 375.067C236.08 375.287 236.029 375.526 236.029 375.767C236.029 376.008 236.08 376.247 236.179 376.467C236.278 376.688 236.422 376.884 236.603 377.045C245.156 386.686 253.393 377.488 254.945 374.859Z" fill="white"/>
<path d="M374.938 387.911H375.075C376.492 387.187 378.066 386.824 379.658 386.855C381.527 386.855 383.322 387.077 385.191 387.056C386.305 387.056 387.414 386.903 388.486 386.602C388.746 386.45 388.994 386.277 389.225 386.084C389.648 385.736 389.774 385.324 388.993 384.965C386.644 383.884 384.01 383.587 381.479 384.118C378.948 384.648 376.655 385.978 374.938 387.911Z" fill="#263238"/>
<path d="M388.117 385.239L391 384.69C391.76 384.69 391.76 385.123 391.222 385.239C390.24 385.144 388.286 385.556 388.117 385.239Z" fill="#263238"/>
<g opacity="0.8">
<path d="M374.938 387.911H375.075C376.492 387.187 378.066 386.824 379.658 386.855C381.527 386.855 383.322 387.077 385.191 387.055C386.305 387.056 387.414 386.903 388.486 386.601C388.746 386.45 388.994 386.277 389.225 386.084C389.648 385.735 389.774 385.324 388.993 384.965C386.644 383.884 384.01 383.587 381.479 384.117C378.948 384.648 376.655 385.978 374.938 387.911Z" fill="white"/>
<path d="M388.117 385.239L391 384.69C391.76 384.69 391.76 385.123 391.222 385.239C390.24 385.144 388.286 385.556 388.117 385.239Z" fill="white"/>
</g>
<path d="M374.887 387.574L375.035 387.648C375.641 387.093 376.359 386.673 377.14 386.417C377.921 386.16 378.747 386.072 379.565 386.159C381.455 386.264 383.282 386.866 385.162 386.993C386.285 387.084 387.415 386.907 388.456 386.475C388.714 386.217 388.951 385.938 389.164 385.641C389.282 385.493 389.367 385.322 389.415 385.139C389.462 384.956 389.47 384.765 389.438 384.578C389.406 384.392 389.335 384.214 389.229 384.057C389.124 383.9 388.986 383.767 388.826 383.666C381.012 377.235 375.784 385.335 374.887 387.574Z" fill="#407BFF"/>
<path d="M387.969 384.025L390.831 383.318C391.591 383.318 391.633 384.142 391.095 384.289C390.102 384.047 388.159 384.575 387.969 384.025Z" fill="#407BFF"/>
<path opacity="0.2" d="M374.887 387.574L375.035 387.648C375.641 387.093 376.359 386.673 377.14 386.417C377.921 386.16 378.747 386.072 379.565 386.159C381.455 386.264 383.282 386.866 385.162 386.993C386.285 387.084 387.415 386.907 388.456 386.475C388.714 386.217 388.951 385.938 389.164 385.641C389.282 385.493 389.367 385.322 389.415 385.139C389.462 384.956 389.47 384.765 389.438 384.578C389.406 384.392 389.335 384.214 389.229 384.057C389.124 383.9 388.986 383.767 388.826 383.666C381.012 377.235 375.784 385.335 374.887 387.574Z" fill="white"/>
<path d="M157.349 383.296H157.149C155.469 381.997 153.49 381.14 151.394 380.804C148.954 380.308 146.546 380.234 144.097 379.748C142.632 379.487 141.211 379.025 139.873 378.376C139.567 378.112 139.281 377.826 139.017 377.52C138.553 376.96 138.489 376.39 139.598 376.116C142.936 375.25 146.463 375.481 149.66 376.774C152.856 378.067 155.552 380.354 157.349 383.296Z" fill="#263238"/>
<path d="M140.685 376.675L137.042 375.281C136.049 375.091 135.986 375.672 136.63 375.947C137.929 376.063 140.4 377.055 140.685 376.675Z" fill="#263238"/>
<g opacity="0.8">
<path d="M157.349 383.297H157.149C155.469 381.997 153.49 381.14 151.394 380.805C148.954 380.308 146.546 380.234 144.097 379.749C142.632 379.488 141.211 379.026 139.873 378.376C139.567 378.112 139.281 377.826 139.017 377.52C138.553 376.961 138.489 376.39 139.598 376.116C142.936 375.25 146.463 375.481 149.66 376.774C152.856 378.067 155.552 380.354 157.349 383.297Z" fill="white"/>
<path d="M140.685 376.675L137.042 375.281C136.049 375.091 135.986 375.672 136.63 375.947C137.929 376.063 140.4 377.055 140.685 376.675Z" fill="white"/>
</g>
<path d="M157.496 382.874L157.285 382.927C156.615 382.06 155.771 381.344 154.807 380.826C153.842 380.307 152.78 379.998 151.688 379.917C149.196 379.601 146.651 379.917 144.148 379.674C142.644 379.534 141.195 379.034 139.924 378.217C139.644 377.823 139.403 377.402 139.206 376.961C139.085 376.74 139.012 376.497 138.992 376.246C138.972 375.995 139.006 375.744 139.09 375.507C139.175 375.27 139.31 375.054 139.484 374.873C139.659 374.693 139.87 374.551 140.103 374.458C151.91 367.868 156.852 379.727 157.496 382.874Z" fill="#407BFF"/>
<path d="M141.182 375.123L137.591 373.518C136.535 373.402 136.345 374.405 137.011 374.732C138.373 374.659 140.78 375.831 141.182 375.123Z" fill="#407BFF"/>
<path opacity="0.2" d="M157.496 382.874L157.285 382.927C156.615 382.06 155.771 381.344 154.807 380.826C153.842 380.307 152.78 379.998 151.688 379.917C149.196 379.601 146.651 379.917 144.148 379.674C142.644 379.534 141.195 379.034 139.924 378.217C139.644 377.823 139.403 377.402 139.206 376.961C139.085 376.74 139.012 376.497 138.992 376.246C138.972 375.995 139.006 375.744 139.09 375.507C139.175 375.27 139.31 375.054 139.484 374.873C139.659 374.693 139.87 374.551 140.103 374.458C151.91 367.868 156.852 379.727 157.496 382.874Z" fill="white"/>
</svg>
