<svg width="480" height="445" viewBox="0 0 480 445" fill="none" xmlns="http://www.w3.org/2000/svg">
<path d="M226.769 444.903H6.513C4.78564 444.903 3.12904 444.217 1.90761 442.995C0.686189 441.774 0 440.117 0 438.39V6.45597C0.0150396 4.73851 0.707861 3.09652 1.92766 1.88741C3.14746 0.67829 4.79548 -6.58439e-05 6.513 4.79355e-09H226.769C227.624 4.79356e-09 228.471 0.168462 229.261 0.495771C230.051 0.82308 230.769 1.30283 231.374 1.90761C231.979 2.5124 232.459 3.23039 232.786 4.02058C233.113 4.81078 233.282 5.6577 233.282 6.513V438.39C233.282 439.245 233.113 440.092 232.786 440.882C232.459 441.672 231.979 442.39 231.374 442.995C230.769 443.6 230.051 444.08 229.261 444.407C228.471 444.734 227.624 444.903 226.769 444.903ZM6.513 0.228127C4.8622 0.231142 3.27987 0.888255 2.11258 2.05555C0.945285 3.22284 0.288173 4.80517 0.285158 6.45597V438.39C0.288173 440.041 0.945285 441.623 2.11258 442.79C3.27987 443.957 4.8622 444.615 6.513 444.618H226.769C228.419 444.615 230.002 443.957 231.169 442.79C232.336 441.623 232.994 440.041 232.997 438.39V6.45597C232.994 4.80517 232.336 3.22284 231.169 2.05555C230.002 0.888255 228.419 0.231142 226.769 0.228127H6.513Z" fill="#EBEBEB"/>
<path d="M473.487 444.903H253.231C251.504 444.903 249.847 444.217 248.626 442.995C247.404 441.774 246.718 440.117 246.718 438.39V6.45597C246.733 4.73851 247.426 3.09652 248.646 1.88741C249.866 0.67829 251.514 -6.58439e-05 253.231 4.79355e-09H473.487C475.214 4.79357e-09 476.871 0.686189 478.092 1.90761C479.314 3.12904 480 4.78564 480 6.513V438.39C480 439.245 479.831 440.092 479.504 440.882C479.177 441.672 478.697 442.39 478.092 442.995C477.488 443.6 476.77 444.08 475.979 444.407C475.189 444.734 474.342 444.903 473.487 444.903ZM253.231 0.228127C251.58 0.231142 249.998 0.888255 248.831 2.05555C247.664 3.22284 247.006 4.80517 247.003 6.45597V438.39C247.006 440.041 247.664 441.623 248.831 442.79C249.998 443.957 251.58 444.615 253.231 444.618H473.487C475.138 444.615 476.72 443.957 477.887 442.79C479.055 441.623 479.712 440.041 479.715 438.39V6.45597C479.712 4.80517 479.055 3.22284 477.887 2.05555C476.72 0.888255 475.138 0.231142 473.487 0.228127H253.231Z" fill="#EBEBEB"/>
<path d="M83.7907 129.176L85.6385 132.906L89.7676 133.51L86.7791 136.419L87.4863 140.525L83.7907 138.586L80.1065 140.525L80.8136 136.419L77.8252 133.51L81.9543 132.906L83.7907 129.176Z" fill="#EBEBEB"/>
<path d="M452.956 305.096L454.804 308.837L458.933 309.442L455.944 312.339L456.651 316.456L452.956 314.517L449.271 316.456L449.979 312.339L446.99 309.442L451.119 308.837L452.956 305.096Z" fill="#F5F5F5"/>
<path d="M379.841 413.559L381.689 417.288L385.807 417.893L382.819 420.802L383.526 424.908L379.841 422.969L376.157 424.908L376.853 420.802L373.876 417.893L377.994 417.288L379.841 413.559Z" fill="#F5F5F5"/>
<path d="M212.557 62.9048L213.241 64.2964L214.781 64.5245C214.867 64.5358 214.948 64.5712 215.014 64.6268C215.081 64.6824 215.13 64.7557 215.156 64.8383C215.183 64.9209 215.185 65.0092 215.163 65.093C215.141 65.1769 215.095 65.2526 215.032 65.3116L213.891 66.3951L214.154 67.9236C214.167 68.0087 214.157 68.0958 214.124 68.1754C214.091 68.255 214.037 68.324 213.967 68.3747C213.898 68.4254 213.815 68.4559 213.729 68.4629C213.644 68.4698 213.557 68.4529 213.481 68.4141L212.112 67.6841L210.743 68.4141C210.666 68.4529 210.58 68.4698 210.494 68.4629C210.408 68.4559 210.326 68.4254 210.257 68.3747C210.187 68.324 210.133 68.255 210.1 68.1754C210.067 68.0958 210.057 68.0087 210.07 67.9236L210.321 66.3951L209.18 65.3116C209.117 65.2519 209.071 65.1752 209.05 65.0905C209.028 65.0058 209.031 64.9167 209.059 64.8338C209.087 64.7509 209.138 64.6777 209.206 64.6229C209.274 64.5681 209.356 64.5339 209.443 64.5245L210.971 64.2964L211.656 62.9048C211.683 62.8064 211.742 62.7196 211.823 62.6578C211.905 62.596 212.004 62.5625 212.106 62.5625C212.208 62.5625 212.308 62.596 212.389 62.6578C212.47 62.7196 212.529 62.8064 212.557 62.9048Z" fill="#EBEBEB"/>
<path d="M24.17 395.798L24.8544 397.178L26.3828 397.406C26.4696 397.418 26.5513 397.454 26.6185 397.51C26.6858 397.566 26.736 397.64 26.7633 397.724C26.7906 397.807 26.7941 397.896 26.7732 397.981C26.7523 398.066 26.7079 398.144 26.6452 398.205L25.5045 399.277L25.7669 400.805C25.7803 400.89 25.7701 400.978 25.7372 401.057C25.7043 401.137 25.65 401.206 25.5804 401.256C25.5108 401.307 25.4286 401.338 25.3427 401.345C25.2569 401.352 25.1708 401.335 25.0939 401.296L23.7251 400.577L22.3564 401.296C22.2795 401.335 22.1934 401.352 22.1076 401.345C22.0217 401.338 21.9395 401.307 21.8699 401.256C21.8003 401.206 21.746 401.137 21.7131 401.057C21.6802 400.978 21.6699 400.89 21.6834 400.805L21.9458 399.277L20.8051 398.205C20.7426 398.144 20.6981 398.068 20.6766 397.984C20.6551 397.899 20.6576 397.811 20.6836 397.728C20.7097 397.645 20.7583 397.571 20.8241 397.514C20.8899 397.457 20.9702 397.42 21.0561 397.406L22.5845 397.178L23.2803 395.798C23.3108 395.704 23.3702 395.622 23.4502 395.564C23.5301 395.506 23.6263 395.475 23.7251 395.475C23.8239 395.475 23.9202 395.506 24.0001 395.564C24.08 395.622 24.1395 395.704 24.17 395.798Z" fill="#F5F5F5"/>
<path d="M54.9328 48.2493L55.6172 49.6409L57.157 49.8576C57.2429 49.8713 57.3232 49.9086 57.389 49.9654C57.4548 50.0222 57.5034 50.0963 57.5295 50.1792C57.5556 50.2621 57.558 50.3506 57.5365 50.4349C57.5151 50.5191 57.4705 50.5957 57.408 50.656L56.2673 51.7967L56.5297 53.3137C56.5479 53.3998 56.5409 53.4894 56.5093 53.5715C56.4778 53.6537 56.4232 53.725 56.3521 53.7769C56.2809 53.8287 56.1963 53.8589 56.1084 53.8637C56.0205 53.8686 55.9331 53.8479 55.8567 53.8042L54.488 53.0856L53.1192 53.8042C53.0428 53.8479 52.9554 53.8686 52.8675 53.8637C52.7796 53.8589 52.695 53.8287 52.6239 53.7769C52.5527 53.725 52.4981 53.6537 52.4666 53.5715C52.4351 53.4894 52.428 53.3998 52.4462 53.3137L52.6972 51.7967L51.5565 50.656C51.4938 50.5949 51.4494 50.5175 51.4285 50.4324C51.4076 50.3473 51.4111 50.2581 51.4384 50.1749C51.4657 50.0917 51.5159 50.0178 51.5832 49.9617C51.6504 49.9056 51.7321 49.8695 51.8189 49.8576L53.3473 49.6409L54.0773 48.2493C54.114 48.1664 54.1739 48.096 54.2498 48.0465C54.3258 47.997 54.4145 47.9707 54.5051 47.9707C54.5957 47.9707 54.6844 47.997 54.7603 48.0465C54.8362 48.096 54.8962 48.1664 54.9328 48.2493Z" fill="#EBEBEB"/>
<path d="M53.0848 323.164C53.0871 323.464 53 323.759 52.8347 324.01C52.6694 324.261 52.4333 324.457 52.1563 324.574C51.8793 324.69 51.5739 324.722 51.2789 324.665C50.9838 324.607 50.7125 324.464 50.4992 324.252C50.2859 324.04 50.1402 323.77 50.0808 323.475C50.0213 323.181 50.0507 322.875 50.1652 322.597C50.2796 322.319 50.4741 322.082 50.7238 321.915C50.9735 321.747 51.2673 321.658 51.5678 321.658C51.9682 321.658 52.3523 321.816 52.6365 322.099C52.9206 322.381 53.0818 322.763 53.0848 323.164Z" fill="#EBEBEB"/>
<path d="M269.28 133.328C269.282 133.628 269.195 133.923 269.03 134.174C268.865 134.425 268.629 134.621 268.352 134.738C268.075 134.854 267.769 134.886 267.474 134.829C267.179 134.771 266.908 134.628 266.694 134.416C266.481 134.204 266.336 133.934 266.276 133.64C266.217 133.345 266.246 133.039 266.36 132.761C266.475 132.484 266.669 132.246 266.919 132.079C267.169 131.912 267.463 131.822 267.763 131.822C267.962 131.821 268.159 131.859 268.343 131.934C268.527 132.009 268.694 132.119 268.835 132.259C268.976 132.399 269.088 132.566 269.164 132.749C269.241 132.933 269.28 133.129 269.28 133.328Z" fill="#EBEBEB"/>
<path d="M190.622 49.5034C190.622 49.8034 190.533 50.0967 190.366 50.3462C190.2 50.5957 189.963 50.7901 189.685 50.9049C189.408 51.0197 189.103 51.0498 188.809 50.9913C188.515 50.9327 188.244 50.7882 188.032 50.5761C187.82 50.3639 187.676 50.0936 187.617 49.7993C187.559 49.505 187.589 49.2 187.703 48.9228C187.818 48.6456 188.013 48.4087 188.262 48.242C188.512 48.0753 188.805 47.9863 189.105 47.9863C189.506 47.9893 189.89 48.1501 190.174 48.434C190.458 48.7178 190.619 49.1019 190.622 49.5034Z" fill="#F5F5F5"/>
<path d="M193.024 419.231C197.531 418.167 200.321 413.652 199.258 409.146C198.194 404.639 193.679 401.848 189.173 402.912C184.666 403.976 181.875 408.491 182.939 412.997C184.003 417.504 188.518 420.295 193.024 419.231Z" fill="#F0F0F0"/>
<path d="M188.216 406.168C186.498 406.164 184.824 406.708 183.436 407.719C182.727 409.345 182.553 411.155 182.939 412.886C183.325 414.618 184.251 416.182 185.583 417.353C186.916 418.524 188.586 419.242 190.352 419.403C192.119 419.563 193.891 419.159 195.413 418.247C196.087 417.001 196.425 415.602 196.395 414.185C196.365 412.769 195.968 411.385 195.243 410.169C194.517 408.952 193.488 407.945 192.256 407.246C191.024 406.546 189.632 406.179 188.216 406.179V406.168Z" fill="#E6E6E6"/>
<path d="M123.291 265.356H53.8833V234.023L123.291 151.51H156.506V235.802H173.718V265.356H156.506V290.997H123.291V265.356ZM123.291 235.802V192.641L86.608 235.802H123.291Z" fill="#005596"/>
<path d="M185.592 221.863C185.592 195.788 190.284 177.538 199.667 167.113C209.051 156.688 223.351 151.479 242.567 151.486C251.79 151.486 259.368 152.627 265.299 154.908C270.688 156.85 275.621 159.874 279.797 163.794C283.316 167.154 286.298 171.036 288.637 175.303C290.951 179.758 292.695 184.487 293.827 189.378C296.405 199.827 297.692 210.553 297.659 221.316C297.659 246.197 293.45 264.405 285.032 275.941C276.614 287.476 262.117 293.248 241.54 293.255C229.997 293.255 220.67 291.415 213.56 287.735C206.393 283.994 200.356 278.406 196.075 271.549C192.767 266.5 190.193 259.591 188.352 250.824C186.442 241.29 185.517 231.586 185.592 221.863ZM223.393 221.954C223.393 239.444 224.932 251.371 228.012 257.736C231.092 264.101 235.567 267.298 241.437 267.329C243.3 267.35 245.149 267 246.876 266.301C248.603 265.602 250.174 264.567 251.498 263.257C254.342 260.542 256.433 256.253 257.771 250.39C259.11 244.528 259.779 235.403 259.779 223.015C259.779 204.811 258.235 192.572 255.148 186.298C252.06 180.025 247.429 176.892 241.255 176.9C234.959 176.9 230.396 180.097 227.567 186.492C224.739 192.887 223.347 204.708 223.393 221.954Z" fill="#005596"/>
<path d="M378.86 265.356H309.453V234.023L378.86 151.51H412.076V235.802H429.345V265.356H412.076V290.997H378.86V265.356ZM378.86 235.802V192.641L342.189 235.802H378.86Z" fill="#005596"/>
<g opacity="0.3">
<path d="M184.11 103.363C184.11 103.786 183.984 104.199 183.749 104.55C183.515 104.901 183.181 105.174 182.79 105.335C182.4 105.496 181.97 105.538 181.556 105.455C181.142 105.371 180.762 105.167 180.464 104.868C180.167 104.568 179.964 104.187 179.883 103.773C179.802 103.358 179.846 102.929 180.009 102.539C180.173 102.15 180.448 101.817 180.8 101.584C181.152 101.351 181.566 101.228 181.988 101.23C182.268 101.23 182.545 101.286 182.803 101.393C183.061 101.5 183.295 101.658 183.492 101.856C183.69 102.054 183.846 102.289 183.951 102.548C184.057 102.807 184.111 103.084 184.11 103.363Z" fill="#005596"/>
<path d="M38.075 185.294C38.9065 185.294 39.5806 184.62 39.5806 183.789C39.5806 182.957 38.9065 182.283 38.075 182.283C37.2434 182.283 36.5693 182.957 36.5693 183.789C36.5693 184.62 37.2434 185.294 38.075 185.294Z" fill="#005596"/>
<path d="M286.824 405.175C288.014 405.175 288.98 404.21 288.98 403.019C288.98 401.828 288.014 400.863 286.824 400.863C285.633 400.863 284.668 401.828 284.668 403.019C284.668 404.21 285.633 405.175 286.824 405.175Z" fill="#005596"/>
<path d="M338.665 317.46C339.496 317.46 340.17 316.786 340.17 315.955C340.17 315.123 339.496 314.449 338.665 314.449C337.833 314.449 337.159 315.123 337.159 315.955C337.159 316.786 337.833 317.46 338.665 317.46Z" fill="#005596"/>
<path d="M438.665 46.3318C438.665 46.6296 438.576 46.9207 438.411 47.1683C438.245 47.4159 438.01 47.6089 437.735 47.7228C437.46 47.8368 437.157 47.8666 436.865 47.8085C436.573 47.7504 436.305 47.607 436.094 47.3964C435.884 47.1859 435.74 46.9176 435.682 46.6255C435.624 46.3335 435.654 46.0307 435.768 45.7556C435.882 45.4805 436.075 45.2454 436.322 45.0799C436.57 44.9145 436.861 44.8262 437.159 44.8262C437.558 44.8262 437.941 44.9848 438.224 45.2672C438.506 45.5495 438.665 45.9325 438.665 46.3318Z" fill="#005596"/>
<path d="M151.887 15.9685C151.887 16.2663 151.798 16.5574 151.633 16.805C151.468 17.0526 151.232 17.2456 150.957 17.3595C150.682 17.4735 150.379 17.5033 150.087 17.4452C149.795 17.3871 149.527 17.2437 149.316 17.0332C149.106 16.8226 148.963 16.5543 148.904 16.2623C148.846 15.9702 148.876 15.6675 148.99 15.3923C149.104 15.1172 149.297 14.8821 149.545 14.7166C149.792 14.5512 150.083 14.4629 150.381 14.4629C150.78 14.4659 151.161 14.6255 151.442 14.9072C151.724 15.1889 151.884 15.5701 151.887 15.9685Z" fill="#005596"/>
<path d="M271.596 94.9683C272.428 94.9683 273.102 94.2942 273.102 93.4627C273.102 92.6311 272.428 91.957 271.596 91.957C270.765 91.957 270.091 92.6311 270.091 93.4627C270.091 94.2942 270.765 94.9683 271.596 94.9683Z" fill="#005596"/>
</g>
<path d="M115.934 94.9805C129.736 94.9805 140.925 83.7915 140.925 69.9893C140.925 56.187 129.736 44.998 115.934 44.998C102.132 44.998 90.9429 56.187 90.9429 69.9893C90.9429 83.7915 102.132 94.9805 115.934 94.9805Z" fill="#005596"/>
<path opacity="0.7" d="M115.934 94.9805C129.736 94.9805 140.925 83.7915 140.925 69.9893C140.925 56.187 129.736 44.998 115.934 44.998C102.132 44.998 90.9429 56.187 90.9429 69.9893C90.9429 83.7915 102.132 94.9805 115.934 94.9805Z" fill="white"/>
<path opacity="0.2" d="M107.323 51.1349C103.919 51.1245 100.549 51.8116 97.4218 53.1538C93.5779 57.3786 91.2964 62.7921 90.9568 68.4938C90.6173 74.1955 92.2402 79.8416 95.5556 84.4927C98.871 89.1438 103.679 92.5196 109.18 94.0583C114.68 95.5971 120.542 95.2061 125.789 92.9504C129.043 89.365 131.185 84.912 131.957 80.1324C132.728 75.3527 132.095 70.4519 130.135 66.0251C128.174 61.5982 124.971 57.8357 120.913 55.1945C116.856 52.5533 112.118 51.147 107.277 51.1463L107.323 51.1349Z" fill="#005596"/>
<path opacity="0.2" d="M104.835 57.7383C104.835 58.1895 104.702 58.6305 104.451 59.0057C104.2 59.3808 103.844 59.6732 103.427 59.8459C103.01 60.0186 102.552 60.0637 102.109 59.9757C101.667 59.8877 101.26 59.6704 100.941 59.3514C100.622 59.0323 100.405 58.6259 100.317 58.1833C100.229 57.7408 100.274 57.2821 100.447 56.8653C100.619 56.4484 100.912 56.0922 101.287 55.8415C101.662 55.5908 102.103 55.457 102.554 55.457C103.159 55.457 103.739 55.6974 104.167 56.1252C104.595 56.553 104.835 57.1333 104.835 57.7383Z" fill="#005596"/>
<path opacity="0.2" d="M131.709 55.457C131.709 55.9082 131.575 56.3493 131.325 56.7244C131.074 57.0996 130.718 57.392 130.301 57.5646C129.884 57.7373 129.425 57.7825 128.983 57.6945C128.54 57.6064 128.134 57.3892 127.815 57.0701C127.496 56.7511 127.278 56.3446 127.19 55.9021C127.102 55.4596 127.147 55.0009 127.32 54.584C127.493 54.1672 127.785 53.8109 128.16 53.5602C128.535 53.3096 128.977 53.1758 129.428 53.1758C130.033 53.1758 130.613 53.4161 131.041 53.8439C131.469 54.2718 131.709 54.852 131.709 55.457Z" fill="#005596"/>
<path opacity="0.2" d="M127.147 71.7452C127.147 72.4851 126.927 73.2085 126.516 73.8237C126.105 74.439 125.521 74.9185 124.837 75.2017C124.153 75.4848 123.401 75.5589 122.675 75.4145C121.95 75.2702 121.283 74.9139 120.76 74.3906C120.237 73.8674 119.88 73.2008 119.736 72.4751C119.592 71.7493 119.666 70.9971 119.949 70.3134C120.232 69.6298 120.712 69.0455 121.327 68.6344C121.942 68.2233 122.665 68.0039 123.405 68.0039C124.398 68.0039 125.349 68.3981 126.051 69.0997C126.752 69.8013 127.147 70.7529 127.147 71.7452Z" fill="#005596"/>
<path opacity="0.2" d="M115.261 82.41C115.261 83.3981 114.968 84.364 114.419 85.1856C113.87 86.0072 113.09 86.6475 112.177 87.0257C111.264 87.4038 110.259 87.5028 109.29 87.31C108.321 87.1172 107.431 86.6414 106.732 85.9427C106.034 85.244 105.558 84.3538 105.365 83.3847C105.172 82.4156 105.271 81.411 105.649 80.4981C106.027 79.5853 106.668 78.805 107.489 78.256C108.311 77.7071 109.277 77.4141 110.265 77.4141C111.59 77.4141 112.861 77.9404 113.798 78.8773C114.735 79.8143 115.261 81.085 115.261 82.41Z" fill="#005596"/>
<path d="M412.121 371.442C414.904 359.652 407.602 347.839 395.812 345.056C384.022 342.273 372.208 349.575 369.425 361.365C366.643 373.155 373.944 384.969 385.735 387.751C397.525 390.534 409.338 383.232 412.121 371.442Z" fill="#005596"/>
<path opacity="0.3" d="M412.121 371.442C414.904 359.652 407.602 347.839 395.812 345.056C384.022 342.273 372.208 349.575 369.425 361.365C366.643 373.155 373.944 384.969 385.735 387.751C397.525 390.534 409.338 383.232 412.121 371.442Z" fill="white"/>
<path opacity="0.4" d="M404.628 349.42C399.765 347.952 394.544 348.218 389.856 350.173C385.168 352.127 381.305 355.649 378.925 360.136C376.545 364.623 375.798 369.797 376.81 374.775C377.821 379.752 380.53 384.223 384.473 387.425C386.518 388.046 388.643 388.362 390.78 388.361C395.309 388.36 399.726 386.957 403.425 384.346C407.124 381.734 409.925 378.042 411.442 373.775C412.959 369.509 413.119 364.877 411.899 360.516C410.679 356.156 408.139 352.279 404.628 349.42Z" fill="#005596"/>
<path d="M369.838 372.986C346.421 384.004 363.884 392.502 396.882 380.639C427.44 369.655 439.086 355.808 411.711 360.108C413.182 365.868 374.914 380.776 369.838 372.986Z" fill="#005596"/>
<path opacity="0.2" d="M404.365 151.51C373.694 172.235 333.988 199.61 323.027 265.356H320.688C331.353 200.34 369.61 172.315 400.293 151.51H404.365Z" fill="black"/>
<path d="M245.703 357.325C226.313 357.325 207.139 348.577 197.797 334.296C192.037 325.468 185.341 306.978 205.279 282.306L207.047 283.743C192.949 301.195 190.349 318.704 199.713 333.053C211.119 350.504 238.027 359.287 260.999 353.037C284.53 346.638 298.811 326.175 300.191 296.895C304.902 196.736 358.112 165.882 396.962 143.355C421.109 129.359 438.55 119.253 434.717 97.9118C434.181 94.9576 433.006 92.9159 431.101 91.6612C426.14 88.3876 416.444 90.6574 405.22 93.2695C383.195 98.4023 353.037 105.429 335.072 74.8711L337.045 73.7305C354.154 102.851 382.18 96.3149 404.707 91.068C416.444 88.3419 426.573 85.9808 432.356 89.7791C434.808 91.3874 436.314 93.931 436.919 97.5354C441.036 120.439 422.09 131.435 398.08 145.351C359.675 167.616 307.092 198.105 302.438 297.054C301.001 327.395 286.104 348.622 261.558 355.295C256.387 356.672 251.055 357.355 245.703 357.325Z" fill="#005596"/>
<path opacity="0.2" d="M245.703 357.325C226.313 357.325 207.139 348.577 197.797 334.296C192.037 325.468 185.341 306.978 205.279 282.306L207.047 283.743C192.949 301.195 190.349 318.704 199.713 333.053C211.119 350.504 238.027 359.287 260.999 353.037C284.53 346.638 298.811 326.175 300.191 296.895C304.902 196.736 358.112 165.882 396.962 143.355C421.109 129.359 438.55 119.253 434.717 97.9118C434.181 94.9576 433.006 92.9159 431.101 91.6612C426.14 88.3876 416.444 90.6574 405.22 93.2695C383.195 98.4023 353.037 105.429 335.072 74.8711L337.045 73.7305C354.154 102.851 382.18 96.3149 404.707 91.068C416.444 88.3419 426.573 85.9808 432.356 89.7791C434.808 91.3874 436.314 93.931 436.919 97.5354C441.036 120.439 422.09 131.435 398.08 145.351C359.675 167.616 307.092 198.105 302.438 297.054C301.001 327.395 286.104 348.622 261.558 355.295C256.387 356.672 251.055 357.355 245.703 357.325Z" fill="white"/>
<path d="M311.586 47.9062C316.842 47.9366 322.063 48.7555 327.076 50.3358C327.076 50.3358 339.623 71.7454 341.105 76.6501C340.581 81.4864 332.425 89.4138 332.425 89.4138L311.586 47.9062Z" fill="#005596"/>
<path opacity="0.3" d="M311.586 47.9062C316.842 47.9366 322.063 48.7555 327.076 50.3358C327.076 50.3358 339.623 71.7454 341.105 76.6501C340.581 81.4864 332.425 89.4138 332.425 89.4138L311.586 47.9062Z" fill="white"/>
<path d="M348.748 151.853C343.916 145.945 339.51 139.701 335.562 133.169C334.604 131.519 333.696 129.839 332.836 128.128C332.346 127.158 331.878 126.189 331.422 125.208C330.823 124.253 330.359 123.221 330.042 122.139C328.673 107.688 333.623 97.0455 328.901 85.4453L310.104 92.791C310.104 92.791 311.7 113.459 315.35 125.869C317.632 133.546 322.742 140.184 327.681 146.332C329.22 148.248 330.703 150.222 332.243 152.149C333.783 154.077 335.334 155.64 336.806 157.453C339.03 160.202 339.76 162.837 338.083 166.076L337.798 166.59C337.319 167.434 339.555 168.392 340.969 166.59C343.25 163.647 342.931 163.829 344.916 161.32C346.125 159.803 347.505 158.149 348.702 156.757C349.28 156.073 349.601 155.209 349.609 154.313C349.618 153.418 349.313 152.548 348.748 151.853Z" fill="#005596"/>
<path opacity="0.7" d="M348.748 151.853C343.916 145.945 339.51 139.701 335.562 133.169C334.604 131.519 333.696 129.839 332.836 128.128C332.346 127.158 331.878 126.189 331.422 125.208C330.823 124.253 330.359 123.221 330.042 122.139C328.673 107.688 333.623 97.0455 328.901 85.4453L310.104 92.791C310.104 92.791 311.7 113.459 315.35 125.869C317.632 133.546 322.742 140.184 327.681 146.332C329.22 148.248 330.703 150.222 332.243 152.149C333.783 154.077 335.334 155.64 336.806 157.453C339.03 160.202 339.76 162.837 338.083 166.076L337.798 166.59C337.319 167.434 339.555 168.392 340.969 166.59C343.25 163.647 342.931 163.829 344.916 161.32C346.125 159.803 347.505 158.149 348.702 156.757C349.28 156.073 349.601 155.209 349.609 154.313C349.618 153.418 349.313 152.548 348.748 151.853Z" fill="white"/>
<path opacity="0.3" d="M344.151 145.91C341.168 149.108 337.858 151.983 334.273 154.488C334.764 155.035 335.243 155.628 335.733 156.153C339.322 153.729 342.581 150.849 345.429 147.587L344.151 145.91Z" fill="#005596"/>
<path opacity="0.3" d="M348.748 151.851L348.611 151.691C347.734 152.698 347.223 153.973 347.163 155.307C347.089 156.223 347.238 157.142 347.596 157.988L348.68 156.699C349.246 156.021 349.562 155.17 349.575 154.287C349.587 153.404 349.295 152.544 348.748 151.851Z" fill="#005596"/>
<path d="M307.115 61.5945C305.077 64.6458 302.632 67.4049 299.849 69.7956C298.305 71.126 296.613 72.2742 294.807 73.2175C293.858 73.7038 292.874 74.1193 291.864 74.4608L291.089 74.7117L290.838 74.7802L290.302 74.9284C289.972 75.0068 289.636 75.0602 289.298 75.0881C288.336 75.1617 287.368 75.073 286.435 74.8258C285.258 74.4919 284.131 74.0048 283.081 73.3772C282.237 72.8835 281.418 72.3467 280.629 71.7689C279.203 70.7082 277.84 69.5656 276.546 68.347C274.051 65.983 271.761 63.4111 269.702 60.6592C269.305 60.1231 269.108 59.4653 269.145 58.7995C269.182 58.1337 269.449 57.5015 269.902 57.0121C270.355 56.5227 270.965 56.2067 271.626 56.1187C272.287 56.0307 272.958 56.1762 273.523 56.5301H273.614C276.306 58.241 279.021 60.0432 281.667 61.6515C283.013 62.4386 284.313 63.237 285.602 63.8529C286.191 64.161 286.796 64.4352 287.416 64.6742C287.802 64.8446 288.215 64.945 288.636 64.9707C288.705 64.9707 288.636 64.8909 288.214 64.9023C288.081 64.8944 287.948 64.8944 287.815 64.9023L287.564 64.9593L287.941 64.7654C288.447 64.4927 288.939 64.1919 289.412 63.8643C290.433 63.1447 291.387 62.3355 292.264 61.4462C294.256 59.3579 296.123 57.1526 297.853 54.842C298.8 53.7815 300.11 53.1135 301.525 52.969C302.94 52.8245 304.358 53.2139 305.501 54.0609C306.644 54.9079 307.429 56.1513 307.702 57.5472C307.975 58.943 307.717 60.3906 306.978 61.6059L307.115 61.5945Z" fill="#005596"/>
<path opacity="0.7" d="M307.115 61.5945C305.077 64.6458 302.632 67.4049 299.849 69.7956C298.305 71.126 296.613 72.2742 294.807 73.2175C293.858 73.7038 292.874 74.1193 291.864 74.4608L291.089 74.7117L290.838 74.7802L290.302 74.9284C289.972 75.0068 289.636 75.0602 289.298 75.0881C288.336 75.1617 287.368 75.073 286.435 74.8258C285.258 74.4919 284.131 74.0048 283.081 73.3772C282.237 72.8835 281.418 72.3467 280.629 71.7689C279.203 70.7082 277.84 69.5656 276.546 68.347C274.051 65.983 271.761 63.4111 269.702 60.6592C269.305 60.1231 269.108 59.4653 269.145 58.7995C269.182 58.1337 269.449 57.5015 269.902 57.0121C270.355 56.5227 270.965 56.2067 271.626 56.1187C272.287 56.0307 272.958 56.1762 273.523 56.5301H273.614C276.306 58.241 279.021 60.0432 281.667 61.6515C283.013 62.4386 284.313 63.237 285.602 63.8529C286.191 64.161 286.796 64.4352 287.416 64.6742C287.802 64.8446 288.215 64.945 288.636 64.9707C288.705 64.9707 288.636 64.8909 288.214 64.9023C288.081 64.8944 287.948 64.8944 287.815 64.9023L287.564 64.9593L287.941 64.7654C288.447 64.4927 288.939 64.1919 289.412 63.8643C290.433 63.1447 291.387 62.3355 292.264 61.4462C294.256 59.3579 296.123 57.1526 297.853 54.842C298.8 53.7815 300.11 53.1135 301.525 52.969C302.94 52.8245 304.358 53.2139 305.501 54.0609C306.644 54.9079 307.429 56.1513 307.702 57.5472C307.975 58.943 307.717 60.3906 306.978 61.6059L307.115 61.5945Z" fill="white"/>
<path d="M265.425 54.0884L266.76 56.3697C266.76 56.3697 267.775 59.3581 269.817 59.9056L275.36 58.1148L275.075 57.6472C274.368 56.575 274.448 54.4876 274.687 52.7539C274.927 51.0201 274.037 50.9631 273.375 51.3965C272.906 51.9358 272.577 52.5821 272.417 53.2786C272.145 52.9019 271.844 52.5472 271.516 52.2178L269.828 50.5296C269.474 50.1835 269.002 49.984 268.507 49.9713C268.012 49.9587 267.53 50.1336 267.159 50.4612L265.79 51.6817C265.465 51.982 265.252 52.3838 265.186 52.8211C265.12 53.2584 265.204 53.7053 265.425 54.0884Z" fill="#005596"/>
<path opacity="0.7" d="M265.425 54.0884L266.76 56.3697C266.76 56.3697 267.775 59.3581 269.817 59.9056L275.36 58.1148L275.075 57.6472C274.368 56.575 274.448 54.4876 274.687 52.7539C274.927 51.0201 274.037 50.9631 273.375 51.3965C272.906 51.9358 272.577 52.5821 272.417 53.2786C272.145 52.9019 271.844 52.5472 271.516 52.2178L269.828 50.5296C269.474 50.1835 269.002 49.984 268.507 49.9713C268.012 49.9587 267.53 50.1336 267.159 50.4612L265.79 51.6817C265.465 51.982 265.252 52.3838 265.186 52.8211C265.12 53.2584 265.204 53.7053 265.425 54.0884Z" fill="white"/>
<path d="M317.187 45.8767C311.038 47.5065 305.148 49.9906 299.689 53.2566C298.838 53.7896 298.169 54.5701 297.774 55.4936C297.378 56.4171 297.275 57.4395 297.476 58.4236C299.678 69.1912 304.685 83.6087 310.092 92.7908L335.311 82.354C335.482 77.9056 329.357 63.5108 323.118 49.5951C322 47.0972 319.844 45.2379 317.187 45.8767Z" fill="#005596"/>
<path opacity="0.8" d="M317.187 45.8767C311.038 47.5065 305.148 49.9906 299.689 53.2566C298.838 53.7896 298.169 54.5701 297.774 55.4936C297.378 56.4171 297.275 57.4395 297.476 58.4236C299.678 69.1912 304.685 83.6087 310.092 92.7908L335.311 82.354C335.482 77.9056 329.357 63.5108 323.118 49.5951C322 47.0972 319.844 45.2379 317.187 45.8767Z" fill="white"/>
<path opacity="0.3" d="M327.031 58.4111L322.023 56.7344C323.164 59.6658 327.19 63.3728 330.008 65.5514C329.095 63.2702 328.08 60.8749 327.031 58.4111Z" fill="#005596"/>
<path d="M315.533 34.5838C313.445 30.6144 308.94 28.6183 303.533 29.0631C298.971 29.4509 294.933 34.1047 295.412 36.6141C295.891 39.1235 299.723 40.1957 300.453 41.0625L297.294 43.3438C296.92 43.614 296.604 43.957 296.366 44.3524C296.127 44.7478 295.972 45.1873 295.908 45.6444C295.844 46.1016 295.873 46.5669 295.994 47.0125C296.114 47.4581 296.324 47.8746 296.609 48.2371C297.944 49.9252 299.701 51.659 300.716 52.9365C309.453 52.7084 315.92 49.3777 318.259 46.1726C317.38 42.1119 317.563 38.5303 315.533 34.5838Z" fill="#005596"/>
<path opacity="0.8" d="M315.533 34.5838C313.445 30.6144 308.94 28.6183 303.533 29.0631C298.971 29.4509 294.933 34.1047 295.412 36.6141C295.891 39.1235 299.723 40.1957 300.453 41.0625L297.294 43.3438C296.92 43.614 296.604 43.957 296.366 44.3524C296.127 44.7478 295.972 45.1873 295.908 45.6444C295.844 46.1016 295.873 46.5669 295.994 47.0125C296.114 47.4581 296.324 47.8746 296.609 48.2371C297.944 49.9252 299.701 51.659 300.716 52.9365C309.453 52.7084 315.92 49.3777 318.259 46.1726C317.38 42.1119 317.563 38.5303 315.533 34.5838Z" fill="white"/>
<path d="M311.244 37.0472C311.864 38.6379 311.999 40.3768 311.631 42.0441C311.263 43.7114 310.409 45.2322 309.177 46.4143C307.945 47.5964 306.39 48.3868 304.709 48.6854C303.028 48.984 301.296 48.7776 299.733 48.0922C298.169 47.4067 296.843 46.2731 295.924 44.8345C295.004 43.3959 294.532 41.717 294.566 40.0099C294.601 38.3029 295.14 36.6444 296.117 35.244C297.094 33.8437 298.464 32.7643 300.054 32.1425C302.188 31.311 304.566 31.3605 306.664 32.28C308.761 33.1996 310.409 34.9142 311.244 37.0472Z" fill="#263238"/>
<path d="M385.305 139.841C385.18 136.089 385.009 136.419 384.906 133.26C384.838 131.321 384.826 129.165 384.815 127.306C384.811 126.423 384.503 125.568 383.941 124.887C383.38 124.205 382.601 123.738 381.735 123.564C380.23 123.257 378.713 122.971 377.173 122.652C375.199 122.23 373.249 121.774 371.321 121.215C369.816 120.781 368.333 120.302 366.861 119.766C365.39 119.23 363.736 118.626 362.208 117.918C360.405 117.154 358.626 116.333 356.869 115.477C354.896 114.542 352.946 113.561 350.995 112.569C343.49 100.147 343.33 91.9576 335.277 82.3535L317.985 90.1782C317.985 90.1782 330.692 112.717 339.338 122.276C344.323 127.773 352.136 130.26 359.105 132.062C364.135 133.351 369.234 134.343 374.332 135.29C376.317 135.655 378.473 135.792 380.184 136.978C381.45 137.949 382.318 139.348 382.625 140.913C382.701 141.233 382.769 141.552 382.83 141.872C383.047 142.83 385.385 142.1 385.305 139.841Z" fill="#005596"/>
<path opacity="0.8" d="M385.305 139.841C385.18 136.089 385.009 136.419 384.906 133.26C384.838 131.321 384.826 129.165 384.815 127.306C384.811 126.423 384.503 125.568 383.941 124.887C383.38 124.205 382.601 123.738 381.735 123.564C380.23 123.257 378.713 122.971 377.173 122.652C375.199 122.23 373.249 121.774 371.321 121.215C369.816 120.781 368.333 120.302 366.861 119.766C365.39 119.23 363.736 118.626 362.208 117.918C360.405 117.154 358.626 116.333 356.869 115.477C354.896 114.542 352.946 113.561 350.995 112.569C343.49 100.147 343.33 91.9576 335.277 82.3535L317.985 90.1782C317.985 90.1782 330.692 112.717 339.338 122.276C344.323 127.773 352.136 130.26 359.105 132.062C364.135 133.351 369.234 134.343 374.332 135.29C376.317 135.655 378.473 135.792 380.184 136.978C381.45 137.949 382.318 139.348 382.625 140.913C382.701 141.233 382.769 141.552 382.83 141.872C383.047 142.83 385.385 142.1 385.305 139.841Z" fill="white"/>
<path opacity="0.3" d="M376.534 122.503C375.85 122.355 375.165 122.206 374.47 122.035C374.527 125.982 372.679 132.78 372.006 134.844L374.173 135.255C375.593 131.146 376.389 126.848 376.534 122.503Z" fill="#005596"/>
<path opacity="0.3" d="M384.86 127.306C384.857 126.424 384.55 125.571 383.991 124.89C383.432 124.208 382.656 123.74 381.792 123.564L380.651 123.348C380.835 124.644 381.498 125.825 382.511 126.655C383.162 127.257 383.942 127.702 384.792 127.956C384.86 127.75 384.86 127.522 384.86 127.306Z" fill="#005596"/>
<path d="M309.636 37.116C310.092 38.8497 308.153 40.6633 306.613 39.1691C305.176 37.6282 303.603 36.2195 301.914 34.9602C300.328 33.9678 302.439 32.2341 304.937 32.9071C306.003 33.1748 306.987 33.6979 307.806 34.4312C308.625 35.1644 309.253 36.0859 309.636 37.116Z" fill="white"/>
<path d="M309.761 92.2316C308.963 92.5282 310.423 93.8969 310.423 93.8969C310.423 93.8969 326.392 88.4333 336.087 82.81C336.11 82.4696 336.052 82.1285 335.917 81.815C335.782 81.5016 335.575 81.2248 335.311 81.0078C327.014 85.2288 318.483 88.9761 309.761 92.2316Z" fill="#005596"/>
<path opacity="0.5" d="M309.761 92.2316C308.963 92.5282 310.423 93.8969 310.423 93.8969C310.423 93.8969 326.392 88.4333 336.087 82.81C336.11 82.4696 336.052 82.1285 335.917 81.815C335.782 81.5016 335.575 81.2248 335.311 81.0078C327.014 85.2288 318.483 88.9761 309.761 92.2316Z" fill="white"/>
<path d="M321.51 45.123C324.658 46.7199 327.613 48.3966 330.635 50.2559C332.107 51.1912 333.567 52.1379 335.015 53.1645C336.464 54.191 337.901 55.2404 339.35 56.4267L339.886 56.8715L340.559 57.4875C340.96 57.8463 341.341 58.227 341.699 58.6281C342.064 59.0273 342.372 59.4151 342.669 59.7687C342.966 60.1223 343.285 60.5443 343.547 60.9093C344.61 62.3757 345.593 63.8988 346.49 65.4719C348.258 68.5223 349.783 71.7069 351.053 74.9961C351.287 75.6176 351.299 76.3011 351.087 76.9305C350.874 77.5599 350.451 78.0963 349.887 78.4485C349.324 78.8007 348.656 78.947 347.997 78.8624C347.339 78.7778 346.729 78.4676 346.273 77.9846L346.216 77.9161C343.935 75.4866 341.734 72.9316 339.521 70.5477C337.308 68.1637 335.061 65.7456 333.202 64.6848C330.612 63.0765 327.727 61.4683 324.864 59.8942L316.241 55.1035C314.903 54.3956 313.902 53.1856 313.457 51.7396C313.012 50.2935 313.16 48.73 313.868 47.3929C314.576 46.0558 315.786 45.0546 317.232 44.6097C318.678 44.1648 320.242 44.3125 321.579 45.0204L321.51 45.123Z" fill="#005596"/>
<path opacity="0.8" d="M321.51 45.123C324.658 46.7199 327.613 48.3966 330.635 50.2559C332.107 51.1912 333.567 52.1379 335.015 53.1645C336.464 54.191 337.901 55.2404 339.35 56.4267L339.886 56.8715L340.559 57.4875C340.96 57.8463 341.341 58.227 341.699 58.6281C342.064 59.0273 342.372 59.4151 342.669 59.7687C342.966 60.1223 343.285 60.5443 343.547 60.9093C344.61 62.3757 345.593 63.8988 346.49 65.4719C348.258 68.5223 349.783 71.7069 351.053 74.9961C351.287 75.6176 351.299 76.3011 351.087 76.9305C350.874 77.5599 350.451 78.0963 349.887 78.4485C349.324 78.8007 348.656 78.947 347.997 78.8624C347.339 78.7778 346.729 78.4676 346.273 77.9846L346.216 77.9161C343.935 75.4866 341.734 72.9316 339.521 70.5477C337.308 68.1637 335.061 65.7456 333.202 64.6848C330.612 63.0765 327.727 61.4683 324.864 59.8942L316.241 55.1035C314.903 54.3956 313.902 53.1856 313.457 51.7396C313.012 50.2935 313.16 48.73 313.868 47.3929C314.576 46.0558 315.786 45.0546 317.232 44.6097C318.678 44.1648 320.242 44.3125 321.579 45.0204L321.51 45.123Z" fill="white"/>
<path d="M353.755 80.688L352.785 78.2585C352.785 78.2585 352.249 75.1559 350.321 74.2891L344.618 75.1902L344.812 75.692C345.337 76.8327 344.938 78.92 344.424 80.5853C343.911 82.2507 344.778 82.4674 345.508 82.1366C345.919 81.9541 346.318 81.2127 346.751 80.4257C346.964 80.8222 347.204 81.2033 347.47 81.5663L348.873 83.4939C349.166 83.8934 349.599 84.1672 350.086 84.2603C350.573 84.3534 351.076 84.2589 351.496 83.9958L353.048 83.0035C353.411 82.755 353.678 82.3904 353.807 81.9697C353.935 81.5489 353.917 81.0969 353.755 80.688Z" fill="#005596"/>
<path opacity="0.8" d="M353.755 80.688L352.785 78.2585C352.785 78.2585 352.249 75.1559 350.321 74.2891L344.618 75.1902L344.812 75.692C345.337 76.8327 344.938 78.92 344.424 80.5853C343.911 82.2507 344.778 82.4674 345.508 82.1366C345.919 81.9541 346.318 81.2127 346.751 80.4257C346.964 80.8222 347.204 81.2033 347.47 81.5663L348.873 83.4939C349.166 83.8934 349.599 84.1672 350.086 84.2603C350.573 84.3534 351.076 84.2589 351.496 83.9958L353.048 83.0035C353.411 82.755 353.678 82.3904 353.807 81.9697C353.935 81.5489 353.917 81.0969 353.755 80.688Z" fill="white"/>
<path opacity="0.3" d="M316.697 58.2402L315.305 58.3543L306.762 78.9769C307.229 79.0105 307.698 78.972 308.153 78.8628C308.153 78.8628 319.286 74.7109 322.651 73.1597C320.392 68.4945 316.697 58.2402 316.697 58.2402Z" fill="#005596"/>
<path d="M301.104 63.648C302.142 69.0388 304.069 74.2195 306.807 78.9781C310.981 77.5409 317.939 74.8262 321.315 73.2749C319.046 68.41 317.032 63.4301 315.282 58.3555C311.711 58.595 303.875 61.5949 301.104 63.648Z" fill="white"/>
<path opacity="0.3" d="M309.579 68.106C309.412 68.6638 309.084 69.1596 308.635 69.5307C308.186 69.9018 307.638 70.1315 307.059 70.1907C306.479 70.2499 305.896 70.136 305.381 69.8634C304.867 69.5908 304.445 69.1718 304.169 68.6593C303.892 68.1468 303.774 67.5639 303.83 66.9843C303.885 66.4048 304.111 65.8546 304.479 65.4034C304.846 64.9522 305.34 64.6203 305.897 64.4496C306.453 64.2789 307.048 64.2772 307.605 64.4446C308.352 64.6689 308.98 65.1805 309.35 65.867C309.72 66.5535 309.802 67.3588 309.579 68.106Z" fill="#005596"/>
<path opacity="0.6" d="M311.757 64.1822C311.713 64.3726 311.612 64.5451 311.468 64.6771C311.324 64.809 311.143 64.8943 310.949 64.9217C310.756 64.9491 310.558 64.9173 310.383 64.8305C310.208 64.7438 310.063 64.606 309.967 64.4354C309.872 64.2648 309.83 64.0694 309.848 63.8746C309.865 63.6799 309.941 63.495 310.066 63.3443C310.19 63.1936 310.357 63.084 310.545 63.0299C310.733 62.9759 310.933 62.98 311.119 63.0415C311.35 63.1154 311.544 63.2743 311.663 63.486C311.781 63.6977 311.815 63.9465 311.757 64.1822Z" fill="#005596"/>
<path opacity="0.6" d="M314.312 63.1908C314.286 63.3232 314.232 63.4484 314.154 63.5586C314.076 63.6688 313.975 63.7615 313.86 63.8308C313.744 63.9 313.615 63.9443 313.481 63.9608C313.347 63.9773 313.211 63.9656 313.081 63.9266C312.952 63.8875 312.833 63.8218 312.73 63.7339C312.628 63.6459 312.545 63.5375 312.487 63.4156C312.429 63.2937 312.397 63.1611 312.393 63.0261C312.389 62.8912 312.414 62.7569 312.465 62.6319C312.501 62.5112 312.561 62.3989 312.641 62.3014C312.721 62.204 312.82 62.1232 312.931 62.0639C313.042 62.0046 313.164 61.9678 313.289 61.9556C313.415 61.9435 313.542 61.9562 313.662 61.9932C313.906 62.0671 314.112 62.2343 314.233 62.4585C314.355 62.6827 314.383 62.9458 314.312 63.1908Z" fill="#005596"/>
<path opacity="0.5" d="M317.894 72.0759L307.343 76.2392L306.716 74.1633L317.255 70L317.894 72.0759Z" fill="#005596"/>
<path opacity="0.2" d="M259.687 230.601C259.663 237.243 259.021 243.868 257.771 250.391C256.425 256.254 254.334 260.542 251.498 263.257C250.177 264.569 248.608 265.604 246.882 266.303C245.157 267.002 243.31 267.351 241.449 267.329C235.586 267.329 231.111 264.132 228.023 257.736C227.481 256.588 227.02 255.402 226.643 254.189C220.123 259.789 214.052 265.891 208.484 272.439L202.428 279.579C205.687 282.883 209.448 285.651 213.572 287.781C220.674 291.453 229.997 293.294 241.54 293.301C243.57 293.301 245.532 293.244 247.437 293.13C254.421 282.797 260.199 271.699 264.661 260.052L281.599 215.887L259.687 230.601Z" fill="black"/>
<path d="M106.991 290.86L126.952 310.821L182.843 258.158C163.578 250.801 126.12 271.686 106.991 290.86Z" fill="#263238"/>
<path d="M176.604 360.438C170.227 354.05 156.643 340.477 156.643 340.477L209.305 284.586C216.617 303.806 195.732 341.298 176.604 360.438Z" fill="#263238"/>
<path d="M253.003 234.627L274.778 192.641L232.791 214.438C219.305 221.432 206.852 230.261 195.789 240.673L124.214 308.05L159.38 343.215L226.757 271.641C237.173 260.574 246.006 248.118 253.003 234.627Z" fill="#005596"/>
<path opacity="0.6" d="M253.003 234.627L274.778 192.641L232.791 214.438C219.305 221.432 206.852 230.261 195.789 240.673L124.214 308.05L159.38 343.215L226.757 271.641C237.173 260.574 246.006 248.118 253.003 234.627Z" fill="white"/>
<path d="M208.29 273.842C216.417 273.842 223.004 267.255 223.004 259.128C223.004 251.002 216.417 244.414 208.29 244.414C200.164 244.414 193.576 251.002 193.576 259.128C193.576 267.255 200.164 273.842 208.29 273.842Z" fill="white"/>
<path d="M208.29 268.584C213.513 268.584 217.746 264.35 217.746 259.128C217.746 253.905 213.513 249.672 208.29 249.672C203.068 249.672 198.834 253.905 198.834 259.128C198.834 264.35 203.068 268.584 208.29 268.584Z" fill="#005596"/>
<path opacity="0.3" d="M171.277 330.576L136.841 296.14L165.038 269.609L197.808 302.391L171.277 330.576Z" fill="#005596"/>
<path d="M114.781 322.365C89.0031 324.453 80.4598 340.958 77.5398 362.892C76.057 374.081 75.3954 385.408 66.008 391.955C65.4433 392.339 65.0181 392.895 64.7961 393.541C64.5742 394.187 64.5673 394.887 64.7767 395.537C64.9861 396.187 65.4003 396.752 65.9575 397.146C66.5147 397.541 67.1847 397.745 67.8673 397.727C102.474 396.643 118.614 379.705 120.644 372.633C120.111 376.33 119.158 379.954 117.804 383.435C117.555 384.049 117.506 384.726 117.665 385.37C117.823 386.013 118.181 386.59 118.686 387.019C119.192 387.447 119.82 387.705 120.481 387.756C121.141 387.807 121.801 387.648 122.367 387.301C132.073 381.222 144.255 370.021 145.065 351.851C137.925 341.733 114.781 322.365 114.781 322.365Z" fill="#005596"/>
<path opacity="0.2" d="M114.781 322.365C89.0031 324.453 80.4598 340.958 77.5398 362.892C76.057 374.081 75.3954 385.408 66.008 391.955C65.4433 392.339 65.0181 392.895 64.7961 393.541C64.5742 394.187 64.5673 394.887 64.7767 395.537C64.9861 396.187 65.4003 396.752 65.9575 397.146C66.5147 397.541 67.1847 397.745 67.8673 397.727C102.474 396.643 118.614 379.705 120.644 372.633C120.111 376.33 119.158 379.954 117.804 383.435C117.555 384.049 117.506 384.726 117.665 385.37C117.823 386.013 118.181 386.59 118.686 387.019C119.192 387.447 119.82 387.705 120.481 387.756C121.141 387.807 121.801 387.648 122.367 387.301C132.073 381.222 144.255 370.021 145.065 351.851C137.925 341.733 114.781 322.365 114.781 322.365Z" fill="white"/>
<path d="M149.069 359.641L107.778 318.35L129.769 313.594L153.825 337.65L149.069 359.641Z" fill="#005596"/>
</svg>
