<svg width="480" height="358" viewBox="0 0 480 358" fill="none" xmlns="http://www.w3.org/2000/svg">
<path d="M480 314.475H0V314.715H480V314.475Z" fill="#E0E0E0"/>
<path d="M105.043 325.986H49.584V326.226H105.043V325.986Z" fill="#E0E0E0"/>
<path d="M226.234 320.773H200.967V321.013H226.234V320.773Z" fill="#E0E0E0"/>
<path d="M284.698 320.648H235.469V320.888H284.698V320.648Z" fill="#E0E0E0"/>
<path d="M378.403 323.529H366.412V323.769H378.403V323.529Z" fill="#E0E0E0"/>
<path d="M325.009 323.529H277.182V323.769H325.009V323.529Z" fill="#E0E0E0"/>
<path d="M123.84 325.986H114.336V326.226H123.84V325.986Z" fill="#E0E0E0"/>
<path d="M427.756 323.529H386.236V323.769H427.756V323.529Z" fill="#E0E0E0"/>
<path d="M227.522 271.66H42.1556C40.7034 271.657 39.3116 271.079 38.2857 270.051C37.2598 269.023 36.6836 267.63 36.6836 266.178V5.60547C36.6962 4.16166 37.278 2.78113 38.3026 1.76376C39.3271 0.746395 40.7117 0.174348 42.1556 0.171875H227.522C228.976 0.171875 230.37 0.749399 231.398 1.7774C232.426 2.8054 233.004 4.19966 233.004 5.65347V266.178C233.004 267.632 232.426 269.026 231.398 270.054C230.37 271.082 228.976 271.66 227.522 271.66ZM42.1556 0.363876C40.7671 0.366419 39.4363 0.919778 38.4554 1.90249C37.4745 2.88521 36.9236 4.21698 36.9236 5.60547V266.178C36.9236 267.567 37.4745 268.899 38.4554 269.881C39.4363 270.864 40.7671 271.417 42.1556 271.42H227.522C228.911 271.417 230.243 270.864 231.226 269.882C232.208 268.899 232.761 267.568 232.764 266.178V5.60547C232.761 4.2161 232.208 2.88435 231.226 1.90191C230.243 0.919466 228.911 0.366413 227.522 0.363876H42.1556Z" fill="#E0E0E0"/>
<path d="M435.178 271.66H249.802C248.349 271.657 246.956 271.079 245.929 270.052C244.901 269.024 244.323 267.631 244.32 266.178V5.60547C244.335 4.16078 244.919 2.78027 245.945 1.76316C246.972 0.746059 248.357 0.174321 249.802 0.171875H435.178C436.62 0.176871 438.002 0.750034 439.025 1.76713C440.047 2.78423 440.628 4.16332 440.64 5.60547V266.178C440.64 267.629 440.065 269.02 439.042 270.048C438.018 271.075 436.628 271.655 435.178 271.66ZM249.802 0.363876C248.413 0.366413 247.081 0.919466 246.098 1.90191C245.116 2.88435 244.563 4.2161 244.56 5.60547V266.178C244.563 267.568 245.116 268.899 246.098 269.882C247.081 270.864 248.413 271.417 249.802 271.42H435.178C436.567 271.417 437.899 270.864 438.881 269.882C439.864 268.899 440.417 267.568 440.42 266.178V5.60547C440.417 4.2161 439.864 2.88435 438.881 1.90191C437.899 0.919466 436.567 0.366413 435.178 0.363876H249.802Z" fill="#E0E0E0"/>
<path d="M73.5548 78.7096C69.3692 69.6664 72.6908 63.2344 82.9148 63.2344C89.3372 63.2344 97.3148 65.7688 104.995 69.8872C105.878 67.5352 108.336 66.1336 112.3 66.1336C119.28 66.1336 128.908 70.4824 136.454 76.6264C138.781 75.0751 141.52 74.259 144.316 74.284C151.036 74.0056 159.081 76.5112 166.118 80.5816C166.531 80.1905 167.018 79.8856 167.551 79.6845C168.083 79.4834 168.65 79.3902 169.219 79.4104C173.059 79.2568 178.272 81.7816 180.864 85.0456C181.027 85.2568 181.161 85.4488 181.305 85.6504H71.5196C71.3025 84.4148 71.3732 83.1459 71.7262 81.9422C72.0791 80.7384 72.7049 79.6322 73.5548 78.7096Z" fill="#F5F5F5"/>
<path d="M198.068 35.6908C198.405 35.6522 198.745 35.633 199.085 35.6332C198.768 32.1004 200.602 29.8732 204.509 29.8732C207.332 29.8732 210.788 31.054 214.32 33.0508C213.312 26.1964 216.538 21.7324 223.863 21.7324C229.767 21.7324 237.236 24.6124 244.618 29.4124C245.261 26.7244 247.44 25.1116 251.098 25.1116C257.511 25.1116 266.64 30.0844 273.956 37.1116C275.897 35.3666 278.42 34.4082 281.031 34.4236C287.146 34.1068 294.73 36.9676 301.46 41.6332C301.781 41.2009 302.201 40.8528 302.686 40.6187C303.171 40.3846 303.706 40.2716 304.244 40.2892C307.584 40.126 312.192 42.6892 314.861 46.1356H192.692C189.821 40.8652 192.106 36.2956 198.068 35.6908Z" fill="#F5F5F5"/>
<path d="M361.92 20.7251C359.232 14.9651 361.373 10.7891 367.93 10.7891C372.048 10.7891 377.155 12.4115 382.128 15.0611C382.685 13.5539 384.269 12.6419 386.813 12.6419C391.296 12.6419 397.469 15.4451 402.307 19.3619C403.803 18.3689 405.562 17.8473 407.357 17.8643C411.638 17.6819 416.832 19.2851 421.344 21.9059C421.608 21.6532 421.92 21.4559 422.261 21.3257C422.602 21.1954 422.966 21.1348 423.331 21.1475C424.761 21.199 426.164 21.5474 427.451 22.1705C428.739 22.7935 429.882 23.6777 430.81 24.7667L431.098 25.1507H358.57C356.275 23.1155 358.81 20.8211 361.92 20.7251Z" fill="#F5F5F5"/>
<path d="M118.282 209.951H85.584V314.476H118.282V209.951Z" fill="#EBEBEB"/>
<path d="M107.595 314.477H161.211L161.211 173.577H107.595L107.595 314.477Z" fill="#F5F5F5"/>
<path d="M189.041 173.576H161.211V314.475H189.041V173.576Z" fill="#EBEBEB"/>
<path d="M114.805 173.576H161.211V159.57H114.805V173.576Z" fill="#F5F5F5"/>
<path d="M114.805 173.576H161.211V170.427H114.805V173.576Z" fill="#EBEBEB"/>
<path d="M181.822 159.57H161.211V173.577H181.822V159.57Z" fill="#EBEBEB"/>
<path d="M122.016 159.57H161.203V145.564H122.016V159.57Z" fill="#F5F5F5"/>
<path d="M122.016 159.57H161.203V156.422H122.016V159.57Z" fill="#EBEBEB"/>
<path d="M174.613 145.564H161.211V159.571H174.613V145.564Z" fill="#EBEBEB"/>
<path d="M149.615 126H147.014V145.574H149.615V126Z" fill="#EBEBEB"/>
<path d="M180.154 314.477H219.312L219.312 198.077H180.154V314.477Z" fill="#F5F5F5"/>
<path d="M239.636 198.076H219.312V314.476H239.636V198.076Z" fill="#EBEBEB"/>
<path d="M229.469 231.33L259.162 256.789V314.476H229.469V231.33Z" fill="#F5F5F5"/>
<path d="M274.58 256.781H259.172V314.468H274.58V256.781Z" fill="#EBEBEB"/>
<path d="M274.579 256.789H259.162L229.469 231.33H244.886L274.579 256.789Z" fill="#EBEBEB"/>
<path d="M413.762 314.475C414.174 312.169 415.154 310.002 416.614 308.17C418.074 306.338 419.967 304.899 422.123 303.982C420.231 307.138 419.371 310.807 419.666 314.475H413.762Z" fill="#EBEBEB"/>
<path d="M136.83 314.475C136.419 312.169 135.438 310.002 133.978 308.17C132.518 306.338 130.625 304.899 128.469 303.982C130.362 307.138 131.221 310.807 130.926 314.475H136.83Z" fill="#EBEBEB"/>
<path d="M68.2666 314.476C68.2666 314.476 67.7962 302.188 62.6602 298.617C64.7626 303.638 64.321 314.476 64.321 314.476H68.2666Z" fill="#EBEBEB"/>
<path d="M66.3359 314.476C66.3359 314.476 66.8063 307.42 71.9423 305.375C69.8399 308.255 70.3007 314.476 70.3007 314.476H66.3359Z" fill="#EBEBEB"/>
<path d="M141.225 314.476C141.225 314.476 140.707 302.841 131.395 298.617C135.561 304.588 135.321 314.476 135.321 314.476H141.225Z" fill="#EBEBEB"/>
<path d="M370.837 298.731H347.308C347.053 298.731 346.809 298.63 346.629 298.45C346.449 298.27 346.348 298.026 346.348 297.771V274.271C346.348 274.016 346.449 273.772 346.629 273.592C346.809 273.412 347.053 273.311 347.308 273.311H370.837C371.092 273.311 371.336 273.412 371.516 273.592C371.696 273.772 371.797 274.016 371.797 274.271V297.771C371.797 298.026 371.696 298.27 371.516 298.45C371.336 298.63 371.092 298.731 370.837 298.731ZM348.268 296.811H369.877V275.231H348.268V296.811Z" fill="#E0E0E0"/>
<path d="M370.837 275.231H347.308C347.053 275.231 346.809 275.13 346.629 274.95C346.449 274.769 346.348 274.525 346.348 274.271V250.731C346.348 250.477 346.449 250.233 346.629 250.053C346.809 249.873 347.053 249.771 347.308 249.771H370.837C371.092 249.771 371.336 249.873 371.516 250.053C371.696 250.233 371.797 250.477 371.797 250.731V274.271C371.797 274.525 371.696 274.769 371.516 274.95C371.336 275.13 371.092 275.231 370.837 275.231ZM348.268 273.311H369.877V251.691H348.268V273.311Z" fill="#E0E0E0"/>
<path d="M370.837 298.733C370.584 298.729 370.343 298.626 370.165 298.445L346.626 274.915C346.445 274.734 346.344 274.489 346.344 274.233C346.344 273.978 346.445 273.733 346.626 273.552C346.807 273.371 347.052 273.27 347.308 273.27C347.563 273.27 347.808 273.371 347.989 273.552L371.519 297.129C371.698 297.309 371.798 297.553 371.798 297.806C371.798 298.06 371.698 298.303 371.519 298.483C371.333 298.652 371.088 298.742 370.837 298.733Z" fill="#E0E0E0"/>
<path d="M370.838 275.232C370.586 275.231 370.345 275.131 370.166 274.954L346.627 251.415C346.448 251.235 346.348 250.992 346.348 250.738C346.348 250.484 346.448 250.241 346.627 250.061C346.716 249.971 346.822 249.9 346.939 249.851C347.056 249.802 347.182 249.777 347.308 249.777C347.435 249.777 347.561 249.802 347.678 249.851C347.795 249.9 347.901 249.971 347.99 250.061L371.52 273.591C371.655 273.725 371.747 273.897 371.785 274.084C371.822 274.271 371.803 274.465 371.73 274.641C371.657 274.817 371.533 274.967 371.374 275.073C371.215 275.178 371.029 275.234 370.838 275.232Z" fill="#E0E0E0"/>
<path d="M370.837 251.692H347.308C347.053 251.692 346.809 251.591 346.629 251.411C346.449 251.231 346.348 250.986 346.348 250.732V227.202C346.348 226.948 346.449 226.703 346.629 226.523C346.809 226.343 347.053 226.242 347.308 226.242H370.837C371.092 226.242 371.336 226.343 371.516 226.523C371.696 226.703 371.797 226.948 371.797 227.202V250.732C371.797 250.986 371.696 251.231 371.516 251.411C371.336 251.591 371.092 251.692 370.837 251.692ZM348.268 249.772H369.877V228.162H348.268V249.772Z" fill="#E0E0E0"/>
<path d="M370.837 228.163H347.308C347.053 228.163 346.809 228.062 346.629 227.882C346.449 227.702 346.348 227.457 346.348 227.203V203.692C346.348 203.438 346.449 203.194 346.629 203.014C346.809 202.834 347.053 202.732 347.308 202.732H370.837C371.092 202.732 371.336 202.834 371.516 203.014C371.696 203.194 371.797 203.438 371.797 203.692V227.232C371.79 227.481 371.685 227.718 371.506 227.892C371.327 228.066 371.087 228.163 370.837 228.163ZM348.268 226.243H369.877V204.652H348.268V226.243Z" fill="#E0E0E0"/>
<path d="M370.838 251.692C370.586 251.69 370.345 251.59 370.166 251.413L346.627 227.874C346.448 227.694 346.348 227.451 346.348 227.197C346.348 226.943 346.448 226.7 346.627 226.52C346.716 226.43 346.822 226.359 346.939 226.31C347.056 226.261 347.182 226.236 347.308 226.236C347.435 226.236 347.561 226.261 347.678 226.31C347.795 226.359 347.901 226.43 347.99 226.52L371.52 250.059C371.698 250.239 371.799 250.483 371.799 250.736C371.799 250.99 371.698 251.233 371.52 251.413C371.43 251.502 371.324 251.572 371.207 251.62C371.09 251.668 370.964 251.692 370.838 251.692Z" fill="#E0E0E0"/>
<path d="M370.837 228.162C370.584 228.159 370.343 228.055 370.165 227.874L346.626 204.345C346.445 204.164 346.344 203.919 346.344 203.663C346.344 203.407 346.445 203.162 346.626 202.982C346.807 202.801 347.052 202.699 347.308 202.699C347.563 202.699 347.808 202.801 347.989 202.982L371.519 226.521C371.698 226.701 371.798 226.944 371.798 227.198C371.798 227.451 371.698 227.694 371.519 227.874C371.43 227.965 371.324 228.037 371.207 228.087C371.09 228.136 370.964 228.162 370.837 228.162Z" fill="#E0E0E0"/>
<path d="M370.837 204.652H347.308C347.053 204.652 346.809 204.551 346.629 204.371C346.449 204.191 346.348 203.947 346.348 203.692V180.124C346.348 179.869 346.449 179.625 346.629 179.445C346.809 179.265 347.053 179.164 347.308 179.164H370.837C371.092 179.164 371.336 179.265 371.516 179.445C371.696 179.625 371.797 179.869 371.797 180.124V203.692C371.797 203.947 371.696 204.191 371.516 204.371C371.336 204.551 371.092 204.652 370.837 204.652ZM348.268 202.732H369.877V181.084H348.268V202.732Z" fill="#E0E0E0"/>
<path d="M370.837 181.084H347.308C347.053 181.084 346.809 180.983 346.629 180.803C346.449 180.623 346.348 180.379 346.348 180.124V156.595C346.348 156.34 346.449 156.096 346.629 155.916C346.809 155.736 347.053 155.635 347.308 155.635H370.837C371.092 155.635 371.336 155.736 371.516 155.916C371.696 156.096 371.797 156.34 371.797 156.595V180.124C371.797 180.379 371.696 180.623 371.516 180.803C371.336 180.983 371.092 181.084 370.837 181.084ZM348.268 179.164H369.877V157.555H348.268V179.164Z" fill="#E0E0E0"/>
<path d="M370.838 204.652C370.586 204.651 370.345 204.551 370.166 204.374L346.627 180.835C346.448 180.655 346.348 180.412 346.348 180.158C346.348 179.904 346.448 179.661 346.627 179.481C346.716 179.391 346.822 179.32 346.939 179.271C347.056 179.222 347.182 179.197 347.308 179.197C347.435 179.197 347.561 179.222 347.678 179.271C347.795 179.32 347.901 179.391 347.99 179.481L371.52 202.982C371.655 203.116 371.747 203.288 371.785 203.475C371.822 203.662 371.803 203.856 371.73 204.032C371.657 204.208 371.533 204.358 371.374 204.464C371.215 204.569 371.029 204.625 370.838 204.624V204.652Z" fill="#E0E0E0"/>
<path d="M347.308 102.461H323.769C323.514 102.461 323.27 102.36 323.09 102.179C322.91 101.999 322.809 101.755 322.809 101.501V77.9327C322.809 77.678 322.91 77.4339 323.09 77.2538C323.27 77.0738 323.514 76.9727 323.769 76.9727H347.308C347.562 76.9727 347.807 77.0738 347.987 77.2538C348.167 77.4339 348.268 77.678 348.268 77.9327V101.462C348.273 101.592 348.252 101.72 348.206 101.841C348.16 101.962 348.09 102.073 348.001 102.166C347.911 102.259 347.803 102.333 347.684 102.384C347.565 102.435 347.437 102.461 347.308 102.461ZM324.729 100.541H346.348V78.8927H324.729V100.541Z" fill="#E0E0E0"/>
<path d="M370.837 102.46H347.308C347.053 102.46 346.809 102.359 346.629 102.179C346.449 101.999 346.348 101.755 346.348 101.5C346.348 101.245 346.449 101.001 346.629 100.821C346.809 100.641 347.053 100.54 347.308 100.54H369.877V54.46C369.877 54.2054 369.978 53.9612 370.158 53.7812C370.338 53.6011 370.583 53.5 370.837 53.5C371.092 53.5 371.336 53.6011 371.516 53.7812C371.696 53.9612 371.797 54.2054 371.797 54.46V101.5C371.797 101.755 371.696 101.999 371.516 102.179C371.336 102.359 371.092 102.46 370.837 102.46Z" fill="#E0E0E0"/>
<path d="M347.309 102.46C347.144 102.462 346.982 102.42 346.838 102.341C346.694 102.262 346.573 102.146 346.486 102.007C346.399 101.867 346.35 101.707 346.343 101.543C346.335 101.379 346.371 101.215 346.445 101.068L369.984 54.0284C370.099 53.8023 370.299 53.631 370.54 53.5518C370.781 53.4727 371.043 53.4922 371.27 53.606C371.498 53.7194 371.671 53.9186 371.752 54.1598C371.833 54.401 371.815 54.6645 371.702 54.8924L348.163 101.932C348.083 102.091 347.961 102.224 347.81 102.317C347.659 102.41 347.486 102.46 347.309 102.46Z" fill="#E0E0E0"/>
<path d="M323.769 102.461H300.239C299.985 102.461 299.741 102.36 299.56 102.179C299.38 101.999 299.279 101.755 299.279 101.501V77.9327C299.279 77.678 299.38 77.4339 299.56 77.2538C299.741 77.0738 299.985 76.9727 300.239 76.9727H323.769C324.024 76.9727 324.268 77.0738 324.448 77.2538C324.628 77.4339 324.729 77.678 324.729 77.9327V101.462C324.734 101.592 324.713 101.72 324.667 101.841C324.621 101.962 324.551 102.073 324.462 102.166C324.372 102.259 324.264 102.333 324.145 102.384C324.026 102.435 323.898 102.461 323.769 102.461ZM301.199 100.541H322.809V78.8927H301.199V100.541Z" fill="#E0E0E0"/>
<path d="M323.771 102.461C323.583 102.458 323.4 102.401 323.244 102.295C323.089 102.189 322.968 102.04 322.897 101.867C322.825 101.693 322.806 101.502 322.842 101.318C322.878 101.133 322.967 100.963 323.099 100.829L346.628 77.2898C346.718 77.1999 346.824 77.1284 346.941 77.0797C347.058 77.031 347.183 77.0059 347.31 77.0059C347.437 77.0059 347.562 77.031 347.679 77.0797C347.796 77.1284 347.902 77.1999 347.992 77.2898C348.17 77.4697 348.271 77.713 348.271 77.9666C348.271 78.2203 348.17 78.4636 347.992 78.6434L324.481 102.183C324.388 102.275 324.277 102.348 324.155 102.395C324.033 102.443 323.902 102.466 323.771 102.461Z" fill="#E0E0E0"/>
<path d="M394.378 102.461H370.839C370.584 102.461 370.34 102.36 370.16 102.179C369.98 101.999 369.879 101.755 369.879 101.501V77.9327C369.879 77.678 369.98 77.4339 370.16 77.2538C370.34 77.0738 370.584 76.9727 370.839 76.9727H394.378C394.633 76.9727 394.877 77.0738 395.057 77.2538C395.237 77.4339 395.338 77.678 395.338 77.9327V101.462C395.343 101.592 395.322 101.72 395.276 101.841C395.23 101.962 395.161 102.073 395.071 102.166C394.981 102.259 394.874 102.333 394.755 102.384C394.636 102.435 394.507 102.461 394.378 102.461ZM371.799 100.541H393.418V78.8927H371.799V100.541Z" fill="#E0E0E0"/>
<path d="M370.837 102.461C370.649 102.458 370.466 102.401 370.311 102.295C370.155 102.189 370.034 102.04 369.963 101.867C369.891 101.693 369.872 101.502 369.908 101.318C369.944 101.133 370.034 100.963 370.165 100.829L393.695 77.2898C393.784 77.1999 393.89 77.1284 394.007 77.0797C394.124 77.031 394.25 77.0059 394.376 77.0059C394.503 77.0059 394.629 77.031 394.746 77.0797C394.863 77.1284 394.969 77.1999 395.058 77.2898C395.237 77.4697 395.337 77.713 395.337 77.9666C395.337 78.2203 395.237 78.4636 395.058 78.6434L371.519 102.183C371.429 102.272 371.323 102.342 371.206 102.39C371.089 102.438 370.963 102.462 370.837 102.461Z" fill="#E0E0E0"/>
<path d="M229.633 102.461C229.506 102.462 229.381 102.437 229.264 102.39C229.147 102.342 229.041 102.272 228.951 102.183C228.772 102.003 228.672 101.759 228.672 101.506C228.672 101.252 228.772 101.009 228.951 100.829L252.481 77.2897C252.611 77.1525 252.783 77.0615 252.97 77.0305L370.657 53.4913C370.811 53.4605 370.97 53.4679 371.121 53.5131C371.272 53.5583 371.409 53.6399 371.521 53.7505L418.561 100.791C418.661 100.877 418.743 100.983 418.8 101.102C418.858 101.221 418.89 101.35 418.895 101.483C418.901 101.615 418.878 101.747 418.83 101.87C418.782 101.993 418.709 102.105 418.615 102.199C418.521 102.292 418.41 102.365 418.286 102.414C418.163 102.462 418.031 102.484 417.899 102.479C417.767 102.474 417.637 102.442 417.518 102.384C417.399 102.326 417.293 102.245 417.207 102.144L370.561 55.4785L253.642 78.8929L230.305 102.221C230.12 102.384 229.879 102.47 229.633 102.461Z" fill="#E0E0E0"/>
<path d="M300.24 102.461C300.114 102.461 299.988 102.437 299.872 102.389C299.755 102.342 299.648 102.271 299.558 102.182C299.38 102.002 299.279 101.759 299.279 101.505C299.279 101.252 299.38 101.009 299.558 100.829L323.098 77.2894C323.281 77.1322 323.518 77.05 323.759 77.0593C324.001 77.0686 324.23 77.1688 324.401 77.3398C324.572 77.5107 324.672 77.7399 324.681 77.9815C324.691 78.2232 324.609 78.4594 324.451 78.643L300.912 102.182C300.733 102.36 300.492 102.46 300.24 102.461Z" fill="#E0E0E0"/>
<path d="M300.241 102.461H276.702C276.448 102.461 276.203 102.36 276.023 102.179C275.843 101.999 275.742 101.755 275.742 101.501V77.9327C275.742 77.678 275.843 77.4339 276.023 77.2538C276.203 77.0738 276.448 76.9727 276.702 76.9727H300.241C300.496 76.9727 300.74 77.0738 300.92 77.2538C301.1 77.4339 301.201 77.678 301.201 77.9327V101.462C301.207 101.592 301.186 101.72 301.14 101.841C301.094 101.962 301.024 102.073 300.934 102.166C300.844 102.259 300.737 102.333 300.618 102.384C300.499 102.435 300.371 102.461 300.241 102.461ZM277.662 100.541H299.281V78.8927H277.662V100.541Z" fill="#E0E0E0"/>
<path d="M276.7 102.461H253.161C252.907 102.461 252.662 102.36 252.482 102.179C252.302 101.999 252.201 101.755 252.201 101.501V77.9327C252.201 77.678 252.302 77.4339 252.482 77.2538C252.662 77.0738 252.907 76.9727 253.161 76.9727H276.7C276.955 76.9727 277.199 77.0738 277.379 77.2538C277.559 77.4339 277.66 77.678 277.66 77.9327V101.462C277.666 101.592 277.645 101.72 277.599 101.841C277.553 101.962 277.483 102.073 277.393 102.166C277.303 102.259 277.196 102.333 277.077 102.384C276.958 102.435 276.83 102.461 276.7 102.461ZM254.121 100.541H275.74V78.8927H254.121V100.541Z" fill="#E0E0E0"/>
<path d="M276.701 102.461C276.575 102.461 276.449 102.437 276.332 102.389C276.215 102.342 276.109 102.271 276.019 102.182C275.841 102.002 275.74 101.759 275.74 101.505C275.74 101.252 275.841 101.009 276.019 100.829L299.52 77.2894C299.704 77.1322 299.94 77.05 300.182 77.0593C300.423 77.0686 300.652 77.1688 300.823 77.3398C300.994 77.5107 301.095 77.7399 301.104 77.9815C301.113 78.2232 301.031 78.4594 300.874 78.643L277.344 102.182C277.173 102.353 276.943 102.452 276.701 102.461Z" fill="#E0E0E0"/>
<path d="M253.161 102.461C252.973 102.458 252.79 102.401 252.635 102.295C252.48 102.189 252.359 102.04 252.287 101.867C252.216 101.693 252.197 101.502 252.233 101.318C252.269 101.133 252.358 100.963 252.489 100.829L276.019 77.2898C276.108 77.1999 276.214 77.1284 276.331 77.0797C276.448 77.031 276.574 77.0059 276.701 77.0059C276.827 77.0059 276.953 77.031 277.07 77.0797C277.187 77.1284 277.293 77.1999 277.382 77.2898C277.561 77.4697 277.661 77.713 277.661 77.9666C277.661 78.2203 277.561 78.4636 277.382 78.6434L253.843 102.183C253.753 102.272 253.647 102.342 253.53 102.39C253.413 102.438 253.288 102.462 253.161 102.461Z" fill="#E0E0E0"/>
<path d="M253.161 102.461H229.632C229.377 102.461 229.133 102.36 228.953 102.179C228.773 101.999 228.672 101.755 228.672 101.501C228.672 101.246 228.773 101.002 228.953 100.822C229.133 100.642 229.377 100.541 229.632 100.541H252.201V77.9327C252.201 77.678 252.303 77.4339 252.483 77.2538C252.663 77.0738 252.907 76.9727 253.161 76.9727C253.416 76.9727 253.66 77.0738 253.84 77.2538C254.02 77.4339 254.121 77.678 254.121 77.9327V101.462C254.127 101.592 254.106 101.72 254.06 101.841C254.014 101.962 253.944 102.073 253.854 102.166C253.765 102.259 253.657 102.333 253.538 102.384C253.419 102.435 253.291 102.461 253.161 102.461Z" fill="#E0E0E0"/>
<path d="M370.837 181.082C370.585 181.081 370.344 180.981 370.165 180.804L346.626 157.274C346.537 157.185 346.466 157.079 346.417 156.962C346.369 156.845 346.344 156.719 346.344 156.593C346.344 156.466 346.369 156.341 346.417 156.224C346.466 156.107 346.537 156.001 346.626 155.911C346.716 155.822 346.822 155.751 346.939 155.702C347.056 155.654 347.181 155.629 347.308 155.629C347.434 155.629 347.56 155.654 347.677 155.702C347.794 155.751 347.9 155.822 347.989 155.911L371.519 179.45C371.698 179.63 371.798 179.874 371.798 180.127C371.798 180.381 371.698 180.624 371.519 180.804C371.429 180.893 371.323 180.963 371.206 181.011C371.089 181.059 370.964 181.083 370.837 181.082Z" fill="#E0E0E0"/>
<path d="M370.837 157.555H347.308C347.053 157.555 346.809 157.454 346.629 157.274C346.449 157.094 346.348 156.85 346.348 156.595V133.056C346.348 132.801 346.449 132.557 346.629 132.377C346.809 132.197 347.053 132.096 347.308 132.096H370.837C371.092 132.096 371.336 132.197 371.516 132.377C371.696 132.557 371.797 132.801 371.797 133.056V156.595C371.797 156.85 371.696 157.094 371.516 157.274C371.336 157.454 371.092 157.555 370.837 157.555ZM348.268 155.635H369.877V134.016H348.268V155.635Z" fill="#E0E0E0"/>
<path d="M370.837 134.016H347.308C347.053 134.016 346.809 133.915 346.629 133.735C346.449 133.555 346.348 133.311 346.348 133.056V109.526C346.348 109.272 346.449 109.028 346.629 108.848C346.809 108.668 347.053 108.566 347.308 108.566H370.837C371.092 108.566 371.336 108.668 371.516 108.848C371.696 109.028 371.797 109.272 371.797 109.526V133.056C371.797 133.311 371.696 133.555 371.516 133.735C371.336 133.915 371.092 134.016 370.837 134.016ZM348.268 132.096H369.877V110.486H348.268V132.096Z" fill="#E0E0E0"/>
<path d="M370.837 157.555C370.585 157.554 370.344 157.454 370.165 157.277L346.626 133.737C346.537 133.648 346.466 133.542 346.417 133.425C346.369 133.308 346.344 133.182 346.344 133.056C346.344 132.929 346.369 132.804 346.417 132.687C346.466 132.57 346.537 132.464 346.626 132.374C346.716 132.285 346.822 132.214 346.939 132.165C347.056 132.117 347.181 132.092 347.308 132.092C347.434 132.092 347.56 132.117 347.677 132.165C347.794 132.214 347.9 132.285 347.989 132.374L371.519 155.913C371.654 156.048 371.747 156.219 371.784 156.406C371.822 156.593 371.803 156.787 371.729 156.963C371.656 157.139 371.532 157.29 371.374 157.395C371.215 157.5 371.028 157.556 370.837 157.555Z" fill="#E0E0E0"/>
<path d="M370.838 134.014C370.586 134.013 370.345 133.913 370.166 133.735L346.627 110.196C346.448 110.016 346.348 109.773 346.348 109.519C346.348 109.266 346.448 109.022 346.627 108.843C346.716 108.753 346.822 108.681 346.939 108.632C347.056 108.584 347.182 108.559 347.308 108.559C347.435 108.559 347.561 108.584 347.678 108.632C347.795 108.681 347.901 108.753 347.99 108.843L371.52 132.372C371.655 132.506 371.747 132.678 371.785 132.865C371.822 133.052 371.803 133.246 371.73 133.422C371.657 133.598 371.533 133.748 371.374 133.854C371.215 133.959 371.029 134.015 370.838 134.014Z" fill="#E0E0E0"/>
<path d="M417.916 101.5H229.631L253.16 109.526H417.916V101.5Z" fill="#E0E0E0"/>
<path d="M417.919 110.485H253.163C253.058 110.484 252.954 110.465 252.856 110.427L229.317 102.411C229.099 102.34 228.913 102.192 228.794 101.995C228.676 101.798 228.631 101.566 228.67 101.339C228.708 101.112 228.826 100.907 229.003 100.76C229.18 100.613 229.404 100.535 229.634 100.539H417.919C418.173 100.539 418.417 100.64 418.597 100.82C418.777 101 418.879 101.245 418.879 101.499V109.525C418.879 109.779 418.777 110.024 418.597 110.204C418.417 110.384 418.173 110.485 417.919 110.485ZM253.327 108.565H416.959V102.459H235.423L253.327 108.565Z" fill="#E0E0E0"/>
<path d="M329.885 142.541H347.309V105.514H329.885V142.541Z" fill="#E0E0E0"/>
<path d="M329.876 105.512H321.773V142.539H329.876V105.512Z" fill="#F5F5F5"/>
<path d="M349.901 314.467H384.211V297.801H349.901V314.467Z" fill="#E0E0E0"/>
<path d="M349.9 297.811H333.936V314.476H349.9V297.811Z" fill="#F5F5F5"/>
<path d="M394.378 142.866C394.123 142.866 393.879 142.765 393.699 142.585C393.519 142.405 393.418 142.161 393.418 141.906V105.513C393.418 105.258 393.519 105.014 393.699 104.834C393.879 104.654 394.123 104.553 394.378 104.553C394.633 104.553 394.877 104.654 395.057 104.834C395.237 105.014 395.338 105.258 395.338 105.513V141.906C395.338 142.161 395.237 142.405 395.057 142.585C394.877 142.765 394.633 142.866 394.378 142.866Z" fill="#E0E0E0"/>
<path d="M394.377 147.281C393.75 147.281 393.138 147.096 392.617 146.747C392.096 146.399 391.69 145.905 391.45 145.326C391.21 144.747 391.148 144.11 391.27 143.495C391.392 142.881 391.694 142.316 392.137 141.873C392.58 141.43 393.144 141.128 393.759 141.006C394.373 140.884 395.01 140.947 395.589 141.186C396.168 141.426 396.663 141.832 397.011 142.353C397.359 142.874 397.545 143.487 397.545 144.113C397.545 144.529 397.463 144.941 397.304 145.326C397.145 145.71 396.911 146.059 396.617 146.353C396.323 146.648 395.974 146.881 395.589 147.04C395.205 147.199 394.793 147.281 394.377 147.281ZM394.377 142.865C394.13 142.865 393.889 142.938 393.684 143.076C393.478 143.213 393.318 143.408 393.224 143.636C393.13 143.864 393.105 144.115 393.153 144.357C393.201 144.599 393.32 144.821 393.495 144.996C393.669 145.17 393.891 145.289 394.134 145.337C394.376 145.385 394.627 145.361 394.855 145.266C395.083 145.172 395.278 145.012 395.415 144.807C395.552 144.601 395.625 144.36 395.625 144.113C395.625 143.949 395.593 143.787 395.53 143.636C395.467 143.484 395.375 143.347 395.259 143.231C395.144 143.115 395.006 143.023 394.855 142.96C394.703 142.898 394.541 142.865 394.377 142.865Z" fill="#E0E0E0"/>
<path d="M256.118 161.97C255.864 161.97 255.619 161.869 255.439 161.689C255.259 161.509 255.158 161.265 255.158 161.01V105.513C255.158 105.258 255.259 105.014 255.439 104.834C255.619 104.654 255.864 104.553 256.118 104.553C256.373 104.553 256.617 104.654 256.797 104.834C256.977 105.014 257.078 105.258 257.078 105.513V161.01C257.078 161.265 256.977 161.509 256.797 161.689C256.617 161.869 256.373 161.97 256.118 161.97Z" fill="#E0E0E0"/>
<path d="M265.132 167.721C264.904 167.724 264.681 167.646 264.505 167.5C264.329 167.354 264.211 167.15 264.172 166.924C263.462 165.811 257.212 162.124 256.07 161.971C254.995 162.115 248.745 165.811 248.035 166.924C248.013 167.179 247.891 167.414 247.696 167.579C247.501 167.744 247.248 167.824 246.993 167.803C246.739 167.781 246.503 167.659 246.338 167.464C246.174 167.268 246.093 167.016 246.115 166.761C246.115 164.601 254.822 160.041 256.08 160.041C257.337 160.041 266.054 164.591 266.054 166.761C266.054 167.009 265.958 167.248 265.787 167.427C265.615 167.606 265.38 167.711 265.132 167.721Z" fill="#E0E0E0"/>
<path d="M275.52 237.109L289.603 223.026L286.598 217.266C286.857 216.69 287.097 216.114 287.318 215.519L293.491 213.599V193.707L287.318 191.787C287.088 191.202 286.857 190.616 286.598 190.04L289.593 184.28L275.52 170.226L269.76 173.221C269.184 172.962 268.608 172.722 268.022 172.501L266.102 166.328H246.163L244.243 172.501C243.657 172.722 243.081 172.962 242.505 173.221L236.745 170.226L222.72 184.299L225.725 190.059C225.456 190.635 225.225 191.221 224.995 191.807L218.822 193.727V213.637L224.995 215.557C225.225 216.152 225.456 216.728 225.715 217.304L222.72 223.064L236.803 237.147L242.563 234.143C243.139 234.402 243.725 234.642 244.31 234.863L246.23 241.035H266.15L268.07 234.863C268.656 234.642 269.232 234.402 269.808 234.143L275.52 237.109ZM266.64 214.136C264.567 216.21 261.926 217.622 259.051 218.195C256.175 218.767 253.195 218.474 250.486 217.353C247.777 216.231 245.461 214.331 243.832 211.893C242.203 209.456 241.334 206.59 241.334 203.658C241.334 200.726 242.203 197.86 243.832 195.422C245.461 192.984 247.777 191.085 250.486 189.963C253.195 188.841 256.175 188.548 259.051 189.121C261.926 189.693 264.567 191.106 266.64 193.179C268.015 194.557 269.105 196.192 269.848 197.992C270.591 199.791 270.971 201.719 270.967 203.666C270.964 205.612 270.576 207.539 269.827 209.336C269.078 211.132 267.982 212.764 266.601 214.136H266.64Z" fill="#E0E0E0"/>
<path d="M240 357.83C342.799 357.83 426.134 352.965 426.134 346.963C426.134 340.961 342.799 336.096 240 336.096C137.2 336.096 53.8652 340.961 53.8652 346.963C53.8652 352.965 137.2 357.83 240 357.83Z" fill="#F5F5F5"/>
<path d="M168.854 103.996H156.873C156.326 103.997 155.787 104.14 155.313 104.413C154.838 104.686 154.442 105.078 154.166 105.551L148.176 115.929C147.902 116.405 147.758 116.945 147.758 117.494C147.758 118.043 147.902 118.582 148.176 119.058L154.166 129.427C154.44 129.902 154.834 130.298 155.309 130.573C155.785 130.847 156.324 130.992 156.873 130.991H168.854C169.403 130.992 169.942 130.847 170.418 130.573C170.893 130.298 171.288 129.902 171.561 129.427L177.552 119.058C177.825 118.582 177.969 118.043 177.969 117.494C177.969 116.945 177.825 116.405 177.552 115.929L171.561 105.551C171.285 105.078 170.89 104.686 170.415 104.413C169.94 104.14 169.402 103.997 168.854 103.996Z" fill="#005596"/>
<path opacity="0.5" d="M168.854 103.996H156.873C156.326 103.997 155.787 104.14 155.313 104.413C154.838 104.686 154.442 105.078 154.166 105.551L148.176 115.929C147.902 116.405 147.758 116.945 147.758 117.494C147.758 118.043 147.902 118.582 148.176 119.058L154.166 129.427C154.44 129.902 154.834 130.298 155.309 130.573C155.785 130.847 156.324 130.992 156.873 130.991H168.854C169.403 130.992 169.942 130.847 170.418 130.573C170.893 130.298 171.288 129.902 171.561 129.427L177.552 119.058C177.825 118.582 177.969 118.043 177.969 117.494C177.969 116.945 177.825 116.405 177.552 115.929L171.561 105.551C171.285 105.078 170.89 104.686 170.415 104.413C169.94 104.14 169.402 103.997 168.854 103.996Z" fill="white"/>
<path d="M92.1601 69.6095L91.4785 68.9279L97.2385 63.1679L97.9201 63.8495L92.1601 69.6095ZM102.077 59.6927L101.395 59.0111L113.434 46.9727L114.115 47.6447L102.077 59.6927Z" fill="#005596"/>
<path opacity="0.5" d="M92.1601 69.6095L91.4785 68.9279L97.2385 63.1679L97.9201 63.8495L92.1601 69.6095ZM102.077 59.6927L101.395 59.0111L113.434 46.9727L114.115 47.6447L102.077 59.6927Z" fill="white"/>
<path d="M244.32 139.218V95.7683L230.88 91.5539C230.4 90.2675 229.872 89.0003 229.315 87.7139L235.853 75.2339L205.133 44.5139L192.653 51.0611C191.395 50.4947 190.138 49.9667 188.813 49.4771L184.599 36.0371H141.12L136.915 49.4771C135.619 49.9667 134.362 50.4947 133.075 51.0611L120.595 44.5139L89.8754 75.2339L96.4226 87.7139C95.8562 88.9715 95.3282 90.2291 94.8482 91.5539L81.4082 95.7683V139.218L94.8482 143.423C95.3378 144.709 95.8658 145.976 96.4226 147.263L89.8754 159.743L120.595 190.463L133.075 183.916C134.323 184.482 135.581 185.01 136.915 185.5L141.12 198.939H184.57L188.784 185.5C190.071 185.01 191.328 184.482 192.624 183.916L205.104 190.463L235.824 159.743L229.277 147.263C229.834 146.015 230.371 144.748 230.851 143.423L244.32 139.218ZM195.197 117.484C195.197 123.878 193.301 130.13 189.748 135.447C186.195 140.764 181.145 144.908 175.237 147.355C169.329 149.802 162.828 150.443 156.556 149.195C150.284 147.947 144.523 144.868 140.001 140.346C135.48 135.824 132.4 130.063 131.153 123.791C129.905 117.519 130.545 111.018 132.993 105.11C135.44 99.2022 139.584 94.1525 144.901 90.5998C150.218 87.047 156.469 85.1507 162.864 85.1507C171.439 85.1533 179.661 88.5606 185.724 94.6236C191.787 100.687 195.194 108.909 195.197 117.484Z" fill="#005596"/>
<path opacity="0.5" d="M244.32 139.218V95.7683L230.88 91.5539C230.4 90.2675 229.872 89.0003 229.315 87.7139L235.853 75.2339L205.133 44.5139L192.653 51.0611C191.395 50.4947 190.138 49.9667 188.813 49.4771L184.599 36.0371H141.12L136.915 49.4771C135.619 49.9667 134.362 50.4947 133.075 51.0611L120.595 44.5139L89.8754 75.2339L96.4226 87.7139C95.8562 88.9715 95.3282 90.2291 94.8482 91.5539L81.4082 95.7683V139.218L94.8482 143.423C95.3378 144.709 95.8658 145.976 96.4226 147.263L89.8754 159.743L120.595 190.463L133.075 183.916C134.323 184.482 135.581 185.01 136.915 185.5L141.12 198.939H184.57L188.784 185.5C190.071 185.01 191.328 184.482 192.624 183.916L205.104 190.463L235.824 159.743L229.277 147.263C229.834 146.015 230.371 144.748 230.851 143.423L244.32 139.218ZM195.197 117.484C195.197 123.878 193.301 130.13 189.748 135.447C186.195 140.764 181.145 144.908 175.237 147.355C169.329 149.802 162.828 150.443 156.556 149.195C150.284 147.947 144.523 144.868 140.001 140.346C135.48 135.824 132.4 130.063 131.153 123.791C129.905 117.519 130.545 111.018 132.993 105.11C135.44 99.2022 139.584 94.1525 144.901 90.5998C150.218 87.047 156.469 85.1507 162.864 85.1507C171.439 85.1533 179.661 88.5606 185.724 94.6236C191.787 100.687 195.194 108.909 195.197 117.484Z" fill="white"/>
<path d="M182.476 196.308H143.26C143.208 196.308 143.158 196.291 143.116 196.26C143.075 196.229 143.044 196.185 143.03 196.135L139.19 184.02C139.171 183.959 139.177 183.893 139.206 183.836C139.236 183.779 139.287 183.737 139.348 183.717C139.409 183.698 139.475 183.704 139.532 183.734C139.589 183.764 139.631 183.815 139.651 183.876L143.385 195.828H182.246L186.239 183.213C186.251 183.179 186.27 183.147 186.294 183.121C186.319 183.094 186.35 183.073 186.383 183.06L187.699 182.57C188.812 182.148 189.993 181.658 191.327 181.063L192.604 180.487C192.663 180.462 192.729 180.46 192.788 180.484C192.848 180.507 192.896 180.553 192.921 180.612C192.946 180.67 192.948 180.737 192.924 180.796C192.901 180.855 192.855 180.903 192.796 180.929L191.519 181.495C190.185 182.1 188.985 182.589 187.871 183.012L186.662 183.473L182.707 196.135C182.691 196.184 182.66 196.227 182.619 196.258C182.578 196.289 182.528 196.306 182.476 196.308ZM204.556 187.159C204.493 187.157 204.432 187.133 204.383 187.092C204.36 187.069 204.342 187.043 204.329 187.013C204.316 186.983 204.31 186.951 204.31 186.919C204.31 186.887 204.316 186.855 204.329 186.825C204.342 186.795 204.36 186.769 204.383 186.746L231.993 159.146L225.859 147.434C225.842 147.402 225.833 147.365 225.833 147.329C225.833 147.292 225.842 147.256 225.859 147.223L226.435 145.946C227.011 144.65 227.5 143.46 227.932 142.327L228.422 141.012C228.435 140.978 228.456 140.948 228.483 140.923C228.509 140.898 228.541 140.879 228.575 140.868L241.199 136.922V98.0902L228.719 94.1926C228.685 94.1875 228.652 94.1751 228.623 94.156C228.594 94.1369 228.569 94.1118 228.551 94.0822C228.532 94.0527 228.52 94.0195 228.516 93.985C228.512 93.9504 228.515 93.9153 228.526 93.8822C228.536 93.849 228.554 93.8185 228.577 93.7929C228.601 93.7672 228.63 93.747 228.662 93.7336C228.694 93.7202 228.729 93.714 228.764 93.7153C228.798 93.7167 228.832 93.7256 228.863 93.7414L241.478 97.6774C241.525 97.6948 241.566 97.7262 241.595 97.7673C241.624 97.8084 241.64 97.8574 241.641 97.9078V137.124C241.642 137.175 241.626 137.224 241.597 137.266C241.568 137.307 241.526 137.338 241.478 137.354L228.835 141.29L228.383 142.5C227.951 143.642 227.423 144.833 226.867 146.148L226.348 147.319L232.502 159.079C232.532 159.119 232.549 159.168 232.549 159.218C232.549 159.268 232.532 159.317 232.502 159.357L204.777 187.092C204.718 187.141 204.642 187.165 204.566 187.159H204.556ZM121.161 187.159C121.097 187.157 121.036 187.133 120.988 187.092L93.2634 159.357C93.2357 159.316 93.221 159.268 93.221 159.218C93.221 159.169 93.2357 159.12 93.2634 159.079L99.4746 147.213C99.5052 147.157 99.5561 147.115 99.6168 147.096C99.6775 147.076 99.7434 147.08 99.801 147.108C99.8288 147.123 99.8533 147.143 99.8732 147.168C99.8931 147.192 99.9079 147.221 99.9168 147.251C99.9257 147.281 99.9286 147.313 99.9252 147.345C99.9218 147.376 99.9122 147.406 99.897 147.434L93.7722 159.146L121.372 186.746C121.395 186.769 121.414 186.795 121.427 186.825C121.439 186.855 121.446 186.887 121.446 186.919C121.446 186.951 121.439 186.983 121.427 187.013C121.414 187.043 121.395 187.069 121.372 187.092C121.345 187.116 121.313 187.135 121.278 187.146C121.244 187.158 121.207 187.162 121.171 187.159H121.161ZM137.481 182.849H137.395C136.435 182.474 135.388 182.033 134.227 181.514C134.193 181.506 134.161 181.49 134.134 181.468C134.106 181.446 134.084 181.418 134.069 181.387C134.054 181.355 134.045 181.321 134.045 181.286C134.044 181.251 134.051 181.216 134.065 181.184C134.08 181.152 134.101 181.123 134.127 181.1C134.153 181.077 134.185 181.06 134.218 181.051C134.252 181.041 134.287 181.039 134.322 181.044C134.357 181.05 134.39 181.063 134.419 181.082C135.571 181.591 136.598 182.042 137.567 182.397C137.597 182.409 137.625 182.426 137.648 182.449C137.671 182.471 137.689 182.498 137.701 182.527C137.714 182.557 137.721 182.589 137.721 182.621C137.721 182.653 137.714 182.685 137.702 182.714C137.682 182.759 137.647 182.797 137.604 182.821C137.561 182.845 137.511 182.855 137.462 182.849H137.481ZM162.883 152.954C153.474 152.936 144.456 149.186 137.81 142.527C131.163 135.868 127.43 126.843 127.43 117.434C127.43 117.371 127.455 117.31 127.5 117.264C127.545 117.219 127.606 117.194 127.67 117.194C127.733 117.194 127.794 117.219 127.839 117.264C127.885 117.31 127.91 117.371 127.91 117.434C127.91 124.351 129.961 131.113 133.804 136.864C137.647 142.615 143.109 147.098 149.499 149.745C155.89 152.392 162.921 153.084 169.705 151.735C176.49 150.386 182.721 147.055 187.612 142.164C192.503 137.273 195.834 131.041 197.183 124.257C198.533 117.473 197.84 110.441 195.193 104.051C192.546 97.6603 188.064 92.1982 182.312 88.3554C176.561 84.5125 169.8 82.4614 162.883 82.4614C162.819 82.4614 162.758 82.4361 162.713 82.3911C162.668 82.3461 162.643 82.2851 162.643 82.2214C162.643 82.1577 162.668 82.0967 162.713 82.0517C162.758 82.0067 162.819 81.9814 162.883 81.9814C172.288 81.9814 181.308 85.7176 187.958 92.3681C194.609 99.0186 198.345 108.039 198.345 117.444C198.345 126.849 194.609 135.869 187.958 142.52C181.308 149.17 172.288 152.906 162.883 152.906V152.954ZM97.6026 142.653C97.5525 142.651 97.5041 142.635 97.4632 142.606C97.4223 142.577 97.3907 142.537 97.3722 142.49L96.921 141.29L84.2394 137.325C84.1913 137.309 84.1496 137.278 84.1203 137.237C84.091 137.195 84.0756 137.146 84.0762 137.095V97.879C84.077 97.8286 84.093 97.7796 84.1221 97.7385C84.1512 97.6974 84.1921 97.666 84.2394 97.6486L96.3642 93.8662C96.4253 93.8476 96.4913 93.8532 96.5484 93.8818C96.6056 93.9103 96.6496 93.9597 96.6714 94.0198C96.6871 94.0821 96.6791 94.1481 96.649 94.2048C96.6188 94.2616 96.5686 94.3051 96.5082 94.327L84.5274 98.0902V136.951L97.1514 140.897C97.1852 140.907 97.2159 140.926 97.241 140.951C97.266 140.976 97.2847 141.007 97.2954 141.041L97.7946 142.356C97.8167 142.414 97.815 142.479 97.7899 142.537C97.7648 142.594 97.7183 142.639 97.6602 142.663L97.6026 142.653ZM97.6026 92.7334H97.5162C97.4574 92.7079 97.4107 92.6608 97.3857 92.6019C97.3606 92.5429 97.3593 92.4766 97.3818 92.4166C97.8426 91.1878 98.3418 90.0166 98.8698 88.8262C98.8969 88.7692 98.9453 88.7252 99.0046 88.7036C99.0638 88.6821 99.1292 88.6847 99.1866 88.711C99.2157 88.7235 99.2419 88.7417 99.264 88.7644C99.286 88.7871 99.3033 88.814 99.3149 88.8434C99.3265 88.8729 99.3322 88.9043 99.3316 88.936C99.331 88.9676 99.3241 88.9988 99.3114 89.0278C98.7738 90.199 98.2938 91.3702 97.833 92.5894C97.8162 92.6416 97.7826 92.6869 97.7375 92.7181C97.6924 92.7493 97.6382 92.7648 97.5834 92.7622L97.6026 92.7334ZM226.425 87.2518H226.31C226.282 87.2367 226.257 87.2163 226.238 87.1917C226.218 87.1672 226.203 87.1389 226.194 87.1085C226.185 87.0782 226.182 87.0464 226.186 87.015C226.189 86.9836 226.199 86.9531 226.214 86.9254L231.974 75.8374L227.366 71.2102C227.338 71.1896 227.316 71.1633 227.299 71.1331C227.283 71.1029 227.273 71.0695 227.27 71.0352C227.268 71.0009 227.273 70.9665 227.285 70.9343C227.297 70.9021 227.316 70.8728 227.34 70.8485C227.364 70.8242 227.394 70.8054 227.426 70.7934C227.458 70.7813 227.492 70.7764 227.527 70.7788C227.561 70.7812 227.594 70.791 227.625 70.8075C227.655 70.8239 227.681 70.8467 227.702 70.8742L232.502 75.6742C232.532 75.7142 232.549 75.7631 232.549 75.8134C232.549 75.8637 232.532 75.9126 232.502 75.9526L226.617 87.1942C226.592 87.225 226.559 87.249 226.522 87.2641C226.485 87.2792 226.445 87.2849 226.406 87.2806L226.425 87.2518ZM93.4362 76.0102C93.3721 76.0108 93.3102 75.9867 93.2634 75.943C93.2216 75.897 93.1984 75.8371 93.1984 75.775C93.1984 75.7129 93.2216 75.653 93.2634 75.607L120.959 47.8918C120.999 47.8598 121.048 47.8424 121.099 47.8424C121.149 47.8424 121.198 47.8598 121.238 47.8918L132.998 54.0454L134.169 53.527C135.302 53.0182 136.339 52.567 137.337 52.1926C137.367 52.1802 137.398 52.1738 137.43 52.1738C137.462 52.1739 137.494 52.1804 137.524 52.1929C137.553 52.2054 137.58 52.2237 137.602 52.2468C137.625 52.2698 137.642 52.2971 137.654 52.327C137.675 52.3868 137.672 52.4528 137.645 52.5104C137.618 52.568 137.57 52.6125 137.51 52.6342C136.55 53.0278 135.494 53.4598 134.371 53.959L133.094 54.535C133.06 54.5493 133.024 54.5566 132.988 54.5566C132.952 54.5566 132.916 54.5493 132.883 54.535L121.171 48.4006L93.609 76.0102C93.5536 76.0326 93.4916 76.0326 93.4362 76.0102ZM223.535 67.255C223.471 67.2556 223.409 67.2316 223.363 67.1878L204.479 48.3526L192.767 54.487C192.736 54.5038 192.702 54.5126 192.667 54.5126C192.631 54.5126 192.597 54.5038 192.566 54.487L191.289 53.911C189.974 53.3254 188.783 52.8358 187.66 52.4038L186.345 51.9142C186.311 51.9006 186.281 51.8799 186.256 51.8533C186.231 51.8268 186.212 51.7951 186.201 51.7606L182.255 39.1462H143.433L140.035 50.0038C140.026 50.0339 140.011 50.062 139.991 50.0862C139.971 50.1104 139.947 50.1303 139.919 50.1447C139.891 50.1591 139.861 50.1676 139.829 50.1698C139.798 50.172 139.767 50.1678 139.737 50.1574C139.678 50.1376 139.628 50.0954 139.6 50.0398C139.571 49.9842 139.565 49.9196 139.583 49.8598L143.039 38.839C143.056 38.7909 143.087 38.7493 143.128 38.7199C143.169 38.6906 143.219 38.6752 143.27 38.6758H182.486C182.536 38.6766 182.585 38.6926 182.626 38.7217C182.667 38.7508 182.699 38.7917 182.716 38.839L186.671 51.511L187.881 51.9718C189.014 52.3942 190.204 52.9318 191.529 53.4886L192.7 54.007L204.479 47.8534C204.519 47.823 204.568 47.8066 204.619 47.8066C204.669 47.8066 204.718 47.823 204.758 47.8534L223.679 66.8614C223.703 66.8838 223.721 66.9106 223.734 66.9403C223.746 66.97 223.753 67.0019 223.753 67.0342C223.753 67.0665 223.746 67.0984 223.734 67.1281C223.721 67.1578 223.703 67.1846 223.679 67.207C223.64 67.2445 223.589 67.2681 223.535 67.2742V67.255Z" fill="#FAFAFA"/>
<path d="M300.809 125.346C303.814 129.186 306.626 133.026 309.372 136.991C312.118 140.955 314.729 145.007 317.196 149.231C317.82 150.277 318.415 151.371 319.02 152.446C319.893 154.076 320.407 155.873 320.527 157.717C320.684 160.516 320.412 163.323 319.721 166.04C318.526 170.926 316.713 175.639 314.326 180.066L309.382 178.146C310.363 173.713 311.072 169.225 311.503 164.706C311.694 162.754 311.63 160.785 311.311 158.85C311.233 158.312 311.032 157.8 310.726 157.352C310.092 156.392 309.478 155.432 308.806 154.472C306.204 150.632 303.449 146.879 300.674 143.106L292.332 131.797L300.809 125.346Z" fill="#FF8B7B"/>
<path d="M309.034 177.589L306.48 182.159L315.389 183.474C315.389 183.474 316.349 179.634 314.112 176.984L309.034 177.589Z" fill="#FF8B7B"/>
<path d="M305.139 188.235L312.559 188.984L315.391 183.473L306.483 182.158L305.139 188.235Z" fill="#FF8B7B"/>
<path d="M329.281 215.499L331.931 201.396C332.239 199.76 333.183 198.313 334.556 197.372C335.929 196.431 337.619 196.072 339.256 196.376L361.499 200.542C360.172 196.098 357.812 192.031 354.612 188.674C351.412 185.316 347.464 182.764 343.089 181.225C338.713 179.685 334.036 179.203 329.439 179.818C324.842 180.432 320.456 182.125 316.638 184.76L215.723 125.028C216.247 118.713 214.717 112.398 211.36 107.023C208.002 101.649 202.998 97.503 197.093 95.204C191.188 92.9049 184.698 92.5757 178.591 94.2654C172.483 95.9551 167.085 99.5732 163.201 104.58L185.445 108.747C187.078 109.061 188.522 110.008 189.46 111.382C190.399 112.756 190.757 114.445 190.456 116.081L187.806 130.193C187.496 131.828 186.552 133.274 185.179 134.214C183.807 135.155 182.118 135.515 180.481 135.214L158.238 131.038C159.571 135.509 161.949 139.599 165.175 142.969C168.402 146.339 172.384 148.893 176.793 150.419C181.202 151.945 185.91 152.4 190.53 151.746C195.149 151.092 199.546 149.347 203.358 146.657L304.072 206.273C303.491 212.602 304.977 218.948 308.306 224.361C311.636 229.774 316.63 233.962 322.541 236.298C328.451 238.634 334.959 238.991 341.09 237.316C347.221 235.642 352.643 232.025 356.545 227.009L334.302 222.833C332.667 222.521 331.221 221.575 330.28 220.201C329.34 218.827 328.981 217.136 329.281 215.499Z" fill="#005596"/>
<path d="M304.147 184.396L222.326 135.969C220.839 135.089 218.919 135.581 218.039 137.068L214.704 142.703C213.824 144.19 214.316 146.109 215.803 146.99L297.624 195.417C299.112 196.298 301.031 195.805 301.912 194.318L305.246 188.684C306.127 187.196 305.635 185.277 304.147 184.396Z" fill="#005596"/>
<path opacity="0.2" d="M304.147 184.396L222.326 135.969C220.839 135.089 218.919 135.581 218.039 137.068L214.704 142.703C213.824 144.19 214.316 146.109 215.803 146.99L297.624 195.417C299.112 196.298 301.031 195.805 301.912 194.318L305.246 188.684C306.127 187.196 305.635 185.277 304.147 184.396Z" fill="white"/>
<path d="M266.634 95.5088C266.538 96.0752 266.173 96.4688 265.808 96.4688C265.443 96.4688 265.213 95.9024 265.299 95.3456C265.386 94.7888 265.76 94.3856 266.125 94.4336C266.49 94.4816 266.72 94.952 266.634 95.5088Z" fill="#263238"/>
<path d="M266.218 96.4883C265.279 98.1012 264.122 99.5774 262.781 100.875C263.12 101.216 263.53 101.478 263.981 101.644C264.432 101.81 264.914 101.875 265.392 101.835L266.218 96.4883Z" fill="#FF5652"/>
<path d="M269.157 92.7152C269.114 92.7156 269.072 92.7073 269.032 92.6908C268.993 92.6743 268.957 92.65 268.927 92.6192C268.638 92.3153 268.281 92.0845 267.885 91.9459C267.49 91.8074 267.067 91.765 266.652 91.8224C266.608 91.8322 266.563 91.8333 266.519 91.8256C266.475 91.8179 266.433 91.8015 266.396 91.7773C266.358 91.7532 266.326 91.7218 266.3 91.6851C266.275 91.6483 266.258 91.6069 266.248 91.5632C266.239 91.5203 266.238 91.4758 266.245 91.4325C266.253 91.3892 266.27 91.3479 266.294 91.3111C266.318 91.2743 266.35 91.2428 266.386 91.2185C266.423 91.1942 266.464 91.1775 266.508 91.1696C267.029 91.0868 267.564 91.1308 268.065 91.2979C268.566 91.465 269.02 91.7502 269.388 92.1296C269.448 92.1951 269.481 92.2807 269.481 92.3696C269.481 92.4584 269.448 92.5441 269.388 92.6096C269.325 92.6705 269.244 92.7078 269.157 92.7152Z" fill="#263238"/>
<path d="M285.38 101.701C284.42 106.866 283.364 116.322 286.974 119.759C286.974 119.759 285.563 124.991 275.972 124.991C265.412 124.991 270.932 119.759 270.932 119.759C276.692 118.386 276.539 114.114 275.54 110.159L285.38 101.701Z" fill="#FF8B7B"/>
<path d="M291.841 123.637C291.724 123.467 291.636 123.279 291.582 123.08C290.775 120.018 287.386 117.627 282.99 117.502C278.353 117.387 273.121 117.944 270.03 120.498C268.666 121.621 270.174 123.262 270.174 123.262L291.841 123.637Z" fill="#005596"/>
<path opacity="0.5" d="M291.841 123.637C291.724 123.467 291.636 123.279 291.582 123.08C290.775 120.018 287.386 117.627 282.99 117.502C278.353 117.387 273.121 117.944 270.03 120.498C268.666 121.621 270.174 123.262 270.174 123.262L291.841 123.637Z" fill="white"/>
<path d="M325.739 316.808H325.672C325.531 316.788 325.399 316.725 325.296 316.627C325.192 316.529 325.122 316.401 325.096 316.261C325.062 316.152 325.052 316.037 325.067 315.925C325.082 315.812 325.121 315.704 325.182 315.608C325.72 314.696 328.062 314.216 328.129 314.197C328.161 314.19 328.195 314.193 328.225 314.205C328.256 314.217 328.283 314.237 328.302 314.264C328.318 314.292 328.327 314.323 328.327 314.355C328.327 314.387 328.318 314.419 328.302 314.446C327.947 315.051 326.632 316.808 325.739 316.808ZM327.803 314.609C327.035 314.811 325.787 315.224 325.47 315.771C325.44 315.829 325.424 315.893 325.424 315.958C325.424 316.023 325.44 316.088 325.47 316.145C325.556 316.443 325.71 316.462 325.748 316.472C326.18 316.529 327.198 315.493 327.803 314.609Z" fill="#005596"/>
<path d="M327.016 314.647C326.142 314.647 325.163 314.484 324.865 314.061C324.795 313.957 324.763 313.831 324.773 313.706C324.784 313.58 324.837 313.462 324.923 313.37C325.001 313.27 325.098 313.186 325.208 313.123C325.318 313.061 325.44 313.021 325.566 313.005C326.622 312.89 328.206 314.167 328.273 314.225C328.298 314.243 328.317 314.268 328.327 314.297C328.338 314.325 328.341 314.357 328.335 314.387C328.329 314.417 328.314 314.444 328.293 314.467C328.272 314.489 328.245 314.505 328.216 314.513C327.824 314.612 327.42 314.657 327.016 314.647ZM325.729 313.332H325.605C325.523 313.337 325.443 313.36 325.372 313.4C325.301 313.44 325.239 313.495 325.192 313.562C325.057 313.735 325.115 313.821 325.144 313.85C325.413 314.244 326.881 314.397 327.774 314.253C327.183 313.776 326.479 313.459 325.729 313.332Z" fill="#005596"/>
<path d="M256.015 340.116C255.113 340.116 254.239 339.991 253.942 339.588C253.867 339.481 253.826 339.353 253.826 339.223C253.826 339.092 253.867 338.965 253.942 338.858C254 338.76 254.078 338.674 254.171 338.607C254.263 338.539 254.368 338.491 254.479 338.465C255.651 338.148 258.118 339.549 258.223 339.616C258.252 339.634 258.276 339.66 258.289 339.691C258.303 339.722 258.307 339.756 258.3 339.789C258.293 339.822 258.277 339.853 258.253 339.877C258.229 339.901 258.199 339.917 258.166 339.924C257.456 340.048 256.736 340.113 256.015 340.116ZM254.892 338.753C254.787 338.737 254.68 338.737 254.575 338.753C254.508 338.766 254.444 338.793 254.388 338.833C254.331 338.873 254.284 338.924 254.249 338.983C254.124 339.194 254.172 339.3 254.249 339.357C254.575 339.809 256.361 339.818 257.676 339.636C256.814 339.163 255.869 338.863 254.892 338.753Z" fill="#005596"/>
<path d="M258.145 339.925H258.077C257.223 339.541 255.533 338.005 255.668 337.218C255.668 337.026 255.831 336.796 256.292 336.748C256.463 336.727 256.637 336.741 256.802 336.791C256.967 336.84 257.12 336.924 257.252 337.036C258.154 337.775 258.337 339.676 258.346 339.752C258.35 339.782 258.346 339.811 258.334 339.838C258.322 339.865 258.303 339.889 258.279 339.906C258.238 339.929 258.19 339.936 258.145 339.925ZM256.426 337.045H256.321C256.023 337.045 256.004 337.189 255.994 337.228C255.917 337.708 257.069 338.908 257.914 339.426C257.826 338.621 257.491 337.863 256.954 337.256C256.804 337.137 256.618 337.069 256.426 337.064V337.045Z" fill="#005596"/>
<path d="M265.901 339.761H258.845L258.145 323.432H265.201L265.901 339.761Z" fill="#FF8B7B"/>
<path d="M334.473 309.338L328.752 313.466L315.254 303.06L320.975 298.941L334.473 309.338Z" fill="#FF8B7B"/>
<path d="M327.938 313.409L333.429 307.649C333.525 307.548 333.653 307.483 333.791 307.466C333.929 307.448 334.069 307.479 334.188 307.553L339.679 310.884C339.81 310.967 339.922 311.079 340.005 311.21C340.088 311.342 340.14 311.49 340.159 311.645C340.177 311.799 340.161 311.956 340.111 312.103C340.061 312.251 339.979 312.385 339.871 312.497C337.951 314.465 336.866 315.319 334.456 317.834C332.968 319.38 328.936 324.814 326.882 326.954C324.828 329.095 322.456 327.338 323.1 326.282C325.98 321.54 327.381 316.836 327.458 314.494C327.486 314.087 327.656 313.703 327.938 313.409Z" fill="#263238"/>
<path d="M258.895 338.945H266.575C266.715 338.944 266.852 338.991 266.962 339.078C267.072 339.166 267.149 339.288 267.179 339.425L268.571 345.694C268.605 345.845 268.603 346.002 268.567 346.153C268.532 346.304 268.462 346.444 268.364 346.564C268.266 346.684 268.143 346.781 268.002 346.846C267.862 346.911 267.709 346.944 267.554 346.942C264.779 346.942 260.767 346.741 257.272 346.741C253.183 346.741 249.659 346.961 244.869 346.961C241.989 346.961 241.173 344.033 242.383 343.765C247.903 342.565 252.405 342.43 257.176 339.493C257.686 339.153 258.282 338.963 258.895 338.945Z" fill="#263238"/>
<path d="M290.938 134.647C291.898 136.423 292.983 138.141 294.03 139.744C295.834 142.519 297.582 144.919 298.83 146.57C299.953 148.058 300.673 148.931 300.673 148.931L314.881 139.245C314.881 139.245 306.241 122.426 299.588 121.351C292.743 120.266 286.474 126.679 290.938 134.647Z" fill="#005596"/>
<path opacity="0.5" d="M290.938 134.647C291.898 136.423 292.983 138.141 294.03 139.744C295.834 142.519 297.582 144.919 298.83 146.57C299.953 148.058 300.673 148.931 300.673 148.931L314.881 139.245C314.881 139.245 306.241 122.426 299.588 121.351C292.743 120.266 286.474 126.679 290.938 134.647Z" fill="black"/>
<path d="M294.031 139.746C295.836 142.521 297.583 144.921 298.831 146.572C298.687 143.269 298.006 137.932 295.442 133.861C294.511 134.783 294.137 137.164 294.031 139.746Z" fill="#005596"/>
<path opacity="0.6" d="M294.031 139.746C295.836 142.521 297.583 144.921 298.831 146.572C298.687 143.269 298.006 137.932 295.442 133.861C294.511 134.783 294.137 137.164 294.031 139.746Z" fill="black"/>
<path d="M256.619 144.708C256.619 147.108 256.677 149.748 256.811 152.657C257.157 160.567 258.021 170.427 259.691 182.676H297.41C297.669 176.916 294.03 148.635 299.618 121.351C295.445 120.549 291.225 120.017 286.984 119.758C281.644 119.45 276.292 119.45 270.952 119.758C267.292 120.12 263.666 120.762 260.104 121.678C260.104 121.678 256.61 125.643 256.619 144.708Z" fill="#005596"/>
<path opacity="0.5" d="M256.619 144.708C256.619 147.108 256.677 149.748 256.811 152.657C257.157 160.567 258.021 170.427 259.691 182.676H297.41C297.669 176.916 294.03 148.635 299.618 121.351C295.445 120.549 291.225 120.017 286.984 119.758C281.644 119.45 276.292 119.45 270.952 119.758C267.292 120.12 263.666 120.762 260.104 121.678C260.104 121.678 256.61 125.643 256.619 144.708Z" fill="black"/>
<path d="M256.619 144.709C256.619 147.109 256.677 149.749 256.811 152.658C261.237 148.338 261.534 139.516 261.534 139.516L256.619 144.709Z" fill="#005596"/>
<path opacity="0.6" d="M256.619 144.709C256.619 147.109 256.677 149.749 256.811 152.658C261.237 148.338 261.534 139.516 261.534 139.516L256.619 144.709Z" fill="black"/>
<path d="M264.483 133.755C263.757 134.969 262.956 136.136 262.083 137.25C261.286 138.286 260.489 139.266 259.673 140.235C258.051 142.155 256.313 144.008 254.547 145.803C250.928 149.478 246.92 152.748 242.595 155.557C241.431 156.285 240.229 156.952 238.995 157.554L238.505 157.784L238.265 157.899L237.968 158.024C237.494 158.224 237.006 158.391 236.509 158.523L235.808 158.706L235.136 158.821C234.707 158.895 234.274 158.943 233.84 158.965C230.95 159.06 228.066 158.654 225.315 157.765C220.452 156.252 215.818 154.085 211.539 151.323L213.814 146.523C218.18 147.83 222.628 148.844 227.129 149.557C229.034 149.877 230.977 149.903 232.889 149.634C233.053 149.607 233.214 149.565 233.369 149.509L233.581 149.451L233.734 149.384C233.859 149.384 233.888 149.288 233.965 149.259L234.541 148.923C235.424 148.409 236.28 147.849 237.104 147.243C240.647 144.578 243.94 141.596 246.944 138.334C248.509 136.693 250.016 134.974 251.485 133.266C252.214 132.402 252.925 131.538 253.587 130.664C254.249 129.79 254.931 128.898 255.325 128.283L264.483 133.755Z" fill="#FF8B7B"/>
<path d="M214.849 147.818L210.164 142.25L206.977 150.391C206.977 150.391 211.018 152.311 214.167 151.197L214.849 147.818Z" fill="#FF8B7B"/>
<path d="M203.29 141.031L201.984 147.53L206.976 150.382L210.164 142.241L203.29 141.031Z" fill="#FF8B7B"/>
<path d="M270.136 129.933C269.301 136.653 254.056 150.813 254.056 150.813L240.328 139.927C243.779 134.826 247.813 130.145 252.347 125.978C262.293 117.357 271.144 121.908 270.136 129.933Z" fill="#005596"/>
<path opacity="0.5" d="M270.136 129.933C269.301 136.653 254.056 150.813 254.056 150.813L240.328 139.927C243.779 134.826 247.813 130.145 252.347 125.978C262.293 117.357 271.144 121.908 270.136 129.933Z" fill="black"/>
<path d="M258.242 175.293C271.941 175.293 275.071 159.799 275.791 153.146C274.061 141.895 270.053 131.115 264.012 121.466C263.937 121.348 263.893 121.214 263.882 121.075C263.872 120.935 263.896 120.796 263.951 120.668C264.007 120.54 264.094 120.428 264.203 120.341C264.312 120.254 264.441 120.196 264.578 120.17L267.583 119.613C267.754 119.585 267.929 119.608 268.088 119.677C268.246 119.747 268.381 119.862 268.476 120.007C276.722 133.207 279.42 144.401 280.293 150.161H282.751C285.266 144.689 290.805 132.218 290.354 120.535C290.346 120.41 290.366 120.284 290.412 120.167C290.458 120.051 290.53 119.946 290.622 119.86C290.714 119.775 290.824 119.711 290.943 119.673C291.063 119.635 291.19 119.625 291.314 119.642L294.54 119.959C294.747 119.973 294.942 120.063 295.087 120.212C295.233 120.361 295.318 120.558 295.327 120.765C295.797 132.026 289.433 147.645 286.985 152.609C287.82 170.983 298.044 174.161 298.044 174.161C298.295 178.729 298.093 183.312 297.439 187.841C275.791 191.354 265.001 189.213 258.828 186.66C259.308 182.042 258.444 178.807 258.242 175.293Z" fill="#005596"/>
<path opacity="0.3" d="M258.242 175.293C271.941 175.293 275.071 159.799 275.791 153.146C274.061 141.895 270.053 131.115 264.012 121.466C263.937 121.348 263.893 121.214 263.882 121.075C263.872 120.935 263.896 120.796 263.951 120.668C264.007 120.54 264.094 120.428 264.203 120.341C264.312 120.254 264.441 120.196 264.578 120.17L267.583 119.613C267.754 119.585 267.929 119.608 268.088 119.677C268.246 119.747 268.381 119.862 268.476 120.007C276.722 133.207 279.42 144.401 280.293 150.161H282.751C285.266 144.689 290.805 132.218 290.354 120.535C290.346 120.41 290.366 120.284 290.412 120.167C290.458 120.051 290.53 119.946 290.622 119.86C290.714 119.775 290.824 119.711 290.943 119.673C291.063 119.635 291.19 119.625 291.314 119.642L294.54 119.959C294.747 119.973 294.942 120.063 295.087 120.212C295.233 120.361 295.318 120.558 295.327 120.765C295.797 132.026 289.433 147.645 286.985 152.609C287.82 170.983 298.044 174.161 298.044 174.161C298.295 178.729 298.093 183.312 297.439 187.841C275.791 191.354 265.001 189.213 258.828 186.66C259.308 182.042 258.444 178.807 258.242 175.293Z" fill="black"/>
<path d="M258.145 323.432L258.509 331.851H265.565L265.201 323.432H258.145Z" fill="#FF5652"/>
<path d="M320.987 298.941L315.266 303.069L322.226 308.426L327.947 304.298L320.987 298.941Z" fill="#FF5652"/>
<path d="M285.564 97.2564C284.057 104.092 283.519 108.172 279.478 111.167C273.401 115.679 265.375 111.167 264.809 104.034C264.3 97.602 266.844 87.5028 274.034 85.794C275.617 85.4278 277.267 85.4692 278.829 85.9142C280.391 86.3593 281.815 87.1936 282.967 88.3388C284.119 89.4841 284.962 90.903 285.416 92.4626C285.87 94.0223 285.921 95.6717 285.564 97.2564Z" fill="#FF8B7B"/>
<path d="M291.659 86.6483C297.659 86.8115 295.192 89.9699 292.187 91.7075C292.187 91.7075 295.652 93.3683 293.867 97.3331C291.16 103.352 285.976 109.967 280.686 109.602C274.1 109.151 272.228 101.989 272.468 94.9235C268.993 91.6499 268.408 89.8451 267.87 85.9091C266.785 78.1043 271.681 73.8131 291.659 86.6483Z" fill="#263238"/>
<path d="M283.932 73.4947C288.039 74.5483 291.56 77.1901 293.72 80.8392C295.881 84.4882 296.503 88.8459 295.452 92.9539L264.453 85.0435C264.973 83.0056 265.889 81.0901 267.149 79.4066C268.41 77.723 269.99 76.3044 271.799 75.2318C273.608 74.1592 275.61 73.4537 277.692 73.1557C279.774 72.8576 281.894 72.9728 283.932 73.4947Z" fill="#005596"/>
<path opacity="0.5" d="M283.932 73.4947C288.039 74.5483 291.56 77.1901 293.72 80.8392C295.881 84.4882 296.503 88.8459 295.452 92.9539L264.453 85.0435C264.973 83.0056 265.889 81.0901 267.149 79.4066C268.41 77.723 269.99 76.3044 271.799 75.2318C273.608 74.1592 275.61 73.4537 277.692 73.1557C279.774 72.8576 281.894 72.9728 283.932 73.4947Z" fill="white"/>
<path d="M290.054 92.9743C289.84 92.9774 289.628 92.9307 289.435 92.8377C289.242 92.7447 289.073 92.6081 288.941 92.4387C288.81 92.2692 288.72 92.0715 288.678 91.8612C288.637 91.651 288.644 91.4339 288.701 91.2271C289.132 89.4836 289.191 87.6689 288.876 85.9009C288.56 84.1328 287.875 82.4511 286.867 80.9647C284.71 77.7189 281.409 75.4052 277.622 74.4847C277.262 74.393 276.953 74.162 276.763 73.8424C276.573 73.5229 276.518 73.141 276.61 72.7807C276.701 72.4204 276.932 72.1113 277.252 71.9214C277.571 71.7314 277.953 71.6762 278.314 71.7679C282.783 72.8658 286.673 75.6082 289.21 79.4479C290.431 81.2575 291.259 83.3035 291.639 85.4534C292.019 87.6033 291.944 89.809 291.418 91.9279C291.339 92.2289 291.162 92.4951 290.915 92.6845C290.668 92.874 290.366 92.9759 290.054 92.9743Z" fill="#005596"/>
<path opacity="0.3" d="M290.054 92.9743C289.84 92.9774 289.628 92.9307 289.435 92.8377C289.242 92.7447 289.073 92.6081 288.941 92.4387C288.81 92.2692 288.72 92.0715 288.678 91.8612C288.637 91.651 288.644 91.4339 288.701 91.2271C289.132 89.4836 289.191 87.6689 288.876 85.9009C288.56 84.1328 287.875 82.4511 286.867 80.9647C284.71 77.7189 281.409 75.4052 277.622 74.4847C277.262 74.393 276.953 74.162 276.763 73.8424C276.573 73.5229 276.518 73.141 276.61 72.7807C276.701 72.4204 276.932 72.1113 277.252 71.9214C277.571 71.7314 277.953 71.6762 278.314 71.7679C282.783 72.8658 286.673 75.6082 289.21 79.4479C290.431 81.2575 291.259 83.3035 291.639 85.4534C292.019 87.6033 291.944 89.809 291.418 91.9279C291.339 92.2289 291.162 92.4951 290.915 92.6845C290.668 92.874 290.366 92.9759 290.054 92.9743Z" fill="white"/>
<path d="M260.161 85.4583L296.641 94.7703C297.02 94.8665 297.422 94.8083 297.759 94.6085C298.095 94.4088 298.339 94.0838 298.436 93.7047C298.533 93.3242 298.475 92.9209 298.275 92.5829C298.075 92.2448 297.75 91.9994 297.371 91.8999L260.891 82.5879C260.509 82.4919 260.104 82.5511 259.766 82.7526C259.428 82.9542 259.183 83.2816 259.086 83.6631C259.038 83.8516 259.028 84.0476 259.057 84.2399C259.085 84.4321 259.151 84.6169 259.251 84.7837C259.351 84.9504 259.483 85.0958 259.639 85.2116C259.795 85.3274 259.972 85.4112 260.161 85.4583Z" fill="#005596"/>
<path opacity="0.3" d="M260.161 85.4583L296.641 94.7703C297.02 94.8665 297.422 94.8083 297.759 94.6085C298.095 94.4088 298.339 94.0838 298.436 93.7047C298.533 93.3242 298.475 92.9209 298.275 92.5829C298.075 92.2448 297.75 91.9994 297.371 91.8999L260.891 82.5879C260.509 82.4919 260.104 82.5511 259.766 82.7526C259.428 82.9542 259.183 83.2816 259.086 83.6631C259.038 83.8516 259.028 84.0476 259.057 84.2399C259.085 84.4321 259.151 84.6169 259.251 84.7837C259.351 84.9504 259.483 85.0958 259.639 85.2116C259.795 85.3274 259.972 85.4112 260.161 85.4583Z" fill="white"/>
<path d="M276.069 96.6119C275.889 98.3419 275.14 99.9631 273.937 101.22C272.344 102.862 270.769 101.758 270.568 99.6839C270.385 97.8215 271 94.7207 272.91 93.8567C274.821 92.9927 276.27 94.5287 276.069 96.6119Z" fill="#FF8B7B"/>
<path d="M273.056 182.678C273.056 182.678 272.24 232.867 278.547 252.547C288.541 283.718 318.723 308.966 318.723 308.966L329.514 301.18C329.514 301.18 304.381 279.849 299.773 253.612C295.635 230.025 297.392 201.964 297.392 182.697L273.056 182.678Z" fill="#005596"/>
<path opacity="0.3" d="M273.056 182.678C273.056 182.678 272.24 232.867 278.547 252.547C288.541 283.718 318.723 308.966 318.723 308.966L329.514 301.18C329.514 301.18 304.381 279.849 299.773 253.612C295.635 230.025 297.392 201.964 297.392 182.697L273.056 182.678Z" fill="black"/>
<path d="M280.091 191.298C281.425 200.341 276.712 225.522 275.08 233.768C273.371 218.351 273.054 200.063 273.025 190.079C276.481 187.736 279.477 187.132 280.091 191.298Z" fill="#005596"/>
<path opacity="0.4" d="M280.091 191.298C281.425 200.341 276.712 225.522 275.08 233.768C273.371 218.351 273.054 200.063 273.025 190.079C276.481 187.736 279.477 187.132 280.091 191.298Z" fill="black"/>
<path d="M314.104 306.691C314.056 306.691 318.539 309.331 318.539 309.331L330.318 300.825L326.401 297.82L314.104 306.691Z" fill="#005596"/>
<path opacity="0.4" d="M314.104 306.691C314.056 306.691 318.539 309.331 318.539 309.331L330.318 300.825L326.401 297.82L314.104 306.691Z" fill="white"/>
<path d="M259.673 182.678C259.673 182.678 249.045 227.702 248.297 249.206C247.461 273.331 255.881 330.22 255.881 330.22H267.842C267.842 330.22 269.321 272.889 269.849 250.915C270.425 226.963 284.489 182.678 284.489 182.678H259.673Z" fill="#005596"/>
<path opacity="0.3" d="M259.673 182.678C259.673 182.678 249.045 227.702 248.297 249.206C247.461 273.331 255.881 330.22 255.881 330.22H267.842C267.842 330.22 269.321 272.889 269.849 250.915C270.425 226.963 284.489 182.678 284.489 182.678H259.673Z" fill="black"/>
<path d="M253.576 325.457C253.528 325.457 254.258 330.42 254.258 330.42H268.802L269.196 325.995L253.576 325.457Z" fill="#005596"/>
<path opacity="0.4" d="M253.576 325.457C253.528 325.457 254.258 330.42 254.258 330.42H268.802L269.196 325.995L253.576 325.457Z" fill="white"/>
</svg>
