<svg width="482" height="368" viewBox="0 0 482 368" fill="none" xmlns="http://www.w3.org/2000/svg">
<path d="M481.196 324.111H0.803711V324.352H481.196V324.111Z" fill="#EBEBEB"/>
<path d="M228.51 281.261H42.9921C41.5388 281.258 40.1458 280.679 39.1191 279.65C38.0923 278.622 37.5156 277.228 37.5156 275.775V14.9888C37.5283 13.5438 38.1105 12.1622 39.1359 11.144C40.1613 10.1258 41.547 9.55326 42.9921 9.55078H228.51C229.965 9.55078 231.36 10.1288 232.389 11.1576C233.418 12.1865 233.996 13.5819 233.996 15.0369V275.775C233.996 277.23 233.418 278.625 232.389 279.654C231.36 280.683 229.965 281.261 228.51 281.261ZM42.9921 9.74294C41.6025 9.74548 40.2706 10.2993 39.2889 11.2828C38.3072 12.2663 37.7558 13.5992 37.7558 14.9888V275.775C37.7558 277.164 38.3072 278.497 39.2889 279.481C40.2706 280.464 41.6025 281.018 42.9921 281.02H228.51C229.901 281.018 231.233 280.464 232.217 279.481C233.2 278.498 233.753 277.165 233.756 275.775V14.9888C233.753 13.5983 233.2 12.2655 232.217 11.2822C231.233 10.299 229.901 9.74548 228.51 9.74294H42.9921Z" fill="#EBEBEB"/>
<path d="M436.337 281.261H250.809C249.355 281.258 247.961 280.679 246.933 279.651C245.905 278.623 245.326 277.229 245.323 275.775V14.9888C245.338 13.5429 245.923 12.1613 246.95 11.1434C247.977 10.1254 249.363 9.55323 250.809 9.55078H436.337C437.78 9.55578 439.163 10.1294 440.187 11.1473C441.21 12.1653 441.791 13.5455 441.804 14.9888V275.775C441.804 277.226 441.228 278.619 440.204 279.647C439.179 280.675 437.788 281.256 436.337 281.261ZM250.809 9.74294C249.419 9.74548 248.086 10.299 247.103 11.2822C246.119 12.2655 245.566 13.5983 245.563 14.9888V275.775C245.566 277.165 246.119 278.498 247.103 279.481C248.086 280.464 249.419 281.018 250.809 281.02H436.337C437.727 281.018 439.06 280.464 440.043 279.481C441.027 278.498 441.58 277.165 441.583 275.775V14.9888C441.58 13.5983 441.027 12.2655 440.043 11.2822C439.06 10.299 437.727 9.74548 436.337 9.74294H250.809Z" fill="#EBEBEB"/>
<path d="M433.061 339.57H408.081V339.811H433.061V339.57Z" fill="#EBEBEB"/>
<path d="M342.873 342.184H299.608V342.424H342.873V342.184Z" fill="#EBEBEB"/>
<path d="M407.12 330.654H348.714V330.894H407.12V330.654Z" fill="#EBEBEB"/>
<path d="M69.681 332.268H51.2051V332.508H69.681V332.268Z" fill="#EBEBEB"/>
<path d="M131.365 332.268H78.2432V332.508H131.365V332.268Z" fill="#EBEBEB"/>
<path d="M235.369 336.324H163.819V336.564H235.369V336.324Z" fill="#EBEBEB"/>
<path d="M175.965 103.658H78.2432V324.11H175.965V103.658Z" fill="#F5F5F5"/>
<path d="M166.779 111.393H87.4082V316.366H166.779V111.393Z" fill="#E6E6E6"/>
<path d="M161.332 121.002H92.876V125.691H161.332V121.002Z" fill="#FAFAFA"/>
<path d="M161.332 131.656H92.876V136.345H161.332V131.656Z" fill="#FAFAFA"/>
<path d="M161.332 142.303H92.876V146.991H161.332V142.303Z" fill="#FAFAFA"/>
<path d="M161.332 152.957H92.876V157.646H161.332V152.957Z" fill="#FAFAFA"/>
<path d="M161.332 163.611H92.876V168.3H161.332V163.611Z" fill="#FAFAFA"/>
<path d="M161.332 174.258H92.876V178.946H161.332V174.258Z" fill="#FAFAFA"/>
<path d="M161.332 184.912H92.876V189.601H161.332V184.912Z" fill="#FAFAFA"/>
<path d="M161.332 195.559H92.876V200.247H161.332V195.559Z" fill="#FAFAFA"/>
<path d="M161.332 206.213H92.876V210.902H161.332V206.213Z" fill="#FAFAFA"/>
<path d="M161.332 216.869H92.876V221.558H161.332V216.869Z" fill="#FAFAFA"/>
<path d="M161.332 227.514H92.876V232.202H161.332V227.514Z" fill="#FAFAFA"/>
<path d="M161.332 238.168H92.876V242.857H161.332V238.168Z" fill="#FAFAFA"/>
<path d="M161.332 248.814H92.876V253.503H161.332V248.814Z" fill="#FAFAFA"/>
<path d="M161.332 259.469H92.876V264.157H161.332V259.469Z" fill="#FAFAFA"/>
<path d="M161.332 270.123H92.876V274.812H161.332V270.123Z" fill="#FAFAFA"/>
<path d="M161.332 280.77H92.876V285.458H161.332V280.77Z" fill="#FAFAFA"/>
<path d="M161.332 291.426H92.876V296.114H161.332V291.426Z" fill="#FAFAFA"/>
<path d="M161.332 302.07H92.876V306.759H161.332V302.07Z" fill="#FAFAFA"/>
<path d="M51.2067 324.102H78.2432L78.2432 103.65H51.2067L51.2067 324.102Z" fill="#E6E6E6"/>
<path d="M162.532 99.8633H85.8418V103.658H162.532V99.8633Z" fill="#F0F0F0"/>
<path d="M64.6277 103.658H85.8418V99.8631H64.6277V103.658Z" fill="#E0E0E0"/>
<path d="M73.3913 119.879C75.0097 119.879 76.3217 116.678 76.3217 112.73C76.3217 108.782 75.0097 105.582 73.3913 105.582C71.7729 105.582 70.4609 108.782 70.4609 112.73C70.4609 116.678 71.7729 119.879 73.3913 119.879Z" fill="#F5F5F5"/>
<path d="M52.168 112.729C52.168 116.678 53.0519 119.877 54.1472 119.877C55.2425 119.877 56.1264 116.678 56.1264 112.729C56.1264 108.78 55.2425 105.629 54.1472 105.629C53.0519 105.629 52.168 108.78 52.168 112.729Z" fill="#F5F5F5"/>
<path d="M73.3913 322.179C75.0097 322.179 76.3217 318.979 76.3217 315.031C76.3217 311.083 75.0097 307.883 73.3913 307.883C71.7729 307.883 70.4609 311.083 70.4609 315.031C70.4609 318.979 71.7729 322.179 73.3913 322.179Z" fill="#F5F5F5"/>
<path d="M52.168 315.08C52.168 319.038 53.0519 322.238 54.1472 322.238C55.2425 322.238 56.1264 319.038 56.1264 315.08C56.1264 311.121 55.2425 307.932 54.1472 307.932C53.0519 307.932 52.168 311.083 52.168 315.08Z" fill="#F5F5F5"/>
<path d="M357.889 152.822H281.968V324.101H357.889V152.822Z" fill="#F5F5F5"/>
<path d="M350.761 158.836H289.088V318.096H350.761V158.836Z" fill="#E6E6E6"/>
<path d="M346.524 166.301H293.335V169.942H346.524V166.301Z" fill="#FAFAFA"/>
<path d="M346.524 174.584H293.335V178.225H346.524V174.584Z" fill="#FAFAFA"/>
<path d="M346.524 182.855H293.335V186.497H346.524V182.855Z" fill="#FAFAFA"/>
<path d="M346.524 191.129H293.335V194.77H346.524V191.129Z" fill="#FAFAFA"/>
<path d="M346.524 199.412H293.335V203.053H346.524V199.412Z" fill="#FAFAFA"/>
<path d="M346.524 207.684H293.335V211.325H346.524V207.684Z" fill="#FAFAFA"/>
<path d="M346.524 215.955H293.335V219.596H346.524V215.955Z" fill="#FAFAFA"/>
<path d="M346.524 224.238H293.335V227.88H346.524V224.238Z" fill="#FAFAFA"/>
<path d="M346.524 232.51H293.335V236.151H346.524V232.51Z" fill="#FAFAFA"/>
<path d="M346.524 240.781H293.335V244.423H346.524V240.781Z" fill="#FAFAFA"/>
<path d="M346.524 249.064H293.335V252.706H346.524V249.064Z" fill="#FAFAFA"/>
<path d="M346.524 257.336H293.335V260.977H346.524V257.336Z" fill="#FAFAFA"/>
<path d="M346.524 265.609H293.335V269.251H346.524V265.609Z" fill="#FAFAFA"/>
<path d="M346.524 273.891H293.335V277.532H346.524V273.891Z" fill="#FAFAFA"/>
<path d="M346.524 282.164H293.335V285.805H346.524V282.164Z" fill="#FAFAFA"/>
<path d="M346.524 290.436H293.335V294.077H346.524V290.436Z" fill="#FAFAFA"/>
<path d="M346.524 298.719H293.335V302.36H346.524V298.719Z" fill="#FAFAFA"/>
<path d="M346.524 306.99H293.335V310.632H346.524V306.99Z" fill="#FAFAFA"/>
<path d="M260.965 324.111H281.968V152.832H260.965V324.111Z" fill="#E6E6E6"/>
<path d="M347.464 149.883H287.876V152.832H347.464V149.883Z" fill="#F0F0F0"/>
<path d="M271.38 152.822H287.867V149.873H271.38V152.822Z" fill="#E0E0E0"/>
<path d="M275.925 159.876C275.925 162.95 276.943 165.439 278.192 165.439C279.441 165.439 280.469 162.95 280.469 159.876C280.469 156.801 279.451 154.322 278.192 154.322C276.934 154.322 275.925 156.811 275.925 159.876Z" fill="#F5F5F5"/>
<path d="M261.704 159.876C261.704 162.95 262.396 165.439 263.241 165.439C264.087 165.439 264.788 162.95 264.788 159.876C264.788 156.801 264.096 154.322 263.241 154.322C262.386 154.322 261.704 156.811 261.704 159.876Z" fill="#F5F5F5"/>
<path d="M275.925 317.059C275.925 320.134 276.943 322.613 278.192 322.613C279.441 322.613 280.469 320.134 280.469 317.059C280.469 313.985 279.451 311.506 278.192 311.506C276.934 311.506 275.925 313.994 275.925 317.059Z" fill="#F5F5F5"/>
<path d="M261.704 317.059C261.704 320.134 262.396 322.613 263.241 322.613C264.087 322.613 264.788 320.134 264.788 317.059C264.788 313.985 264.096 311.506 263.241 311.506C262.386 311.506 261.704 313.994 261.704 317.059Z" fill="#F5F5F5"/>
<path d="M278.19 160.393H233.398C230.43 160.391 227.583 159.211 225.483 157.113C223.383 155.015 222.201 152.169 222.196 149.2V134.068C222.193 131.354 221.115 128.752 219.196 126.832C217.278 124.912 214.677 123.831 211.963 123.826H175.953V122.865H211.963C214.932 122.87 217.778 124.053 219.876 126.153C221.974 128.253 223.154 131.099 223.156 134.068V149.162C223.154 150.509 223.417 151.843 223.93 153.089C224.444 154.334 225.198 155.466 226.149 156.42C227.1 157.374 228.23 158.131 229.474 158.648C230.718 159.165 232.051 159.431 233.398 159.433H278.19V160.393Z" fill="#E0E0E0"/>
<path d="M263.24 317.54H249.645C246.678 317.535 243.834 316.354 241.736 314.256C239.638 312.158 238.457 309.314 238.452 306.346V218.396C238.447 215.682 237.366 213.081 235.446 211.163C233.526 209.245 230.924 208.166 228.21 208.164H175.953V207.203H228.249C231.217 207.206 234.064 208.385 236.164 210.484C238.264 212.582 239.446 215.428 239.451 218.396V306.346C239.456 309.052 240.531 311.646 242.44 313.563C244.35 315.479 246.94 316.564 249.645 316.579H263.202L263.24 317.54Z" fill="#E0E0E0"/>
<path d="M415.516 51.5469H364.796V56.7351H415.516V51.5469Z" fill="#F0F0F0"/>
<path d="M350.759 56.7441H364.796V51.5559H350.759V56.7441Z" fill="#E0E0E0"/>
<path d="M415.516 38.8438H364.796V44.032H415.516V38.8438Z" fill="#F0F0F0"/>
<path d="M350.759 44.0234H364.796V38.8352H350.759V44.0234Z" fill="#E0E0E0"/>
<path d="M415.516 26.1328H364.796V31.3211H415.516V26.1328Z" fill="#F0F0F0"/>
<path d="M350.759 31.3223H364.796V26.134H350.759V31.3223Z" fill="#E0E0E0"/>
<path d="M415.516 13.4219H364.796V18.6101H415.516V13.4219Z" fill="#F0F0F0"/>
<path d="M350.759 18.6094H364.796V13.4211L350.759 13.4211V18.6094Z" fill="#E0E0E0"/>
<g opacity="0.4">
<path d="M410.462 0.509766H367.659V51.5562H410.462V0.509766Z" fill="#F0F0F0"/>
<path d="M355.813 51.5469H367.659V0.500393H355.813V51.5469Z" fill="#E0E0E0"/>
</g>
<path d="M284.6 135.932H247.562V139.717H284.6V135.932Z" fill="#F0F0F0"/>
<path d="M237.32 139.719H247.562V135.933H237.32V139.719Z" fill="#E0E0E0"/>
<path d="M284.6 126.65H247.562V130.436H284.6V126.65Z" fill="#F0F0F0"/>
<path d="M237.32 130.436H247.562V126.65H237.32V130.436Z" fill="#E0E0E0"/>
<path d="M284.6 117.369H247.562V121.155H284.6V117.369Z" fill="#F0F0F0"/>
<path d="M237.32 121.164H247.562V117.379H237.32V121.164Z" fill="#E0E0E0"/>
<path d="M284.6 108.088H247.562V111.873H284.6V108.088Z" fill="#F0F0F0"/>
<path d="M237.32 111.883H247.562V108.097H237.32V111.883Z" fill="#E0E0E0"/>
<g opacity="0.4">
<path d="M280.91 98.6621H249.655V135.931H280.91V98.6621Z" fill="#F0F0F0"/>
<path d="M241.008 135.932H249.655V98.6628H241.008V135.932Z" fill="#E0E0E0"/>
</g>
<path d="M455.043 256.039H407.312V260.92H455.043V256.039Z" fill="#F0F0F0"/>
<path d="M394.11 260.92H407.312V256.039H394.11V260.92Z" fill="#E0E0E0"/>
<path d="M455.043 244.078H407.312V248.959H455.043V244.078Z" fill="#F0F0F0"/>
<path d="M394.11 248.959H407.312V244.078H394.11V248.959Z" fill="#E0E0E0"/>
<path d="M455.043 232.115H407.312V236.996H455.043V232.115Z" fill="#F0F0F0"/>
<path d="M394.11 237.006H407.312V232.125H394.11V237.006Z" fill="#E0E0E0"/>
<path d="M455.043 220.164H407.312V225.045H455.043V220.164Z" fill="#F0F0F0"/>
<path d="M394.11 225.035H407.312V220.154H394.11V225.035Z" fill="#E0E0E0"/>
<g opacity="0.4">
<path d="M450.289 208H410.003V256.039H450.289V208Z" fill="#F0F0F0"/>
<path d="M398.866 256.039H410.011V208H398.866V256.039Z" fill="#E0E0E0"/>
</g>
<path d="M241 367.5C343.884 367.5 427.287 362.631 427.287 356.624C427.287 350.617 343.884 345.748 241 345.748C138.117 345.748 54.7139 350.617 54.7139 356.624C54.7139 362.631 138.117 367.5 241 367.5Z" fill="#F5F5F5"/>
<path d="M411.412 67.4668H306.792V167.811H411.412V67.4668Z" fill="#005596"/>
<path opacity="0.4" d="M411.412 67.4668H306.792V167.811H411.412V67.4668Z" fill="white"/>
<path opacity="0.7" d="M411.404 67.4668H340.095V167.811H411.404V67.4668Z" fill="white"/>
<path d="M407.838 72.5879H343.657V85.0108H407.838V72.5879Z" fill="#005596"/>
<path d="M407.838 88.123H343.657V100.546H407.838V88.123Z" fill="#005596"/>
<path d="M407.838 103.66H343.657V116.083H407.838V103.66Z" fill="#005596"/>
<path d="M407.838 119.186H343.657V131.608H407.838V119.186Z" fill="#005596"/>
<path d="M407.838 134.723H343.657V147.146H407.838V134.723Z" fill="#005596"/>
<path d="M407.838 150.258H343.657V162.681H407.838V150.258Z" fill="#005596"/>
<path d="M336.366 72.5879H310.53V85.0108H336.366V72.5879Z" fill="#005596"/>
<path d="M336.366 88.125H310.53V100.548H336.366V88.125Z" fill="#005596"/>
<path d="M336.366 103.66H310.53V116.083H336.366V103.66Z" fill="#005596"/>
<path d="M336.366 119.186H310.53V131.608H336.366V119.186Z" fill="#005596"/>
<path d="M336.366 134.723H310.53V147.146H336.366V134.723Z" fill="#005596"/>
<path d="M336.366 150.258H310.53V162.681H336.366V150.258Z" fill="#005596"/>
<path opacity="0.4" d="M325.038 75.0762H312.913V82.5319H325.038V75.0762Z" fill="#263238"/>
<path opacity="0.4" d="M325.038 90.6016H312.913V98.0572H325.038V90.6016Z" fill="#263238"/>
<path opacity="0.4" d="M325.038 106.139H312.913V113.594H325.038V106.139Z" fill="#263238"/>
<path opacity="0.4" d="M325.038 121.674H312.913V129.13H325.038V121.674Z" fill="#263238"/>
<path opacity="0.4" d="M325.038 137.211H312.913V144.667H325.038V137.211Z" fill="#263238"/>
<path opacity="0.4" d="M325.038 152.746H312.913V160.202H325.038V152.746Z" fill="#263238"/>
<path opacity="0.7" d="M404.698 74.2031H403.199V83.3882H404.698V74.2031Z" fill="white"/>
<path opacity="0.7" d="M401.815 74.2031H400.316V83.3882H401.815V74.2031Z" fill="white"/>
<path opacity="0.7" d="M398.932 74.2031H397.434V83.3882H398.932V74.2031Z" fill="white"/>
<path opacity="0.7" d="M396.051 74.2031H394.552V83.3882H396.051V74.2031Z" fill="white"/>
<path opacity="0.7" d="M393.167 74.2031H391.668V83.3882H393.167V74.2031Z" fill="white"/>
<path opacity="0.7" d="M404.698 89.7383H403.199V98.9234H404.698V89.7383Z" fill="white"/>
<path opacity="0.7" d="M401.815 89.7383H400.316V98.9234H401.815V89.7383Z" fill="white"/>
<path opacity="0.7" d="M398.932 89.7383H397.434V98.9234H398.932V89.7383Z" fill="white"/>
<path opacity="0.7" d="M396.051 89.7383H394.552V98.9234H396.051V89.7383Z" fill="white"/>
<path opacity="0.7" d="M393.167 89.7383H391.668V98.9234H393.167V89.7383Z" fill="white"/>
<path opacity="0.7" d="M404.698 105.273H403.199V114.459H404.698V105.273Z" fill="white"/>
<path opacity="0.7" d="M401.815 105.273H400.316V114.459H401.815V105.273Z" fill="white"/>
<path opacity="0.7" d="M398.932 105.273H397.434V114.459H398.932V105.273Z" fill="white"/>
<path opacity="0.7" d="M396.051 105.273H394.552V114.459H396.051V105.273Z" fill="white"/>
<path opacity="0.7" d="M393.167 105.273H391.668V114.459H393.167V105.273Z" fill="white"/>
<path opacity="0.7" d="M404.698 120.809H403.199V130.003H404.698V120.809Z" fill="white"/>
<path opacity="0.7" d="M401.815 120.809H400.316V130.003H401.815V120.809Z" fill="white"/>
<path opacity="0.7" d="M398.932 120.809H397.434V130.003H398.932V120.809Z" fill="white"/>
<path opacity="0.7" d="M396.051 120.809H394.552V130.003H396.051V120.809Z" fill="white"/>
<path opacity="0.7" d="M393.167 120.809H391.668V130.003H393.167V120.809Z" fill="white"/>
<path opacity="0.7" d="M404.698 136.346H403.199V145.54H404.698V136.346Z" fill="white"/>
<path opacity="0.7" d="M401.815 136.346H400.316V145.54H401.815V136.346Z" fill="white"/>
<path opacity="0.7" d="M398.932 136.346H397.434V145.54H398.932V136.346Z" fill="white"/>
<path opacity="0.7" d="M396.051 136.346H394.552V145.54H396.051V136.346Z" fill="white"/>
<path opacity="0.7" d="M393.167 136.346H391.668V145.54H393.167V136.346Z" fill="white"/>
<path opacity="0.7" d="M404.698 151.881H403.199V161.066H404.698V151.881Z" fill="white"/>
<path opacity="0.7" d="M401.815 151.881H400.316V161.066H401.815V151.881Z" fill="white"/>
<path opacity="0.7" d="M398.932 151.881H397.434V161.066H398.932V151.881Z" fill="white"/>
<path opacity="0.7" d="M396.051 151.881H394.552V161.066H396.051V151.881Z" fill="white"/>
<path opacity="0.7" d="M393.167 151.881H391.668V161.066H393.167V151.881Z" fill="white"/>
<path opacity="0.2" d="M367.284 156.473C367.284 156.171 367.374 155.875 367.542 155.624C367.71 155.373 367.948 155.177 368.227 155.062C368.506 154.946 368.814 154.916 369.11 154.975C369.406 155.034 369.678 155.179 369.892 155.393C370.106 155.606 370.251 155.879 370.31 156.175C370.369 156.471 370.339 156.778 370.223 157.058C370.108 157.337 369.912 157.575 369.661 157.743C369.409 157.911 369.114 158.001 368.812 158.001C368.407 158.001 368.018 157.84 367.732 157.553C367.445 157.267 367.284 156.878 367.284 156.473Z" fill="white"/>
<path opacity="0.2" d="M357.676 156.473C357.676 156.171 357.765 155.875 357.933 155.624C358.101 155.373 358.34 155.177 358.619 155.062C358.898 154.946 359.205 154.916 359.501 154.975C359.798 155.034 360.07 155.179 360.284 155.393C360.497 155.606 360.643 155.879 360.702 156.175C360.761 156.471 360.73 156.778 360.615 157.058C360.499 157.337 360.303 157.575 360.052 157.743C359.801 157.911 359.506 158.001 359.203 158.001C358.798 158.001 358.41 157.84 358.123 157.553C357.837 157.267 357.676 156.878 357.676 156.473Z" fill="white"/>
<path opacity="0.4" d="M348.068 156.473C348.068 156.171 348.158 155.875 348.326 155.624C348.494 155.373 348.732 155.177 349.011 155.062C349.291 154.946 349.598 154.916 349.894 154.975C350.19 155.034 350.463 155.179 350.676 155.393C350.89 155.606 351.035 155.879 351.094 156.175C351.153 156.471 351.123 156.778 351.007 157.058C350.892 157.337 350.696 157.575 350.445 157.743C350.194 157.911 349.898 158.001 349.596 158.001C349.191 158.001 348.802 157.84 348.516 157.553C348.229 157.267 348.068 156.878 348.068 156.473Z" fill="white"/>
<path opacity="0.4" d="M367.284 140.938C367.284 140.636 367.374 140.34 367.542 140.089C367.71 139.838 367.948 139.642 368.227 139.526C368.506 139.411 368.814 139.381 369.11 139.44C369.406 139.498 369.678 139.644 369.892 139.858C370.106 140.071 370.251 140.343 370.31 140.64C370.369 140.936 370.339 141.243 370.223 141.522C370.108 141.802 369.912 142.04 369.661 142.208C369.409 142.376 369.114 142.465 368.812 142.465C368.407 142.465 368.018 142.305 367.732 142.018C367.445 141.732 367.284 141.343 367.284 140.938Z" fill="white"/>
<path opacity="0.2" d="M357.676 140.938C357.676 140.636 357.765 140.34 357.933 140.089C358.101 139.838 358.34 139.642 358.619 139.526C358.898 139.411 359.205 139.381 359.501 139.44C359.798 139.498 360.07 139.644 360.284 139.858C360.497 140.071 360.643 140.343 360.702 140.64C360.761 140.936 360.73 141.243 360.615 141.522C360.499 141.802 360.303 142.04 360.052 142.208C359.801 142.376 359.506 142.465 359.203 142.465C358.798 142.465 358.41 142.305 358.123 142.018C357.837 141.732 357.676 141.343 357.676 140.938Z" fill="white"/>
<path opacity="0.4" d="M348.068 140.938C348.068 140.636 348.158 140.34 348.326 140.089C348.494 139.838 348.732 139.642 349.011 139.526C349.291 139.411 349.598 139.381 349.894 139.44C350.19 139.498 350.463 139.644 350.676 139.858C350.89 140.071 351.035 140.343 351.094 140.64C351.153 140.936 351.123 141.243 351.007 141.522C350.892 141.802 350.696 142.04 350.445 142.208C350.194 142.376 349.898 142.465 349.596 142.465C349.191 142.465 348.802 142.305 348.516 142.018C348.229 141.732 348.068 141.343 348.068 140.938Z" fill="white"/>
<path opacity="0.2" d="M367.284 125.403C367.284 125.101 367.374 124.805 367.542 124.554C367.71 124.303 367.948 124.107 368.227 123.991C368.506 123.876 368.814 123.845 369.11 123.904C369.406 123.963 369.678 124.109 369.892 124.322C370.106 124.536 370.251 124.808 370.31 125.105C370.369 125.401 370.339 125.708 370.223 125.987C370.108 126.266 369.912 126.505 369.661 126.673C369.409 126.841 369.114 126.93 368.812 126.93C368.407 126.93 368.018 126.769 367.732 126.483C367.445 126.196 367.284 125.808 367.284 125.403Z" fill="white"/>
<path opacity="0.4" d="M357.676 125.403C357.676 125.101 357.765 124.805 357.933 124.554C358.101 124.303 358.34 124.107 358.619 123.991C358.898 123.876 359.205 123.845 359.501 123.904C359.798 123.963 360.07 124.109 360.284 124.322C360.497 124.536 360.643 124.808 360.702 125.105C360.761 125.401 360.73 125.708 360.615 125.987C360.499 126.266 360.303 126.505 360.052 126.673C359.801 126.841 359.506 126.93 359.203 126.93C358.798 126.93 358.41 126.769 358.123 126.483C357.837 126.196 357.676 125.808 357.676 125.403Z" fill="white"/>
<path opacity="0.2" d="M348.068 125.403C348.068 125.101 348.158 124.805 348.326 124.554C348.494 124.303 348.732 124.107 349.011 123.991C349.291 123.876 349.598 123.845 349.894 123.904C350.19 123.963 350.463 124.109 350.676 124.322C350.89 124.536 351.035 124.808 351.094 125.105C351.153 125.401 351.123 125.708 351.007 125.987C350.892 126.266 350.696 126.505 350.445 126.673C350.194 126.841 349.898 126.93 349.596 126.93C349.191 126.93 348.802 126.769 348.516 126.483C348.229 126.196 348.068 125.808 348.068 125.403Z" fill="white"/>
<path opacity="0.4" d="M367.284 109.865C367.284 109.562 367.375 109.265 367.544 109.014C367.713 108.762 367.953 108.566 368.234 108.451C368.515 108.337 368.824 108.308 369.121 108.369C369.418 108.431 369.69 108.579 369.902 108.796C370.115 109.012 370.258 109.287 370.314 109.585C370.369 109.884 370.335 110.192 370.215 110.47C370.095 110.749 369.894 110.985 369.639 111.15C369.384 111.314 369.086 111.399 368.783 111.393C368.383 111.385 368.002 111.221 367.721 110.935C367.441 110.65 367.284 110.265 367.284 109.865Z" fill="white"/>
<path opacity="0.2" d="M357.676 109.865C357.676 109.562 357.766 109.265 357.935 109.014C358.105 108.762 358.345 108.566 358.626 108.451C358.907 108.337 359.215 108.308 359.512 108.369C359.809 108.431 360.081 108.579 360.294 108.796C360.506 109.012 360.65 109.287 360.705 109.585C360.761 109.884 360.726 110.192 360.606 110.47C360.486 110.749 360.286 110.985 360.031 111.15C359.776 111.314 359.478 111.399 359.175 111.393C358.774 111.385 358.393 111.221 358.113 110.935C357.833 110.65 357.676 110.265 357.676 109.865Z" fill="white"/>
<path opacity="0.2" d="M348.068 109.865C348.068 109.562 348.159 109.265 348.328 109.014C348.497 108.762 348.737 108.566 349.018 108.451C349.299 108.337 349.608 108.308 349.905 108.369C350.202 108.431 350.474 108.579 350.686 108.796C350.899 109.012 351.042 109.287 351.098 109.585C351.153 109.884 351.119 110.192 350.999 110.47C350.879 110.749 350.679 110.985 350.424 111.15C350.169 111.314 349.87 111.399 349.567 111.393C349.167 111.385 348.786 111.221 348.506 110.935C348.225 110.65 348.068 110.265 348.068 109.865Z" fill="white"/>
<path opacity="0.2" d="M367.284 94.3304C367.284 94.0282 367.374 93.7329 367.542 93.4817C367.71 93.2304 367.948 93.0346 368.227 92.919C368.506 92.8034 368.814 92.7731 369.11 92.8321C369.406 92.891 369.678 93.0365 369.892 93.2502C370.106 93.4638 370.251 93.736 370.31 94.0324C370.369 94.3287 370.339 94.6358 370.223 94.915C370.108 95.1941 369.912 95.4327 369.661 95.6006C369.409 95.7684 369.114 95.858 368.812 95.858C368.407 95.858 368.018 95.6971 367.732 95.4106C367.445 95.1241 367.284 94.7355 367.284 94.3304Z" fill="white"/>
<path opacity="0.4" d="M357.676 94.3304C357.676 94.0282 357.765 93.7329 357.933 93.4817C358.101 93.2304 358.34 93.0346 358.619 92.919C358.898 92.8034 359.205 92.7731 359.501 92.8321C359.798 92.891 360.07 93.0365 360.284 93.2502C360.497 93.4638 360.643 93.736 360.702 94.0324C360.761 94.3287 360.73 94.6358 360.615 94.915C360.499 95.1941 360.303 95.4327 360.052 95.6006C359.801 95.7684 359.506 95.858 359.203 95.858C358.798 95.858 358.41 95.6971 358.123 95.4106C357.837 95.1241 357.676 94.7355 357.676 94.3304Z" fill="white"/>
<path opacity="0.4" d="M348.068 94.3304C348.068 94.0282 348.158 93.7329 348.326 93.4817C348.494 93.2304 348.732 93.0346 349.011 92.919C349.291 92.8034 349.598 92.7731 349.894 92.8321C350.19 92.891 350.463 93.0365 350.676 93.2502C350.89 93.4638 351.035 93.736 351.094 94.0324C351.153 94.3287 351.123 94.6358 351.007 94.915C350.892 95.1941 350.696 95.4327 350.445 95.6006C350.194 95.7684 349.898 95.858 349.596 95.858C349.191 95.858 348.802 95.6971 348.516 95.4106C348.229 95.1241 348.068 94.7355 348.068 94.3304Z" fill="white"/>
<path opacity="0.4" d="M367.284 78.8048C367.282 78.5023 367.37 78.206 367.537 77.9535C367.704 77.701 367.942 77.5037 368.221 77.3866C368.5 77.2695 368.807 77.2379 369.104 77.2958C369.401 77.3536 369.674 77.4984 369.889 77.7116C370.103 77.9249 370.25 78.1971 370.309 78.4936C370.369 78.7902 370.339 79.0979 370.224 79.3776C370.109 79.6573 369.913 79.8965 369.662 80.0647C369.41 80.233 369.114 80.3229 368.812 80.3229C368.408 80.3229 368.021 80.1633 367.735 79.8788C367.449 79.5944 367.287 79.2083 367.284 78.8048Z" fill="white"/>
<path opacity="0.2" d="M357.676 78.8048C357.674 78.5023 357.762 78.206 357.929 77.9535C358.095 77.701 358.333 77.5037 358.612 77.3866C358.891 77.2695 359.199 77.2379 359.496 77.2958C359.793 77.3536 360.066 77.4984 360.28 77.7116C360.495 77.9249 360.641 78.1971 360.701 78.4936C360.761 78.7902 360.731 79.0979 360.616 79.3776C360.5 79.6573 360.305 79.8965 360.053 80.0647C359.802 80.233 359.506 80.3229 359.203 80.3229C358.8 80.3229 358.413 80.1633 358.127 79.8788C357.84 79.5944 357.678 79.2083 357.676 78.8048Z" fill="white"/>
<path opacity="0.4" d="M348.068 78.8048C348.066 78.5023 348.154 78.206 348.321 77.9535C348.488 77.701 348.726 77.5037 349.005 77.3866C349.284 77.2695 349.591 77.2379 349.888 77.2958C350.185 77.3536 350.458 77.4984 350.673 77.7116C350.887 77.9249 351.034 78.1971 351.094 78.4936C351.153 78.7902 351.124 79.0979 351.008 79.3776C350.893 79.6573 350.697 79.8965 350.446 80.0647C350.194 80.233 349.899 80.3229 349.596 80.3229C349.193 80.3229 348.805 80.1633 348.519 79.8788C348.233 79.5944 348.071 79.2083 348.068 78.8048Z" fill="white"/>
<path d="M218.554 256.27H113.935V356.614H218.554V256.27Z" fill="#005596"/>
<path opacity="0.4" d="M218.554 256.27H113.935V356.614H218.554V256.27Z" fill="white"/>
<path opacity="0.7" d="M218.545 256.27H147.235V356.614H218.545V256.27Z" fill="white"/>
<path d="M214.98 261.402H150.8V273.825H214.98V261.402Z" fill="#005596"/>
<path d="M214.98 276.938H150.8V289.36H214.98V276.938Z" fill="#005596"/>
<path d="M214.98 292.463H150.8V304.886H214.98V292.463Z" fill="#005596"/>
<path d="M214.98 308H150.8V320.423H214.98V308Z" fill="#005596"/>
<path d="M214.98 323.535H150.8V335.958H214.98V323.535Z" fill="#005596"/>
<path d="M214.98 339.07H150.8V351.493H214.98V339.07Z" fill="#005596"/>
<path d="M143.506 261.402H117.671V273.825H143.506V261.402Z" fill="#005596"/>
<path d="M143.506 276.938H117.671V289.36H143.506V276.938Z" fill="#005596"/>
<path d="M143.506 292.463H117.671V304.886H143.506V292.463Z" fill="#005596"/>
<path d="M143.506 308H117.671V320.423H143.506V308Z" fill="#005596"/>
<path d="M143.506 323.535H117.671V335.958H143.506V323.535Z" fill="#005596"/>
<path d="M143.506 339.07H117.671V351.493H143.506V339.07Z" fill="#005596"/>
<path opacity="0.4" d="M132.181 263.879H120.056V271.335H132.181V263.879Z" fill="#263238"/>
<path opacity="0.4" d="M132.181 279.416H120.056V286.872H132.181V279.416Z" fill="#263238"/>
<path opacity="0.4" d="M132.181 294.951H120.056V302.407H132.181V294.951Z" fill="#263238"/>
<path opacity="0.4" d="M132.181 310.488H120.056V317.944H132.181V310.488Z" fill="#263238"/>
<path opacity="0.4" d="M132.181 326.023H120.056V333.479H132.181V326.023Z" fill="#263238"/>
<path opacity="0.4" d="M132.181 341.559H120.056V349.014H132.181V341.559Z" fill="#263238"/>
<path opacity="0.7" d="M211.839 263.016H210.34V272.21H211.839V263.016Z" fill="white"/>
<path opacity="0.7" d="M208.956 263.016H207.457V272.21H208.956V263.016Z" fill="white"/>
<path opacity="0.7" d="M206.073 263.016H204.574V272.21H206.073V263.016Z" fill="white"/>
<path opacity="0.7" d="M203.19 263.016H201.691V272.21H203.19V263.016Z" fill="white"/>
<path opacity="0.7" d="M200.309 263.016H198.811V272.21H200.309V263.016Z" fill="white"/>
<path opacity="0.7" d="M211.839 278.551H210.34V287.736H211.839V278.551Z" fill="white"/>
<path opacity="0.7" d="M208.956 278.551H207.457V287.736H208.956V278.551Z" fill="white"/>
<path opacity="0.7" d="M206.073 278.551H204.574V287.736H206.073V278.551Z" fill="white"/>
<path opacity="0.7" d="M203.19 278.551H201.691V287.736H203.19V278.551Z" fill="white"/>
<path opacity="0.7" d="M200.309 278.551H198.811V287.736H200.309V278.551Z" fill="white"/>
<path opacity="0.7" d="M211.839 294.086H210.34V303.271H211.839V294.086Z" fill="white"/>
<path opacity="0.7" d="M208.956 294.088H207.457V303.273H208.956V294.088Z" fill="white"/>
<path opacity="0.7" d="M206.073 294.088H204.574V303.273H206.073V294.088Z" fill="white"/>
<path opacity="0.7" d="M203.19 294.086H201.691V303.271H203.19V294.086Z" fill="white"/>
<path opacity="0.7" d="M200.309 294.088H198.811V303.273H200.309V294.088Z" fill="white"/>
<path opacity="0.7" d="M211.839 309.623H210.34V318.818H211.839V309.623Z" fill="white"/>
<path opacity="0.7" d="M208.956 309.623H207.457V318.818H208.956V309.623Z" fill="white"/>
<path opacity="0.7" d="M206.073 309.623H204.574V318.818H206.073V309.623Z" fill="white"/>
<path opacity="0.7" d="M203.19 309.623H201.691V318.818H203.19V309.623Z" fill="white"/>
<path opacity="0.7" d="M200.309 309.623H198.811V318.818H200.309V309.623Z" fill="white"/>
<path opacity="0.7" d="M211.839 325.16H210.34V334.345H211.839V325.16Z" fill="white"/>
<path opacity="0.7" d="M208.956 325.16H207.457V334.345H208.956V325.16Z" fill="white"/>
<path opacity="0.7" d="M206.073 325.16H204.574V334.345H206.073V325.16Z" fill="white"/>
<path opacity="0.7" d="M203.19 325.16H201.691V334.345H203.19V325.16Z" fill="white"/>
<path opacity="0.7" d="M200.309 325.16H198.811V334.345H200.309V325.16Z" fill="white"/>
<path opacity="0.7" d="M211.839 340.686H210.34V349.88H211.839V340.686Z" fill="white"/>
<path opacity="0.7" d="M208.956 340.686H207.457V349.88H208.956V340.686Z" fill="white"/>
<path opacity="0.7" d="M206.073 340.686H204.574V349.88H206.073V340.686Z" fill="white"/>
<path opacity="0.7" d="M203.19 340.686H201.691V349.88H203.19V340.686Z" fill="white"/>
<path opacity="0.7" d="M200.309 340.686H198.811V349.88H200.309V340.686Z" fill="white"/>
<path opacity="0.2" d="M158.266 267.608C158.266 267.91 158.177 268.205 158.009 268.456C157.841 268.708 157.602 268.903 157.323 269.019C157.044 269.135 156.737 269.165 156.441 269.106C156.144 269.047 155.872 268.902 155.658 268.688C155.445 268.474 155.299 268.202 155.24 267.906C155.181 267.609 155.212 267.302 155.327 267.023C155.443 266.744 155.639 266.505 155.89 266.338C156.141 266.17 156.436 266.08 156.739 266.08C157.144 266.08 157.532 266.241 157.819 266.528C158.105 266.814 158.266 267.203 158.266 267.608Z" fill="white"/>
<path opacity="0.2" d="M167.874 267.608C167.874 267.91 167.784 268.205 167.616 268.456C167.448 268.708 167.21 268.903 166.931 269.019C166.651 269.135 166.344 269.165 166.048 269.106C165.752 269.047 165.479 268.902 165.266 268.688C165.052 268.474 164.907 268.202 164.848 267.906C164.789 267.609 164.819 267.302 164.935 267.023C165.05 266.744 165.246 266.505 165.497 266.338C165.749 266.17 166.044 266.08 166.346 266.08C166.751 266.08 167.14 266.241 167.426 266.528C167.713 266.814 167.874 267.203 167.874 267.608Z" fill="white"/>
<path opacity="0.4" d="M177.482 267.608C177.482 267.91 177.392 268.205 177.225 268.456C177.057 268.708 176.818 268.903 176.539 269.019C176.26 269.135 175.953 269.165 175.656 269.106C175.36 269.047 175.088 268.902 174.874 268.688C174.661 268.474 174.515 268.202 174.456 267.906C174.397 267.609 174.427 267.302 174.543 267.023C174.659 266.744 174.854 266.505 175.106 266.338C175.357 266.17 175.652 266.08 175.954 266.08C176.36 266.08 176.748 266.241 177.035 266.528C177.321 266.814 177.482 267.203 177.482 267.608Z" fill="white"/>
<path opacity="0.4" d="M158.266 283.145C158.266 283.447 158.177 283.742 158.009 283.994C157.841 284.245 157.602 284.441 157.323 284.556C157.044 284.672 156.737 284.702 156.441 284.643C156.144 284.584 155.872 284.439 155.658 284.225C155.445 284.011 155.299 283.739 155.24 283.443C155.181 283.147 155.212 282.839 155.327 282.56C155.443 282.281 155.639 282.042 155.89 281.875C156.141 281.707 156.436 281.617 156.739 281.617C157.144 281.617 157.532 281.778 157.819 282.065C158.105 282.351 158.266 282.74 158.266 283.145Z" fill="white"/>
<path opacity="0.2" d="M167.874 283.145C167.874 283.447 167.784 283.742 167.616 283.994C167.448 284.245 167.21 284.441 166.931 284.556C166.651 284.672 166.344 284.702 166.048 284.643C165.752 284.584 165.479 284.439 165.266 284.225C165.052 284.011 164.907 283.739 164.848 283.443C164.789 283.147 164.819 282.839 164.935 282.56C165.05 282.281 165.246 282.042 165.497 281.875C165.749 281.707 166.044 281.617 166.346 281.617C166.751 281.617 167.14 281.778 167.426 282.065C167.713 282.351 167.874 282.74 167.874 283.145Z" fill="white"/>
<path opacity="0.4" d="M177.482 283.145C177.482 283.447 177.392 283.742 177.225 283.994C177.057 284.245 176.818 284.441 176.539 284.556C176.26 284.672 175.953 284.702 175.656 284.643C175.36 284.584 175.088 284.439 174.874 284.225C174.661 284.011 174.515 283.739 174.456 283.443C174.397 283.147 174.427 282.839 174.543 282.56C174.659 282.281 174.854 282.042 175.106 281.875C175.357 281.707 175.652 281.617 175.954 281.617C176.36 281.617 176.748 281.778 177.035 282.065C177.321 282.351 177.482 282.74 177.482 283.145Z" fill="white"/>
<path opacity="0.2" d="M158.266 298.68C158.266 298.982 158.177 299.277 158.009 299.529C157.841 299.78 157.602 299.976 157.323 300.091C157.044 300.207 156.737 300.237 156.441 300.178C156.144 300.119 155.872 299.974 155.658 299.76C155.445 299.547 155.299 299.274 155.24 298.978C155.181 298.682 155.212 298.375 155.327 298.095C155.443 297.816 155.639 297.578 155.89 297.41C156.141 297.242 156.436 297.152 156.739 297.152C157.144 297.152 157.532 297.313 157.819 297.6C158.105 297.886 158.266 298.275 158.266 298.68Z" fill="white"/>
<path opacity="0.4" d="M167.874 298.68C167.874 298.982 167.784 299.277 167.616 299.529C167.448 299.78 167.21 299.976 166.931 300.091C166.651 300.207 166.344 300.237 166.048 300.178C165.752 300.119 165.479 299.974 165.266 299.76C165.052 299.547 164.907 299.274 164.848 298.978C164.789 298.682 164.819 298.375 164.935 298.095C165.05 297.816 165.246 297.578 165.497 297.41C165.749 297.242 166.044 297.152 166.346 297.152C166.751 297.152 167.14 297.313 167.426 297.6C167.713 297.886 167.874 298.275 167.874 298.68Z" fill="white"/>
<path opacity="0.2" d="M177.482 298.68C177.482 298.982 177.392 299.277 177.225 299.529C177.057 299.78 176.818 299.976 176.539 300.091C176.26 300.207 175.953 300.237 175.656 300.178C175.36 300.119 175.088 299.974 174.874 299.76C174.661 299.547 174.515 299.274 174.456 298.978C174.397 298.682 174.427 298.375 174.543 298.095C174.659 297.816 174.854 297.578 175.106 297.41C175.357 297.242 175.652 297.152 175.954 297.152C176.36 297.152 176.748 297.313 177.035 297.6C177.321 297.886 177.482 298.275 177.482 298.68Z" fill="white"/>
<path opacity="0.4" d="M158.266 314.215C158.266 314.517 158.177 314.813 158.009 315.064C157.841 315.315 157.602 315.511 157.323 315.627C157.044 315.742 156.737 315.772 156.441 315.713C156.144 315.654 155.872 315.509 155.658 315.295C155.445 315.082 155.299 314.809 155.24 314.513C155.181 314.217 155.212 313.91 155.327 313.631C155.443 313.351 155.639 313.113 155.89 312.945C156.141 312.777 156.436 312.687 156.739 312.688C157.144 312.688 157.532 312.848 157.819 313.135C158.105 313.421 158.266 313.81 158.266 314.215Z" fill="white"/>
<path opacity="0.2" d="M167.874 314.215C167.874 314.517 167.784 314.813 167.616 315.064C167.448 315.315 167.21 315.511 166.931 315.627C166.651 315.742 166.344 315.772 166.048 315.713C165.752 315.654 165.479 315.509 165.266 315.295C165.052 315.082 164.907 314.809 164.848 314.513C164.789 314.217 164.819 313.91 164.935 313.631C165.05 313.351 165.246 313.113 165.497 312.945C165.749 312.777 166.044 312.687 166.346 312.688C166.751 312.688 167.14 312.848 167.426 313.135C167.713 313.421 167.874 313.81 167.874 314.215Z" fill="white"/>
<path opacity="0.2" d="M177.482 314.215C177.482 314.517 177.392 314.813 177.225 315.064C177.057 315.315 176.818 315.511 176.539 315.627C176.26 315.742 175.953 315.772 175.656 315.713C175.36 315.654 175.088 315.509 174.874 315.295C174.661 315.082 174.515 314.809 174.456 314.513C174.397 314.217 174.427 313.91 174.543 313.631C174.659 313.351 174.854 313.113 175.106 312.945C175.357 312.777 175.652 312.687 175.954 312.688C176.36 312.688 176.748 312.848 177.035 313.135C177.321 313.421 177.482 313.81 177.482 314.215Z" fill="white"/>
<path opacity="0.2" d="M158.266 329.75C158.266 330.052 158.177 330.348 158.009 330.599C157.841 330.85 157.602 331.046 157.323 331.162C157.044 331.277 156.737 331.308 156.441 331.249C156.144 331.19 155.872 331.044 155.658 330.831C155.445 330.617 155.299 330.345 155.24 330.048C155.181 329.752 155.212 329.445 155.327 329.166C155.443 328.887 155.639 328.648 155.89 328.48C156.141 328.312 156.436 328.223 156.739 328.223C157.144 328.223 157.532 328.384 157.819 328.67C158.105 328.957 158.266 329.345 158.266 329.75Z" fill="white"/>
<path opacity="0.4" d="M167.874 329.75C167.874 330.052 167.784 330.348 167.616 330.599C167.448 330.85 167.21 331.046 166.931 331.162C166.651 331.277 166.344 331.308 166.048 331.249C165.752 331.19 165.479 331.044 165.266 330.831C165.052 330.617 164.907 330.345 164.848 330.048C164.789 329.752 164.819 329.445 164.935 329.166C165.05 328.887 165.246 328.648 165.497 328.48C165.749 328.312 166.044 328.223 166.346 328.223C166.751 328.223 167.14 328.384 167.426 328.67C167.713 328.957 167.874 329.345 167.874 329.75Z" fill="white"/>
<path opacity="0.4" d="M177.482 329.75C177.482 330.052 177.392 330.348 177.225 330.599C177.057 330.85 176.818 331.046 176.539 331.162C176.26 331.277 175.953 331.308 175.656 331.249C175.36 331.19 175.088 331.044 174.874 330.831C174.661 330.617 174.515 330.345 174.456 330.048C174.397 329.752 174.427 329.445 174.543 329.166C174.659 328.887 174.854 328.648 175.106 328.48C175.357 328.312 175.652 328.223 175.954 328.223C176.36 328.223 176.748 328.384 177.035 328.67C177.321 328.957 177.482 329.345 177.482 329.75Z" fill="white"/>
<path opacity="0.4" d="M158.266 345.287C158.266 345.59 158.177 345.885 158.009 346.136C157.841 346.387 157.602 346.583 157.323 346.699C157.044 346.814 156.737 346.845 156.441 346.786C156.144 346.727 155.872 346.581 155.658 346.368C155.445 346.154 155.299 345.882 155.24 345.585C155.181 345.289 155.212 344.982 155.327 344.703C155.443 344.424 155.639 344.185 155.89 344.017C156.141 343.849 156.436 343.76 156.739 343.76C157.144 343.76 157.532 343.921 157.819 344.207C158.105 344.494 158.266 344.882 158.266 345.287Z" fill="white"/>
<path opacity="0.2" d="M167.874 345.287C167.874 345.59 167.784 345.885 167.616 346.136C167.448 346.387 167.21 346.583 166.931 346.699C166.651 346.814 166.344 346.845 166.048 346.786C165.752 346.727 165.479 346.581 165.266 346.368C165.052 346.154 164.907 345.882 164.848 345.585C164.789 345.289 164.819 344.982 164.935 344.703C165.05 344.424 165.246 344.185 165.497 344.017C165.749 343.849 166.044 343.76 166.346 343.76C166.751 343.76 167.14 343.921 167.426 344.207C167.713 344.494 167.874 344.882 167.874 345.287Z" fill="white"/>
<path opacity="0.4" d="M177.482 345.287C177.482 345.59 177.392 345.885 177.225 346.136C177.057 346.387 176.818 346.583 176.539 346.699C176.26 346.814 175.953 346.845 175.656 346.786C175.36 346.727 175.088 346.581 174.874 346.368C174.661 346.154 174.515 345.882 174.456 345.585C174.397 345.289 174.427 344.982 174.543 344.703C174.659 344.424 174.854 344.185 175.106 344.017C175.357 343.849 175.652 343.76 175.954 343.76C176.36 343.76 176.748 343.921 177.035 344.207C177.321 344.494 177.482 344.882 177.482 345.287Z" fill="white"/>
<path d="M372.156 167.812H370.234V255.84H372.156V167.812Z" fill="#005596"/>
<path opacity="0.7" d="M315.296 307.394H304.535V305.473H315.296V307.394ZM293.005 307.394H281.476V305.473H293.005V307.394ZM269.947 307.394H258.417V305.473H269.947V307.394ZM246.888 307.394H235.358V305.473H246.888V307.394Z" fill="#005596"/>
<path d="M339.643 252.696L325.779 320.7C325.626 321.444 325.672 322.216 325.913 322.937C326.153 323.657 326.579 324.302 327.148 324.806C327.717 325.309 328.409 325.654 329.153 325.805C329.898 325.957 330.669 325.909 331.39 325.667L397.213 303.665C397.933 303.427 398.578 303.003 399.083 302.435C399.587 301.868 399.932 301.177 400.084 300.434C400.237 299.69 400.19 298.919 399.949 298.2C399.708 297.48 399.281 296.837 398.712 296.334L346.752 250.323C346.184 249.818 345.493 249.471 344.749 249.319C344.004 249.166 343.232 249.212 342.511 249.453C341.79 249.694 341.145 250.12 340.642 250.689C340.138 251.259 339.794 251.951 339.643 252.696Z" fill="#005596"/>
<path d="M333.934 314.839L344.858 261.275C344.924 260.976 345.066 260.699 345.271 260.471C345.475 260.243 345.736 260.072 346.026 259.975C346.317 259.879 346.628 259.859 346.928 259.918C347.229 259.978 347.509 260.114 347.741 260.314L388.661 296.546C388.893 296.751 389.066 297.013 389.164 297.307C389.262 297.6 389.281 297.915 389.219 298.218C389.156 298.521 389.015 298.802 388.809 299.033C388.603 299.264 388.34 299.437 388.046 299.534L336.211 316.828C335.922 316.923 335.612 316.941 335.313 316.88C335.014 316.819 334.737 316.682 334.507 316.481C334.277 316.281 334.104 316.024 334.003 315.736C333.903 315.448 333.879 315.139 333.934 314.839Z" fill="white"/>
<path d="M347.156 277.283L348.664 281.808L348.751 282.02L353.881 292.8C354.088 293.208 354.434 293.53 354.857 293.706C355.28 293.882 355.752 293.901 356.187 293.76L358.195 293.088C358.627 292.935 358.99 292.634 359.219 292.238C359.448 291.841 359.528 291.376 359.444 290.926L357.1 279.214L357.042 278.993L355.524 274.468C355.358 274 355.017 273.614 354.573 273.392C354.129 273.17 353.616 273.129 353.142 273.277L348.338 274.871C347.865 275.04 347.476 275.386 347.256 275.837C347.035 276.287 346.999 276.806 347.156 277.283Z" fill="#263238"/>
<path d="M362.404 298.238C362.616 298.876 362.635 299.563 362.457 300.211C362.279 300.86 361.913 301.441 361.404 301.882C360.896 302.322 360.269 302.602 359.602 302.686C358.934 302.77 358.257 302.655 357.656 302.354C357.054 302.053 356.555 301.581 356.222 300.997C355.889 300.412 355.736 299.743 355.784 299.072C355.831 298.401 356.077 297.759 356.489 297.228C356.901 296.696 357.462 296.299 358.099 296.086C358.523 295.943 358.971 295.885 359.417 295.916C359.864 295.947 360.299 296.066 360.699 296.266C361.1 296.466 361.456 296.743 361.749 297.082C362.041 297.42 362.264 297.813 362.404 298.238Z" fill="#263238"/>
<path d="M161.091 122.385C156.287 123.778 134.324 144.598 145.488 155.378C156.652 166.158 181.863 167.599 188.118 161.191C194.373 154.782 195.401 138.968 188.118 125.488C183.612 117.158 161.091 113.104 161.091 122.385Z" fill="#263238"/>
<path d="M193.259 181.299V182.683C193.259 183.211 193.259 183.749 193.259 184.287C193.259 185.363 193.393 186.459 193.528 187.544C193.783 189.71 194.191 191.854 194.748 193.962C195.304 196.04 196.034 198.068 196.929 200.025C197.38 200.986 197.889 201.946 198.418 202.859C198.668 203.32 198.966 203.772 199.244 204.214C199.379 204.444 199.542 204.656 199.696 204.877L200.099 205.473C200.099 205.53 199.994 205.415 199.725 205.328C199.524 205.243 199.303 205.223 199.09 205.271C198.937 205.386 199.6 205.271 200.311 204.906C202.108 203.871 203.762 202.605 205.23 201.139C208.639 197.79 211.848 194.242 214.838 190.513L214.895 190.446C215.351 189.947 215.967 189.624 216.636 189.533C217.305 189.442 217.985 189.589 218.557 189.948C219.129 190.307 219.557 190.856 219.766 191.498C219.975 192.141 219.951 192.836 219.699 193.463C218.619 195.838 217.407 198.151 216.068 200.39C214.717 202.669 213.225 204.86 211.6 206.952C210.743 208.053 209.826 209.105 208.852 210.103C207.79 211.218 206.618 212.222 205.355 213.101C203.659 214.328 201.671 215.09 199.59 215.311C198.124 215.445 196.649 215.201 195.305 214.6C194.047 214.028 192.929 213.189 192.029 212.14L191.289 211.256C191.058 210.978 190.818 210.709 190.607 210.421C190.174 209.854 189.732 209.287 189.329 208.691C188.499 207.522 187.742 206.302 187.061 205.04C186.36 203.791 185.755 202.494 185.14 201.197C184.525 199.9 184.102 198.545 183.67 197.2C182.822 194.512 182.217 191.753 181.864 188.957C181.7 187.563 181.585 186.17 181.527 184.748C181.527 184.047 181.527 183.336 181.527 182.606V181.511V180.934L181.585 180.252C181.66 178.723 182.34 177.287 183.474 176.259C184.608 175.231 186.104 174.695 187.633 174.771C189.162 174.846 190.598 175.525 191.626 176.66C192.654 177.794 193.19 179.29 193.114 180.819L193.259 181.299Z" fill="#FF8B7B"/>
<path d="M229.749 187.296L227.741 186.489C226.405 185.956 224.913 185.974 223.59 186.537L216.067 189.707L214.146 193.185C216.922 197.615 221.774 195.338 221.774 195.338L226.501 195.683C226.944 195.717 227.387 195.625 227.78 195.418C228.173 195.21 228.499 194.896 228.721 194.511L230.93 190.668C231.1 190.374 231.205 190.047 231.237 189.709C231.269 189.371 231.227 189.031 231.115 188.71C231.002 188.39 230.822 188.098 230.586 187.854C230.351 187.609 230.065 187.419 229.749 187.296Z" fill="#FF8B7B"/>
<path d="M189.55 171.789C193.047 173.922 196.64 189.16 196.64 189.16L181.527 196.847C181.527 196.847 175.09 180.379 178.097 175.978C181.22 171.376 184.438 168.667 189.55 171.789Z" fill="#263238"/>
<path opacity="0.2" d="M192.471 183.252C193.164 185.897 193.144 188.678 192.414 191.313L181.528 196.837C181.528 196.837 177.771 187.229 177.339 180.725C181.201 176.93 190.079 176.449 192.471 183.252Z" fill="black"/>
<path d="M191.999 178.88C191.49 186.566 189.386 206.694 184.698 218.762C183.362 222.192 188.224 224.017 182.891 227.409L144.998 225.305C141.798 222.663 144.642 219.088 144.421 217.349C142.5 202.861 145.305 198.374 141.539 166.534C147.078 165.727 152.669 165.322 158.266 165.323C164.199 165.254 170.129 165.604 176.012 166.37C178.568 166.764 181.229 167.273 183.641 167.792C186.132 168.331 188.347 169.746 189.881 171.782C191.416 173.817 192.168 176.336 191.999 178.88Z" fill="#263238"/>
<path opacity="0.2" d="M143.049 181.799C145.159 183.41 146.815 185.542 147.853 187.986C149.486 192.07 145.22 199.929 143.664 202.561C143.721 197.373 143.779 191.368 143.049 181.799Z" fill="black"/>
<path d="M173.247 173.844C173.247 173.844 166.791 179.138 166.224 184.759C160.382 180.282 153.657 170.482 158.259 165.322C163.092 164.092 173.247 173.844 173.247 173.844Z" fill="#005596"/>
<path d="M174.073 175.488C174.073 175.488 179.04 179.744 179.117 184.731C182.384 180.407 182.384 169.598 176.004 166.341C171.162 165.14 174.073 175.488 174.073 175.488Z" fill="#005596"/>
<path d="M207.902 307.577L216.127 311.911L228.002 292.003L219.778 287.67L207.902 307.577Z" fill="#7F3E3B"/>
<path d="M217.308 309.747L212.504 300.052C212.422 299.878 212.278 299.741 212.101 299.666C211.924 299.592 211.725 299.586 211.543 299.649L203.319 302.358C203.114 302.434 202.927 302.552 202.771 302.704C202.615 302.857 202.493 303.041 202.413 303.245C202.333 303.448 202.297 303.666 202.307 303.884C202.318 304.102 202.374 304.316 202.473 304.511C204.212 307.864 205.221 309.391 207.335 313.657C208.642 316.28 210.4 322.006 212.196 325.629C213.993 329.251 217.682 327.665 217.25 325.994C215.329 318.509 216.693 314.685 217.481 311.457C217.623 310.884 217.562 310.28 217.308 309.747Z" fill="#263238"/>
<g opacity="0.2">
<path d="M219.767 287.678L228.001 292.011L220.91 303.886L213.311 298.496L219.767 287.678Z" fill="black"/>
</g>
<path d="M177.137 227.331C177.137 227.331 235.101 219.183 240.338 236.314C250.176 268.481 225.628 300.37 225.628 300.37L214.348 294.182C214.348 294.182 226.233 267.607 221.987 251.735C210.995 248.67 157.614 273.833 157.412 234.133C157.339 233.321 157.559 232.51 158.033 231.847C158.508 231.184 159.205 230.713 159.997 230.521L177.137 227.331Z" fill="#005596"/>
<g opacity="0.3">
<path d="M177.137 227.331C177.137 227.331 235.101 219.183 240.338 236.314C250.176 268.481 225.628 300.37 225.628 300.37L214.348 294.182C214.348 294.182 226.233 267.607 221.987 251.735C210.995 248.67 157.614 273.833 157.412 234.133C157.339 233.321 157.559 232.51 158.033 231.847C158.508 231.184 159.205 230.713 159.997 230.521L177.137 227.331Z" fill="white"/>
</g>
<path d="M212.139 294.25L225.561 303.522L229.366 299.083L214.608 288.678L212.139 294.25Z" fill="#005596"/>
<path d="M218.433 314.829L218.538 314.877C218.748 314.951 218.974 314.972 219.193 314.936C219.413 314.901 219.621 314.811 219.797 314.676C219.914 314.604 220.01 314.501 220.074 314.38C220.138 314.258 220.169 314.121 220.162 313.984C220.162 312.754 217.126 310.967 216.79 310.765C216.751 310.741 216.706 310.729 216.66 310.731C216.614 310.732 216.57 310.747 216.533 310.774C216.496 310.801 216.468 310.838 216.452 310.881C216.436 310.924 216.433 310.971 216.444 311.015C216.732 312.197 217.357 314.291 218.433 314.829ZM217.03 311.447C218.202 312.197 219.682 313.369 219.711 313.993C219.711 314.054 219.696 314.114 219.665 314.166C219.635 314.219 219.591 314.262 219.538 314.291C219.425 314.389 219.288 314.455 219.141 314.482C218.994 314.509 218.842 314.496 218.702 314.445C218.077 314.214 217.472 313.1 217.03 311.447Z" fill="#005596"/>
<path d="M216.855 311.332C217.922 311.86 220.151 312.293 220.939 311.716C221.075 311.602 221.171 311.446 221.21 311.273C221.25 311.099 221.233 310.918 221.16 310.755C221.104 310.59 221.012 310.44 220.891 310.315C220.77 310.191 220.622 310.095 220.458 310.035C219.161 309.506 216.673 310.726 216.567 310.784C216.531 310.799 216.5 310.824 216.477 310.857C216.455 310.889 216.443 310.927 216.442 310.967C216.437 311.007 216.443 311.049 216.46 311.086C216.477 311.123 216.504 311.155 216.538 311.178C216.64 311.237 216.746 311.289 216.855 311.332ZM220.353 310.467C220.531 310.553 220.669 310.704 220.737 310.89C220.833 311.168 220.737 311.284 220.66 311.351C220.122 311.764 218.239 311.486 217.172 310.986C218.027 310.621 219.517 310.121 220.285 310.438L220.353 310.467Z" fill="#005596"/>
<path d="M144.567 222.941L143.366 226.38C143.212 226.649 143.52 226.937 143.971 226.966L184.19 229.339C184.545 229.339 184.843 229.205 184.882 228.984L185.439 225.506C185.439 225.266 185.18 225.045 184.795 225.016L145.221 222.691C145.099 222.674 144.976 222.687 144.862 222.731C144.747 222.775 144.646 222.847 144.567 222.941Z" fill="#005596"/>
<path d="M149.725 227.648L148.669 227.59C148.457 227.59 148.294 227.456 148.323 227.321L149.082 222.805C149.082 222.681 149.303 222.575 149.514 222.594L150.571 222.652C150.782 222.652 150.936 222.786 150.917 222.921L150.148 227.436C150.158 227.648 149.966 227.705 149.725 227.648Z" fill="#263238"/>
<path d="M181.191 229.569L180.125 229.511C179.914 229.511 179.76 229.377 179.789 229.242L180.548 224.727C180.585 224.649 180.646 224.587 180.723 224.548C180.799 224.51 180.886 224.498 180.97 224.515L182.037 224.573C182.248 224.573 182.402 224.708 182.373 224.842L181.614 229.358C181.595 229.454 181.432 229.569 181.191 229.569Z" fill="#263238"/>
<path d="M165.541 228.609L164.475 228.551C164.263 228.551 164.109 228.417 164.138 228.282L164.897 223.766C164.897 223.641 165.109 223.536 165.32 223.555L166.386 223.613C166.598 223.613 166.752 223.747 166.723 223.872L165.964 228.388C165.935 228.532 165.752 228.609 165.541 228.609Z" fill="#263238"/>
<path d="M161.064 147.566C161.852 153.331 162.477 161.719 158.259 165.293C163.473 168.693 168.063 172.967 171.825 177.927C171.987 178.137 172.198 178.304 172.438 178.415C172.679 178.526 172.943 178.578 173.207 178.565C173.472 178.553 173.73 178.477 173.959 178.345C174.189 178.212 174.383 178.026 174.525 177.802C179.406 170.116 175.995 166.34 175.995 166.34C172.277 165.514 172.728 162.209 174.073 157.837L161.064 147.566Z" fill="#FF8B7B"/>
<path d="M176.821 167.947C177.397 169.724 177.589 172.991 174.534 177.804C174.392 178.028 174.198 178.214 173.968 178.347C173.739 178.479 173.481 178.555 173.217 178.567C172.952 178.58 172.688 178.528 172.448 178.417C172.207 178.306 171.997 178.139 171.834 177.929C168.79 174 165.258 170.474 161.323 167.438C165.291 168.562 170.864 174.028 173.247 176.671C174.928 175.374 176.878 170.454 176.821 167.947Z" fill="white"/>
<path opacity="0.2" d="M164.657 152.016L171.882 156.08L174.111 157.838C173.4 159.647 173.073 161.584 173.15 163.526C168.433 162.181 163.024 155.897 164.657 152.016Z" fill="black"/>
<path d="M161.256 134.069C159.738 143.513 158.893 147.52 162.525 153.285C167.992 162.066 179.924 161.864 184.229 153.064C188.072 145.137 189.993 131.023 181.654 125.268C179.83 123.99 177.71 123.201 175.494 122.974C173.279 122.747 171.043 123.092 168.998 123.974C166.953 124.856 165.169 126.247 163.813 128.014C162.458 129.781 161.578 131.865 161.256 134.069Z" fill="#FF8B7B"/>
<path d="M187.917 134.451C186.716 129.33 187.312 120.683 177.646 121.164C168.653 121.606 163.177 120.261 163.235 125.42C153.3 130.282 152.666 135.316 159.651 140.072C164.954 141.34 166.309 135.268 165.704 130.272C169.547 132.511 176.859 129.311 180.289 129.407C184.718 129.571 189.118 139.572 187.917 134.451Z" fill="#263238"/>
<path d="M187.917 134.451C186.716 129.33 187.312 120.683 177.646 121.164C168.653 121.606 163.177 120.261 163.235 125.42C153.3 130.282 152.666 135.316 159.651 140.072C164.954 141.34 166.309 135.268 165.704 130.272C169.547 132.511 176.859 129.311 180.289 129.407C184.718 129.571 189.118 139.572 187.917 134.451Z" fill="#263238"/>
<path opacity="0.2" d="M173.121 139.38C171.739 139.392 170.383 139.008 169.211 138.275C170.56 138.457 171.877 138.829 173.121 139.38Z" fill="black"/>
<path opacity="0.2" d="M173.351 138.718C173.351 138.718 171.112 138.411 170.209 137.133C171.341 137.473 172.404 138.01 173.351 138.718Z" fill="black"/>
<path d="M175.561 139.872C175.398 140.631 175.658 141.332 176.157 141.447C176.657 141.563 177.195 141.034 177.358 140.275C177.521 139.516 177.272 138.815 176.772 138.699C176.272 138.584 175.734 139.113 175.561 139.872Z" fill="#263238"/>
<path d="M184.141 141.793C183.968 142.552 184.237 143.263 184.727 143.369C185.217 143.475 185.765 142.956 185.938 142.197C186.111 141.438 185.842 140.737 185.352 140.621C184.862 140.506 184.314 141.034 184.141 141.793Z" fill="#263238"/>
<path d="M185.122 140.611L187.044 140.496C187.044 140.496 185.804 141.716 185.122 140.611Z" fill="#263238"/>
<path d="M181.191 142.57C181.48 144.451 182.023 146.284 182.805 148.018C182.358 148.208 181.873 148.298 181.387 148.282C180.901 148.265 180.424 148.142 179.99 147.922L181.191 142.57Z" fill="#FF5652"/>
<path d="M176.119 148.412C175.742 148.34 175.36 148.295 174.976 148.277C174.924 148.288 174.877 148.316 174.844 148.358C174.81 148.399 174.792 148.45 174.792 148.503C174.792 148.556 174.81 148.608 174.844 148.649C174.877 148.69 174.924 148.718 174.976 148.729C175.944 148.755 176.892 149.008 177.744 149.467C178.597 149.926 179.33 150.578 179.885 151.371C179.916 151.422 179.964 151.46 180.022 151.476C180.079 151.492 180.14 151.486 180.193 151.458C180.243 151.424 180.28 151.374 180.296 151.315C180.311 151.257 180.306 151.195 180.279 151.14C179.802 150.432 179.189 149.825 178.474 149.357C177.76 148.888 176.959 148.567 176.119 148.412Z" fill="#263238"/>
<path d="M157.171 140.938C157.463 142.767 158.468 144.405 159.967 145.492C161.956 146.924 163.81 145.339 163.935 143.023C164.06 140.938 163.186 137.681 160.851 137.172C160.338 137.07 159.808 137.097 159.308 137.252C158.809 137.407 158.356 137.683 157.99 138.057C157.625 138.432 157.358 138.891 157.215 139.394C157.072 139.897 157.057 140.428 157.171 140.938Z" fill="#FF5652"/>
<path d="M174.995 133.434C175.074 133.49 175.168 133.521 175.264 133.521C175.361 133.521 175.455 133.49 175.533 133.434C177.272 132.233 179.838 133.146 179.857 133.155C179.97 133.197 180.096 133.193 180.206 133.142C180.316 133.092 180.401 133 180.443 132.886C180.485 132.773 180.48 132.647 180.43 132.538C180.379 132.428 180.287 132.342 180.174 132.3C180.049 132.3 177.138 131.215 175.015 132.675C174.916 132.745 174.849 132.85 174.828 132.968C174.806 133.087 174.832 133.209 174.899 133.309C174.921 133.358 174.954 133.4 174.995 133.434Z" fill="#263238"/>
<path d="M185.582 137.526C185.503 137.54 185.429 137.574 185.367 137.624C185.305 137.674 185.256 137.74 185.226 137.814C185.185 137.926 185.189 138.05 185.238 138.16C185.286 138.269 185.375 138.355 185.486 138.4C186.154 138.685 186.881 138.805 187.605 138.75C188.329 138.695 189.029 138.466 189.646 138.083C189.695 138.048 189.737 138.004 189.769 137.954C189.802 137.903 189.823 137.846 189.834 137.787C189.844 137.727 189.842 137.667 189.829 137.608C189.816 137.549 189.791 137.493 189.757 137.444C189.722 137.395 189.678 137.353 189.627 137.321C189.576 137.289 189.519 137.267 189.46 137.257C189.401 137.246 189.34 137.248 189.281 137.261C189.222 137.274 189.167 137.299 189.118 137.334C188.624 137.627 188.068 137.799 187.495 137.836C186.922 137.872 186.349 137.773 185.822 137.545C185.745 137.52 185.662 137.513 185.582 137.526Z" fill="#263238"/>
<path d="M220.843 339.023L229.702 336.227L223.918 313.783L215.05 316.579L220.843 339.023Z" fill="#7F3E3B"/>
<path d="M229 333.862L218.72 330.452C218.541 330.382 218.342 330.383 218.164 330.455C217.986 330.526 217.841 330.662 217.759 330.836L213.916 338.589C213.826 338.789 213.78 339.006 213.78 339.225C213.781 339.444 213.828 339.66 213.919 339.859C214.01 340.059 214.143 340.236 214.308 340.38C214.473 340.524 214.667 340.631 214.877 340.694C218.48 341.818 220.276 342.183 224.802 343.672C227.578 344.633 232.891 347.371 236.725 348.639C240.558 349.908 242.028 346.18 240.568 345.305C233.9 341.395 232.132 337.744 230.384 334.919C230.062 334.415 229.572 334.04 229 333.862Z" fill="#263238"/>
<g opacity="0.2">
<path d="M215.051 316.579L223.919 313.783L227.368 327.177L218.193 328.791L215.051 316.579Z" fill="black"/>
</g>
<path d="M163.936 226.476C163.936 226.476 217.491 230.147 218.461 248.036C220.267 281.616 228.165 321.383 228.165 321.383L215.838 325.043C215.838 325.043 199.774 284.69 196.891 258.586C186.957 252.965 138.283 272.536 143.087 228.331C143.173 227.508 143.571 226.749 144.201 226.212C144.831 225.676 145.643 225.402 146.469 225.448L163.936 226.476Z" fill="#005596"/>
<g opacity="0.4">
<path d="M163.936 226.476C163.936 226.476 217.491 230.147 218.461 248.036C220.267 281.616 228.165 321.383 228.165 321.383L215.838 325.043C215.838 325.043 199.774 284.69 196.891 258.586C186.957 252.965 138.283 272.536 143.087 228.331C143.173 227.508 143.571 226.749 144.201 226.212C144.831 225.676 145.643 225.402 146.469 225.448L163.936 226.476Z" fill="white"/>
</g>
<path d="M214.348 326.628L230.384 323.621L229.903 317.789L212.129 320.95L214.348 326.628Z" fill="#005596"/>
<path d="M233.402 336.64L233.507 336.592C233.709 336.5 233.884 336.357 234.013 336.176C234.143 335.996 234.224 335.785 234.247 335.564C234.28 335.429 234.276 335.287 234.236 335.153C234.195 335.02 234.119 334.899 234.016 334.805C233.113 333.979 229.741 334.853 229.357 334.949C229.313 334.961 229.274 334.985 229.245 335.02C229.216 335.054 229.198 335.097 229.193 335.141C229.188 335.186 229.195 335.231 229.213 335.272C229.232 335.313 229.262 335.347 229.299 335.372C230.356 336.016 232.268 337.025 233.402 336.64ZM230.02 335.257C231.374 334.949 233.238 334.709 233.709 335.141C233.753 335.184 233.786 335.237 233.803 335.297C233.82 335.356 233.82 335.418 233.805 335.478C233.792 335.626 233.741 335.769 233.657 335.892C233.573 336.014 233.458 336.113 233.325 336.179C232.719 336.458 231.509 336.102 230.02 335.257Z" fill="#005596"/>
<path d="M229.807 335.304C230.941 334.91 232.834 333.651 232.949 332.661C232.97 332.481 232.929 332.3 232.833 332.146C232.737 331.992 232.592 331.876 232.421 331.816C232.269 331.749 232.106 331.715 231.94 331.715C231.775 331.715 231.611 331.749 231.46 331.816C230.173 332.364 229.289 334.996 229.25 335.111C229.236 335.149 229.234 335.19 229.242 335.229C229.251 335.268 229.27 335.304 229.298 335.332C229.324 335.362 229.357 335.384 229.394 335.397C229.431 335.411 229.471 335.415 229.51 335.409C229.611 335.379 229.71 335.344 229.807 335.304ZM231.652 332.2C231.743 332.162 231.841 332.143 231.94 332.143C232.039 332.143 232.137 332.162 232.229 332.2C232.488 332.325 232.507 332.469 232.498 332.585C232.421 333.248 230.883 334.391 229.788 334.794C230.124 333.939 230.826 332.527 231.585 332.2H231.652Z" fill="#005596"/>
<path d="M176.543 138.69L178.465 138.574C178.465 138.574 177.235 139.794 176.543 138.69Z" fill="#263238"/>
<path d="M146.565 180.646C145.605 183.461 144.644 186.469 143.75 189.418C142.857 192.368 142.002 195.366 141.175 198.344C140.349 201.322 139.638 204.32 138.956 207.308C138.274 210.296 137.717 213.284 137.275 216.263C136.924 219.096 136.831 221.954 136.996 224.804C137.14 227.831 137.342 230.924 137.659 234.028C138.264 240.225 139.023 246.518 139.811 252.763V252.811C139.873 253.504 139.683 254.196 139.274 254.76C138.866 255.323 138.268 255.72 137.59 255.877C136.912 256.034 136.201 255.94 135.586 255.613C134.972 255.286 134.497 254.748 134.248 254.098C132.167 247.956 130.435 241.701 129.06 235.363C128.387 232.183 127.763 228.955 127.34 225.65C126.824 222.168 126.676 218.642 126.898 215.129C127.461 208.53 128.528 201.984 130.088 195.548C130.837 192.346 131.68 189.188 132.615 186.075C133.576 182.933 134.536 179.878 135.718 176.698C135.97 175.983 136.361 175.326 136.867 174.763C137.374 174.2 137.986 173.742 138.67 173.415C139.353 173.089 140.094 172.9 140.85 172.86C141.607 172.82 142.364 172.929 143.078 173.181C143.792 173.433 144.449 173.824 145.013 174.33C145.576 174.837 146.034 175.449 146.36 176.133C146.687 176.816 146.875 177.557 146.916 178.313C146.956 179.07 146.847 179.827 146.594 180.541L146.565 180.646Z" fill="#FF8B7B"/>
<path d="M141.531 166.503C137.544 167.463 132.048 180.674 132.048 180.674L144.375 191.848C144.375 191.848 152.801 181.529 151.456 176.341C150.053 170.961 146.075 165.407 141.531 166.503Z" fill="#263238"/>
<path d="M148.373 259.728L148.325 259.459C148.167 258.549 147.802 257.688 147.257 256.943C146.712 256.198 146.002 255.59 145.183 255.164L138.573 251.734L134.662 252.465C133.932 256.404 138.755 260.276 138.755 260.276L139.812 262.505C140.163 263.255 140.78 263.848 141.543 264.169C142.306 264.49 143.162 264.517 143.943 264.244L146.182 263.456C146.927 263.191 147.555 262.673 147.956 261.991C148.356 261.309 148.504 260.508 148.373 259.728Z" fill="#FF8B7B"/>
<path d="M213.436 193.252C214.233 194.097 215.953 193.78 217.279 192.531C218.605 191.282 219.018 189.591 218.24 188.746C217.461 187.9 215.722 188.227 214.396 189.466C213.071 190.706 212.629 192.406 213.436 193.252Z" fill="#005596"/>
<path d="M218.577 196.904H218.433C218.26 196.904 214.205 196.212 215.109 189.621C215.126 189.495 215.167 189.373 215.231 189.263C215.295 189.153 215.38 189.057 215.482 188.98C215.583 188.902 215.698 188.846 215.822 188.813C215.945 188.781 216.073 188.773 216.199 188.79C216.325 188.807 216.447 188.849 216.557 188.913C216.667 188.977 216.763 189.062 216.84 189.163C216.918 189.264 216.974 189.38 217.007 189.503C217.039 189.626 217.047 189.754 217.03 189.88C216.386 194.531 218.692 195.001 218.721 195.001C218.972 195.039 219.197 195.175 219.348 195.378C219.499 195.582 219.564 195.836 219.528 196.087C219.494 196.315 219.379 196.522 219.204 196.672C219.03 196.822 218.807 196.904 218.577 196.904Z" fill="#005596"/>
<path d="M213.792 192.331C214.263 192.83 215.445 192.484 216.415 191.562C217.386 190.64 217.808 189.487 217.376 188.987C216.944 188.487 215.723 188.824 214.753 189.746C213.783 190.668 213.321 191.821 213.792 192.331Z" fill="white"/>
<path d="M55.8948 29.1309H74.1497V35.2511H61.7652L61.1119 39.392C61.9228 39.0095 62.7691 38.707 63.6388 38.4889C64.4574 38.2949 65.2955 38.195 66.1368 38.1911C67.3684 38.14 68.5977 38.3355 69.7526 38.7661C70.9076 39.1968 71.9648 39.8538 72.8623 40.6987C73.7067 41.5151 74.3705 42.4996 74.8107 43.5886C75.251 44.6776 75.4578 45.8468 75.418 47.0207C75.4151 48.8183 74.9591 50.5861 74.0921 52.1609C73.2448 53.7671 71.932 55.0798 70.3258 55.9271C68.3809 56.862 66.237 57.3072 64.0807 57.2242C62.5059 57.2498 60.9341 57.0787 59.4017 56.715C58.2079 56.4164 57.0827 55.8913 56.087 55.1681C55.2219 54.5262 54.4743 53.7396 53.8772 52.843C53.2501 51.8389 52.7743 50.7479 52.4648 49.6052L60.228 48.7597C60.3288 49.8246 60.7937 50.8222 61.5443 51.5844C61.8722 51.8994 62.2592 52.1465 62.6829 52.3113C63.1067 52.4762 63.5589 52.5557 64.0135 52.5452C64.5166 52.5552 65.0155 52.4516 65.473 52.242C65.9304 52.0324 66.3347 51.7222 66.6556 51.3346C67.4247 50.2904 67.7961 49.006 67.7029 47.7124C67.8102 46.4159 67.4337 45.1256 66.646 44.0903C66.2875 43.71 65.8515 43.4111 65.3675 43.2139C64.8835 43.0166 64.3628 42.9256 63.8405 42.9469C63.0919 42.9483 62.3554 43.1365 61.698 43.4946C61.0481 43.8634 60.4717 44.3487 59.9974 44.9262L53.4641 43.9654L55.8948 29.1309Z" fill="#263238"/>
<path d="M78.5117 42.8224C78.5117 37.5766 79.4725 33.9064 81.3941 31.8119C83.3156 29.7173 86.198 28.6669 90.0411 28.6605C91.5949 28.6122 93.1445 28.8466 94.6145 29.3522C95.6848 29.7498 96.6648 30.3574 97.4968 31.1393C98.2021 31.8176 98.8013 32.5982 99.2743 33.4548C99.7459 34.3665 100.098 35.3353 100.322 36.3371C100.843 38.4429 101.101 40.6051 101.09 42.7744C101.09 47.7897 100.245 51.4567 98.5537 53.7754C96.8627 56.0941 93.9355 57.2374 89.7721 57.2054C87.8344 57.288 85.9047 56.9093 84.1419 56.1005C82.6959 55.3504 81.4781 54.2255 80.6158 52.8434C79.8516 51.5579 79.3244 50.1455 79.0594 48.6736C78.6791 46.7468 78.4956 44.7864 78.5117 42.8224ZM86.1115 42.8224C86.1115 46.3389 86.4286 48.7409 87.0723 50.0283C87.2776 50.5844 87.6461 51.0655 88.1296 51.4084C88.6132 51.7513 89.189 51.9401 89.7817 51.9499C90.1562 51.9538 90.5276 51.8827 90.8741 51.7408C91.2206 51.5989 91.5352 51.389 91.7994 51.1236C92.4483 50.4077 92.8785 49.5208 93.0388 48.5679C93.3604 46.7481 93.4956 44.9003 93.4423 43.053C93.4423 39.3828 93.1253 36.9232 92.4815 35.655C92.2653 35.089 91.8821 34.6021 91.3827 34.2589C90.8834 33.9158 90.2915 33.7325 89.6857 33.7334C89.0828 33.7251 88.4925 33.906 87.9979 34.2507C87.5032 34.5954 87.1291 35.0865 86.9282 35.655C86.3998 36.9809 86.1115 39.3348 86.1115 42.8417V42.8224Z" fill="#263238"/>
<path d="M117.415 51.5749H103.436V45.2721L117.415 28.6602H124.092V45.6276H127.561V51.5749H124.092V56.7343H117.415V51.5749ZM117.415 45.6276V36.9806L110.027 45.6276H117.415Z" fill="#263238"/>
<path d="M144.037 29.1309H166.894V35.0301H152.607V39.4113H165.885V45.0415H152.607V50.4891H167.307V56.7342H144.037V29.1309Z" fill="#263238"/>
<path d="M171.469 36.7417H178.646V40.0179C179.129 38.9077 179.858 37.922 180.779 37.1356C181.577 36.5874 182.53 36.3081 183.498 36.3381C184.804 36.387 186.079 36.7495 187.216 37.395L184.843 42.8523C184.166 42.5327 183.437 42.3406 182.691 42.2854C182.227 42.2727 181.767 42.3812 181.358 42.6002C180.948 42.8193 180.603 43.1413 180.356 43.5344C179.568 44.697 179.174 46.8876 179.174 50.087V56.8125H171.488L171.469 36.7417Z" fill="#263238"/>
<path d="M190.203 36.7417H197.38V40.0179C197.863 38.9077 198.593 37.922 199.513 37.1356C200.312 36.5874 201.264 36.3081 202.232 36.3381C203.538 36.387 204.814 36.7495 205.95 37.395L203.577 42.8523C202.901 42.5327 202.171 42.3406 201.425 42.2854C200.961 42.2727 200.501 42.3812 200.092 42.6002C199.683 42.8193 199.337 43.1413 199.09 43.5344C198.303 44.697 197.909 46.8876 197.909 50.087V56.8125H190.222L190.203 36.7417Z" fill="#263238"/>
<path d="M206.92 46.8C206.879 45.3963 207.133 43.9994 207.666 42.7001C208.199 41.4008 208.999 40.228 210.014 39.2579C211.14 38.238 212.456 37.4507 213.888 36.9412C215.319 36.4317 216.837 36.21 218.354 36.289C222.357 36.289 225.383 37.4516 227.433 39.7767C229.122 41.8435 229.994 44.4579 229.884 47.1245C229.774 49.7912 228.69 52.325 226.837 54.2461C224.801 56.2061 221.979 57.1861 218.373 57.1861C215.568 57.3226 212.807 56.4576 210.581 54.7457C209.399 53.7938 208.453 52.5811 207.818 51.2026C207.183 49.824 206.876 48.3171 206.92 46.8ZM214.607 46.8C214.497 48.2026 214.881 49.5994 215.692 50.7488C216.024 51.148 216.44 51.4692 216.91 51.6897C217.38 51.9101 217.892 52.0244 218.411 52.0244C218.93 52.0244 219.443 51.9101 219.913 51.6897C220.383 51.4692 220.799 51.148 221.13 50.7488C221.943 49.5642 222.319 48.1349 222.197 46.7039C222.298 45.3365 221.917 43.9769 221.121 42.8608C220.806 42.4603 220.403 42.1376 219.943 41.9177C219.483 41.6978 218.979 41.5865 218.469 41.5926C217.94 41.5812 217.416 41.6914 216.936 41.9146C216.456 42.1378 216.034 42.4681 215.702 42.88C214.894 44.0131 214.506 45.3927 214.607 46.7808V46.8Z" fill="#263238"/>
<path d="M233.66 36.7419H240.837V40.0181C241.32 38.9079 242.049 37.9222 242.97 37.1358C243.771 36.5862 244.727 36.3069 245.698 36.3383C247.002 36.3884 248.273 36.7509 249.407 37.3952L247.034 42.8525C246.35 42.5051 245.607 42.2899 244.843 42.2183C244.379 42.2056 243.92 42.3142 243.51 42.5332C243.101 42.7522 242.756 43.0742 242.509 43.4674C241.721 44.6299 241.327 46.8205 241.327 50.0199V56.7454H233.641L233.66 36.7419Z" fill="#263238"/>
<path d="M62.9667 79.4669V77.0746H71.6138V84.6552C70.3758 85.6592 68.9883 86.4632 67.5016 87.0379C66.1126 87.5717 64.6373 87.8453 63.1493 87.845C61.2492 87.8683 59.3724 87.4263 57.6824 86.5575C56.0856 85.7316 54.7859 84.4286 53.9642 82.8297C53.1157 81.1373 52.6873 79.2654 52.7151 77.3724C52.7005 75.447 53.1278 73.5438 53.9642 71.8095C54.714 70.1761 55.9708 68.8283 57.5479 67.9663C59.2159 67.1074 61.0718 66.6781 62.9475 66.7173C64.3168 66.699 65.6769 66.9436 66.954 67.4379C68.0495 67.844 69.0177 68.5336 69.7595 69.4363C70.5 70.4323 71.0267 71.5706 71.3063 72.7799L68.8659 73.4524C68.6348 72.5708 68.2476 71.7378 67.7226 70.9928C67.2179 70.3585 66.5552 69.8681 65.801 69.5708C64.9095 69.2002 63.9513 69.017 62.9859 69.0328C61.89 69.0058 60.7996 69.1952 59.7769 69.5901C58.9477 69.9098 58.1972 70.4046 57.5767 71.0408C57.039 71.6376 56.6039 72.3194 56.2893 73.0585C55.7625 74.3648 55.4981 75.7621 55.511 77.1706C55.466 78.7495 55.7953 80.3167 56.4718 81.744C57.0517 82.9338 58.0072 83.8994 59.1908 84.4918C60.3836 85.0882 61.7004 85.3944 63.034 85.3853C64.2097 85.3814 65.3738 85.1531 66.464 84.7128C67.3914 84.3806 68.2556 83.8933 69.0197 83.2716V79.4285L62.9667 79.4669Z" fill="#005596"/>
<path d="M84.9399 85.6536C84.153 86.3782 83.2459 86.9601 82.2594 87.3734C81.3731 87.6976 80.4359 87.8603 79.4923 87.8538C78.1376 87.9446 76.7988 87.5189 75.7452 86.6624C75.3177 86.2814 74.9791 85.8112 74.7533 85.2849C74.5275 84.7586 74.4201 84.1891 74.4386 83.6168C74.4306 82.9261 74.5993 82.2448 74.9286 81.6375C75.2364 81.0582 75.6818 80.5633 76.2256 80.1964C76.7773 79.822 77.3879 79.5427 78.0319 79.3701C78.7652 79.193 79.51 79.0677 80.2609 78.9954C81.7755 78.859 83.2724 78.5693 84.7286 78.1307C84.7286 77.7848 84.7286 77.5638 84.7286 77.4773C84.7701 77.0872 84.7282 76.6927 84.6056 76.32C84.483 75.9473 84.2826 75.6049 84.0176 75.3156C83.1953 74.6845 82.1686 74.38 81.1352 74.4605C80.2204 74.3924 79.3071 74.6107 78.5219 75.085C77.8656 75.6495 77.4244 76.4233 77.2729 77.2756L74.8229 76.9489C74.9855 76.0267 75.3605 75.155 75.9182 74.4028C76.5022 73.7065 77.2718 73.1901 78.1376 72.9136C79.2154 72.5412 80.3506 72.3624 81.4907 72.3852C82.5374 72.3525 83.5815 72.5053 84.5748 72.8368C85.2548 73.037 85.8708 73.4112 86.3619 73.9225C86.7574 74.4166 87.0247 75.0007 87.1401 75.623C87.2462 76.39 87.288 77.1646 87.265 77.9385V81.2821C87.2271 82.7572 87.2817 84.2333 87.4284 85.7017C87.5353 86.3264 87.7499 86.9278 88.0625 87.4791H85.4395C85.1659 86.9051 84.9967 86.287 84.9399 85.6536ZM84.7286 80.0523C83.4066 80.5318 82.0329 80.8542 80.6356 81.013C79.8892 81.0978 79.1544 81.2654 78.445 81.5126C78.0551 81.6903 77.7224 81.9731 77.4843 82.3293C77.255 82.6841 77.1348 83.0983 77.1384 83.5207C77.131 83.8385 77.1955 84.1538 77.3269 84.4433C77.4583 84.7327 77.6533 84.9888 77.8974 85.1924C78.5322 85.6836 79.3259 85.9231 80.1264 85.865C81.0251 85.8802 81.9124 85.6617 82.7013 85.2309C83.4069 84.8476 83.9748 84.2529 84.325 83.5303C84.6351 82.7323 84.7726 81.8776 84.7286 81.0226V80.0523Z" fill="#005596"/>
<path d="M96.6325 85.2401L96.9976 87.45C96.367 87.5948 95.7229 87.6721 95.076 87.6805C94.3461 87.7191 93.6184 87.5702 92.9623 87.2482C92.4961 86.9952 92.1251 86.5972 91.9054 86.1145C91.6402 85.1485 91.5363 84.1454 91.598 83.1456V74.6331H89.7725V72.7115H91.6172V69.0221L94.1056 67.5137V72.6827H96.6325V74.6043H94.1056V83.2513C94.0774 83.7135 94.1228 84.1773 94.2401 84.6252C94.3226 84.8341 94.4755 85.0074 94.6725 85.1152C94.9358 85.2522 95.2313 85.3153 95.5276 85.2978C95.8968 85.3048 96.266 85.2856 96.6325 85.2401Z" fill="#005596"/>
<path d="M109.218 82.715L111.803 83.0416C111.471 84.441 110.671 85.685 109.535 86.5677C108.109 87.5014 106.413 87.9345 104.714 87.7988C103.014 87.6632 101.409 86.9665 100.148 85.8183C98.7952 84.2734 98.1049 82.2575 98.2269 80.2073C98.1041 78.1104 98.7921 76.0465 100.148 74.4426C100.786 73.7617 101.561 73.2251 102.423 72.8688C103.285 72.5125 104.213 72.3448 105.145 72.3769C106.044 72.3513 106.938 72.519 107.767 72.8688C108.595 73.2185 109.34 73.7421 109.948 74.4042C111.301 75.976 111.99 78.0121 111.87 80.0824C111.87 80.2362 111.87 80.4571 111.87 80.755H100.84C100.842 82.1257 101.333 83.4507 102.224 84.4924C102.619 84.9144 103.099 85.2481 103.632 85.4716C104.165 85.6952 104.74 85.8035 105.317 85.7895C106.161 85.8111 106.988 85.5545 107.671 85.0593C108.409 84.4494 108.948 83.6331 109.218 82.715ZM100.984 78.6605H109.247C109.213 77.6536 108.878 76.6799 108.286 75.8646C107.916 75.3992 107.444 75.026 106.905 74.7743C106.367 74.5226 105.777 74.3992 105.183 74.4138C104.65 74.4046 104.121 74.5018 103.626 74.6998C103.131 74.8977 102.68 75.1925 102.301 75.5667C101.483 76.3924 101.012 77.4991 100.984 78.6605Z" fill="#005596"/>
<path d="M117.693 87.4795L113.158 72.6834H115.752L118.106 81.2248L118.981 84.405C118.981 84.2513 119.278 83.2328 119.749 81.3497L122.103 72.7027H124.688L126.897 81.2921L127.637 84.1168L128.492 81.2344L131.029 72.6738H133.46L128.838 87.4699H126.234L123.871 78.6115L123.304 76.0846L120.306 87.4699L117.693 87.4795Z" fill="#005596"/>
<path d="M145.22 85.655C144.432 86.3678 143.525 86.9369 142.54 87.3363C141.653 87.6605 140.716 87.8232 139.773 87.8167C138.418 87.9075 137.079 87.4818 136.026 86.6253C135.598 86.2443 135.259 85.7741 135.034 85.2478C134.808 84.7215 134.7 84.152 134.719 83.5797C134.711 82.889 134.88 82.2077 135.209 81.6004C135.52 81.0233 135.965 80.5291 136.506 80.1593C137.058 79.7849 137.668 79.5056 138.312 79.333C139.046 79.1568 139.79 79.0316 140.541 78.9583C142.059 78.8206 143.559 78.531 145.018 78.0936C145.018 77.7477 145.018 77.5267 145.018 77.4402C145.06 77.0501 145.018 76.6556 144.895 76.2829C144.773 75.9102 144.572 75.5678 144.307 75.2785C143.485 74.6474 142.459 74.3429 141.425 74.4234C140.51 74.3553 139.597 74.5735 138.812 75.0479C138.155 75.6124 137.714 76.3862 137.563 77.2385L135.113 76.9118C135.275 75.9896 135.65 75.1179 136.208 74.3657C136.792 73.6694 137.562 73.153 138.427 72.8765C139.506 72.5049 140.641 72.3261 141.781 72.3481C142.827 72.3153 143.871 72.4682 144.865 72.7997C145.533 73.0159 146.132 73.4035 146.604 73.9238C147 74.4188 147.27 75.0022 147.392 75.6244C147.493 76.3918 147.534 77.166 147.516 77.9399V81.2834C147.477 82.7583 147.529 84.2343 147.67 85.703C147.777 86.3277 147.992 86.9291 148.304 87.4804H145.691C145.423 86.9061 145.263 86.2872 145.22 85.655ZM145.018 80.0536C143.693 80.5317 142.316 80.8541 140.916 81.0144C140.169 81.0991 139.435 81.2667 138.725 81.514C138.333 81.688 138 81.9716 137.765 82.3306C137.528 82.6826 137.404 83.0981 137.409 83.522C137.404 83.8395 137.469 84.1542 137.6 84.4433C137.732 84.7324 137.926 84.9888 138.168 85.1938C138.803 85.6849 139.597 85.9244 140.397 85.8663C141.296 85.8825 142.183 85.6639 142.972 85.2322C143.695 84.8411 144.276 84.2327 144.634 83.4932C144.944 82.6952 145.082 81.8405 145.038 80.9855L145.018 80.0536Z" fill="#005596"/>
<path d="M151.33 93.1864L151.051 90.8229C151.516 90.9642 151.997 91.0418 152.483 91.0535C152.944 91.0727 153.403 90.977 153.818 90.7748C154.155 90.5853 154.439 90.3145 154.645 89.987C154.95 89.3873 155.207 88.764 155.413 88.1231C155.413 87.9886 155.529 87.7772 155.634 87.5082L150.014 72.6833H152.723L155.798 81.2535C156.201 82.3392 156.557 83.4825 156.874 84.6835C157.16 83.5429 157.503 82.4173 157.902 81.3111L161.063 72.6641H163.57L157.95 87.7196C157.549 88.8654 157.077 89.9853 156.537 91.0727C156.182 91.7923 155.658 92.4153 155.01 92.8886C154.395 93.2866 153.676 93.4908 152.944 93.4747C152.394 93.4662 151.849 93.3689 151.33 93.1864Z" fill="#005596"/>
<path d="M179.115 85.2401L179.471 87.4499C178.841 87.596 178.196 87.6733 177.549 87.6805C176.819 87.7204 176.091 87.5714 175.436 87.2482C174.967 86.9951 174.593 86.5975 174.369 86.1145C174.109 85.1477 174.008 84.1449 174.071 83.1456V74.6331H172.227V72.7115H174.071V69.0221L176.56 67.5137V72.6827H179.087V74.6043H176.627V83.2513C176.599 83.7135 176.644 84.1773 176.761 84.6252C176.844 84.8341 176.997 85.0074 177.194 85.1152C177.457 85.2536 177.753 85.3168 178.049 85.2978C178.405 85.3027 178.762 85.2834 179.115 85.2401Z" fill="#005596"/>
<path d="M181.575 69.9351V67.0527H184.083V69.9351H181.575ZM181.575 87.479V72.6829H184.083V87.479H181.575Z" fill="#005596"/>
<path d="M187.908 87.48V72.684H190.147V74.7593C190.617 74.0368 191.252 73.4372 192.001 73.0106C192.804 72.5604 193.713 72.3316 194.634 72.3477C195.581 72.3097 196.518 72.5467 197.333 73.0298C198.03 73.4848 198.551 74.1621 198.813 74.9514C199.286 74.1601 199.955 73.505 200.757 73.0502C201.559 72.5955 202.465 72.3567 203.386 72.3573C204.005 72.3192 204.625 72.4078 205.208 72.6176C205.791 72.8274 206.325 73.154 206.778 73.5775C207.647 74.6277 208.071 75.9758 207.96 77.3342V87.4896H205.452V78.17C205.488 77.4413 205.407 76.7115 205.212 76.0083C205.045 75.564 204.734 75.1885 204.328 74.9418C203.874 74.6663 203.351 74.5263 202.82 74.5383C202.339 74.5248 201.861 74.6099 201.415 74.7884C200.969 74.9669 200.564 75.2349 200.225 75.5759C199.46 76.5063 199.091 77.7002 199.197 78.9002V87.4896H196.69V77.8818C196.753 77.0021 196.538 76.1247 196.075 75.3742C195.834 75.081 195.525 74.8515 195.175 74.7058C194.825 74.56 194.444 74.5025 194.067 74.5383C193.386 74.5384 192.72 74.7316 192.145 75.0955C191.536 75.4706 191.075 76.044 190.839 76.7193C190.529 77.7201 190.393 78.7663 190.435 79.813V87.4993L187.908 87.48Z" fill="#005596"/>
<path d="M221.785 82.7147L224.379 83.0413C224.047 84.4407 223.247 85.6847 222.112 86.5674C220.685 87.5011 218.989 87.9342 217.29 87.7985C215.591 87.6628 213.985 86.9661 212.725 85.818C211.371 84.273 210.681 82.2572 210.803 80.207C210.68 78.1101 211.368 76.0462 212.725 74.4423C213.361 73.7626 214.135 73.2267 214.995 72.8705C215.855 72.5142 216.781 72.3458 217.711 72.3766C218.61 72.3522 219.504 72.5205 220.333 72.8702C221.161 73.2199 221.905 73.7428 222.515 74.4039C223.868 75.9757 224.557 78.0118 224.437 80.0821C224.437 80.2358 224.437 80.4568 224.437 80.7547H213.436C213.427 82.1256 213.915 83.4534 214.81 84.4921C215.205 84.9136 215.685 85.247 216.218 85.4705C216.751 85.694 217.325 85.8026 217.903 85.7892C218.747 85.8108 219.574 85.5542 220.257 85.059C220.992 84.4504 221.525 83.6329 221.785 82.7147ZM213.551 78.6602H221.814C221.783 77.6525 221.448 76.6777 220.853 75.8643C220.482 75.3976 220.008 75.0236 219.467 74.7718C218.927 74.52 218.336 74.3973 217.74 74.4135C217.207 74.4032 216.677 74.4999 216.182 74.6979C215.687 74.896 215.237 75.1913 214.858 75.5664C214.055 76.3992 213.595 77.5038 213.57 78.6602H213.551Z" fill="#005596"/>
<path d="M226.588 80.0821C226.588 77.347 227.35 75.3198 228.874 74.0003C230.165 72.89 231.823 72.3008 233.524 72.3478C234.449 72.3157 235.37 72.4768 236.229 72.8209C237.087 73.165 237.865 73.6845 238.511 74.3462C239.181 75.0959 239.696 75.971 240.026 76.9209C240.355 77.8708 240.494 78.8766 240.433 79.8803C240.505 81.4224 240.212 82.9597 239.577 84.3672C239.018 85.4464 238.148 86.3333 237.079 86.9133C235.986 87.5179 234.755 87.829 233.505 87.8164C232.575 87.8546 231.647 87.6973 230.782 87.3547C229.916 87.0121 229.132 86.4919 228.48 85.8276C227.118 84.2358 226.438 82.1716 226.588 80.0821ZM229.163 80.0821C229.046 81.6042 229.486 83.1169 230.402 84.3383C230.79 84.7844 231.269 85.142 231.807 85.3871C232.344 85.6322 232.929 85.759 233.52 85.759C234.111 85.759 234.695 85.6322 235.233 85.3871C235.771 85.142 236.25 84.7844 236.637 84.3383C237.557 83.0893 237.997 81.5515 237.877 80.0052C237.982 78.5125 237.538 77.0328 236.628 75.845C236.24 75.4006 235.762 75.0443 235.225 74.8002C234.688 74.5561 234.105 74.4299 233.515 74.4299C232.925 74.4299 232.342 74.5561 231.805 74.8002C231.268 75.0443 230.79 75.4006 230.402 75.845C229.499 77.0645 229.069 78.5698 229.191 80.0821H229.163Z" fill="#005596"/>
<path d="M253.115 87.4797V85.3083C252.615 86.0946 251.921 86.7386 251.1 87.178C250.278 87.6173 249.357 87.8371 248.426 87.816C247.583 87.824 246.748 87.6538 245.976 87.3163C245.315 87.0518 244.735 86.6177 244.295 86.0577C243.903 85.5003 243.637 84.8643 243.517 84.1938C243.391 83.419 243.34 82.634 243.363 81.8495V72.6836H245.87V80.8887C245.844 81.7754 245.896 82.6627 246.024 83.5405C246.146 84.1584 246.487 84.7114 246.985 85.0969C247.546 85.4904 248.222 85.6864 248.907 85.6542C249.65 85.6567 250.381 85.4575 251.02 85.0777C251.655 84.7299 252.151 84.1732 252.423 83.502C252.741 82.5758 252.881 81.5979 252.836 80.6197V72.6932H255.411V87.4893L253.115 87.4797Z" fill="#005596"/>
<path d="M264.77 85.2401L265.135 87.45C264.505 87.5948 263.861 87.6721 263.214 87.6805C262.484 87.7191 261.756 87.5702 261.1 87.2482C260.634 86.9952 260.263 86.5972 260.043 86.1145C259.773 85.1495 259.669 84.1455 259.736 83.1456V74.6331H257.91V72.7115H259.755V69.0221L262.243 67.5137V72.6827H264.77V74.6043H262.243V83.2513C262.215 83.7135 262.26 84.1773 262.378 84.6252C262.46 84.8341 262.613 85.0074 262.81 85.1152C263.073 85.2522 263.369 85.3153 263.665 85.2978C264.034 85.3045 264.404 85.2852 264.77 85.2401Z" fill="#005596"/>
</svg>
