<svg width="480" height="376" viewBox="0 0 480 376" fill="none" xmlns="http://www.w3.org/2000/svg">
<path d="M480 332.01H0V332.25H480V332.01Z" fill="#EBEBEB"/>
<path d="M227.52 289.193H42.1536C40.7015 289.191 39.3097 288.612 38.2838 287.584C37.2578 286.556 36.6816 285.164 36.6816 283.711V23.1387C36.6943 21.6949 37.2761 20.3143 38.3006 19.297C39.3252 18.2796 40.7098 17.7076 42.1536 17.7051H227.52C228.974 17.7051 230.368 18.2826 231.396 19.3106C232.424 20.3386 233.002 21.7329 233.002 23.1867V283.711C233.002 285.165 232.424 286.56 231.396 287.588C230.368 288.616 228.974 289.193 227.52 289.193ZM42.1536 17.8971C40.7651 17.8996 39.4344 18.453 38.4535 19.4357C37.4726 20.4184 36.9216 21.7502 36.9216 23.1387V283.711C36.9216 285.1 37.4726 286.432 38.4535 287.414C39.4344 288.397 40.7651 288.951 42.1536 288.953H227.52C228.909 288.951 230.241 288.397 231.224 287.415C232.206 286.433 232.759 285.101 232.762 283.711V23.1387C232.759 21.7493 232.206 20.4176 231.224 19.4351C230.241 18.4527 228.909 17.8996 227.52 17.8971H42.1536Z" fill="#EBEBEB"/>
<path d="M435.178 289.193H249.802C248.349 289.191 246.956 288.612 245.929 287.585C244.901 286.557 244.323 285.164 244.32 283.711V23.1387C244.335 21.694 244.919 20.3135 245.945 19.2964C246.972 18.2793 248.357 17.7075 249.802 17.7051H435.178C436.62 17.7101 438.002 18.2832 439.025 19.3003C440.047 20.3174 440.628 21.6965 440.64 23.1387V283.711C440.64 285.162 440.065 286.553 439.042 287.581C438.018 288.608 436.628 289.188 435.178 289.193ZM249.802 17.8971C248.413 17.8996 247.081 18.4527 246.098 19.4351C245.116 20.4176 244.563 21.7493 244.56 23.1387V283.711C244.563 285.101 245.116 286.433 246.098 287.415C247.081 288.397 248.413 288.951 249.802 288.953H435.178C436.567 288.951 437.899 288.397 438.881 287.415C439.864 286.433 440.417 285.101 440.419 283.711V23.1387C440.417 21.7493 439.864 20.4176 438.881 19.4351C437.899 18.4527 436.567 17.8996 435.178 17.8971H249.802Z" fill="#EBEBEB"/>
<path d="M431.905 341.148H401.598V341.388H431.905V341.148Z" fill="#EBEBEB"/>
<path d="M321.927 338.547H289.854V338.787H321.927V338.547Z" fill="#EBEBEB"/>
<path d="M440.659 350.066H380.727V350.306H440.659V350.066Z" fill="#EBEBEB"/>
<path d="M68.8221 348.453H50.3613V348.693H68.8221V348.453Z" fill="#EBEBEB"/>
<path d="M106.453 348.453H77.375V348.693H106.453V348.453Z" fill="#EBEBEB"/>
<path d="M234.374 344.402H181.996V344.642H234.374V344.402Z" fill="#EBEBEB"/>
<path d="M261.369 78.3086L206.668 133.019V315.217H398.658V78.3086H261.369Z" fill="white"/>
<path d="M398.659 315.736H206.659C206.522 315.736 206.39 315.682 206.292 315.585C206.195 315.487 206.141 315.356 206.141 315.218V133.02C206.141 132.952 206.154 132.884 206.18 132.822C206.207 132.759 206.246 132.702 206.294 132.655L261.014 77.9348C261.112 77.8399 261.243 77.7851 261.379 77.7812H398.659C398.727 77.7812 398.795 77.7947 398.857 77.8207C398.92 77.8468 398.977 77.8849 399.026 77.9331C399.074 77.9812 399.112 78.0384 399.138 78.1013C399.164 78.1642 399.177 78.2316 399.177 78.2997V315.218C399.177 315.286 399.164 315.354 399.138 315.416C399.112 315.479 399.074 315.536 399.026 315.585C398.977 315.633 398.92 315.671 398.857 315.697C398.795 315.723 398.727 315.736 398.659 315.736ZM207.187 314.709H398.141V78.8276H261.59L207.187 133.231V314.709Z" fill="#E0E0E0"/>
<path d="M206.668 133.019L264.066 140.421L261.369 78.3086L206.668 133.019Z" fill="#E6E6E6"/>
<path d="M206.668 133.019H261.369V78.3086L206.668 133.019Z" fill="white"/>
<path d="M261.369 133.53H206.649C206.546 133.53 206.446 133.5 206.361 133.444C206.275 133.388 206.208 133.307 206.169 133.213C206.129 133.119 206.119 133.016 206.139 132.917C206.16 132.817 206.21 132.726 206.284 132.656L261.004 77.9361C261.078 77.865 261.17 77.8163 261.27 77.7959C261.371 77.7755 261.475 77.7842 261.57 77.8209C261.664 77.8618 261.744 77.9288 261.8 78.014C261.856 78.0992 261.886 78.1989 261.887 78.3009V133.021C261.885 133.157 261.829 133.286 261.732 133.381C261.635 133.476 261.505 133.53 261.369 133.53ZM207.916 132.503H260.86V79.5585L207.916 132.503Z" fill="#E0E0E0"/>
<path d="M313.766 211.807L346.406 179.167C347.135 178.438 347.714 177.572 348.109 176.619C348.503 175.666 348.706 174.645 348.706 173.614C348.706 172.582 348.503 171.561 348.109 170.608C347.714 169.655 347.135 168.789 346.406 168.06C345.677 167.331 344.811 166.752 343.858 166.358C342.905 165.963 341.884 165.76 340.853 165.76C339.821 165.76 338.8 165.963 337.847 166.358C336.894 166.752 336.028 167.331 335.299 168.06L302.659 200.7L270.019 168.06C268.546 166.587 266.548 165.76 264.465 165.76C262.382 165.76 260.385 166.587 258.912 168.06C257.439 169.533 256.611 171.531 256.611 173.614C256.611 175.697 257.439 177.694 258.912 179.167L291.552 211.807L258.912 244.447C257.439 245.92 256.611 247.918 256.611 250.001C256.611 252.084 257.439 254.082 258.912 255.555C260.385 257.027 262.382 257.855 264.465 257.855C266.548 257.855 268.546 257.027 270.019 255.555L302.659 222.915L335.299 255.555C336.772 257.027 338.77 257.855 340.853 257.855C342.936 257.855 344.933 257.027 346.406 255.555C347.879 254.082 348.706 252.084 348.706 250.001C348.706 247.918 347.879 245.92 346.406 244.447L313.766 211.807Z" fill="#F0F0F0"/>
<path d="M214.08 184.744C212.239 186.584 209.742 187.617 207.14 187.617C204.537 187.617 202.04 186.584 200.199 184.744L168.701 153.237L182.583 139.355L214.08 170.901C215.908 172.741 216.934 175.229 216.934 177.823C216.934 180.416 215.908 182.904 214.08 184.744Z" fill="#F0F0F0"/>
<path d="M168.695 153.299L182.577 139.417L183.86 140.7C185.191 142.03 185.938 143.835 185.938 145.716C185.938 147.598 185.191 149.402 183.86 150.733L180.011 154.582C178.681 155.912 176.876 156.66 174.995 156.66C173.113 156.66 171.309 155.912 169.978 154.582L168.695 153.299Z" fill="#E0E0E0"/>
<path d="M81.322 51.9861C71.7966 61.5212 65.3118 73.6662 62.6875 86.8861C60.0631 100.106 61.4169 113.807 66.5778 126.258C71.7387 138.708 80.475 149.349 91.6824 156.836C102.89 164.322 116.065 168.318 129.543 168.318C143.021 168.318 156.196 164.322 167.403 156.836C178.611 149.349 187.347 138.708 192.508 126.258C197.669 113.807 199.023 100.106 196.398 86.8861C193.774 73.6662 187.289 61.5212 177.764 51.9861C171.434 45.6495 163.917 40.6227 155.642 37.193C147.368 33.7633 138.5 31.998 129.543 31.998C120.586 31.998 111.717 33.7633 103.443 37.193C95.1691 40.6227 87.6522 45.6495 81.322 51.9861ZM173.828 144.492C165.07 153.249 153.912 159.213 141.765 161.629C129.618 164.045 117.027 162.805 105.584 158.066C94.1419 153.326 84.3619 145.3 77.4811 135.002C70.6003 124.704 66.9277 112.597 66.9277 100.212C66.9277 87.8265 70.6003 75.7194 77.4811 65.4215C84.3619 55.1236 94.1419 47.0973 105.584 42.3577C117.027 37.618 129.618 36.3779 141.765 38.794C153.912 41.2102 165.07 47.1741 173.828 55.9317C179.643 61.7466 184.255 68.6499 187.402 76.2475C190.549 83.845 192.169 91.9881 192.169 100.212C192.169 108.435 190.549 116.578 187.402 124.176C184.255 131.773 179.643 138.677 173.828 144.492Z" fill="#E0E0E0"/>
<path d="M165.37 138.329C164.919 138.328 164.478 138.193 164.104 137.942C163.729 137.691 163.437 137.334 163.264 136.917C163.092 136.501 163.047 136.042 163.134 135.6C163.222 135.157 163.439 134.751 163.757 134.431C172.816 125.347 177.903 113.041 177.903 100.212C177.903 87.3826 172.816 75.0769 163.757 65.9926C163.525 65.7858 163.337 65.5336 163.205 65.2515C163.073 64.9693 163 64.6633 162.991 64.352C162.982 64.0408 163.037 63.731 163.152 63.4416C163.266 63.1522 163.439 62.8894 163.659 62.6692C163.88 62.449 164.142 62.2762 164.432 62.1613C164.721 62.0464 165.031 61.9918 165.342 62.001C165.653 62.0102 165.96 62.0828 166.242 62.2146C166.524 62.3463 166.776 62.5343 166.983 62.767C176.897 72.7049 182.465 86.1694 182.465 100.207C182.465 114.245 176.897 127.709 166.983 137.647C166.772 137.861 166.521 138.031 166.244 138.148C165.968 138.265 165.671 138.327 165.37 138.329Z" fill="#E0E0E0"/>
<path d="M80.236 114.213C79.7224 114.214 79.2236 114.04 78.821 113.721C78.4183 113.402 78.1355 112.957 78.0184 112.456C76.3579 105.424 76.1485 98.1277 77.4029 91.012C78.6574 83.8963 81.3494 77.1111 85.3144 71.0708C85.648 70.5616 86.1701 70.2057 86.766 70.0815C87.362 69.9573 87.9828 70.0749 88.492 70.4084C89.0013 70.742 89.3571 71.2641 89.4813 71.86C89.6056 72.4559 89.488 73.0768 89.1544 73.586C85.5241 79.1037 83.056 85.3032 81.9006 91.8062C80.7453 98.3092 80.9269 104.979 82.4344 111.41C82.5057 111.701 82.5184 112.004 82.4719 112.3C82.4253 112.596 82.3204 112.88 82.1633 113.136C82.0061 113.391 81.7998 113.613 81.5563 113.788C81.3128 113.963 81.037 114.088 80.7448 114.156C80.5776 114.192 80.4071 114.211 80.236 114.213Z" fill="#E0E0E0"/>
<path d="M93.7149 138.329C93.1095 138.327 92.5294 138.085 92.1021 137.657C87.9897 133.56 84.5837 128.811 82.0221 123.602C81.8897 123.334 81.8115 123.042 81.792 122.743C81.7724 122.444 81.8119 122.145 81.9082 121.861C82.0045 121.578 82.1557 121.316 82.3531 121.091C82.5505 120.866 82.7903 120.682 83.0589 120.549C83.3274 120.417 83.6194 120.339 83.9181 120.319C84.2168 120.3 84.5165 120.339 84.8 120.436C85.0835 120.532 85.3452 120.683 85.5703 120.88C85.7953 121.078 85.9793 121.318 86.1117 121.586C88.4603 126.343 91.5737 130.682 95.3277 134.431C95.7544 134.859 95.9941 135.439 95.9941 136.044C95.9941 136.648 95.7544 137.228 95.3277 137.657C94.8986 138.083 94.3196 138.324 93.7149 138.329Z" fill="#E0E0E0"/>
<path d="M202.591 272.495L211.565 281.469L190.725 302.309C189.659 303.375 188.214 303.974 186.706 303.974C185.199 303.974 183.754 303.375 182.688 302.309L181.744 301.365C180.678 300.3 180.08 298.854 180.08 297.347C180.08 295.839 180.678 294.394 181.744 293.328L202.584 272.488L202.591 272.495Z" fill="#F0F0F0"/>
<path d="M202.605 272.514L211.566 281.474L211.138 281.902C210.171 282.868 208.86 283.412 207.493 283.412C206.126 283.412 204.814 282.868 203.848 281.902L202.164 280.218C201.197 279.251 200.654 277.94 200.654 276.573C200.654 275.206 201.197 273.894 202.164 272.928L202.592 272.5L202.605 272.514Z" fill="#E0E0E0"/>
<path d="M272.976 223.816L251.953 244.831C249.619 247.332 248.348 250.641 248.408 254.061C248.468 257.481 249.855 260.744 252.274 263.161C254.694 265.579 257.959 266.962 261.379 267.018C264.799 267.075 268.107 265.8 270.605 263.464L279.111 254.968C280.902 244.184 278.722 233.117 272.976 223.816Z" fill="#F0F0F0"/>
<path d="M280.897 244.092C280.294 235.389 277.125 227.06 271.789 220.159C266.453 213.258 259.19 208.094 250.919 205.321C242.649 202.548 233.741 202.29 225.323 204.58C216.906 206.869 209.356 211.604 203.63 218.184C197.903 224.765 194.257 232.896 193.152 241.549C192.047 250.203 193.533 258.989 197.422 266.798C201.312 274.606 207.429 281.086 215.001 285.417C222.573 289.749 231.26 291.737 239.962 291.132C251.627 290.319 262.492 284.908 270.169 276.087C277.845 267.266 281.704 255.757 280.897 244.092ZM196.503 249.967C195.947 241.977 197.773 234.002 201.749 227.05C205.726 220.098 211.675 214.481 218.843 210.91C226.012 207.339 234.079 205.974 242.024 206.988C249.968 208.002 257.434 211.349 263.476 216.606C269.518 221.863 273.866 228.793 275.969 236.521C278.073 244.249 277.837 252.427 275.293 260.021C272.748 267.615 268.008 274.284 261.673 279.184C255.338 284.084 247.693 286.996 239.703 287.551C228.991 288.295 218.421 284.753 210.32 277.705C202.219 270.657 197.249 260.679 196.503 249.967Z" fill="#E0E0E0"/>
<path d="M214.444 272.978C211.046 270.033 208.264 266.446 206.255 262.423C204.247 258.4 203.053 254.02 202.742 249.535C202.719 249.337 202.738 249.136 202.795 248.945C202.853 248.754 202.948 248.577 203.076 248.423C203.204 248.27 203.361 248.145 203.539 248.054C203.717 247.963 203.911 247.91 204.11 247.896C204.309 247.882 204.509 247.909 204.697 247.975C204.885 248.04 205.059 248.143 205.206 248.278C205.354 248.412 205.472 248.575 205.555 248.756C205.638 248.938 205.684 249.134 205.689 249.333C206.277 257.6 210.117 265.298 216.367 270.74C222.618 276.183 230.77 278.927 239.039 278.373C239.429 278.347 239.813 278.476 240.107 278.732C240.402 278.989 240.582 279.352 240.609 279.741C240.635 280.131 240.506 280.515 240.25 280.809C239.993 281.104 239.63 281.284 239.241 281.311C234.763 281.622 230.267 281.046 226.012 279.616C221.757 278.186 217.825 275.931 214.444 272.978Z" fill="#E0E0E0"/>
<path d="M267.495 239.465C267.276 239.276 267.119 239.025 267.044 238.745C265.888 234.636 263.907 230.806 261.221 227.489C258.536 224.171 255.203 221.436 251.425 219.449C251.094 219.259 250.85 218.949 250.743 218.583C250.636 218.217 250.675 217.824 250.85 217.486C251.026 217.147 251.326 216.89 251.687 216.768C252.048 216.645 252.443 216.667 252.788 216.828C256.923 219.003 260.572 221.997 263.511 225.628C266.451 229.259 268.62 233.451 269.886 237.948C269.938 238.135 269.953 238.33 269.93 238.523C269.906 238.715 269.845 238.901 269.75 239.07C269.654 239.238 269.526 239.386 269.373 239.505C269.22 239.624 269.045 239.712 268.858 239.763C268.624 239.828 268.377 239.834 268.14 239.783C267.902 239.731 267.681 239.622 267.495 239.465Z" fill="#E0E0E0"/>
<path d="M233.655 215.589C233.362 215.328 233.182 214.963 233.156 214.571C233.129 214.182 233.258 213.798 233.513 213.503C233.768 213.209 234.13 213.026 234.519 212.997C238.263 212.737 242.025 213.09 245.655 214.043C245.844 214.093 246.022 214.18 246.177 214.298C246.333 214.416 246.464 214.564 246.562 214.733C246.661 214.902 246.725 215.089 246.751 215.283C246.778 215.476 246.766 215.673 246.716 215.863C246.666 216.052 246.579 216.229 246.461 216.385C246.343 216.54 246.195 216.671 246.026 216.77C245.857 216.868 245.67 216.933 245.476 216.959C245.283 216.985 245.086 216.973 244.897 216.923C241.584 216.047 238.149 215.723 234.73 215.963C234.337 215.983 233.951 215.849 233.655 215.589Z" fill="#E0E0E0"/>
<path d="M240 375.363C342.799 375.363 426.134 370.498 426.134 364.496C426.134 358.494 342.799 353.629 240 353.629C137.2 353.629 53.8652 358.494 53.8652 364.496C53.8652 370.498 137.2 375.363 240 375.363Z" fill="#F5F5F5"/>
<path d="M132.309 104.949C124.571 112.735 137.723 124.821 129.035 130.37C136.13 133.932 160.994 138.453 167.435 124.447C162.741 120.799 166.005 111.832 161.675 103.221C155.195 90.4532 124.571 96.1076 132.309 104.949Z" fill="#263238"/>
<path d="M133.009 104.748C130.6 104.345 122.449 108.396 128.516 119.273C133.403 128.066 129.332 128.69 129.332 128.69C129.332 128.69 134.132 128.825 131.252 122.287C128.2 115.308 126.769 108.069 133.009 104.748Z" fill="#263238"/>
<path d="M190.081 173.811C189.784 173.267 189.286 172.862 188.693 172.683C188.101 172.503 187.462 172.563 186.913 172.851L186.347 173.148C186.164 173.244 185.819 173.475 185.54 173.638C185.262 173.801 184.935 173.983 184.628 174.137C184.023 174.442 183.397 174.705 182.756 174.924C181.57 175.354 180.322 175.591 179.06 175.625C177.901 175.639 176.749 175.454 175.652 175.078C174.956 174.819 174.284 174.498 173.646 174.118C172.82 172.294 172.033 170.451 171.361 168.55C170.545 166.332 169.825 164.067 169.191 161.772C168.558 159.478 168.001 157.155 167.54 154.822C167.3 153.66 167.089 152.489 166.897 151.327L166.638 149.59C166.551 149.033 166.475 148.399 166.427 147.958V147.766C166.299 146.493 165.672 145.322 164.681 144.512C163.691 143.702 162.42 143.319 161.147 143.446C159.874 143.573 158.703 144.201 157.893 145.191C157.083 146.181 156.699 147.453 156.827 148.726C156.894 149.542 156.951 150.166 157.038 150.847C157.124 151.529 157.22 152.182 157.316 152.844C157.527 154.169 157.767 155.475 158.036 156.78C158.57 159.375 159.243 161.938 160.052 164.46C160.427 165.727 160.887 166.975 161.319 168.233C161.751 169.491 162.279 170.719 162.827 171.939C163.874 174.402 165.064 176.803 166.388 179.129L166.503 179.34C166.848 179.965 167.364 180.478 167.991 180.819C169.806 181.808 171.767 182.501 173.799 182.873C175.887 183.242 178.027 183.196 180.097 182.739C183.019 182.061 185.703 180.605 187.863 178.524C188.219 178.198 188.555 177.862 188.823 177.507C189.092 177.151 189.419 176.815 189.783 176.316C190.065 175.969 190.242 175.55 190.295 175.107C190.348 174.663 190.273 174.214 190.081 173.811Z" fill="#FF8B7B"/>
<path d="M196.465 164.826H196.187C195.268 164.806 194.357 164.998 193.524 165.388C192.692 165.778 191.96 166.354 191.387 167.072L186.75 172.89V176.864C190.475 178.342 195.198 174.358 195.198 174.358L197.588 173.754C198.393 173.553 199.094 173.061 199.557 172.373C200.02 171.685 200.211 170.85 200.094 170.029L199.748 167.696C199.636 166.904 199.242 166.178 198.64 165.651C198.037 165.124 197.266 164.831 196.465 164.826Z" fill="#FF8B7B"/>
<path d="M166.302 142.39C169.402 145.577 169.594 155.091 169.594 155.091L157.191 165.075C157.191 165.075 152.094 150.963 154.916 145.98C157.306 141.756 162.346 138.329 166.302 142.39Z" fill="#005596"/>
<g opacity="0.2">
<path d="M166.302 142.39C169.402 145.577 169.594 155.091 169.594 155.091L157.191 165.075C157.191 165.075 152.094 150.963 154.916 145.98C157.306 141.756 162.346 138.329 166.302 142.39Z" fill="white"/>
</g>
<path d="M145.777 356.266L152.632 357.015L153.573 338.391L146.718 337.633L145.777 356.266Z" fill="#FF8B7B"/>
<path d="M153.755 352.543H145.7C145.538 352.538 145.38 352.596 145.26 352.706C145.14 352.815 145.067 352.967 145.057 353.129L144.52 360.742C144.519 361.14 144.675 361.522 144.953 361.808C145.231 362.093 145.609 362.258 146.008 362.268C149.406 362.268 149.444 362.268 153.688 362.268H165.121C168.635 362.268 168.644 358.706 167.128 358.38C160.302 356.94 157.643 354.943 155.233 353.042C154.81 352.716 154.289 352.54 153.755 352.543Z" fill="#263238"/>
<path opacity="0.2" d="M153.572 338.403L153.082 348.003H146.189L146.717 337.645L153.572 338.403Z" fill="black"/>
<path d="M157.269 189.802C157.269 189.802 163.201 239.463 163.201 261.543C158.526 292.263 154.561 346.177 154.561 346.177L145.077 345.927C145.077 345.927 140.766 287.214 144.76 261.86C139.643 239.146 133.326 186.73 133.326 186.73L157.269 189.802Z" fill="#263238"/>
<path opacity="0.2" d="M138.98 203.627C137.85 204.124 136.753 204.695 135.697 205.336C137.003 215.137 138.721 227.473 140.545 238.859C143.656 229.489 141.976 208.888 138.98 203.627Z" fill="black"/>
<path d="M71.5488 338.978L77.2032 342.923L86.9568 327.026L81.3024 323.08L71.5488 338.978Z" fill="#FF8B7B"/>
<path d="M78.6341 340.839L73.8341 334.379C73.7427 334.246 73.603 334.155 73.4451 334.124C73.2871 334.094 73.1235 334.127 72.9893 334.215L66.5573 338.343C66.2364 338.579 66.0213 338.932 65.9585 339.326C65.8956 339.719 65.99 340.121 66.2213 340.446C68.2277 343.182 68.2661 343.201 70.7909 346.599C72.3557 348.683 75.4757 352.878 77.6261 355.767C79.7765 358.657 82.5893 356.468 81.9365 355.047C79.0565 348.721 79.0565 345.447 79.1141 342.337C79.1239 341.798 78.9551 341.272 78.6341 340.839Z" fill="#263238"/>
<path opacity="0.2" d="M86.9475 327.026L81.9267 335.224L75.8691 331.922L81.3027 323.08L86.9475 327.026Z" fill="black"/>
<path d="M106.234 345.641C101.329 345.641 91.1142 345.641 90.9414 338.422C90.807 332.758 97.815 330.406 103.863 330.118C104.533 330.086 105.203 330.186 105.834 330.412C106.466 330.639 107.046 330.988 107.543 331.439C108.039 331.89 108.442 332.435 108.728 333.041C109.014 333.648 109.178 334.305 109.21 334.975V335.359C116.065 335.033 120.5 333.535 122.122 330.982C125.78 325.222 118.772 310.351 112.004 295.98C104.036 279.075 95.0118 259.923 94.839 241.577C94.8326 240.906 94.9585 240.241 95.2093 239.619C95.4601 238.997 95.831 238.43 96.3008 237.952C96.7706 237.473 97.3301 237.091 97.9473 236.829C98.5646 236.566 99.2275 236.428 99.8982 236.422C101.244 236.424 102.534 236.957 103.49 237.904C104.446 238.85 104.99 240.136 105.005 241.481C105.159 257.59 113.645 275.667 121.191 291.622C129.831 310.035 137.367 325.942 130.695 336.454C126.826 342.636 118.81 345.641 106.234 345.641Z" fill="#005596"/>
<path d="M149.674 188.825C149.674 188.825 133.297 245.58 125.3 266.162C109.805 293.1 84.0967 334.322 84.0967 334.322L75.8887 329.522C75.8887 329.522 95.0887 281.906 108.001 259.73C111.466 236.69 124.57 185.561 124.57 185.561L149.674 188.825Z" fill="#263238"/>
<path d="M80.1129 345.477C80.4386 346.016 80.9405 346.426 81.5337 346.638C81.7073 346.68 81.8892 346.673 82.0588 346.617C82.2283 346.561 82.379 346.459 82.4937 346.322C82.5735 346.248 82.6344 346.157 82.6712 346.055C82.708 345.953 82.7195 345.843 82.7049 345.736C82.5897 344.584 79.6137 343.086 79.0185 342.798C78.9838 342.784 78.9451 342.783 78.9098 342.796C78.8744 342.808 78.8448 342.833 78.8265 342.866C78.8033 342.901 78.791 342.943 78.791 342.986C78.791 343.028 78.8033 343.07 78.8265 343.106C79.179 343.935 79.6097 344.729 80.1129 345.477ZM82.1577 345.477C82.2422 345.583 82.2983 345.708 82.3209 345.842C82.3255 345.879 82.3209 345.917 82.3075 345.952C82.2941 345.987 82.2724 346.018 82.2441 346.043C82.1666 346.131 82.0672 346.197 81.9558 346.235C81.8445 346.272 81.7253 346.279 81.6105 346.254C80.9769 346.13 80.1417 345.102 79.3353 343.48C80.3808 343.967 81.3354 344.63 82.1577 345.438V345.477Z" fill="#005596"/>
<path d="M78.7773 343.144L78.8349 343.192C79.7949 343.72 82.2909 344.152 82.8381 343.356C82.93 343.21 82.9747 343.04 82.9661 342.868C82.9575 342.696 82.896 342.531 82.7901 342.396C81.8301 340.696 78.9501 342.693 78.8253 342.78C78.7967 342.803 78.774 342.832 78.7589 342.865C78.7439 342.899 78.737 342.935 78.7389 342.972C78.7351 343.032 78.7484 343.092 78.7773 343.144ZM82.4253 342.588C82.4533 342.621 82.479 342.656 82.5021 342.693C82.6077 342.876 82.6269 343.01 82.5693 343.087C82.2525 343.548 80.4093 343.384 79.3341 342.962C80.0541 342.53 81.7341 341.657 82.4253 342.588Z" fill="#005596"/>
<path d="M158.401 354.127C159.03 354.184 159.66 354.025 160.187 353.676C160.32 353.559 160.419 353.407 160.471 353.238C160.524 353.069 160.528 352.888 160.484 352.716C160.471 352.607 160.432 352.504 160.372 352.412C160.313 352.321 160.233 352.244 160.139 352.188C159.179 351.602 156.174 353.09 155.588 353.397C155.555 353.416 155.53 353.445 155.516 353.48C155.502 353.515 155.5 353.554 155.511 353.59C155.526 353.63 155.55 353.666 155.582 353.694C155.614 353.722 155.652 353.743 155.694 353.753C156.581 353.97 157.488 354.095 158.401 354.127ZM159.591 352.466C159.728 352.458 159.865 352.488 159.985 352.553C160.033 352.553 160.081 352.62 160.1 352.735C160.125 352.85 160.119 352.969 160.082 353.081C160.045 353.192 159.978 353.292 159.889 353.369C159.419 353.801 158.094 353.858 156.308 353.541C157.317 353.001 158.411 352.637 159.543 352.466H159.591Z" fill="#005596"/>
<path d="M155.693 353.801H155.76C156.72 353.36 158.592 351.603 158.285 350.691C158.221 350.54 158.114 350.411 157.978 350.321C157.841 350.23 157.681 350.182 157.517 350.182C155.597 349.961 155.463 353.436 155.453 353.58C155.453 353.619 155.463 353.656 155.482 353.69C155.5 353.723 155.527 353.752 155.559 353.772C155.6 353.795 155.646 353.805 155.693 353.801ZM157.421 350.537H157.556C157.757 350.537 157.882 350.624 157.911 350.72C158.093 351.248 156.864 352.64 155.876 353.244C155.962 352.409 156.269 350.537 157.44 350.537H157.421Z" fill="#005596"/>
<path d="M124.57 185.609L157.268 189.795C164.641 164.969 167.07 152.979 167.722 147.209C167.895 145.759 167.556 144.294 166.764 143.067C165.972 141.84 164.776 140.929 163.383 140.489C161.463 139.875 158.986 139.145 156.529 138.569C155.694 138.349 154.839 138.147 154.004 137.955C149.109 136.962 144.149 136.32 139.162 136.035C138.423 135.968 137.694 135.929 136.954 135.891C135.505 135.814 134.074 135.795 132.769 135.795C131.789 135.794 130.819 135.997 129.922 136.391C129.025 136.785 128.22 137.362 127.558 138.084C126.896 138.807 126.392 139.659 126.077 140.587C125.763 141.515 125.645 142.499 125.732 143.475C125.991 146.355 126.193 149.033 126.346 151.491C126.711 157.251 126.826 161.859 126.74 165.891C126.544 172.511 125.818 179.105 124.57 185.609Z" fill="#005596"/>
<g opacity="0.3">
<path d="M124.57 185.609L157.268 189.795C164.641 164.969 167.07 152.979 167.722 147.209C167.895 145.759 167.556 144.294 166.764 143.067C165.972 141.84 164.776 140.929 163.383 140.489C161.463 139.875 158.986 139.145 156.529 138.569C155.694 138.349 154.839 138.147 154.004 137.955C149.109 136.962 144.149 136.32 139.162 136.035C138.423 135.968 137.694 135.929 136.954 135.891C135.505 135.814 134.074 135.795 132.769 135.795C131.789 135.794 130.819 135.997 129.922 136.391C129.025 136.785 128.22 137.362 127.558 138.084C126.896 138.807 126.392 139.659 126.077 140.587C125.763 141.515 125.645 142.499 125.732 143.475C125.991 146.355 126.193 149.033 126.346 151.491C126.711 157.251 126.826 161.859 126.74 165.891C126.544 172.511 125.818 179.105 124.57 185.609Z" fill="white"/>
</g>
<path opacity="0.3" d="M126.72 165.852C131.04 160.264 132.605 153.871 131.203 150.348L126.326 151.442C126.72 157.183 126.825 161.81 126.72 165.852Z" fill="#005596"/>
<path d="M156.529 138.512C155.684 138.291 154.839 138.089 154.004 137.897C149.105 136.909 144.142 136.267 139.153 135.977C138.414 135.92 137.684 135.881 136.955 135.843L135.678 135.785L136.638 137.465C136.772 137.696 140.036 143.033 148.158 148.774L149.895 149.984L151.566 148.707C153.174 147.553 154.489 146.036 155.403 144.28C156.317 142.524 156.804 140.578 156.827 138.598L156.529 138.512Z" fill="white"/>
<path d="M142.762 126.108C142.455 130.149 141.504 134.268 139.152 135.996C139.152 135.996 142.148 140.978 149.904 146.421C154.762 142.706 154.004 137.897 154.004 137.897C148.839 135.977 149.204 132.396 151.383 126.684L147.351 124.514C147.003 124.131 146.55 123.858 146.048 123.73C145.547 123.602 145.019 123.625 144.53 123.795C144.041 123.964 143.612 124.274 143.298 124.685C142.984 125.097 142.797 125.591 142.762 126.108Z" fill="#FF8B7B"/>
<path opacity="0.2" d="M147.351 124.513C147.025 124.152 146.605 123.888 146.137 123.751C145.67 123.614 145.174 123.609 144.705 123.736C144.235 123.863 143.809 124.118 143.475 124.472C143.141 124.826 142.911 125.265 142.811 125.742C144.342 128.83 146.812 131.354 149.867 132.951C149.976 130.786 150.487 128.661 151.374 126.682L147.351 124.513Z" fill="black"/>
<path d="M136.485 113.436C138.491 121.241 139.173 124.582 143.944 127.836C151.115 132.771 160.264 128.604 160.619 120.367C160.955 112.947 157.624 101.427 149.291 99.7755C147.452 99.3994 145.547 99.5008 143.757 100.07C141.968 100.639 140.355 101.657 139.07 103.027C137.786 104.397 136.874 106.073 136.422 107.895C135.969 109.717 135.991 111.625 136.485 113.436Z" fill="#FF8B7B"/>
<path d="M156.345 101.389C151.645 105.567 146.068 108.641 140.025 110.384C140.025 110.384 145.987 123.065 134.832 119.869C131.596 109.069 134.832 103.462 137.712 100.822C146.582 97.9423 152.822 96.9823 156.345 101.389Z" fill="#263238"/>
<path d="M136.11 121.126C136.764 122.54 137.951 123.637 139.412 124.178C141.332 124.87 142.475 123.218 142.062 121.298C141.688 119.58 140.228 117.142 138.222 117.266C137.788 117.303 137.37 117.447 137.005 117.685C136.64 117.923 136.34 118.247 136.131 118.629C135.922 119.011 135.81 119.439 135.807 119.875C135.803 120.31 135.907 120.74 136.11 121.126Z" fill="#FF8B7B"/>
<path d="M124.331 183.631L122.478 186.367C122.334 186.578 122.574 186.847 122.948 186.895L157.239 191.292C157.537 191.292 157.796 191.215 157.844 191.033L158.516 188.153C158.516 187.951 158.324 187.75 158.007 187.702L124.887 183.458C124.788 183.435 124.683 183.439 124.586 183.469C124.488 183.5 124.4 183.556 124.331 183.631Z" fill="#005596"/>
<path d="M128.295 187.903L127.412 187.788C127.239 187.788 127.114 187.654 127.143 187.548L128.045 183.795C128.08 183.731 128.134 183.682 128.201 183.654C128.267 183.626 128.341 183.621 128.41 183.641L129.303 183.756C129.476 183.756 129.6 183.881 129.572 183.996L128.669 187.74C128.64 187.855 128.477 187.923 128.295 187.903Z" fill="#263238"/>
<path d="M154.705 191.281L153.822 191.175C153.649 191.175 153.524 191.041 153.553 190.926L154.455 187.182C154.455 187.076 154.647 186.999 154.82 187.019L155.713 187.134C155.886 187.134 156.011 187.268 155.982 187.374L155.079 191.127C155.051 191.233 154.887 191.31 154.705 191.281Z" fill="#263238"/>
<path d="M141.504 189.592L140.62 189.477C140.438 189.477 140.313 189.352 140.342 189.237L141.244 185.493C141.244 185.377 141.436 185.31 141.619 185.329L142.502 185.445C142.675 185.445 142.8 185.579 142.78 185.685L141.868 189.438C141.849 189.544 141.676 189.611 141.504 189.592Z" fill="#263238"/>
<path d="M149.857 113.099C149.972 113.742 150.414 114.203 150.817 114.117C151.22 114.03 151.479 113.454 151.355 112.811C151.23 112.168 150.788 111.707 150.395 111.794C150.001 111.88 149.761 112.456 149.857 113.099Z" fill="#263238"/>
<path d="M157.113 111.707C157.238 112.35 157.68 112.801 158.073 112.724C158.467 112.647 158.736 112.052 158.611 111.409C158.486 110.766 158.045 110.315 157.651 110.391C157.257 110.468 156.998 111.063 157.113 111.707Z" fill="#263238"/>
<path d="M157.439 110.47L158.899 109.721C158.899 109.721 158.399 111.084 157.439 110.47Z" fill="#263238"/>
<path d="M155.193 113.148C156.051 114.501 157.088 115.731 158.275 116.806C157.994 117.105 157.65 117.338 157.268 117.489C156.887 117.64 156.477 117.705 156.067 117.68L155.193 113.148Z" fill="#FF5652"/>
<path d="M150.664 120.27C150.635 120.303 150.618 120.346 150.617 120.39C150.616 120.434 150.63 120.478 150.657 120.513C150.685 120.548 150.723 120.572 150.766 120.582C150.809 120.592 150.855 120.587 150.894 120.567C151.62 120.197 152.422 120.004 153.237 120.004C154.051 120.004 154.854 120.197 155.579 120.567C155.623 120.592 155.674 120.599 155.722 120.586C155.771 120.574 155.812 120.543 155.838 120.5C155.864 120.456 155.873 120.404 155.862 120.354C155.852 120.304 155.822 120.26 155.781 120.231C154.998 119.83 154.131 119.621 153.251 119.621C152.371 119.621 151.504 119.83 150.721 120.231C150.721 120.231 150.721 120.25 150.664 120.27Z" fill="#263238"/>
<path d="M147.35 111.122C147.409 111.085 147.456 111.032 147.485 110.968C147.685 110.531 147.986 110.147 148.363 109.848C148.74 109.549 149.182 109.344 149.654 109.25C149.705 109.244 149.754 109.228 149.798 109.203C149.842 109.178 149.881 109.144 149.913 109.104C149.944 109.064 149.967 109.018 149.98 108.969C149.994 108.92 149.997 108.868 149.99 108.818C149.985 108.768 149.971 108.719 149.947 108.675C149.923 108.63 149.89 108.591 149.851 108.56C149.811 108.529 149.766 108.505 149.717 108.492C149.669 108.479 149.618 108.475 149.568 108.482C148.968 108.594 148.403 108.847 147.921 109.221C147.438 109.595 147.052 110.079 146.793 110.632C146.756 110.708 146.745 110.794 146.761 110.877C146.778 110.959 146.821 111.034 146.884 111.09C146.948 111.146 147.028 111.179 147.112 111.185C147.196 111.191 147.28 111.168 147.35 111.122Z" fill="#263238"/>
<path d="M159.275 106.255L159.323 106.207C159.352 106.165 159.373 106.118 159.384 106.069C159.395 106.019 159.396 105.968 159.387 105.918C159.378 105.868 159.36 105.82 159.332 105.778C159.305 105.735 159.269 105.698 159.227 105.669C158.731 105.313 158.157 105.079 157.552 104.989C156.948 104.899 156.331 104.955 155.752 105.151C155.659 105.191 155.586 105.265 155.547 105.358C155.507 105.451 155.505 105.556 155.541 105.65C155.579 105.744 155.653 105.819 155.747 105.859C155.84 105.898 155.946 105.899 156.04 105.861C156.5 105.711 156.989 105.672 157.466 105.749C157.944 105.826 158.396 106.016 158.786 106.303C158.859 106.355 158.949 106.379 159.039 106.371C159.129 106.362 159.213 106.321 159.275 106.255Z" fill="#263238"/>
<path d="M150.211 111.86L151.67 111.121C151.67 111.121 151.104 112.475 150.211 111.86Z" fill="#263238"/>
<path d="M99.946 246.636C98.5998 246.636 97.308 246.105 96.3516 245.157C95.3951 244.21 94.8515 242.923 94.8388 241.577C94.7044 227.945 99.2452 216.434 107.972 208.294C118.714 198.271 135.466 193.615 155.165 195.17C168.98 196.265 177.84 192.905 188.093 188.998C189.783 188.364 191.482 187.711 193.229 187.078C194.502 186.614 195.907 186.676 197.135 187.248C198.363 187.821 199.313 188.857 199.776 190.13C200.24 191.403 200.179 192.808 199.606 194.036C199.033 195.264 197.997 196.214 196.724 196.678C195.024 197.292 193.373 197.926 191.732 198.55C181.277 202.524 170.477 206.623 154.359 205.356C137.559 204.022 123.562 207.718 114.941 215.762C108.221 221.983 104.948 230.633 105.053 241.481C105.06 242.152 104.934 242.817 104.683 243.439C104.432 244.061 104.061 244.628 103.591 245.106C103.122 245.585 102.562 245.966 101.945 246.229C101.328 246.491 100.665 246.63 99.994 246.636H99.946Z" fill="#005596"/>
<path d="M218.061 203.889L197.517 211.415C195.803 212.043 193.91 211.964 192.254 211.196C190.598 210.428 189.314 209.033 188.686 207.319L180.203 184.162C179.575 182.448 179.654 180.554 180.422 178.898C181.19 177.242 182.584 175.959 184.298 175.331L204.842 167.805L218.051 203.862L218.061 203.889Z" fill="#005596"/>
<path opacity="0.7" d="M218.061 203.889L197.517 211.415C195.803 212.043 193.91 211.964 192.254 211.196C190.598 210.428 189.314 209.033 188.686 207.319L180.203 184.162C179.575 182.448 179.654 180.554 180.422 178.898C181.19 177.242 182.584 175.959 184.298 175.331L204.842 167.805L218.051 203.862L218.061 203.889Z" fill="white"/>
<path opacity="0.2" d="M195.687 171.151L204.855 167.801L218.064 203.878L208.896 207.238C208.286 206.647 207.82 205.925 207.533 205.126L196.013 173.647C195.712 172.852 195.6 171.997 195.687 171.151Z" fill="#005596"/>
<path d="M225.442 176.787L224.541 177.117L226.74 183.121L227.642 182.79L225.442 176.787Z" fill="#005596"/>
<path d="M223.153 173.377L219.918 164.526C219.363 163.025 218.362 161.73 217.049 160.815C215.736 159.901 214.174 159.41 212.574 159.409C211.664 159.407 210.76 159.566 209.905 159.88L204.068 162.02L203.732 161.118L209.579 158.977C210.538 158.626 211.552 158.447 212.574 158.449C214.372 158.453 216.126 159.008 217.6 160.037C219.074 161.067 220.198 162.523 220.82 164.209L224.056 173.06L223.153 173.377Z" fill="#005596"/>
<path d="M218.219 206.474L226.792 203.373C229.593 202.36 231.042 199.268 230.029 196.468L218.393 164.297C217.38 161.496 214.288 160.047 211.487 161.06L202.914 164.161C200.113 165.174 198.664 168.266 199.677 171.067L211.313 203.237C212.326 206.038 215.418 207.487 218.219 206.474Z" fill="#005596"/>
<path d="M213.313 174.059C213.509 174.594 213.542 175.175 213.407 175.729C213.272 176.283 212.976 176.784 212.556 177.17C212.136 177.555 211.611 177.807 211.048 177.894C210.485 177.981 209.908 177.899 209.392 177.658C208.875 177.417 208.442 177.029 208.146 176.541C207.85 176.054 207.706 175.49 207.731 174.921C207.757 174.351 207.95 173.802 208.288 173.343C208.625 172.884 209.091 172.535 209.627 172.34C210.344 172.081 211.134 172.116 211.825 172.438C212.516 172.76 213.051 173.343 213.313 174.059Z" fill="#263238"/>
<path d="M220.484 193.634C220.679 194.169 220.711 194.75 220.576 195.303C220.441 195.856 220.145 196.357 219.726 196.742C219.306 197.127 218.782 197.379 218.219 197.466C217.657 197.553 217.081 197.472 216.564 197.232C216.048 196.992 215.614 196.604 215.318 196.118C215.022 195.631 214.877 195.068 214.901 194.499C214.925 193.93 215.117 193.381 215.453 192.921C215.789 192.461 216.254 192.112 216.788 191.916C217.144 191.786 217.522 191.727 217.9 191.743C218.278 191.759 218.649 191.849 218.993 192.009C219.336 192.168 219.644 192.394 219.9 192.673C220.156 192.952 220.355 193.278 220.484 193.634Z" fill="#263238"/>
<path d="M136.32 191.321L136.243 191.234C134.745 189.737 133.161 188.105 131.731 186.434C130.3 184.764 128.899 183.094 127.622 181.366C126.37 179.68 125.232 177.913 124.214 176.076C123.486 174.762 122.866 173.391 122.361 171.977C122.937 170.057 123.552 168.137 124.281 166.294C125.116 164.076 126.057 161.897 127.084 159.746C128.112 157.596 129.206 155.484 130.387 153.42C130.963 152.383 131.568 151.356 132.192 150.348L133.152 148.87C133.449 148.39 133.804 147.91 134.054 147.497L134.16 147.343C134.842 146.303 135.094 145.038 134.862 143.816C134.63 142.594 133.933 141.509 132.917 140.791C131.902 140.073 130.647 139.777 129.417 139.966C128.187 140.155 127.079 140.814 126.326 141.804C125.846 142.457 125.481 142.975 125.097 143.542C124.713 144.108 124.368 144.674 124.003 145.241C123.302 146.374 122.62 147.516 121.968 148.678C120.669 150.995 119.493 153.379 118.444 155.82C117.907 157.03 117.484 158.268 116.937 159.506C116.39 160.745 116.025 162.002 115.641 163.289C114.826 165.838 114.156 168.431 113.635 171.055V171.276C113.486 171.976 113.536 172.705 113.779 173.378C114.709 175.84 115.944 178.175 117.456 180.329C118.879 182.373 120.465 184.299 122.198 186.089C123.886 187.813 125.679 189.432 127.564 190.937C129.449 192.44 131.428 193.822 133.488 195.074C133.988 195.367 134.577 195.467 135.146 195.356C135.715 195.245 136.223 194.93 136.577 194.471C136.93 194.012 137.104 193.439 137.065 192.861C137.027 192.283 136.779 191.739 136.368 191.33L136.32 191.321Z" fill="#FF8B7B"/>
<path d="M147.477 196.092L147.352 195.842C146.953 195.01 146.367 194.282 145.639 193.716C144.911 193.149 144.061 192.76 143.157 192.578L135.87 191.1L132.309 192.876C132.693 196.869 138.395 199.26 138.395 199.26L140.017 201.112C140.564 201.734 141.322 202.131 142.144 202.229C142.966 202.326 143.795 202.117 144.472 201.64L146.392 200.268C147.037 199.812 147.5 199.143 147.699 198.378C147.897 197.614 147.819 196.804 147.477 196.092Z" fill="#FF8B7B"/>
<path d="M129.784 136.408C125.742 138.261 121.441 144.673 121.441 144.673L130.081 160.849C130.081 160.849 139.902 149.531 139.077 143.867C138.405 139.057 134.929 134.046 129.784 136.408Z" fill="#005596"/>
<g opacity="0.3">
<path d="M129.784 136.408C125.742 138.261 121.441 144.673 121.441 144.673L130.081 160.849C130.081 160.849 139.902 149.531 139.077 143.867C138.405 139.057 134.929 134.046 129.784 136.408Z" fill="white"/>
</g>
<path d="M406.358 348.358C397.901 348.358 389.587 346.62 385.555 341.36C366.47 316.4 366.643 266.192 366.806 217.606C366.902 191.446 368.966 166.726 366.058 147.526C364.349 136.208 358.378 128.441 352.349 124.428C343.402 118.515 331.114 121.692 325.862 123.046C325.208 123.229 324.524 123.279 323.85 123.194C323.177 123.11 322.526 122.891 321.938 122.552C321.35 122.213 320.835 121.76 320.423 121.219C320.012 120.679 319.713 120.062 319.543 119.404C319.373 118.747 319.336 118.062 319.434 117.39C319.532 116.718 319.764 116.072 320.114 115.49C320.465 114.909 320.928 114.403 321.477 114.002C322.025 113.602 322.648 113.315 323.309 113.158C329.866 111.459 345.245 107.494 357.974 115.904C366.566 121.577 373.997 131.705 376.157 146C379.181 165.968 377.117 191.052 377.021 217.606C376.858 264.483 376.694 312.953 393.667 335.12C395.04 336.905 400.387 338.508 409.267 338.048C410.054 338.048 410.822 337.961 411.581 337.894C411.237 337.199 411.06 336.433 411.062 335.657C411.062 334.303 411.6 333.004 412.558 332.046C413.516 331.088 414.815 330.55 416.17 330.55C427.334 330.55 433.21 331.51 434.342 336.617C434.669 338.086 434.842 341.772 429.446 344.297C425.414 346.188 415.795 348.358 406.358 348.358Z" fill="#005596"/>
<path d="M294.596 352.764L284.18 348.665L289.671 330.607L300.097 334.697L294.596 352.764Z" fill="#FFC3BD"/>
<path d="M283.929 347.562L295.679 352.17C295.828 352.231 295.952 352.339 296.032 352.478C296.112 352.617 296.144 352.779 296.121 352.938L294.969 360.253C294.939 360.43 294.87 360.598 294.766 360.744C294.663 360.891 294.528 361.012 294.371 361.1C294.215 361.187 294.041 361.239 293.862 361.25C293.683 361.261 293.503 361.232 293.337 361.165C290.39 359.946 285.772 357.93 282.038 356.461C279.743 355.559 275.375 354.119 272.198 352.871C269.02 351.623 269.846 348.32 271.238 348.551C277.564 349.568 279.983 348.484 282.508 347.543C282.967 347.367 283.475 347.374 283.929 347.562Z" fill="#263238"/>
<path opacity="0.2" d="M300.095 334.707L289.67 330.607L286.838 339.919L297.263 344.019L300.095 334.707Z" fill="black"/>
<path d="M313.124 194.932C313.124 194.932 303.697 241.53 300.097 264.512C296.046 290.269 285.342 337.319 285.342 337.319L299.195 342.762C299.195 342.762 318.98 294.589 321.735 271.261C330.039 252.301 346.551 196.506 346.551 196.506L313.124 194.932Z" fill="#005596"/>
<path d="M284.668 337.396L299.874 343.377L302.476 338.769L285.474 331.723L284.668 337.396Z" fill="#263238"/>
<path d="M280.945 347.762C280.414 347.597 279.955 347.259 279.639 346.802C279.552 346.633 279.506 346.445 279.506 346.255C279.506 346.064 279.552 345.877 279.639 345.708C279.678 345.603 279.746 345.512 279.834 345.444C279.922 345.376 280.027 345.335 280.138 345.324C281.146 345.218 283.018 347.676 283.201 347.964C283.221 347.995 283.232 348.032 283.232 348.069C283.232 348.107 283.221 348.143 283.201 348.175C283.181 348.206 283.152 348.231 283.118 348.247C283.083 348.262 283.046 348.267 283.009 348.261C282.305 348.17 281.613 348.003 280.945 347.762ZM280.436 345.756C280.359 345.717 280.272 345.701 280.186 345.708C280.129 345.708 280.061 345.708 279.994 345.871C279.93 345.985 279.897 346.114 279.897 346.245C279.897 346.376 279.93 346.505 279.994 346.62C280.273 347.128 281.233 347.58 282.625 347.81C282.04 346.986 281.296 346.287 280.436 345.756Z" fill="#005596"/>
<path d="M282.989 348.253C282.958 348.242 282.931 348.222 282.912 348.195C282.297 347.465 281.433 345.209 281.952 344.432C282.032 344.311 282.151 344.222 282.289 344.178C282.427 344.134 282.575 344.139 282.71 344.192C282.853 344.228 282.986 344.294 283.102 344.385C283.218 344.476 283.313 344.59 283.382 344.72C283.977 345.785 283.305 348.032 283.277 348.128C283.265 348.162 283.245 348.192 283.218 348.216C283.191 348.24 283.158 348.255 283.123 348.262C283.102 348.273 283.078 348.277 283.055 348.275C283.031 348.274 283.008 348.266 282.989 348.253ZM282.662 344.585H282.585C282.336 344.528 282.278 344.585 282.249 344.672C281.961 345.133 282.432 346.765 282.979 347.657C283.253 346.769 283.253 345.819 282.979 344.931C282.918 344.782 282.806 344.659 282.662 344.585Z" fill="#005596"/>
<path opacity="0.2" d="M333.447 223.145C328.225 229.615 326.161 246.108 326.18 259.855C329.703 250.149 333.745 237.823 337.297 226.629L333.447 223.145Z" fill="black"/>
<path d="M357.283 354.502H346.09L344.602 335.686H355.795L357.283 354.502Z" fill="#FFC3BD"/>
<path d="M345.457 353.563H358.081C358.243 353.561 358.4 353.616 358.526 353.718C358.652 353.819 358.739 353.961 358.772 354.119L360.375 361.339C360.413 361.515 360.41 361.697 360.367 361.872C360.325 362.047 360.243 362.211 360.129 362.35C360.015 362.489 359.87 362.601 359.707 362.677C359.543 362.753 359.365 362.791 359.185 362.788C355.998 362.731 350.977 362.539 346.964 362.539C344.487 362.539 339.898 362.798 336.49 362.798C333.082 362.798 332.65 359.428 334.023 359.121C340.292 357.748 342.154 355.867 344.151 354.062C344.511 353.742 344.975 353.564 345.457 353.563Z" fill="#263238"/>
<path opacity="0.2" d="M355.795 335.688H344.592L345.369 345.393H356.573L355.795 335.688Z" fill="black"/>
<path d="M326.678 195.516C326.678 195.516 332.879 247.442 334.185 266.133C335.999 292.149 343.017 343.509 343.017 343.509H357.897C357.897 343.509 359.491 291.055 356.803 267.717C360.508 247.356 359.337 197.08 359.337 197.08L326.678 195.516Z" fill="#005596"/>
<path d="M342.422 343.828H358.762L359.501 338.596L341.098 338.25L342.422 343.828Z" fill="#263238"/>
<path d="M342.72 354.837C342.167 354.879 341.616 354.734 341.155 354.425C341.012 354.299 340.901 354.141 340.83 353.964C340.76 353.788 340.733 353.596 340.752 353.407C340.752 353.294 340.783 353.183 340.842 353.086C340.902 352.989 340.987 352.911 341.088 352.86C341.99 352.399 344.611 354.012 344.928 354.194C344.961 354.213 344.988 354.241 345.005 354.276C345.022 354.31 345.029 354.348 345.024 354.386C345.015 354.425 344.996 354.46 344.969 354.489C344.942 354.517 344.908 354.538 344.87 354.549C344.166 354.726 343.445 354.823 342.72 354.837ZM341.51 353.157C341.424 353.152 341.338 353.169 341.26 353.205C341.212 353.205 341.155 353.282 341.145 353.426C341.125 353.555 341.139 353.688 341.184 353.81C341.229 353.933 341.305 354.042 341.404 354.127C341.846 354.501 342.912 354.549 344.284 354.271C343.449 353.727 342.517 353.349 341.539 353.157H341.51Z" fill="#005596"/>
<path d="M344.833 354.551H344.737C343.902 354.09 342.27 352.314 342.442 351.402C342.471 351.261 342.548 351.133 342.66 351.042C342.772 350.951 342.912 350.902 343.057 350.903C343.202 350.882 343.35 350.893 343.491 350.934C343.632 350.976 343.762 351.047 343.873 351.143C344.833 351.92 345.015 354.263 345.025 354.359C345.027 354.394 345.02 354.429 345.005 354.461C344.99 354.493 344.967 354.52 344.938 354.541C344.905 354.553 344.868 354.556 344.833 354.551ZM343.191 351.258H343.105C342.855 351.258 342.836 351.412 342.826 351.46C342.721 351.988 343.786 353.38 344.593 353.975C344.534 353.047 344.2 352.158 343.633 351.421C343.508 351.319 343.353 351.261 343.191 351.258Z" fill="#005596"/>
<path d="M331.814 123.91L322.848 123.795C319.833 123.795 316.838 123.699 313.872 123.651C312.969 123.651 312.086 123.593 311.193 123.555C311.251 123.555 311.289 123.449 311.337 123.401C311.971 122.729 312.605 122.038 313.257 121.376C313.584 121.03 313.904 120.694 314.217 120.368C314.515 120.041 314.899 119.677 315.101 119.408L315.917 118.371C316.56 117.551 316.928 116.548 316.97 115.507C317.011 114.465 316.724 113.437 316.148 112.568C315.572 111.698 314.737 111.033 313.762 110.665C312.786 110.297 311.72 110.246 310.713 110.518L308.937 110.998C308.39 111.161 307.843 111.344 307.296 111.526C306.221 111.901 305.165 112.313 304.118 112.765C302.01 113.696 299.972 114.78 298.022 116.009C296.002 117.3 294.092 118.755 292.31 120.358C290.424 122.073 288.716 123.974 287.213 126.032C286.833 126.545 286.511 127.099 286.253 127.683C285.361 129.726 285.317 132.04 286.131 134.116C286.945 136.191 288.549 137.859 290.592 138.752L291.465 139.136C293.438 139.985 295.481 140.659 297.571 141.152C299.395 141.622 301.123 141.929 302.822 142.217C304.521 142.505 306.182 142.736 307.833 142.937C309.485 143.139 311.117 143.293 312.749 143.427C316.003 143.715 319.229 143.859 322.445 143.955C325.661 144.051 328.809 144.051 332.15 143.897C334.755 143.786 337.214 142.662 339.002 140.765C340.791 138.868 341.768 136.347 341.726 133.74C341.683 131.133 340.624 128.646 338.775 126.808C336.925 124.97 334.431 123.927 331.824 123.901L331.814 123.91Z" fill="#FFC3BD"/>
<path d="M337.037 141.431C329.29 150.263 310.646 146.96 310.646 146.96L311.674 124.957C318.064 123.551 324.581 122.795 331.123 122.701C342.067 122.682 343.238 134.346 337.037 141.431Z" fill="#263238"/>
<path d="M316.358 134.663C315.898 138.215 315.398 142.996 315.101 149.428C311.059 169.876 309.552 184.362 313.123 194.932C315.946 198.416 352.723 197.744 359.338 197.072C363.178 187.568 363.581 160.285 364.032 137.351C364.089 134.19 363.011 131.114 360.994 128.68C358.978 126.247 356.156 124.616 353.04 124.084C344.764 122.617 336.321 122.332 327.965 123.239C325.032 123.572 322.295 124.879 320.192 126.949C318.088 129.02 316.739 131.736 316.358 134.663Z" fill="#263238"/>
<path opacity="0.2" d="M352.041 148.621C352.166 155.61 357.235 166.775 362.937 172.439C363.283 166.535 363.503 160.132 363.676 153.671L352.041 148.621Z" fill="black"/>
<path d="M384.086 162.205L383.759 161.437C382.417 158.235 380.849 155.133 379.065 152.154C377.356 149.274 375.513 146.557 373.603 143.936C371.692 141.316 369.667 138.81 367.593 136.372C366.537 135.162 365.491 133.952 364.387 132.781L362.726 131.034L360.959 129.248C359.109 127.421 356.62 126.387 354.02 126.364C351.42 126.341 348.913 127.331 347.03 129.125C345.148 130.919 344.038 133.375 343.935 135.973C343.833 138.571 344.747 141.107 346.483 143.044L346.771 143.36L352.406 149.629C354.326 151.76 356.159 153.93 357.983 156.09C358.866 157.175 359.779 158.26 360.604 159.364C361.43 160.468 362.303 161.533 363.129 162.628C364.319 164.288 365.471 165.94 366.498 167.562C366.341 168.381 366.143 169.192 365.903 169.991C365.213 172.316 364.403 174.604 363.474 176.845C362.514 179.216 361.497 181.645 360.441 184.036C359.385 186.426 358.252 188.922 357.244 191.322L357.148 191.533C356.706 192.594 356.639 193.774 356.958 194.878C357.277 195.983 357.963 196.945 358.903 197.606C359.843 198.268 360.981 198.589 362.128 198.516C363.275 198.443 364.363 197.982 365.212 197.207C367.33 195.244 369.339 193.167 371.231 190.986C373.151 188.829 374.953 186.557 376.636 184.17C377.49 182.97 378.307 181.722 379.113 180.426C379.951 179.108 380.716 177.746 381.407 176.346C382.185 174.819 382.858 173.241 383.423 171.623C384.16 169.551 384.574 167.379 384.652 165.181C384.677 164.16 384.484 163.146 384.086 162.205Z" fill="#FFC3BD"/>
<path d="M353.693 124.207C366.643 126.425 375.081 143.955 375.081 143.955L359.472 160.745C359.472 160.745 350.477 151.587 345.072 143.1C339.245 133.865 344.419 122.633 353.693 124.207Z" fill="#263238"/>
<path d="M330.039 96.5698C327.869 92.9314 327.159 87.9298 331.133 82.8322C330.359 82.9293 329.573 82.7995 328.871 82.4587C328.169 82.1179 327.58 81.5807 327.178 80.9122C331.53 77.3517 337.002 75.4471 342.624 75.5362C354.24 75.5362 355.104 80.0194 354.711 83.0818C362.659 83.5906 368.458 104.259 348.307 107.917C336.778 95.773 330.039 96.5698 330.039 96.5698Z" fill="#263238"/>
<path d="M353.981 83.4562C353.981 83.4562 357.216 80.1538 353.193 76.1602C354.095 76.4074 354.917 76.884 355.58 77.5435C356.243 78.203 356.724 79.0229 356.976 79.9234C357.542 82.2466 355.977 84.109 353.981 83.4562Z" fill="#263238"/>
<path d="M349.527 105.393C349.22 111.757 348.644 118.996 349.709 124.074C348.058 126.676 343.834 129.671 336.269 130.343C333.581 128.817 330.029 125.082 331.268 123.162C334.484 121.098 335.847 114.849 334.925 110.173L349.527 105.393Z" fill="#FFC3BD"/>
<path opacity="0.2" d="M345.841 106.592L334.906 110.173C335.278 112.164 335.294 114.205 334.954 116.201C338.218 116.096 342.74 113.638 344.439 111.334C344.993 110.686 345.403 109.929 345.645 109.112C345.886 108.295 345.953 107.436 345.841 106.592Z" fill="black"/>
<path d="M352.713 95.3127C350.688 103.118 349.901 107.793 345.12 111.066C337.929 115.991 328.886 110.471 328.531 102.225C328.224 94.7943 331.584 83.2743 339.936 81.6327C341.775 81.2639 343.678 81.3714 345.463 81.945C347.249 82.5186 348.859 83.5392 350.139 84.91C351.419 86.2807 352.328 87.956 352.778 89.7767C353.229 91.5974 353.207 93.5031 352.713 95.3127Z" fill="#FFC3BD"/>
<path d="M351.1 84.1367C347.673 86.5751 343.42 96.9047 352.06 101.052C359.817 94.2359 357.811 84.1367 351.1 84.1367Z" fill="#263238"/>
<path d="M353.08 85.3756C354.548 78.5788 337.393 75.0652 331.96 83.0044C330.116 87.7852 352.043 92.0092 353.08 85.3756Z" fill="#263238"/>
<path d="M340.282 103.596C338.5 102.791 336.589 102.306 334.637 102.166C334.61 102.166 334.583 102.172 334.558 102.182C334.533 102.193 334.51 102.209 334.491 102.228C334.472 102.248 334.458 102.272 334.448 102.297C334.439 102.323 334.434 102.35 334.436 102.377C334.447 102.439 334.478 102.496 334.525 102.538C334.572 102.58 334.632 102.604 334.695 102.608C336.565 102.743 338.398 103.204 340.109 103.971C340.163 103.994 340.224 103.997 340.279 103.977C340.334 103.957 340.38 103.917 340.407 103.865C340.418 103.839 340.423 103.812 340.422 103.784C340.422 103.756 340.415 103.729 340.403 103.703C340.392 103.678 340.375 103.656 340.354 103.637C340.333 103.619 340.309 103.605 340.282 103.596Z" fill="#263238"/>
<path d="M354.586 103.847C353.195 105.324 351.276 106.19 349.249 106.257C346.561 106.314 345.879 103.751 347.175 101.562C348.346 99.6423 351.149 97.1846 353.588 98.1638C356.026 99.143 356.276 102.013 354.586 103.847Z" fill="#FFC3BD"/>
<path d="M340.301 95.1778C340.176 95.821 339.734 96.2818 339.341 96.1954C338.947 96.109 338.688 95.5235 338.813 94.8803C338.938 94.2371 339.379 93.7859 339.773 93.9203C340.166 94.0547 340.426 94.5058 340.301 95.1778Z" fill="#263238"/>
<path d="M333.034 93.767C332.91 94.4102 332.468 94.8614 332.074 94.7846C331.681 94.7078 331.412 94.1126 331.537 93.4694C331.662 92.8262 332.103 92.3654 332.497 92.4518C332.89 92.5382 333.121 93.1238 333.034 93.767Z" fill="#263238"/>
<path d="M335.28 94.5059C334.128 96.3228 332.733 97.9734 331.133 99.4115C332.093 100.688 334.214 100.439 334.214 100.439L335.28 94.5059Z" fill="#ED847E"/>
<path d="M339.255 91.4432C339.324 91.4281 339.395 91.4308 339.462 91.451C339.529 91.4712 339.59 91.5081 339.639 91.5583C339.947 91.9309 340.339 92.2252 340.783 92.4171C341.227 92.609 341.71 92.693 342.193 92.6624C342.294 92.6485 342.397 92.6749 342.48 92.7358C342.562 92.7968 342.618 92.8875 342.634 92.9888C342.642 93.0387 342.64 93.0898 342.628 93.1389C342.616 93.188 342.594 93.2342 342.563 93.2745C342.533 93.3149 342.495 93.3487 342.451 93.3738C342.407 93.399 342.358 93.4149 342.308 93.4207C341.698 93.4698 341.086 93.3726 340.521 93.1371C339.957 92.9017 339.457 92.5349 339.063 92.0672C339.027 92.0323 338.998 91.9905 338.979 91.9443C338.959 91.8981 338.949 91.8485 338.949 91.7983C338.949 91.7482 338.959 91.6986 338.979 91.6524C338.998 91.6062 339.027 91.5644 339.063 91.5295C339.12 91.4872 339.186 91.4577 339.255 91.4432Z" fill="#263238"/>
<path d="M330.787 89.3114C330.707 89.2949 330.635 89.2507 330.585 89.1866C330.553 89.1466 330.529 89.1005 330.515 89.0511C330.501 89.0016 330.497 88.9498 330.503 88.8988C330.509 88.8478 330.526 88.7985 330.551 88.754C330.577 88.7094 330.611 88.6704 330.652 88.6394C331.124 88.253 331.681 87.9844 332.277 87.8559C332.873 87.7273 333.491 87.7425 334.079 87.9002C334.177 87.9331 334.257 88.0028 334.304 88.0942C334.35 88.1857 334.36 88.2918 334.329 88.3898C334.291 88.4825 334.22 88.558 334.13 88.6021C334.039 88.6463 333.936 88.6562 333.839 88.6298C333.37 88.5102 332.879 88.5035 332.407 88.6103C331.935 88.7171 331.495 88.9343 331.123 89.2442C331.078 89.2845 331.023 89.312 330.964 89.3239C330.905 89.3357 330.844 89.3314 330.787 89.3114Z" fill="#263238"/>
<path d="M361.776 191.042L353.529 190.984L357.792 200.45C357.792 200.45 364.828 198.943 364.444 195.122L361.776 191.042Z" fill="#FFC3BD"/>
<path d="M349.335 197.484L350.689 200.152C351.053 200.863 351.669 201.412 352.416 201.693C353.163 201.973 353.989 201.965 354.73 201.669L357.793 200.45L353.53 190.984L350.257 193.48C349.657 193.933 349.236 194.582 349.068 195.314C348.899 196.046 348.994 196.814 349.335 197.484Z" fill="#FFC3BD"/>
<path d="M299.002 184.074C298.005 184.063 297.034 183.763 296.206 183.208C295.378 182.654 294.731 181.869 294.342 180.952C293.954 180.035 293.842 179.024 294.02 178.043C294.198 177.063 294.658 176.156 295.344 175.434C299.011 171.651 302.323 168.714 305.242 166.151C312.288 159.939 314.717 157.511 314.486 152.855C314.142 149.982 313.531 147.147 312.662 144.387C310.56 136.659 308.179 127.914 312.259 120.896C314.448 117.123 318.163 114.541 323.309 113.216C324.61 112.907 325.98 113.121 327.125 113.811C328.27 114.502 329.099 115.614 329.433 116.908C329.767 118.203 329.581 119.577 328.913 120.735C328.245 121.894 327.15 122.744 325.862 123.104C322.243 124.064 321.37 125.533 321.062 126.032C319.142 129.344 320.995 136.199 322.493 141.699C323.577 145.168 324.304 148.739 324.662 152.355C325.142 162.195 319.334 167.322 311.971 173.811C309.197 176.269 306.038 179.053 302.64 182.547C302.166 183.032 301.6 183.416 300.975 183.678C300.35 183.94 299.679 184.075 299.002 184.074Z" fill="#005596"/>
<path d="M310.205 110.73L318.192 108.686L316.33 118.9C316.33 118.9 309.139 119.121 308.602 115.329L310.205 110.73Z" fill="#FFC3BD"/>
<path d="M323.799 114.1L323.184 116.769C322.996 117.584 322.509 118.299 321.82 118.773C321.13 119.248 320.288 119.447 319.46 119.332L316.33 118.9L318.192 108.686L321.86 110.27C322.58 110.58 323.169 111.133 323.523 111.833C323.878 112.533 323.975 113.335 323.799 114.1Z" fill="#FFC3BD"/>
<path d="M296.146 167.276L295.928 167.059C294.957 166.088 293.383 166.088 292.412 167.059L264.103 195.378C263.133 196.349 263.133 197.923 264.104 198.894L264.321 199.111C265.292 200.082 266.867 200.082 267.838 199.111L296.146 170.792C297.117 169.821 297.117 168.247 296.146 167.276Z" fill="#263238"/>
<path d="M310.899 182.011L310.682 181.793C309.711 180.822 308.137 180.822 307.166 181.793L278.852 210.107C277.881 211.078 277.881 212.652 278.852 213.623L279.069 213.841C280.04 214.812 281.615 214.812 282.586 213.841L310.899 185.527C311.87 184.556 311.87 182.982 310.899 182.011Z" fill="#263238"/>
<path d="M273.035 177.816L292.986 157.866C293.625 157.227 294.384 156.72 295.219 156.374C296.054 156.028 296.949 155.85 297.853 155.85C298.757 155.85 299.652 156.028 300.487 156.374C301.322 156.72 302.081 157.227 302.72 157.866L320.159 175.305C320.798 175.944 321.305 176.703 321.651 177.538C321.997 178.373 322.175 179.268 322.175 180.172C322.175 181.076 321.997 181.971 321.651 182.806C321.305 183.641 320.798 184.4 320.159 185.039L300.208 204.99L273.035 177.816Z" fill="#005596"/>
<path opacity="0.7" d="M273.035 177.816L292.986 157.866C293.625 157.227 294.384 156.72 295.219 156.374C296.054 156.028 296.949 155.85 297.853 155.85C298.757 155.85 299.652 156.028 300.487 156.374C301.322 156.72 302.081 157.227 302.72 157.866L320.159 175.305C320.798 175.944 321.305 176.703 321.651 177.538C321.997 178.373 322.175 179.268 322.175 180.172C322.175 181.076 321.997 181.971 321.651 182.806C321.305 183.641 320.798 184.4 320.159 185.039L300.208 204.99L273.035 177.816Z" fill="white"/>
<path opacity="0.2" d="M279.918 170.883L273.006 177.785L300.183 204.963L307.086 198.051C306.811 197.247 306.355 196.518 305.751 195.92L282.049 172.265C281.456 171.645 280.726 171.171 279.918 170.883Z" fill="#005596"/>
<path d="M271.84 174.305L271.344 174.8C269.237 176.907 269.237 180.323 271.344 182.43L295.544 206.63C297.651 208.737 301.067 208.737 303.174 206.63L303.67 206.135C305.777 204.028 305.777 200.612 303.67 198.505L279.47 174.305C277.363 172.198 273.947 172.198 271.84 174.305Z" fill="#005596"/>
<path d="M347.059 1.34766H132.941C128.476 1.34766 124.857 4.96663 124.857 9.43086V48.4837C124.857 52.9479 128.476 56.5669 132.941 56.5669H347.059C351.523 56.5669 355.142 52.9479 355.142 48.4837V9.43086C355.142 4.96663 351.523 1.34766 347.059 1.34766Z" fill="white"/>
<path d="M347.059 57.2767H132.979C130.648 57.2742 128.413 56.3469 126.764 54.6983C125.115 53.0497 124.188 50.8145 124.186 48.4831V9.43032C124.188 7.09889 125.115 4.86368 126.764 3.21511C128.413 1.56654 130.648 0.63926 132.979 0.636719H347.059C349.391 0.63926 351.626 1.56654 353.274 3.21511C354.923 4.86368 355.85 7.09889 355.853 9.43032V48.4831C355.85 50.8145 354.923 53.0497 353.274 54.6983C351.626 56.3469 349.391 57.2742 347.059 57.2767ZM132.979 2.05752C131.025 2.06006 129.151 2.83765 127.769 4.21977C126.386 5.60188 125.609 7.47571 125.606 9.43032V48.4831C125.609 50.4377 126.386 52.3115 127.769 53.6937C129.151 55.0758 131.025 55.8534 132.979 55.8559H347.059C349.014 55.8534 350.888 55.0758 352.27 53.6937C353.652 52.3115 354.429 50.4377 354.432 48.4831V9.43032C354.429 7.47571 353.652 5.60188 352.27 4.21977C350.888 2.83765 349.014 2.06006 347.059 2.05752H132.979Z" fill="#263238"/>
<g opacity="0.4">
<path d="M143.789 38.5572V17.7828H151.623C152.682 17.7629 153.741 17.8271 154.791 17.9748C155.704 18.1066 156.579 18.4341 157.354 18.9348C158.073 19.4476 158.645 20.1392 159.015 20.9412C159.575 22.1315 159.774 23.46 159.586 24.7621C159.398 26.0642 158.832 27.2825 157.959 28.266C156.839 29.482 154.81 30.0932 151.872 30.0996H146.535V38.5476L143.789 38.5572ZM146.535 27.6612H151.911C153.245 27.7977 154.585 27.4576 155.693 26.7012C156.074 26.349 156.373 25.9166 156.567 25.4352C156.761 24.9539 156.846 24.4354 156.816 23.9172C156.839 23.1202 156.607 22.3368 156.154 21.6804C155.736 21.0804 155.121 20.6457 154.416 20.4516C153.571 20.3012 152.711 20.2401 151.853 20.2692H146.535V27.6612Z" fill="#263238"/>
<path d="M172.647 36.7042C171.838 37.4163 170.917 37.9903 169.921 38.4034C169.02 38.7342 168.067 38.9001 167.108 38.893C165.721 38.9895 164.349 38.5573 163.268 37.6834C162.836 37.2955 162.493 36.8179 162.264 36.284C162.035 35.7502 161.926 35.1728 161.943 34.5922C161.934 33.8854 162.106 33.1881 162.442 32.5666C162.773 31.9975 163.23 31.5115 163.777 31.1458C164.343 30.7722 164.965 30.4903 165.62 30.3106C166.367 30.1388 167.124 30.0106 167.886 29.9266C169.427 29.7862 170.952 29.4936 172.436 29.053C172.436 28.7074 172.436 28.477 172.436 28.3906C172.479 27.9941 172.437 27.593 172.312 27.2139C172.188 26.8349 171.985 26.4866 171.716 26.1922C170.892 25.5655 169.869 25.2585 168.836 25.3282C167.907 25.2608 166.979 25.4785 166.177 25.9522C165.516 26.5349 165.07 27.3226 164.91 28.189L162.414 27.8434C162.586 26.908 162.97 26.0246 163.537 25.261C164.131 24.5534 164.913 24.0276 165.793 23.7442C166.893 23.3715 168.049 23.1928 169.21 23.2162C170.272 23.1798 171.332 23.3326 172.34 23.6674C172.997 23.854 173.587 24.224 174.041 24.7342C174.495 25.2443 174.794 25.8733 174.903 26.5474C175.009 27.3266 175.051 28.1133 175.028 28.8994V32.2978C174.991 33.8005 175.045 35.3041 175.191 36.8002C175.307 37.4324 175.524 38.0419 175.834 38.605H173.175C172.883 38.0095 172.704 37.365 172.647 36.7042ZM172.436 31.0018C171.09 31.4845 169.691 31.8068 168.27 31.9618C167.509 32.0434 166.761 32.2175 166.042 32.4802C165.631 32.6472 165.279 32.9351 165.034 33.3058C164.751 33.7579 164.639 34.2958 164.716 34.8235C164.793 35.3511 165.056 35.834 165.457 36.1858C166.098 36.6852 166.902 36.9281 167.713 36.8674C168.627 36.885 169.531 36.6632 170.334 36.2242C171.068 35.8265 171.658 35.2087 172.023 34.4578C172.337 33.648 172.478 32.7813 172.436 31.9138V31.0018Z" fill="#263238"/>
<path d="M178.503 39.786L180.98 40.1508C181.002 40.4736 181.09 40.7884 181.239 41.0757C181.387 41.3631 181.594 41.6168 181.844 41.8212C182.607 42.3359 183.518 42.5855 184.436 42.5316C185.401 42.5947 186.36 42.3456 187.172 41.8212C187.824 41.3336 188.286 40.6344 188.478 39.8436C188.649 38.7614 188.711 37.6646 188.66 36.57C188.157 37.185 187.52 37.6774 186.798 38.01C186.076 38.3427 185.288 38.5068 184.494 38.49C183.572 38.5356 182.653 38.3558 181.817 37.966C180.98 37.5762 180.252 36.9883 179.694 36.2532C178.539 34.7029 177.937 32.8099 177.985 30.8772C177.97 29.5123 178.238 28.1591 178.772 26.9028C179.231 25.7636 180.016 24.7852 181.028 24.09C182.066 23.4256 183.281 23.091 184.513 23.13C185.362 23.1188 186.201 23.3076 186.964 23.6812C187.726 24.0548 188.389 24.6026 188.9 25.2804V23.466H191.252V36.5124C191.356 38.2042 191.115 39.8995 190.542 41.4948C190.048 42.4901 189.251 43.3033 188.267 43.818C187.079 44.4219 185.758 44.7127 184.427 44.6628C182.882 44.7362 181.354 44.3123 180.068 43.4532C179.516 43.0263 179.083 42.4651 178.809 41.8232C178.535 41.1813 178.43 40.48 178.503 39.786ZM180.606 30.7428C180.474 32.2773 180.893 33.8086 181.787 35.0628C182.143 35.4978 182.593 35.8464 183.104 36.0825C183.614 36.3186 184.172 36.436 184.734 36.426C185.295 36.4337 185.851 36.3162 186.36 36.0821C186.87 35.8479 187.321 35.503 187.681 35.0724C188.577 33.8479 189 32.3409 188.871 30.8292C188.986 29.3368 188.548 27.8544 187.643 26.6628C187.289 26.2224 186.84 25.8676 186.329 25.625C185.819 25.3823 185.261 25.2579 184.695 25.2612C184.142 25.2595 183.596 25.3829 183.097 25.6223C182.598 25.8617 182.16 26.2109 181.815 26.6436C180.927 27.8248 180.497 29.2881 180.606 30.762V30.7428Z" fill="#263238"/>
<path d="M205.441 33.7095L208.081 34.0359C207.735 35.4586 206.92 36.7233 205.768 37.6263C204.51 38.5122 202.994 38.9577 201.457 38.8935C200.49 38.9519 199.521 38.805 198.614 38.4625C197.708 38.12 196.884 37.5897 196.196 36.9063C194.831 35.3281 194.142 33.2765 194.276 31.1943C194.133 29.0556 194.821 26.9442 196.196 25.2999C196.843 24.6099 197.63 24.0661 198.504 23.7052C199.379 23.3442 200.32 23.1744 201.265 23.2071C202.187 23.1751 203.105 23.3421 203.956 23.6966C204.808 24.0511 205.573 24.5848 206.2 25.2615C207.558 26.8621 208.246 28.9257 208.12 31.0215C208.12 31.1751 208.12 31.4055 208.12 31.7031H196.897C196.879 33.1114 197.378 34.4775 198.299 35.5431C198.702 35.9712 199.19 36.3095 199.733 36.5361C200.276 36.7628 200.86 36.8725 201.448 36.8583C202.304 36.8799 203.143 36.6202 203.838 36.1191C204.605 35.4974 205.164 34.6569 205.441 33.7095ZM197.07 29.5911H205.441C205.419 28.5562 205.085 27.5521 204.481 26.7111C204.104 26.2361 203.621 25.8554 203.071 25.5988C202.521 25.3423 201.92 25.2169 201.313 25.2327C200.767 25.2192 200.225 25.317 199.718 25.52C199.211 25.723 198.751 26.027 198.366 26.4135C197.527 27.2595 197.052 28.3997 197.041 29.5911H197.07Z" fill="#263238"/>
<path d="M219.312 38.5576V23.4664H221.607V25.6072C222.121 24.8111 222.835 24.1634 223.677 23.7289C224.519 23.2943 225.46 23.088 226.407 23.1304C227.267 23.1201 228.12 23.2867 228.912 23.62C229.589 23.8802 230.18 24.3221 230.621 24.8968C231.018 25.4744 231.289 26.1283 231.418 26.8168C231.528 27.6376 231.573 28.4658 231.552 29.2936V38.548H229.009V29.3992C229.04 28.6105 228.94 27.822 228.711 27.0664C228.504 26.5516 228.133 26.1196 227.655 25.8376C227.114 25.5219 226.496 25.3624 225.869 25.3768C224.835 25.3578 223.831 25.7278 223.057 26.4136C222.269 27.1048 221.876 28.4105 221.876 30.3401V38.5576H219.312Z" fill="#263238"/>
<path d="M234.51 31.031C234.51 28.247 235.284 26.183 236.833 24.839C238.15 23.717 239.836 23.122 241.566 23.1686C242.506 23.1341 243.443 23.2974 244.316 23.648C245.189 23.9986 245.979 24.5286 246.634 25.2038C247.326 25.9588 247.86 26.8446 248.205 27.8091C248.55 28.7736 248.698 29.7972 248.641 30.8198C248.712 32.3904 248.413 33.9558 247.767 35.3894C247.198 36.483 246.316 37.3821 245.233 37.9718C244.123 38.5999 242.87 38.9306 241.594 38.9318C240.644 38.9771 239.694 38.82 238.809 38.4708C237.923 38.1216 237.122 37.5883 236.458 36.9062C235.764 36.1029 235.234 35.1706 234.899 34.1625C234.565 33.1544 234.433 32.0903 234.51 31.031ZM237.13 31.031C237.014 32.5786 237.461 34.116 238.388 35.3606C238.777 35.8222 239.264 36.191 239.814 36.4402C240.364 36.6893 240.962 36.8124 241.566 36.8006C242.167 36.8125 242.764 36.6884 243.311 36.4373C243.858 36.1863 244.341 35.815 244.724 35.351C245.665 34.0837 246.115 32.5183 245.991 30.9446C246.103 29.4271 245.648 27.9219 244.714 26.7206C244.32 26.27 243.833 25.9089 243.288 25.6615C242.742 25.4141 242.15 25.2861 241.551 25.2861C240.952 25.2861 240.36 25.4141 239.815 25.6615C239.269 25.9089 238.783 26.27 238.388 26.7206C237.458 27.9568 237.008 29.4882 237.121 31.031H237.13Z" fill="#263238"/>
<path d="M257.165 36.2729L257.539 38.5289C256.909 38.6718 256.266 38.749 255.619 38.7593C254.877 38.7959 254.137 38.644 253.469 38.3177C252.995 38.0583 252.615 37.6549 252.384 37.1657C252.12 36.1841 252.016 35.1661 252.077 34.1513V25.5113H250.205V23.4665H252.077V19.7801L254.611 18.2441V23.4665H257.175V25.4537H254.611V34.2569C254.584 34.7283 254.629 35.201 254.746 35.6585C254.839 35.8636 254.993 36.0347 255.187 36.1481C255.456 36.2908 255.758 36.3572 256.061 36.3401C256.43 36.3424 256.799 36.3199 257.165 36.2729Z" fill="#263238"/>
<path d="M268.34 38.5572V25.4916H266.084V23.466H268.34V21.9012C268.302 21.1331 268.393 20.3641 268.609 19.626C268.851 18.9603 269.307 18.3934 269.905 18.0132C270.693 17.5585 271.598 17.3449 272.506 17.3988C273.306 17.4089 274.103 17.4924 274.887 17.6484L274.503 19.8756C274.006 19.7824 273.502 19.7342 272.996 19.7316C272.404 19.6763 271.815 19.8556 271.354 20.2308C270.975 20.7697 270.804 21.4282 270.874 22.0836V23.466H273.812V25.4532H270.874V38.5572H268.34Z" fill="#263238"/>
<path d="M274.84 31.031C274.84 28.247 275.614 26.183 277.163 24.839C278.484 23.7172 280.173 23.1224 281.905 23.1686C282.846 23.1341 283.783 23.2974 284.656 23.648C285.529 23.9986 286.319 24.5286 286.974 25.2038C287.663 25.9604 288.193 26.8469 288.534 27.8113C288.876 28.7757 289.021 29.7985 288.961 30.8198C289.035 32.3896 288.739 33.9549 288.097 35.3894C287.527 36.4857 286.641 37.3855 285.553 37.9718C284.447 38.5999 283.197 38.9307 281.924 38.9318C280.974 38.9735 280.026 38.8147 279.141 38.4657C278.256 38.1167 277.454 37.5853 276.788 36.9062C276.094 36.1029 275.564 35.1706 275.229 34.1625C274.895 33.1544 274.763 32.0903 274.84 31.031ZM277.47 31.031C277.349 32.5791 277.796 34.1184 278.728 35.3606C279.121 35.8142 279.608 36.178 280.155 36.4273C280.701 36.6766 281.295 36.8056 281.896 36.8056C282.496 36.8056 283.09 36.6766 283.637 36.4273C284.183 36.178 284.67 35.8142 285.064 35.3606C285.998 34.0901 286.444 32.5263 286.321 30.9542C286.432 29.4384 285.981 27.935 285.054 26.7302C284.659 26.2796 284.173 25.9185 283.628 25.6711C283.082 25.4237 282.49 25.2957 281.891 25.2957C281.292 25.2957 280.7 25.4237 280.154 25.6711C279.609 25.9185 279.122 26.2796 278.728 26.7302C277.789 27.9592 277.332 29.4885 277.441 31.031H277.47Z" fill="#263238"/>
<path d="M301.795 38.556V36.348C301.283 37.1513 300.572 37.808 299.731 38.2539C298.889 38.6999 297.946 38.9197 296.995 38.892C296.139 38.9026 295.291 38.7291 294.508 38.3832C293.835 38.1167 293.246 37.676 292.799 37.1064C292.403 36.5302 292.134 35.8754 292.012 35.1864C291.888 34.3993 291.836 33.6023 291.859 32.8056V23.4648H294.412V31.8168C294.381 32.7157 294.432 33.6154 294.566 34.5048C294.703 35.1383 295.064 35.7008 295.583 36.0888C296.144 36.4849 296.818 36.6871 297.503 36.6648C298.261 36.6652 299.004 36.4594 299.654 36.0696C300.298 35.712 300.802 35.147 301.084 34.4664C301.403 33.5214 301.543 32.5252 301.497 31.5288V23.4648H304.051V38.556H301.795Z" fill="#263238"/>
<path d="M308.074 38.5576V23.4664H310.369V25.6072C310.883 24.8111 311.596 24.1634 312.438 23.7289C313.281 23.2943 314.222 23.088 315.169 23.1304C316.029 23.1201 316.881 23.2867 317.674 23.62C318.35 23.8802 318.942 24.3221 319.383 24.8968C319.779 25.4744 320.051 26.1283 320.18 26.8168C320.29 27.6376 320.335 28.4658 320.314 29.2936V38.548H317.761V29.3992C317.792 28.6105 317.692 27.822 317.463 27.0664C317.256 26.5516 316.885 26.1196 316.407 25.8376C315.866 25.5219 315.248 25.3624 314.621 25.3768C313.587 25.3596 312.584 25.7294 311.809 26.4136C311.021 27.1048 310.628 28.4105 310.628 30.3401V38.5576H308.074Z" fill="#263238"/>
<path d="M333.983 38.5576V36.6376C333.546 37.3545 332.925 37.9405 332.183 38.3341C331.441 38.7277 330.608 38.9143 329.769 38.8744C328.597 38.891 327.447 38.5566 326.467 37.9144C325.439 37.2293 324.627 36.2674 324.124 35.14C323.554 33.8568 323.272 32.464 323.299 31.06C323.279 29.661 323.533 28.2716 324.047 26.9704C324.483 25.8175 325.272 24.8326 326.303 24.1576C327.304 23.5119 328.473 23.1777 329.663 23.1976C330.505 23.1829 331.338 23.381 332.083 23.7736C332.767 24.1273 333.359 24.637 333.811 25.2616V17.7832H336.345V38.5576H333.983ZM325.919 31.0504C325.803 32.5892 326.235 34.1194 327.139 35.3704C327.479 35.8109 327.916 36.1684 328.414 36.4162C328.913 36.6639 329.462 36.7954 330.019 36.8008C330.572 36.8065 331.118 36.6858 331.618 36.4479C332.117 36.21 332.555 35.8611 332.899 35.428C333.766 34.2203 334.178 32.7441 334.06 31.2616C334.192 29.6566 333.772 28.0548 332.87 26.7208C332.527 26.27 332.084 25.9051 331.576 25.6552C331.068 25.4052 330.508 25.2771 329.942 25.2808C329.387 25.2696 328.837 25.3888 328.337 25.6289C327.837 25.869 327.4 26.2233 327.062 26.6632C326.193 27.9531 325.79 29.5006 325.919 31.0504Z" fill="#263238"/>
</g>
<path d="M240 84.9347C249.829 84.9347 257.798 76.9661 257.798 67.1363C257.798 57.3065 249.829 49.3379 240 49.3379C230.17 49.3379 222.201 57.3065 222.201 67.1363C222.201 76.9661 230.17 84.9347 240 84.9347Z" fill="#263238"/>
<path d="M240 82.2859C248.367 82.2859 255.149 75.5035 255.149 67.1371C255.149 58.7706 248.367 51.9883 240 51.9883C231.634 51.9883 224.852 58.7706 224.852 67.1371C224.852 75.5035 231.634 82.2859 240 82.2859Z" fill="white"/>
<path d="M250.244 63.8715H243.14L249.102 46.2363L229.758 70.3995H236.862L230.9 88.0347L250.244 63.8715Z" fill="#005596"/>
<path d="M250.851 80.0984L252.969 77.9805L229.149 54.1606L227.031 56.2785L250.851 80.0984Z" fill="#263238"/>
</svg>
